<svg width="46" height="45" viewBox="0 0 46 45" fill="none" xmlns="http://www.w3.org/2000/svg">
<defs>
<linearGradient id="paint0_linear_414_9511" x1="0.0263088" y1="32.4924" x2="44.3251" y2="35.6743" gradientUnits="userSpaceOnUse">
<stop stop-color="#D72F5D"/>
<stop offset="0.33" stop-color="#D83360"/>
<stop offset="0.64" stop-color="#DA3E68"/>
<stop offset="0.93" stop-color="#DD5077"/>
<stop offset="1" stop-color="#DE567B"/>
</linearGradient>
<linearGradient id="paint1_linear_414_9511" x1="-622.282" y1="4861.94" x2="-17790.4" y2="4861.94" gradientUnits="userSpaceOnUse">
<stop stop-color="#D72F5D"/>
<stop offset="0.33" stop-color="#D83360"/>
<stop offset="0.64" stop-color="#DA3E68"/>
<stop offset="0.93" stop-color="#DD5077"/>
<stop offset="1" stop-color="#DE567B"/>
</linearGradient>
<linearGradient id="paint2_linear_414_9511" x1="38.9258" y1="34.2177" x2="5.65346" y2="34.2177" gradientUnits="userSpaceOnUse">
<stop stop-color="#F0A82C"/>
<stop offset="0.31" stop-color="#EFA42C"/>
<stop offset="0.59" stop-color="#EB992C"/>
<stop offset="0.86" stop-color="#E6872C"/>
<stop offset="1" stop-color="#E27A2C"/>
</linearGradient>
<linearGradient id="paint3_linear_414_9511" x1="-2122.73" y1="2036.37" x2="-8354.23" y2="5954.13" gradientUnits="userSpaceOnUse">
<stop stop-color="#F0A82C"/>
<stop offset="0.31" stop-color="#EFA42C"/>
<stop offset="0.59" stop-color="#EB992C"/>
<stop offset="0.86" stop-color="#E6872C"/>
<stop offset="1" stop-color="#E27A2C"/>
</linearGradient>
<radialGradient id="paint4_radial_414_9511" cx="0" cy="0" r="1" gradientUnits="userSpaceOnUse" gradientTransform="translate(-7418.2 1542.46) rotate(180) scale(3579.4 966.762)">
<stop stop-color="#F0A82C"/>
<stop offset="0.31" stop-color="#EFA42C"/>
<stop offset="0.59" stop-color="#EB992C"/>
<stop offset="0.86" stop-color="#E6872C"/>
<stop offset="1" stop-color="#E27A2C"/>
</radialGradient>
<radialGradient id="paint5_radial_414_9511" cx="0" cy="0" r="1" gradientUnits="userSpaceOnUse" gradientTransform="translate(21.4811 15.9405) rotate(180) scale(12.106 13.053)">
<stop stop-color="#E27A2C"/>
<stop offset="0.28" stop-color="#E4802C"/>
<stop offset="0.66" stop-color="#E9932C"/>
<stop offset="1" stop-color="#F0A82C"/>
</radialGradient>
<radialGradient id="paint6_radial_414_9511" cx="0" cy="0" r="1" gradientUnits="userSpaceOnUse" gradientTransform="translate(-10825.7 84.1369) rotate(180) scale(6548.46 1511.45)">
<stop stop-color="#F0A82C"/>
<stop offset="0.31" stop-color="#EFA42C"/>
<stop offset="0.59" stop-color="#EB992C"/>
<stop offset="0.86" stop-color="#E6872C"/>
<stop offset="1" stop-color="#E27A2C"/>
</radialGradient>
<linearGradient id="paint7_linear_414_9511" x1="-2137.66" y1="513.767" x2="-12557.6" y2="513.767" gradientUnits="userSpaceOnUse">
<stop stop-color="#F0A82C"/>
<stop offset="0.31" stop-color="#EFA42C"/>
<stop offset="0.59" stop-color="#EB992C"/>
<stop offset="0.86" stop-color="#E6872C"/>
<stop offset="1" stop-color="#E27A2C"/>
</linearGradient>
</defs>
<path opacity="0.27" d="M45.7019 35.6101C45.7019 40.6447 35.4097 45.2535 22.7849 44.9896C8.43665 44.6896 -0.00508833 40.2698 -0.00508833 35.2353C-0.00508833 30.2007 10.1979 26.9824 22.8206 26.9824C35.4433 26.9824 45.7019 30.5744 45.7019 35.6101Z" fill="black"/>
<path d="M46 35.0744C46 40.1091 35.7078 44.7179 23.083 44.454C8.73475 44.1539 0.293011 39.7342 0.293011 34.6996C0.293011 29.665 10.5023 26.4468 23.1239 26.4468C35.7456 26.4468 46 30.0398 46 35.0744Z" fill="#B22F5D"/>
<path d="M45.9801 34.5114C45.9801 39.5472 36.2329 43.4834 23.6123 43.4834C10.9917 43.4834 0.267863 39.5528 0.267863 34.5171C0.267863 29.4814 10.5013 25.4014 23.124 25.4014C35.7467 25.4014 45.9801 29.4768 45.9801 34.5114Z" fill="url(#paint0_linear_414_9511)"/>
<path d="M45.2051 34.5069C45.2051 39.1656 35.8129 42.804 23.6533 42.804C11.4938 42.804 1.15535 39.1656 1.15535 34.5069C1.15535 29.8483 11.0149 26.0718 23.1776 26.0718C35.3403 26.0718 45.2051 29.8483 45.2051 34.5069Z" fill="#B22F5D"/>
<path d="M44.3511 34.7182C44.3511 39.1175 35.2992 42.5531 23.5734 42.5531C11.8476 42.5531 1.89035 39.1175 1.89035 34.7182C1.89035 30.3188 11.396 26.7529 23.1228 26.7529C34.8497 26.7529 44.3511 30.3188 44.3511 34.7182Z" fill="url(#paint1_linear_414_9511)"/>
<path d="M39.1117 35.5374L38.1518 38.0366L32.2894 39.9651L25.8315 40.6434L21.1948 40.3218L18.1817 39.4294L14.572 37.929L39.0455 32.9307L39.1117 35.5374Z" fill="#914004"/>
<path d="M41.9925 35.5374C41.9925 35.5374 42.1259 35.466 40.9328 35.1795C39.7398 34.8931 41.0662 34.2521 40.7343 32.9657C40.4024 31.6793 37.8861 31.2535 36.1648 31.5378C34.4435 31.822 35.8991 35.0369 35.8991 35.0369L38.0856 36.68L41.9925 35.5374Z" fill="#914004"/>
<path d="M38.8134 32.5374C38.8134 32.5374 39.0791 33.3947 38.7472 35.108C38.4153 36.8213 36.297 38.2503 34.5085 38.5368C32.72 38.8233 27.9509 39.6794 25.4345 39.6794C22.9182 39.6794 19.4734 39.3216 17.6187 38.8935C15.764 38.4655 10.7303 37.0364 9.60445 36.8224C8.47861 36.6084 6.3582 35.3231 5.89505 34.8973C5.4319 34.4716 5.29852 32.6835 5.69655 32.2555C6.09459 31.8274 9.28938 32.5227 9.28938 32.5227L38.8134 32.5374Z" fill="#FFEDC4"/>
<path d="M34.8561 30.5193C34.8561 30.5193 37.3063 30.5907 38.4994 31.8782C39.6924 33.1657 38.3671 36.0556 34.7186 37.0555C31.0701 38.0554 22.2996 38.3407 19.2529 37.8051C16.2062 37.2695 10.9403 35.7668 9.64853 35.3773C8.35675 34.9877 4.71246 33.0921 5.87296 31.449C7.03346 29.8059 34.8561 30.5193 34.8561 30.5193Z" fill="url(#paint2_linear_414_9511)"/>
<path d="M36.1142 30.3484C36.1142 30.3484 36.2634 30.7764 35.419 31.5804C34.5746 32.3844 33.6336 32.5441 32.7861 32.6516C31.9385 32.7592 30.6005 34.1509 28.2165 34.365C25.8325 34.579 23 34.9538 18.1343 35.2222C13.2686 35.4905 9.24201 33.074 8.09726 32.86C6.95251 32.646 5.26164 31.628 5.11671 30.8217C4.97178 30.0154 5.21648 29.1084 5.21648 29.1084L36.1142 30.3484Z" fill="#FFEDC4"/>
<path d="M24.9209 33.2687C24.9209 33.2687 22.3373 33.4476 19.9197 33.6979C17.5021 33.9481 13.8284 34.2335 9.28928 32.5191C4.75019 30.8046 4.05704 28.4844 6.83909 27.7347C9.62115 26.9851 28.5305 32.6617 28.5305 32.6617C28.5305 32.6617 27.4372 33.2687 24.9209 33.2687Z" fill="#E2952C"/>
<path opacity="0.18" d="M36.7108 23.9312C37.103 24.3835 37.5174 24.8129 37.9522 25.2175C38.6485 25.8596 37.3567 25.931 37.007 27.377C36.6573 28.8231 36.9219 29.4153 36.088 30.2873C34.8278 31.6087 33.0424 31.7967 31.2192 32.5101C29.4821 33.1896 26.8198 33.9154 24.3927 33.7693C20.5352 33.5372 18.2499 34.0196 16.7596 33.7512C15.2694 33.4829 13.7969 32.6188 12.4211 32.1353C10.4341 31.4389 9.55507 30.6372 8.34731 29.7697C5.51169 27.7314 6.56192 26.7701 6.56192 26.1812C6.56192 25.5924 7.45566 26.068 8.84617 25.1621C10.2367 24.2561 36.7108 23.9312 36.7108 23.9312Z" fill="black"/>
<path d="M36.711 23.7534C37.1034 24.2052 37.5178 24.6343 37.9524 25.0387C38.6487 25.6819 39.1948 26.1631 38.8472 27.6092C38.4995 29.0553 37.3065 29.5343 36.4127 30.3417C35.519 31.1491 32.5878 33.1806 30.7499 33.3991C28.912 33.6177 27.2726 33.8804 24.8382 33.9347C22.4037 33.9891 18.6786 33.6131 17.1883 33.3448C15.698 33.0764 13.4967 32.1671 12.121 31.6847C10.1339 30.9883 9.55314 30.464 8.34013 29.5954C5.50451 27.5571 6.55474 26.5968 6.55474 26.0069C6.55474 25.4169 7.44848 25.9004 8.83899 24.9877C10.2295 24.075 36.711 23.7534 36.711 23.7534Z" fill="#FFEDC4"/>
<path d="M36.4122 23.522C36.4122 23.522 38.5316 24.3792 38.8582 26.0574C39.1848 27.7356 36.7714 29.4851 35.1488 29.9132C33.5262 30.3412 31.9697 31.9515 29.32 32.4848C26.6703 33.0182 22.9945 32.8053 19.6831 32.6275C16.3718 32.4497 12.7285 31.2686 10.6753 30.1272C8.62212 28.9857 6.30322 28.4852 6.46916 26.4141C6.63509 24.343 8.78701 24.3067 8.78701 24.3067L36.4122 23.522Z" fill="url(#paint3_linear_414_9511)"/>
<path opacity="0.18" d="M37.5875 24.2183C37.5875 24.2183 37.3565 25.9316 34.4085 26.8601C31.4605 27.7887 28.481 27.9495 27.123 27.8793C25.7651 27.8091 23.5964 28.022 21.5096 27.9857C19.4228 27.9495 15.2009 26.6472 14.3733 26.6472C13.5457 26.6472 10.2658 25.8263 9.13999 25.6836C8.01415 25.5409 7.3546 24.755 7.64972 24.5761C7.94483 24.3972 12.2529 25.3257 12.2529 25.3257L20.4005 26.611L30.7327 26.5046L35.8 25.3971L37.5854 24.2194" fill="black"/>
<path d="M37.952 22.5486C37.952 22.5486 38.0518 23.9958 37.0908 24.8258C36.6875 25.1746 34.2436 27.1823 29.8715 27.111C25.4994 27.0396 22.3215 27.6104 18.5459 26.897C14.7703 26.1835 11.6574 25.683 9.6704 25.2527C7.68336 24.8224 5.63017 23.5394 5.96099 21.6109C6.29181 19.6825 37.952 22.5486 37.952 22.5486Z" fill="#FFEDC4"/>
<path d="M36.1478 19.9502C36.1478 19.9502 37.9332 20.2367 38.0025 22.0927C38.0718 23.9487 34.6901 25.5917 30.9817 25.8782C27.2734 26.1647 23.9599 26.2349 19.9858 25.8069C16.0118 25.3789 12.2372 25.0924 9.25669 23.9498C6.27614 22.8072 4.81842 20.9501 7.20349 20.8074C9.58856 20.6647 36.1478 19.9502 36.1478 19.9502Z" fill="#E2802C"/>
<path d="M37.6045 18.3791C37.6045 18.3791 38.0519 18.9679 37.3567 20.5748C36.6614 22.1817 34.0779 22.9857 32.9846 23.3605C31.8913 23.7353 28.5138 24.3241 26.6265 25.0206C24.7392 25.717 22.9003 25.3954 21.3113 25.1281C19.7223 24.8609 16.8898 24.2222 15.4993 24.0569C14.1088 23.8916 10.4813 23.6821 7.89881 21.7004C5.3163 19.7187 5.41502 18.0043 5.56626 17.2546C5.71749 16.505 37.6045 18.3791 37.6045 18.3791Z" fill="#FFEDC4"/>
<path d="M36.611 15.5942C36.611 15.5942 38.3964 17.5193 37.3399 20.0219C36.2834 22.5244 32.9027 22.3082 29.7887 23.5221C26.6748 24.736 21.5098 24.2332 18.5292 23.667C15.5487 23.1008 12.7666 23.8097 8.65709 21.2392C4.54755 18.6687 5.2134 16.0302 6.73623 16.0302C8.25906 16.0302 36.611 15.5942 36.611 15.5942Z" fill="url(#paint4_radial_414_9511)"/>
<path d="M38.052 15.273C38.052 15.273 38.3996 16.3443 37.655 17.0939C36.9104 17.8436 33.681 19.182 32.1938 20.0381C30.7067 20.8942 26.0332 22.1806 20.9669 21.431C15.9006 20.6813 13.1679 20.3597 11.7249 20.1989C10.2819 20.0381 8.19821 19.7165 6.75729 18.5388C6.22048 18.1031 5.77474 17.5505 5.44904 16.9168C5.12335 16.2831 4.925 15.5826 4.86688 14.8609C4.81752 14.0036 9.58661 14.3785 9.58661 14.3785L38.0478 15.2719" fill="#FFEDC4"/>
<path d="M34.6236 11.3804C34.6236 11.3804 37.9361 11.7382 38.0684 14.5228C38.2007 17.3073 35.0227 17.5938 32.7689 18.665C30.5151 19.7363 24.5561 20.7362 21.3771 20.4508C18.1981 20.1654 14.8856 19.2369 11.505 19.0919C8.12428 18.947 6.93437 16.8781 5.87469 16.1636C4.81501 15.449 4.35186 14.5205 5.80853 13.3779C7.26519 12.2353 34.6236 11.3804 34.6236 11.3804Z" fill="url(#paint5_radial_414_9511)"/>
<path d="M37.886 33.9715C37.886 33.9715 38.3502 32.7576 36.9587 32.6126C35.5671 32.4677 34.6408 33.1788 33.515 33.3272C32.3891 33.4755 29.8056 34.1833 28.2166 34.3622C26.6276 34.5411 22.3216 34.9691 22.3216 34.9691C22.3216 34.9691 21.5266 35.6123 23.3813 35.8264C25.236 36.0404 30.9314 36.3257 31.3295 37.3256C31.7275 38.3255 30.9976 39.1114 30.5344 39.3254C30.0713 39.5395 27.2892 39.8611 26.2285 39.9324C25.1678 40.0037 20.8629 39.826 18.6774 39.253C16.4918 38.68 13.4451 37.7537 12.4516 37.611C12.4516 37.611 15.5645 38.6822 17.0211 39.3243C18.4778 39.9664 22.2544 41.3954 25.4335 41.1814C28.6125 40.9674 30.6668 40.5394 32.4521 40.3933C34.2375 40.2472 38.032 39.3436 40.0695 38.4682C42.0565 37.6121 42.9166 36.6122 42.3873 35.7505C41.858 34.8887 40.0022 35.7505 39.9361 35.1073C39.8699 34.4641 38.9247 34.6238 38.7441 35.8581C38.6453 36.5375 37.5521 38.2497 32.386 39.1069C32.386 39.1069 31.9218 38.8215 32.0541 38.0356C32.1864 37.2498 32.7168 37.5363 34.6377 36.8217C36.5585 36.1072 37.4932 35.4663 37.886 33.9715Z" fill="#914004"/>
<path d="M25.1025 6.11389C23.8039 6.11389 22.7511 5.92225 22.7511 5.68585C22.7511 5.44945 23.8039 5.25781 25.1025 5.25781C26.4012 5.25781 27.454 5.44945 27.454 5.68585C27.454 5.92225 26.4012 6.11389 25.1025 6.11389Z" fill="#6C3200"/>
<path opacity="0.18" d="M30.7991 18.0847C30.6499 18.1289 26.9248 19.6825 22.3048 19.2001C17.6849 18.7177 15.2998 17.326 14.3063 17.2185C13.3128 17.1109 9.19062 15.6116 8.09733 15.3444C7.00405 15.0771 5.51377 14.058 6.35816 13.1475C7.20254 12.2371 30.7991 18.0847 30.7991 18.0847Z" fill="black"/>
<path d="M37.8282 13.5767C37.8282 13.5767 37.7537 14.4419 37.4554 14.6831C37.1572 14.9243 37.4554 15.1122 36.9839 15.4599C36.5123 15.8075 33.4068 17.3849 30.7991 18.0848C28.1914 18.7846 25.2108 19.2364 21.4604 18.5128C17.7101 17.7892 16.244 17.0135 14.2821 16.4507C12.3203 15.8879 9.71153 14.9514 8.27062 14.5766C6.82971 14.2018 6.63226 13.7454 6.45793 13.425C6.28359 13.1045 6.23423 12.3798 6.50729 12.219C6.78035 12.0582 10.2083 13.3446 10.2083 13.3446L23.4475 14.1746L37.8282 13.5767Z" fill="#FFEDC4"/>
<path d="M36.8632 10.5596C36.8632 10.5596 37.6078 10.9344 37.8084 12.3805C38.009 13.8265 37.7591 14.4188 36.4179 14.8978C35.0768 15.3768 32.593 16.9361 29.2648 17.5226C25.9366 18.1092 23.0055 17.7366 18.4349 16.7198C13.8643 15.7029 10.388 14.0417 8.79797 13.7201C7.20792 13.3985 6.21545 12.5945 6.56308 12.0589C6.91071 11.5232 9.54363 11.5232 9.54363 11.5232L36.8632 10.5596Z" fill="url(#paint6_radial_414_9511)"/>
<path d="M35.6921 11.7285C35.6921 11.7285 38.0184 12.3978 37.8199 13.4747C37.6214 14.5516 34.8393 15.5458 34.31 15.7598C33.7807 15.9738 33.6473 17.0451 34.1105 17.0451C34.5736 17.0451 35.9652 16.3317 36.0314 16.9737C36.0975 17.6158 33.7471 18.0812 32.7693 18.6723C31.7916 19.2634 31.0638 20.4762 31.8588 20.4049C32.6538 20.3335 35.5766 19.9757 35.2458 21.1896C34.915 22.4035 33.3165 22.0468 31.3295 23.0467C29.3425 24.0466 30.9976 24.4056 32.1907 24.118C34.1021 23.665 35.3697 25.0465 32.6538 25.5459C29.9379 26.0453 29.4065 26.3239 29.6733 27.1766C29.94 28.0293 32.5877 27.8198 33.3827 28.1765C34.1777 28.5332 34.1105 29.8184 32.1907 30.4616C30.2709 31.1048 29.5409 30.1763 28.2828 30.747C27.0246 31.3177 25.3022 31.4615 24.7057 30.4616C24.1092 29.4617 26.3619 28.3905 27.2893 27.8911C28.2166 27.3917 29.5409 27.0339 28.6798 26.3907C27.8186 25.7475 26.4942 26.3907 26.5604 25.6048C26.6266 24.8189 28.6798 24.8914 29.2101 24.3195C29.7405 23.7477 29.5409 23.0343 27.7524 23.177C25.9639 23.3196 25.6257 22.3152 26.7505 21.7411C27.8753 21.167 29.8718 21.2496 30.336 20.6789C30.8002 20.1082 31.3295 18.8218 30.5345 18.8218C29.7394 18.8218 28.5884 20.0051 28.1662 19.3302C27.8375 18.8059 29.9379 18.3394 30.7991 18.0846C31.6603 17.8298 33.097 17.3123 33.097 17.3123C33.097 17.3123 33.8458 16.8967 33.2503 15.7542C32.6549 14.6116 30.9314 15.8255 28.9444 15.0408C26.9574 14.256 28.8814 12.7329 31.1919 12.5178C32.7069 12.3653 34.2104 12.1016 35.6921 11.7285V11.7285Z" fill="#914004"/>
<path opacity="0.18" d="M37.3065 10.8984L37.6552 11.6481C37.6552 11.6481 35.7647 13.2549 30.9484 13.2017C26.132 13.1485 24.8382 13.469 23.5464 12.9333C22.2546 12.3977 18.1325 12.8201 17.2377 12.8201C16.3429 12.8201 11.7765 12.4996 10.3324 11.964C8.88835 11.4284 37.3065 10.8984 37.3065 10.8984Z" fill="black"/>
<path d="M39.0946 6.91797C39.0941 7.12784 39.0607 7.3361 38.9958 7.53399C38.8908 7.77405 39.1943 8.15001 39.1943 8.76603C39.1943 9.38204 38.6482 10.2381 36.7105 11.2833C34.7729 12.3285 31.8921 12.5414 28.2657 12.675C24.6392 12.8086 25.5351 12.3806 20.5654 12.1938C15.5957 12.0069 16.9148 12.8098 11.6489 12.1666C6.3831 11.5234 6.28333 10.6945 6.1594 10.4793C6.03547 10.2642 5.88109 9.43527 5.98611 9.17255C6.09113 8.90984 8.04771 8.53049 8.04771 8.53049L39.0946 6.91797Z" fill="#FFEDC4"/>
<path d="M38.6975 7.81309C38.6975 7.81309 38.5316 7.59907 38.9296 7.2469C39.3277 6.89473 38.9958 5.96164 37.8027 4.99798C36.6097 4.03431 31.7114 1.8556 23.298 2.24854C14.8846 2.64148 8.9582 5.70345 7.89852 6.52444C6.83884 7.34542 6.04382 7.98861 6.07637 8.88093C6.07637 8.88093 5.67939 9.52413 6.80523 9.66681C7.93108 9.80949 9.91811 10.1662 11.7728 10.4516C13.6275 10.7369 18.8272 11.0178 21.8403 10.7381C24.8534 10.4584 27.2385 11.2737 31.3785 10.8807C35.5185 10.4878 37.8773 9.95444 38.6975 8.88093C39.1607 8.27397 38.6975 7.81309 38.6975 7.81309Z" fill="url(#paint7_linear_414_9511)"/>
<path d="M25.8358 4.57847C25.8358 4.57847 30.6542 4.52525 30.2572 5.52968C29.8603 6.53411 28.3196 5.79352 27.7241 7.0618C27.1286 8.33007 31.6477 7.85447 33.2903 7.80125C34.9329 7.74803 36.065 8.91778 35.6554 10.0422C35.1082 11.5427 34.2597 11.2992 34.8394 11.9673C34.8972 12.0341 34.3762 12.11 34.3762 12.11C34.3762 12.11 34.1032 11.9265 34.4256 11.0195C34.8016 9.96524 32.6402 9.5406 30.7004 9.85767C28.7607 10.1747 22.8017 10.228 21.0131 10.3333C19.2246 10.4386 16.6914 10.6503 16.1453 9.96298C15.5992 9.27562 17.4865 9.75575 17.2869 8.75132C17.0874 7.74689 14.8535 8.48748 12.1713 8.11832C9.48898 7.74916 10.6306 6.2159 12.1713 5.79352C13.7119 5.37114 10.1842 5.42323 8.49546 6.26913C6.8067 7.11502 7.84957 5.63499 9.8366 4.94763C11.8236 4.26027 16.3942 4.63169 19.3748 4.84232C22.3553 5.05294 23.1987 4.63169 25.8358 4.57847Z" fill="#914004"/>
<path opacity="0.18" d="M6.75587 18.5403C8.19678 19.718 10.2825 20.0396 11.7234 20.2004C13.1644 20.3612 15.896 20.6828 20.9655 21.4324C26.0349 22.1821 30.7021 20.8968 32.1924 20.0396C33.5451 19.2617 36.3324 18.0862 37.391 17.3151L37.5076 17.3264C37.5076 17.3264 37.6063 17.6118 37.6063 18.3795C37.6063 19.1473 35.2223 19.4689 33.8255 20.1109C32.4287 20.753 29.1068 21.8967 26.623 22.1821C24.1392 22.4674 20.5128 22.2534 18.3766 21.8786C16.2405 21.5038 12.3662 20.7541 11.3223 20.8595C10.2783 20.9648 5.56071 20.2933 5.56071 17.2539C5.56105 17.2191 5.56564 17.1844 5.57436 17.1509C5.88606 17.6881 6.28653 18.159 6.75587 18.5403V18.5403Z" fill="black"/>
<path opacity="0.18" d="M32.9842 23.3604C34.0775 22.9856 36.66 22.1816 37.3563 20.5747C37.3563 20.5747 37.7533 20.8068 37.9518 21.5033C37.9518 21.5033 36.3628 23.0037 34.7234 23.4283C33.084 23.853 31.6935 24.4475 30.5508 24.0715C30.5286 24.0669 30.5077 24.057 30.4895 24.0425C30.4713 24.028 30.4564 24.0093 30.4458 23.9877C31.5254 23.7443 32.4895 23.5302 32.9842 23.3604Z" fill="black"/>
<path d="M32.2421 7.76589C32.2421 7.83525 32.2613 7.90303 32.2972 7.96056C32.3332 8.0181 32.3842 8.06278 32.4438 8.08889C32.5034 8.115 32.5689 8.12136 32.6318 8.10715C32.6948 8.09294 32.7524 8.05881 32.7973 8.00912C32.8422 7.95944 32.8723 7.89645 32.8838 7.8282C32.8953 7.75996 32.8877 7.68957 32.8619 7.62602C32.8362 7.56247 32.7934 7.50865 32.7391 7.47143C32.6848 7.43422 32.6215 7.41531 32.5572 7.41711C32.4728 7.41919 32.3925 7.45688 32.3335 7.5221C32.2746 7.58731 32.2418 7.67485 32.2421 7.76589V7.76589Z" fill="#D72F5D"/>
<path d="M29.8549 8.99705C29.6769 8.99705 29.5325 8.8414 29.5325 8.6494C29.5325 8.4574 29.6769 8.30176 29.8549 8.30176C30.033 8.30176 30.1774 8.4574 30.1774 8.6494C30.1774 8.8414 30.033 8.99705 29.8549 8.99705Z" fill="#F6605D"/>
<path d="M28.7868 8.00535C28.7866 8.07438 28.8054 8.14193 28.8408 8.19943C28.8762 8.25693 28.9266 8.30181 28.9857 8.32838C29.0448 8.35495 29.1099 8.36202 29.1727 8.34869C29.2355 8.33537 29.2933 8.30224 29.3386 8.25351C29.3839 8.20477 29.4149 8.14263 29.4274 8.07495C29.44 8.00726 29.4336 7.93708 29.4092 7.87328C29.3847 7.80948 29.3433 7.75495 29.2901 7.71657C29.2368 7.6782 29.1743 7.65772 29.1102 7.65771C29.0246 7.65771 28.9425 7.6943 28.8819 7.75947C28.8213 7.82463 28.7871 7.91305 28.7868 8.00535V8.00535Z" fill="#D72F5D"/>
<path d="M11.8477 7.5781C11.6697 7.5781 11.5253 7.42245 11.5253 7.23046C11.5253 7.03846 11.6697 6.88281 11.8477 6.88281C12.0258 6.88281 12.1702 7.03846 12.1702 7.23046C12.1702 7.42245 12.0258 7.5781 11.8477 7.5781Z" fill="#D72F5D"/>
<path d="M9.66232 5.41746C9.48425 5.41746 9.3399 5.26181 9.3399 5.06981C9.3399 4.87781 9.48425 4.72217 9.66232 4.72217C9.84039 4.72217 9.98474 4.87781 9.98474 5.06981C9.98474 5.26181 9.84039 5.41746 9.66232 5.41746Z" fill="#D72F5D"/>
<path d="M30.2036 14.7807C30.0255 14.7807 29.8812 14.6251 29.8812 14.4331C29.8812 14.2411 30.0255 14.0854 30.2036 14.0854C30.3816 14.0854 30.526 14.2411 30.526 14.4331C30.526 14.6251 30.3816 14.7807 30.2036 14.7807Z" fill="#D72F5D"/>
<path d="M33.5559 34.9746C33.5557 35.0436 33.5745 35.1112 33.6099 35.1687C33.6454 35.2262 33.6958 35.2711 33.7549 35.2976C33.814 35.3242 33.8791 35.3313 33.9419 35.3179C34.0047 35.3046 34.0624 35.2715 34.1078 35.2227C34.1531 35.174 34.184 35.1119 34.1966 35.0442C34.2092 34.9765 34.2028 34.9063 34.1784 34.8425C34.1539 34.7787 34.1124 34.7242 34.0592 34.6858C34.006 34.6474 33.9434 34.627 33.8794 34.627C33.7938 34.627 33.7117 34.6635 33.6511 34.7287C33.5904 34.7939 33.5562 34.8823 33.5559 34.9746V34.9746Z" fill="#D72F5D"/>
<path d="M25.1362 9.10447C24.9581 9.10447 24.8138 8.94882 24.8138 8.75682C24.8138 8.56483 24.9581 8.40918 25.1362 8.40918C25.3143 8.40918 25.4586 8.56483 25.4586 8.75682C25.4586 8.94882 25.3143 9.10447 25.1362 9.10447Z" fill="#F6605D"/>
<path d="M28.8811 35.2433C28.8811 35.3123 28.9001 35.3797 28.9356 35.4371C28.9712 35.4944 29.0217 35.5391 29.0808 35.5655C29.1399 35.5919 29.205 35.5988 29.2677 35.5854C29.3305 35.5719 29.3881 35.5387 29.4333 35.4899C29.4786 35.4412 29.5094 35.379 29.5219 35.3113C29.5343 35.2437 29.5279 35.1736 29.5035 35.1098C29.479 35.0461 29.4375 34.9916 29.3843 34.9533C29.3311 34.915 29.2686 34.8945 29.2046 34.8945C29.1188 34.8945 29.0365 34.9313 28.9759 34.9967C28.9152 35.0621 28.8811 35.1508 28.8811 35.2433V35.2433Z" fill="#F6605D"/>
<path d="M28.4148 29.6719C28.2367 29.6719 28.0923 29.5162 28.0923 29.3242C28.0923 29.1322 28.2367 28.9766 28.4148 28.9766C28.5928 28.9766 28.7372 29.1322 28.7372 29.3242C28.7372 29.5162 28.5928 29.6719 28.4148 29.6719Z" fill="#F6605D"/>
<path d="M31.8922 22.2002C31.7141 22.2002 31.5698 22.0445 31.5698 21.8525C31.5698 21.6605 31.7141 21.5049 31.8922 21.5049C32.0702 21.5049 32.2146 21.6605 32.2146 21.8525C32.2146 22.0445 32.0702 22.2002 31.8922 22.2002Z" fill="#F6605D"/>
<path d="M16.6167 9.77391C16.4386 9.77391 16.2943 9.61826 16.2943 9.42626C16.2943 9.23426 16.4386 9.07861 16.6167 9.07861C16.7947 9.07861 16.9391 9.23426 16.9391 9.42626C16.9391 9.61826 16.7947 9.77391 16.6167 9.77391Z" fill="#F6605D"/>
<path d="M36.5616 13.8174C36.3835 13.8174 36.2392 13.6617 36.2392 13.4697C36.2392 13.2777 36.3835 13.1221 36.5616 13.1221C36.7397 13.1221 36.884 13.2777 36.884 13.4697C36.884 13.6617 36.7397 13.8174 36.5616 13.8174Z" fill="#F6605D"/>
<path d="M28.3899 4.73876C28.3897 4.80779 28.4085 4.87533 28.4439 4.93283C28.4793 4.99034 28.5298 5.03522 28.5889 5.06179C28.648 5.08836 28.713 5.09543 28.7759 5.0821C28.8387 5.06877 28.8964 5.03564 28.9418 4.98691C28.9871 4.93818 29.018 4.87604 29.0306 4.80835C29.0431 4.74066 29.0368 4.67048 29.0123 4.60668C28.9879 4.54288 28.9464 4.48835 28.8932 4.44997C28.84 4.4116 28.7774 4.39111 28.7134 4.39111C28.6278 4.39111 28.5457 4.4277 28.485 4.49287C28.4244 4.55803 28.3902 4.64645 28.3899 4.73876V4.73876Z" fill="#F6605D"/>
<path d="M12.7623 6.532C12.7273 6.56992 12.7036 6.61814 12.694 6.6706C12.6844 6.72305 12.6895 6.77739 12.7085 6.82675C12.7276 6.87611 12.7597 6.91828 12.801 6.94795C12.8422 6.97762 12.8907 6.99345 12.9403 6.99345C12.9899 6.99345 13.0383 6.97762 13.0796 6.94795C13.1208 6.91828 13.153 6.87611 13.172 6.82675C13.1911 6.77739 13.1961 6.72305 13.1866 6.6706C13.177 6.61814 13.1532 6.56992 13.1183 6.532C13.071 6.48118 13.007 6.45264 12.9403 6.45264C12.8735 6.45264 12.8095 6.48118 12.7623 6.532V6.532Z" fill="#F6605D"/>
<path d="M11.3847 4.92214C11.2461 4.92214 11.1337 4.80097 11.1337 4.6515C11.1337 4.50203 11.2461 4.38086 11.3847 4.38086C11.5234 4.38086 11.6357 4.50203 11.6357 4.6515C11.6357 4.80097 11.5234 4.92214 11.3847 4.92214Z" fill="#F6605D"/>
<path d="M27.496 8.04662C27.496 8.08626 27.5069 8.12502 27.5273 8.15798C27.5478 8.19094 27.5768 8.21663 27.6108 8.2318C27.6447 8.24697 27.6821 8.25094 27.7182 8.2432C27.7542 8.23547 27.7874 8.21638 27.8134 8.18835C27.8393 8.16032 27.8571 8.12461 27.8642 8.08573C27.8714 8.04685 27.8677 8.00655 27.8536 7.96992C27.8396 7.9333 27.8158 7.90199 27.7852 7.87997C27.7546 7.85795 27.7187 7.84619 27.6819 7.84619C27.6326 7.84619 27.5853 7.86731 27.5505 7.9049C27.5156 7.94248 27.496 7.99347 27.496 8.04662Z" fill="#F6605D"/>
<path d="M26.241 9.78735C26.2408 9.82726 26.2516 9.86634 26.272 9.89964C26.2924 9.93293 26.3215 9.95894 26.3557 9.97437C26.3898 9.9898 26.4274 9.99396 26.4638 9.98631C26.5001 9.97866 26.5335 9.95955 26.5597 9.93141C26.586 9.90326 26.6039 9.86735 26.6112 9.82822C26.6185 9.78909 26.6149 9.7485 26.6007 9.71161C26.5866 9.67471 26.5627 9.64316 26.5319 9.62096C26.5011 9.59877 26.465 9.58691 26.4279 9.58691C26.3785 9.58691 26.3312 9.60799 26.2961 9.64555C26.2611 9.68311 26.2413 9.73408 26.241 9.78735V9.78735Z" fill="#F6605D"/>
<path d="M34.7733 14.4333C34.7731 14.4733 34.7839 14.5123 34.8043 14.5456C34.8247 14.5789 34.8539 14.6049 34.888 14.6204C34.9221 14.6358 34.9598 14.64 34.9961 14.6323C35.0324 14.6247 35.0658 14.6055 35.0921 14.5774C35.1183 14.5493 35.1362 14.5133 35.1435 14.4742C35.1508 14.4351 35.1472 14.3945 35.1331 14.3576C35.119 14.3207 35.095 14.2892 35.0642 14.267C35.0335 14.2448 34.9973 14.2329 34.9603 14.2329C34.9109 14.2329 34.8635 14.254 34.8285 14.2915C34.7934 14.3291 34.7736 14.3801 34.7733 14.4333V14.4333Z" fill="#F6605D"/>
<path d="M33.0969 21.3036C33.0969 21.3435 33.1079 21.3825 33.1285 21.4157C33.1491 21.4489 33.1784 21.4747 33.2126 21.4899C33.2468 21.5052 33.2845 21.5091 33.3207 21.5012C33.357 21.4934 33.3903 21.474 33.4164 21.4457C33.4425 21.4174 33.4603 21.3814 33.4674 21.3422C33.4745 21.3031 33.4706 21.2625 33.4563 21.2257C33.442 21.1889 33.4179 21.1575 33.387 21.1355C33.3561 21.1135 33.3199 21.1018 33.2828 21.1021C33.2583 21.1021 33.2341 21.1073 33.2115 21.1174C33.1888 21.1276 33.1683 21.1424 33.151 21.1612C33.1337 21.1799 33.1201 21.2021 33.1108 21.2266C33.1015 21.251 33.0968 21.2772 33.0969 21.3036V21.3036Z" fill="#F6605D"/>
<path d="M28.8739 14.1658C28.8737 14.2057 28.8845 14.2448 28.9049 14.2781C28.9253 14.3113 28.9545 14.3374 28.9886 14.3528C29.0227 14.3682 29.0604 14.3724 29.0967 14.3647C29.133 14.3571 29.1664 14.338 29.1927 14.3098C29.2189 14.2817 29.2368 14.2458 29.2441 14.2066C29.2514 14.1675 29.2478 14.1269 29.2337 14.09C29.2196 14.0531 29.1956 14.0216 29.1648 13.9994C29.1341 13.9772 29.0979 13.9653 29.0609 13.9653C29.0115 13.9653 28.9641 13.9864 28.929 14.024C28.894 14.0615 28.8742 14.1125 28.8739 14.1658Z" fill="#F6605D"/>
<path d="M17.623 9.2919C17.6232 9.33149 17.6343 9.37013 17.6548 9.40294C17.6754 9.43576 17.7045 9.46127 17.7385 9.47627C17.7724 9.49126 17.8098 9.49507 17.8458 9.48721C17.8818 9.47935 17.9148 9.46017 17.9407 9.4321C17.9666 9.40402 17.9842 9.3683 17.9913 9.32945C17.9983 9.29061 17.9946 9.25036 17.9805 9.2138C17.9664 9.17725 17.9426 9.14601 17.912 9.12403C17.8815 9.10206 17.8456 9.09033 17.8089 9.09033C17.7844 9.09033 17.7601 9.09555 17.7375 9.1057C17.7149 9.11584 17.6943 9.13071 17.6771 9.14944C17.6598 9.16817 17.6461 9.1904 17.6368 9.21485C17.6275 9.2393 17.6228 9.26548 17.623 9.2919Z" fill="#F6605D"/>
<path d="M33.7924 8.55444C33.7922 8.5944 33.803 8.63353 33.8235 8.66685C33.8439 8.70017 33.8731 8.72618 33.9073 8.74157C33.9415 8.75697 33.9792 8.76106 34.0155 8.75332C34.0519 8.74557 34.0853 8.72635 34.1115 8.6981C34.1377 8.66984 34.1555 8.63382 34.1627 8.59462C34.1699 8.55541 34.1661 8.51479 34.1518 8.47791C34.1375 8.44104 34.1134 8.40957 34.0825 8.3875C34.0516 8.36544 34.0153 8.35378 33.9783 8.35401C33.9291 8.3543 33.8819 8.37552 33.8471 8.41304C33.8123 8.45057 33.7927 8.50137 33.7924 8.55444V8.55444Z" fill="#F6605D"/>
<path d="M29.0724 5.34106C29.0722 5.38097 29.083 5.42005 29.1034 5.45335C29.1238 5.48665 29.1529 5.51266 29.1871 5.52809C29.2212 5.54352 29.2588 5.54767 29.2952 5.54002C29.3315 5.53237 29.3649 5.51327 29.3912 5.48512C29.4174 5.45698 29.4353 5.42106 29.4426 5.38193C29.4499 5.3428 29.4463 5.30222 29.4322 5.26532C29.418 5.22842 29.3941 5.19687 29.3633 5.17468C29.3326 5.15248 29.2964 5.14063 29.2594 5.14063C29.21 5.14062 29.1626 5.1617 29.1275 5.19926C29.0925 5.23682 29.0727 5.2878 29.0724 5.34106V5.34106Z" fill="#F6605D"/>
<path d="M26.1044 7.04223C26.1042 7.08214 26.115 7.12122 26.1354 7.15452C26.1558 7.18782 26.1849 7.21383 26.2191 7.22926C26.2532 7.24469 26.2908 7.24884 26.3272 7.24119C26.3635 7.23354 26.3969 7.21443 26.4231 7.18629C26.4494 7.15815 26.4673 7.12223 26.4746 7.0831C26.4819 7.04397 26.4783 7.00339 26.4641 6.96649C26.45 6.92959 26.4261 6.89805 26.3953 6.87585C26.3645 6.85365 26.3284 6.8418 26.2913 6.8418C26.2419 6.8418 26.1945 6.86288 26.1595 6.90043C26.1245 6.93799 26.1047 6.98897 26.1044 7.04223V7.04223Z" fill="#F6605D"/>
<path d="M31.3083 35.9792C31.308 36.0192 31.3189 36.0583 31.3393 36.0917C31.3598 36.125 31.389 36.151 31.4232 36.1664C31.4574 36.1818 31.495 36.1859 31.5314 36.1781C31.5678 36.1704 31.6012 36.1512 31.6274 36.1229C31.6536 36.0946 31.6714 36.0586 31.6786 36.0194C31.6858 35.9802 31.682 35.9396 31.6677 35.9027C31.6534 35.8658 31.6293 35.8344 31.5984 35.8123C31.5675 35.7903 31.5312 35.7786 31.4941 35.7788C31.4448 35.7788 31.3976 35.7999 31.3627 35.8375C31.3278 35.8751 31.3083 35.9261 31.3083 35.9792Z" fill="#F6605D"/>
<path d="M10.3282 4.75512C10.3279 4.79503 10.3387 4.83411 10.3591 4.86741C10.3796 4.90071 10.4087 4.92672 10.4428 4.94215C10.477 4.95758 10.5146 4.96173 10.5509 4.95408C10.5872 4.94643 10.6207 4.92733 10.6469 4.89918C10.6731 4.87104 10.6911 4.83512 10.6984 4.79599C10.7057 4.75686 10.702 4.71628 10.6879 4.67938C10.6738 4.64248 10.6498 4.61094 10.6191 4.58874C10.5883 4.56654 10.5521 4.55469 10.5151 4.55469C10.4657 4.55469 10.4183 4.57577 10.3833 4.61332C10.3482 4.65088 10.3284 4.70186 10.3282 4.75512V4.75512Z" fill="#F6605D"/>
<path d="M13.09 7.73852C13.09 7.77816 13.1009 7.81691 13.1213 7.84987C13.1418 7.88283 13.1708 7.90852 13.2048 7.92369C13.2387 7.93886 13.2761 7.94283 13.3122 7.9351C13.3482 7.92736 13.3813 7.90827 13.4073 7.88024C13.4333 7.85221 13.451 7.8165 13.4582 7.77762C13.4654 7.73874 13.4617 7.69844 13.4476 7.66182C13.4336 7.62519 13.4097 7.59389 13.3792 7.57187C13.3486 7.54984 13.3127 7.53809 13.2759 7.53809C13.2266 7.53809 13.1793 7.5592 13.1445 7.59679C13.1096 7.63438 13.09 7.68536 13.09 7.73852Z" fill="#F6605D"/>
<path opacity="0.19" d="M6.62394 38.8041C6.62394 39.06 7.67417 39.2684 8.9754 39.2684C10.2766 39.2684 11.3258 39.06 11.3258 38.8041C11.3258 38.5482 10.2756 38.3398 8.9754 38.3398C7.67522 38.3398 6.62394 38.5482 6.62394 38.8041Z" fill="black"/>
<path opacity="0.19" d="M17.3537 41.4823C17.3537 41.7383 18.404 41.9466 19.7042 41.9466C21.0043 41.9466 22.0546 41.7383 22.0546 41.4823C22.0546 41.2264 21.0043 41.0181 19.7031 41.0181C18.4019 41.0181 17.3537 41.2264 17.3537 41.4823Z" fill="black"/>
<path opacity="0.19" d="M22.4206 41.5907C22.4206 41.8467 23.4708 42.055 24.7721 42.055C26.0733 42.055 27.1235 41.8467 27.1235 41.5907C27.1235 41.3348 26.0733 41.1265 24.7721 41.1265C23.4708 41.1265 22.4206 41.3326 22.4206 41.5907Z" fill="black"/>
<path d="M33.3575 29.8325C33.1462 30.0672 32.9033 30.2661 32.637 30.4225C32.2169 30.6626 32.2894 31.547 32.4133 32.0826C32.5372 32.6182 33.0844 32.6714 33.7545 32.6488C34.4245 32.6261 36.9051 32.3272 37.53 32.7824C38.1549 33.2376 32.7368 35.0857 32.7368 35.0857L29.2836 34.1979C29.2836 34.1979 31.1467 33.7698 31.4198 32.9126C31.6929 32.0554 31.6687 31.6534 31.4944 31.3058C31.32 30.9581 30.7991 30.6626 30.3024 30.6626C29.8056 30.6626 33.3575 29.8325 33.3575 29.8325Z" fill="#914004"/>
<path d="M9.80273 34.9474C9.80273 34.9474 9.4215 34.6983 9.28918 34.6802C9.15685 34.662 8.94155 35.055 8.94155 35.055C8.90453 34.9304 8.85449 34.8107 8.79242 34.6983C8.6937 34.5194 8.32927 34.9836 8.32927 34.9836C8.32927 34.9836 8.29566 34.6439 8.2463 34.6269C8.19694 34.61 7.7821 35.055 7.7821 35.055L8.18014 35.6087C8.18014 35.6087 9.45511 35.7152 9.52128 35.6619C9.58744 35.6087 9.80273 34.9474 9.80273 34.9474Z" fill="#343057"/>
<path d="M9.68929 34.771C9.68929 34.771 11.8402 35.1107 11.2342 37.3166C10.6282 39.5225 7.55838 39.2077 6.80641 38.2622C6.05445 37.3166 5.6165 35.6724 7.91335 34.8389C7.97962 34.8864 8.03484 34.9498 8.07472 35.024C8.11461 35.0982 8.1381 35.1814 8.14335 35.267C8.25783 35.121 8.40144 35.0049 8.56345 34.9273C8.70343 35.0408 8.81763 35.1872 8.89742 35.3553C8.89742 35.3553 8.8344 35.1073 9.23139 34.9024C9.23139 34.9024 9.52441 35.0156 9.60738 35.2421L9.68929 34.771Z" fill="#605A8F"/>
<path opacity="0.45" d="M7.41892 37.2867C8.02595 38.82 9.85019 38.6739 10.766 38.1926C9.69476 39.3986 7.43677 39.0499 6.80663 38.2572C6.07147 37.3264 5.63248 35.7206 7.80855 34.8748L7.8159 34.9076L7.91357 34.834C7.91357 34.834 6.78878 35.698 7.41892 37.2867Z" fill="#343057"/>
<path opacity="0.16" d="M10.8288 36.2361C10.8288 36.2361 10.7049 35.7537 10.3573 35.5929C10.2749 35.5496 10.1838 35.5291 10.0923 35.5332C10.0007 35.5373 9.91154 35.5658 9.83273 35.6162C9.75393 35.6666 9.68796 35.7373 9.64074 35.822C9.59353 35.9066 9.56655 36.0026 9.56223 36.1013C9.51287 36.5837 9.61264 37.0389 9.96027 37.3877C10.3079 37.7365 11.1523 37.3311 10.8288 36.2361Z" fill="#E0E6FF"/>
<path opacity="0.19" d="M25.1361 6.34617C24.2307 6.34617 23.4967 6.19053 23.4967 5.99853C23.4967 5.80653 24.2307 5.65088 25.1361 5.65088C26.0415 5.65088 26.7755 5.80653 26.7755 5.99853C26.7755 6.19053 26.0415 6.34617 25.1361 6.34617Z" fill="black"/>
<path opacity="0.19" d="M12.8129 5.3019C12.8129 5.4944 13.548 5.64954 14.4523 5.64954C15.3565 5.64954 16.0917 5.4944 16.0917 5.3019C16.0917 5.10939 15.3565 4.95312 14.4523 4.95312C13.548 4.95312 12.8129 5.10939 12.8129 5.3019Z" fill="black"/>
<path opacity="0.19" d="M20.6402 10.0407C19.5289 10.0407 18.628 9.84901 18.628 9.61261C18.628 9.37621 19.5289 9.18457 20.6402 9.18457C21.7516 9.18457 22.6525 9.37621 22.6525 9.61261C22.6525 9.84901 21.7516 10.0407 20.6402 10.0407Z" fill="black"/>
<path opacity="0.19" d="M32.9603 5.16663C31.849 5.16663 30.948 4.97499 30.948 4.73859C30.948 4.50219 31.849 4.31055 32.9603 4.31055C34.0716 4.31055 34.9725 4.50219 34.9725 4.73859C34.9725 4.97499 34.0716 5.16663 32.9603 5.16663Z" fill="black"/>
<path opacity="0.19" d="M18.9768 5.1131C18.1265 5.1131 17.4372 5.04111 17.4372 4.9523C17.4372 4.8635 18.1265 4.7915 18.9768 4.7915C19.8272 4.7915 20.5165 4.8635 20.5165 4.9523C20.5165 5.04111 19.8272 5.1131 18.9768 5.1131Z" fill="black"/>
<path d="M25.7304 1.66819C25.7304 1.66819 26.0854 1.62402 26.1684 1.62402C26.2513 1.62402 26.202 2.11435 26.202 2.11435C26.3574 2.08026 26.5151 2.05943 26.6735 2.05207C26.7397 2.07018 26.7649 2.58769 26.7649 2.58769C26.9402 2.54032 27.0969 2.43402 27.2123 2.28421C27.2142 2.51122 27.203 2.73813 27.1787 2.96364C27.1462 3.1335 26.516 3.19578 26.4751 3.16068C26.4341 3.12557 25.4248 2.25476 25.4248 2.23212C25.4248 2.20947 25.7304 1.66819 25.7304 1.66819Z" fill="#343057"/>
<path d="M27.2144 2.28365C27.2144 2.28365 27.1892 2.68565 27.562 3.35489C27.9348 4.02414 27.8603 5.17578 26.9907 5.81897C26.1211 6.46217 24.3325 6.16662 23.4136 5.06933C22.4946 3.97205 22.8885 2.41728 23.6866 1.88166C24.4848 1.34604 25.4258 1.74803 25.7735 1.50684C25.821 1.65711 25.8517 1.81298 25.8648 1.97112C25.8648 2.14097 26.1295 1.99829 26.3364 1.99829C26.3885 2.16693 26.4271 2.34006 26.4519 2.51579C26.4603 2.67659 26.8079 2.44445 26.9077 2.42634C27.0075 2.40822 26.9245 2.56109 27.0316 2.77511C27.1388 2.98913 27.2144 2.28365 27.2144 2.28365Z" fill="#605A8F"/>
<path opacity="0.45" d="M23.6867 1.88228C24.2171 1.52558 24.8125 1.58446 25.2547 1.59239L25.2851 1.61503C23.149 1.88228 23.3947 5.11412 25.45 5.63162C26.7597 5.96114 27.3551 5.38249 27.6208 5.00767C27.4853 5.33649 27.267 5.61777 26.9907 5.81959C26.1211 6.46279 24.3326 6.16724 23.4136 5.06995C22.4947 3.97267 22.8948 2.4179 23.6867 1.88228Z" fill="#343057"/>
<path d="M20.5656 0.93633C20.5656 0.93633 20.1854 0.686072 20.053 0.667954C19.9207 0.649836 19.7044 1.04277 19.7044 1.04277C19.6672 0.918401 19.6176 0.798786 19.5563 0.686072C19.4513 0.507155 19.0921 0.971434 19.0921 0.971434C19.0921 0.971434 19.0595 0.631718 19.0091 0.614732C18.9587 0.597746 18.546 1.04277 18.546 1.04277L18.9429 1.59651C18.9429 1.59651 20.2179 1.70975 20.2841 1.64974C20.3503 1.58972 20.5656 0.93633 20.5656 0.93633Z" fill="#343057"/>
<path d="M20.4521 0.759277C20.4521 0.759277 22.604 1.09899 21.998 3.30376C21.392 5.50852 18.3222 5.19598 17.5703 4.2493C16.8183 3.30262 16.3835 1.65953 18.6772 0.827221C18.7428 0.874906 18.7974 0.938196 18.8367 1.01221C18.876 1.08623 18.8991 1.169 18.904 1.25413C19.0191 1.10888 19.1626 0.99287 19.3241 0.914415C19.4641 1.02795 19.5783 1.17432 19.6581 1.34246C19.6581 1.34246 19.5961 1.09446 19.9931 0.889502C19.9931 0.889502 20.2851 1.00274 20.3691 1.22922L20.4521 0.759277Z" fill="#605A8F"/>
<path opacity="0.45" d="M18.1818 3.27395C18.7888 4.8072 20.6141 4.66113 21.5299 4.18892C20.4576 5.39491 18.2007 5.04614 17.5705 4.25347C16.8301 3.32264 16.3953 1.71692 18.5714 0.872153L18.5788 0.904992L18.6775 0.83252C18.6775 0.83252 17.5527 1.68521 18.1818 3.27395Z" fill="#343057"/>
<path d="M32.613 24.7973C32.4349 24.7973 32.2906 24.6417 32.2906 24.4497C32.2906 24.2577 32.4349 24.1021 32.613 24.1021C32.7911 24.1021 32.9354 24.2577 32.9354 24.4497C32.9354 24.6417 32.7911 24.7973 32.613 24.7973Z" fill="#D72F5D"/>
<path d="M30.129 25.226C29.9509 25.226 29.8066 25.0704 29.8066 24.8784C29.8066 24.6864 29.9509 24.5308 30.129 24.5308C30.3071 24.5308 30.4514 24.6864 30.4514 24.8784C30.4514 25.0704 30.3071 25.226 30.129 25.226Z" fill="#F6605D"/>
<path d="M36.1888 34.1709C36.0107 34.1709 35.8664 34.0152 35.8664 33.8232C35.8664 33.6312 36.0107 33.4756 36.1888 33.4756C36.3669 33.4756 36.5112 33.6312 36.5112 33.8232C36.5112 34.0152 36.3669 34.1709 36.1888 34.1709Z" fill="#F6605D"/>
<path d="M29.2593 24.7175C29.2591 24.7575 29.2699 24.7966 29.2904 24.8299C29.3108 24.8633 29.34 24.8893 29.3742 24.9047C29.4084 24.9201 29.4461 24.9241 29.4825 24.9164C29.5188 24.9087 29.5522 24.8894 29.5784 24.8612C29.6046 24.8329 29.6225 24.7969 29.6296 24.7577C29.6368 24.7185 29.633 24.6779 29.6187 24.641C29.6045 24.6041 29.5803 24.5727 29.5494 24.5506C29.5185 24.5285 29.4823 24.5169 29.4452 24.5171C29.4208 24.5171 29.3966 24.5223 29.3741 24.5324C29.3515 24.5424 29.331 24.5572 29.3137 24.5758C29.2965 24.5944 29.2828 24.6165 29.2735 24.6408C29.2641 24.6651 29.2593 24.6912 29.2593 24.7175V24.7175Z" fill="#F6605D"/>
<path d="M32.3018 34.801C32.3016 34.841 32.3124 34.8801 32.3328 34.9134C32.3533 34.9468 32.3825 34.9728 32.4167 34.9882C32.4509 35.0036 32.4886 35.0077 32.5249 34.9999C32.5613 34.9922 32.5947 34.9729 32.6209 34.9447C32.6471 34.9164 32.6649 34.8804 32.6721 34.8412C32.6793 34.802 32.6755 34.7614 32.6612 34.7245C32.6469 34.6876 32.6228 34.6562 32.5919 34.6341C32.561 34.612 32.5247 34.6004 32.4877 34.6006C32.4385 34.6009 32.3913 34.6221 32.3565 34.6596C32.3217 34.6972 32.3021 34.748 32.3018 34.801Z" fill="#F6605D"/>
<path d="M26.3405 29.123C26.3405 29.1629 26.3515 29.2019 26.3721 29.2351C26.3926 29.2682 26.4219 29.2941 26.4561 29.3093C26.4903 29.3245 26.528 29.3284 26.5643 29.3206C26.6006 29.3127 26.6339 29.2934 26.66 29.2651C26.6861 29.2368 26.7038 29.2008 26.7109 29.1616C26.718 29.1224 26.7141 29.0818 26.6998 29.045C26.6855 29.0082 26.6614 28.9768 26.6305 28.9548C26.5996 28.9328 26.5634 28.9212 26.5264 28.9214C26.5019 28.9214 26.4776 28.9266 26.455 28.9368C26.4324 28.9469 26.4118 28.9618 26.3945 28.9805C26.3773 28.9992 26.3636 29.0215 26.3543 29.0459C26.345 29.0704 26.3403 29.0965 26.3405 29.123Z" fill="#F6605D"/>
<path d="M31.2965 28.5746C31.2965 28.6145 31.3075 28.6535 31.328 28.6866C31.3486 28.7197 31.3778 28.7456 31.4119 28.7608C31.4461 28.7761 31.4837 28.7801 31.5199 28.7723C31.5562 28.7645 31.5895 28.7453 31.6157 28.7171C31.6418 28.689 31.6596 28.653 31.6668 28.6139C31.674 28.5748 31.6703 28.5343 31.6562 28.4975C31.642 28.4606 31.6181 28.4292 31.5873 28.407C31.5566 28.3849 31.5204 28.373 31.4835 28.373C31.4339 28.373 31.3863 28.3943 31.3513 28.4321C31.3162 28.4699 31.2965 28.5212 31.2965 28.5746V28.5746Z" fill="#F6605D"/>
<path opacity="0.16" d="M26.3775 4.47132C26.3775 4.82576 26.6117 5.11339 26.9026 5.11339C27.1935 5.11339 27.4277 4.82576 27.4277 4.47132C27.4277 4.11688 27.1935 3.82812 26.9026 3.82812C26.6117 3.82812 26.3775 4.11575 26.3775 4.47132Z" fill="#E0E6FF"/>
<path opacity="0.16" d="M26.7669 3.37364C26.7666 3.41271 26.7772 3.45096 26.7972 3.48353C26.8172 3.51611 26.8457 3.54154 26.8792 3.55659C26.9126 3.57164 26.9494 3.57564 26.985 3.56807C27.0205 3.56051 27.0532 3.54172 27.0788 3.5141C27.1044 3.48647 27.1218 3.45126 27.1289 3.41293C27.1359 3.37461 27.1322 3.3349 27.1182 3.29885C27.1043 3.2628 27.0807 3.23204 27.0505 3.21047C27.0202 3.18891 26.9848 3.17751 26.9485 3.17774C26.9247 3.17774 26.9011 3.1828 26.879 3.19265C26.857 3.20249 26.8369 3.21693 26.8201 3.23512C26.8032 3.25331 26.7898 3.2749 26.7807 3.29867C26.7716 3.32244 26.7669 3.34791 26.7669 3.37364V3.37364Z" fill="#E0E6FF"/>
<path opacity="0.16" d="M21.8447 2.3548C21.8447 2.3548 21.7397 1.73879 21.4246 1.4806C21.1096 1.22242 20.6139 1.17712 20.6212 1.80107C20.6286 2.42501 20.804 2.76586 20.6884 3.30148C20.5729 3.8371 21.1684 3.98884 21.4331 3.72952C21.6977 3.47021 21.9498 3.06934 21.8447 2.3548Z" fill="#E0E6FF"/>
<path d="M15.9131 1.36397C15.9131 1.36397 15.5655 1.09673 15.4657 1.11372C15.3028 1.16803 15.1624 1.28172 15.0687 1.43532C15.0687 1.43532 14.7872 1.02539 14.6875 1.02539C14.5877 1.02539 14.3566 1.40021 14.3566 1.40021L14.3062 1.11372C14.1698 1.20172 14.0693 1.34208 14.0248 1.50666C13.9586 1.77503 14.3734 2.13173 14.3734 2.13173C14.3734 2.13173 15.284 2.52467 15.3502 2.48957C15.4163 2.45447 15.9131 1.36397 15.9131 1.36397Z" fill="#343057"/>
<path d="M15.8457 1.20752C15.8457 1.20752 17.9965 1.54724 17.3906 3.752C16.7846 5.95676 13.7148 5.64309 12.9628 4.69754C12.2108 3.752 11.7729 2.10777 14.0729 1.27433C14.138 1.32173 14.1923 1.3845 14.2316 1.45788C14.2709 1.53125 14.2942 1.61332 14.2997 1.69784C14.4142 1.55189 14.5578 1.43575 14.7198 1.35813C14.8594 1.47209 14.9736 1.61836 15.0538 1.78617C15.0538 1.78617 14.9908 1.53818 15.3878 1.33321C15.3878 1.33321 15.6808 1.44645 15.7638 1.67293L15.8457 1.20752Z" fill="#605A8F"/>
<path opacity="0.45" d="M12.8883 1.96289C12.6699 2.76802 12.9702 4.1518 14.3313 4.7112C15.4446 5.16415 16.6061 4.72139 16.9989 4.54021C15.9623 5.85604 13.6088 5.50953 12.9629 4.69761C12.3842 3.97062 11.9935 2.8303 12.8883 1.96289Z" fill="#343057"/>
<path opacity="0.16" d="M16.8489 1.97487C16.7146 1.87621 16.5507 1.83577 16.3899 1.86163C16.1536 1.91712 15.9383 2.20814 16.1704 2.59995C16.4025 2.99175 16.7691 3.67798 17.0768 3.42772C17.3845 3.17747 17.3604 2.91022 17.2207 2.50596C17.1369 2.30007 17.0096 2.11819 16.8489 1.97487V1.97487Z" fill="#E0E6FF"/>
<path d="M17.0136 3.9895C17.0136 3.9895 18.2801 3.85588 18.8273 4.95316C19.3745 6.05045 19.1004 7.39006 18.1069 7.92568C17.1133 8.4613 15.7964 8.5417 15.0024 7.47273C14.2084 6.40375 13.9343 4.2307 17.0136 3.9895Z" fill="#605A8F"/>
<path d="M17.3035 3.99763C17.3035 3.99763 16.9979 4.2241 16.9558 4.43473C16.9558 4.43473 16.6996 4.26487 16.5085 4.30111C16.3173 4.33734 16.2196 4.65781 16.2196 4.65781C16.2196 4.65781 15.8962 4.31809 15.7471 4.43133C15.5979 4.54457 15.4908 4.74387 15.515 4.73481C15.5391 4.72575 15.4824 4.41321 15.3585 4.44945C15.3585 4.44945 15.4635 3.98517 15.6557 4.01235C15.7776 4.03253 15.8922 4.08768 15.9876 4.17201C16.0127 4.03833 16.078 3.91732 16.1734 3.82777C16.3142 3.71453 16.6124 4.03273 16.6124 4.03273C16.6744 3.91064 16.7658 3.8089 16.8771 3.73831C17.0388 3.64885 17.3035 3.99763 17.3035 3.99763Z" fill="#343057"/>
<path opacity="0.45" d="M14.7265 5.04248C14.7034 5.20894 14.5542 6.55988 15.8586 7.32764C17.2575 8.14976 18.6942 6.91772 18.8633 6.60518C18.884 6.56667 18.9155 6.53626 18.9532 6.51835C18.991 6.50043 19.0331 6.49594 19.0734 6.50553C18.9421 7.11362 18.6113 7.65264 18.104 7.92554C17.1105 8.46117 15.7935 8.54156 14.9995 7.47259C14.5322 6.83732 14.2444 5.8193 14.7265 5.04248Z" fill="#343057"/>
<path d="M21.2809 5.25638C21.2809 5.25638 22.9098 5.16692 23.4528 6.60732C23.9958 8.04772 23.4108 9.76103 21.0929 9.78368C18.7751 9.80632 18.3791 8.25155 18.4191 7.28336C18.459 6.31517 19.275 5.16692 21.2809 5.25638Z" fill="#605A8F"/>
<path d="M21.6755 6.11415C21.6755 6.11415 21.6912 5.63176 21.4759 5.77444C21.3661 5.84134 21.2659 5.92528 21.1787 6.02356C21.1787 6.02356 21.0958 5.80954 20.9687 5.77444C20.8416 5.73933 20.7943 6.20248 20.7943 6.20248C20.7943 6.20248 20.4635 6.00658 20.3469 6.11302C20.2304 6.21947 20.4961 6.45274 20.4961 6.45274C20.4961 6.45274 20.3144 6.5422 20.4635 6.66676C20.6126 6.79132 20.4961 7.0948 20.8279 7.0948C20.8694 7.09847 20.9111 7.09203 20.9499 7.07597C20.9888 7.0599 21.0238 7.03462 21.0523 7.00199C21.0808 6.96937 21.1022 6.93023 21.1148 6.88749C21.1274 6.84475 21.131 6.7995 21.1252 6.75509C21.1252 6.75509 21.3741 7.05857 21.54 6.93287C21.7059 6.80718 21.6555 6.55805 21.6555 6.55805C21.7191 6.55649 21.7812 6.53772 21.8363 6.50349C21.8913 6.46926 21.9375 6.42066 21.9706 6.36215C22.0725 6.16624 21.6755 6.11415 21.6755 6.11415Z" fill="#343057"/>
<path opacity="0.45" d="M18.4189 7.28304C18.4256 7.13902 18.4485 6.99642 18.4872 6.8584C18.462 7.56727 18.7498 8.8967 20.5163 9.30889C22.2365 9.71655 23.2689 8.7291 23.438 8.55132C23.1082 9.2534 22.3605 9.7709 21.0928 9.78336C18.7739 9.80487 18.379 8.25124 18.4189 7.28304Z" fill="#343057"/>
<path opacity="0.16" d="M23.2479 7.03271C23.1805 6.82219 23.0417 6.647 22.8593 6.54239C22.5778 6.40763 22.1556 6.53333 22.1241 7.12217C22.0926 7.71101 21.9918 8.70752 22.4802 8.70185C22.9685 8.69619 23.1303 8.39951 23.2668 7.87181C23.3213 7.59435 23.3148 7.307 23.2479 7.03271V7.03271Z" fill="#E0E6FF"/>
<path opacity="0.19" d="M14.9028 30.2345C13.8994 30.2345 13.0859 30.0611 13.0859 29.8472C13.0859 29.6333 13.8994 29.46 14.9028 29.46C15.9063 29.46 16.7197 29.6333 16.7197 29.8472C16.7197 30.0611 15.9063 30.2345 14.9028 30.2345Z" fill="black"/>
<path d="M14.8522 25.8644C14.8522 25.8644 16.3226 25.7828 16.8141 27.0851C17.3056 28.3873 16.7763 29.9319 14.6831 29.9523C12.59 29.9727 12.2309 28.5697 12.2676 27.6955C12.3044 26.8212 13.0416 25.7828 14.8522 25.8644Z" fill="#605A8F"/>
<path d="M15.2095 26.6394C15.2095 26.6394 15.2242 26.2034 15.0299 26.3325C14.9304 26.3933 14.8398 26.4696 14.761 26.559C14.761 26.559 14.6854 26.3653 14.5668 26.3325C14.4481 26.2997 14.4166 26.7198 14.4166 26.7198C14.4166 26.7198 14.1173 26.542 14.0133 26.6394C13.9093 26.7368 14.1477 26.9451 14.1477 26.9451C14.1477 26.9451 13.9828 27.0255 14.1173 27.1388C14.2517 27.252 14.1477 27.526 14.447 27.526C14.4844 27.5291 14.522 27.5231 14.557 27.5085C14.592 27.4939 14.6235 27.4711 14.6493 27.4417C14.675 27.4123 14.6944 27.377 14.7059 27.3385C14.7174 27.3 14.7208 27.2592 14.7159 27.2192C14.7159 27.2192 14.9396 27.4932 15.0898 27.3811C15.1339 27.3398 15.167 27.2865 15.1855 27.2267C15.204 27.167 15.2072 27.1029 15.1948 27.0414C15.2521 27.0398 15.3081 27.0227 15.3577 26.9916C15.4072 26.9605 15.4487 26.9165 15.4784 26.8636C15.5687 26.6869 15.2095 26.6394 15.2095 26.6394Z" fill="#343057"/>
<path opacity="0.45" d="M12.2686 27.696C12.2742 27.5655 12.2947 27.4362 12.3295 27.311C12.3075 27.952 12.5669 29.1478 14.1622 29.526C15.7155 29.8929 16.6481 29.0017 16.8014 28.8409C16.5031 29.475 15.8268 29.9416 14.6831 29.9529C12.5889 29.9733 12.2308 28.5703 12.2686 27.696Z" fill="#343057"/>
<path opacity="0.16" d="M16.6296 27.4691C16.5692 27.2784 16.4438 27.1197 16.2788 27.0252C16.0247 26.9051 15.6435 27.0172 15.613 27.5495C15.5825 28.0817 15.4933 28.9853 15.9344 28.9763C16.3754 28.9672 16.5214 28.7034 16.6453 28.2266C16.6946 27.9762 16.6892 27.7169 16.6296 27.4691V27.4691Z" fill="#E0E6FF"/>
<path opacity="0.16" d="M17.7963 5.68379C17.9255 6.00992 18.2458 6.17525 18.5105 6.05295C18.7751 5.93065 18.8844 5.56715 18.7552 5.24103C18.626 4.9149 18.3057 4.74844 18.041 4.87074C17.7764 4.99303 17.6671 5.35653 17.7963 5.68379Z" fill="#E0E6FF"/>
<path opacity="0.16" d="M17.604 4.61616C17.6182 4.65204 17.642 4.68257 17.6723 4.70388C17.7026 4.72518 17.7381 4.73631 17.7742 4.73586C17.8104 4.7354 17.8457 4.72337 17.8755 4.7013C17.9053 4.67923 17.9284 4.6481 17.9418 4.61187C17.9552 4.57564 17.9584 4.53593 17.9508 4.49778C17.9433 4.45963 17.9254 4.42474 17.8995 4.39755C17.8735 4.37036 17.8407 4.35208 17.8051 4.34504C17.7695 4.33799 17.7328 4.34249 17.6996 4.35797C17.6552 4.37864 17.6203 4.41741 17.6024 4.46579C17.5845 4.51418 17.5851 4.56824 17.604 4.61616Z" fill="#E0E6FF"/>
<path d="M21.7335 38.2156C21.7335 38.2156 21.3355 37.5192 21.137 37.5192C21.0068 37.5235 20.8793 37.5599 20.7641 37.6257C20.7641 37.6257 20.6161 37.2554 20.4165 37.2554C20.217 37.2554 19.8452 37.4966 19.8452 37.4966L19.9197 38.5157L21.7335 38.2156Z" fill="#343057"/>
<path d="M21.5982 37.7305C21.5982 37.7305 23.601 38.6432 22.4972 40.6136C21.3934 42.5839 18.4969 41.4413 17.9917 40.3214C17.4865 39.2015 17.4466 37.4904 19.8653 37.3115C19.9181 37.3756 19.9566 37.4519 19.9777 37.5346C19.9988 37.6173 20.0021 37.704 19.9871 37.7883C20.1314 37.6794 20.2965 37.6067 20.4702 37.5754C20.579 37.7233 20.6551 37.896 20.6929 38.0804C20.6929 38.0804 20.6929 37.8234 21.1224 37.7407C21.1224 37.7407 21.3787 37.9287 21.407 38.1699L21.5982 37.7305Z" fill="#605A8F"/>
<path opacity="0.16" d="M22.0958 39.3866C22.0958 39.3866 21.9971 39.0039 21.7209 38.8759C21.6555 38.842 21.5833 38.8261 21.5108 38.8296C21.4382 38.833 21.3676 38.8558 21.3053 38.8958C21.2429 38.9358 21.1906 38.9919 21.1532 39.0589C21.1158 39.126 21.0943 39.202 21.0908 39.2802C21.0628 39.4649 21.0768 39.6541 21.1317 39.8317C21.1866 40.0092 21.2807 40.1697 21.4058 40.2993C21.681 40.579 22.3521 40.2597 22.0958 39.3866Z" fill="#E0E6FF"/>
<path d="M24.0502 37.5735C24.0502 37.5735 24.3023 37.2995 24.3653 37.244C24.4283 37.1885 24.6751 37.6052 24.6751 37.6052C24.7771 37.4738 24.8884 37.3511 25.008 37.2383C25.07 37.2077 25.3893 37.595 25.3893 37.595C25.4991 37.4405 25.5599 37.2518 25.5626 37.0571C25.6954 37.2328 25.8178 37.4174 25.9291 37.6097C26.0016 37.7649 25.5468 38.2371 25.4932 38.2371C25.4397 38.2371 24.15 38.2371 24.1343 38.2201C24.1185 38.2031 24.0502 37.5735 24.0502 37.5735Z" fill="#343057"/>
<path d="M25.5625 37.0571C25.5625 37.0571 25.7725 37.3878 26.4541 37.6596C27.1357 37.9313 27.7417 38.8814 27.435 39.9696C27.1284 41.0579 25.5604 42.0306 24.2066 41.7916C22.8529 41.5527 22.2648 40.0716 22.5746 39.1181C22.8844 38.1646 23.8559 37.843 23.9871 37.4195C24.1112 37.5051 24.2254 37.6062 24.3274 37.7207C24.4261 37.8532 24.5501 37.5633 24.7118 37.424C24.8503 37.5202 24.9806 37.6294 25.1014 37.7502C25.2065 37.8702 25.3388 37.4546 25.406 37.3742C25.4732 37.2938 25.4963 37.4671 25.7043 37.5622C25.9122 37.6573 25.5625 37.0571 25.5625 37.0571Z" fill="#605A8F"/>
<path opacity="0.16" d="M26.868 38.3789C26.868 38.3789 26.5938 37.9916 26.2242 37.9814C26.1351 37.9746 26.0458 37.9918 25.9644 38.0313C25.883 38.0708 25.8119 38.1315 25.7576 38.2079C25.7033 38.2844 25.6674 38.3741 25.6531 38.4692C25.6389 38.5642 25.6467 38.6616 25.676 38.7526C25.7925 39.2056 26.0362 39.5826 26.4678 39.7616C26.8995 39.9405 27.5296 39.2475 26.868 38.3789Z" fill="#E0E6FF"/>
<path opacity="0.45" d="M23.795 38.2959C23.4222 38.938 23.1985 40.144 24.2151 40.9196C25.1015 41.5991 26.6307 40.9129 27.0077 40.7249C26.3776 41.4575 25.2307 41.9705 24.2046 41.7916C22.8519 41.5526 22.2628 40.0715 22.5726 39.118C22.8824 38.1645 23.8539 37.8429 23.9851 37.4194C23.9872 37.4206 24.1679 37.6527 23.795 38.2959Z" fill="#343057"/>
<path opacity="0.45" d="M22.0623 41.1616C20.7726 42.3257 18.44 41.3156 17.9916 40.3214C17.5158 39.2694 17.4528 37.6988 19.4493 37.3613C18.9536 37.4746 18.2048 37.8652 18.3056 39.1528C18.4526 41.0235 20.6665 41.7267 22.0623 41.1616Z" fill="#343057"/>
<path d="M33.3699 0.891734C33.3699 0.891734 35.4011 0.827187 35.7592 2.6945C36.1173 4.56181 34.207 5.66136 31.9962 4.49726C29.7855 3.33316 30.5039 0.376497 33.3699 0.891734Z" fill="#605A8F"/>
<path d="M33.5203 1.07424C33.5203 1.07424 33.4006 0.508044 33.5392 0.281566C33.6778 0.055088 33.4499 -0.00719342 33.3502 0.00299808C33.2504 0.0131896 33.201 0.625812 33.3008 0.851157C33.4006 1.0765 33.4205 1.23504 33.5203 1.07424Z" fill="#343057"/>
<path opacity="0.45" d="M31.4617 1.17578C31.1362 1.70687 31.0248 3.22767 32.4143 4.24003C33.7544 5.21614 35.2625 4.36232 35.4169 4.26947C34.7867 5.04515 33.4572 5.2637 31.9963 4.49595C30.4167 3.66817 30.3338 1.92429 31.4617 1.17578Z" fill="#343057"/>
<path opacity="0.16" d="M35.3319 2.33485C35.3319 2.33485 35.1933 1.94757 34.894 1.84566C34.8227 1.81726 34.7461 1.80836 34.6709 1.81976C34.5957 1.83117 34.5243 1.86252 34.4631 1.911C34.4019 1.95949 34.3528 2.02359 34.3202 2.09756C34.2876 2.17153 34.2726 2.25307 34.2764 2.33485C34.2764 2.73685 34.3888 3.10374 34.6965 3.36079C35.0042 3.61785 35.6816 3.21245 35.3319 2.33485Z" fill="#E0E6FF"/>
<path opacity="0.18" d="M19.2737 29.6458C19.2737 29.8225 19.4743 29.9674 19.7211 29.9674C19.9679 29.9674 20.1643 29.8225 20.1643 29.6458C20.1643 29.4692 19.9637 29.3242 19.7169 29.3242C19.4701 29.3242 19.2737 29.468 19.2737 29.6458Z" fill="#CC562A"/>
<path opacity="0.18" d="M36.8597 27.235C36.6126 27.235 36.4123 27.091 36.4123 26.9134C36.4123 26.7358 36.6126 26.5918 36.8597 26.5918C37.1068 26.5918 37.3071 26.7358 37.3071 26.9134C37.3071 27.091 37.1068 27.235 36.8597 27.235Z" fill="#CC562A"/>
<path opacity="0.34" d="M23.6459 36.6619C23.6459 36.8397 23.8465 36.9835 24.0933 36.9835C24.3401 36.9835 24.5397 36.8397 24.5397 36.6619C24.5397 36.4841 24.3401 36.3403 24.0933 36.3403C23.8465 36.3403 23.6459 36.4841 23.6459 36.6619Z" fill="#CC562A"/>
<path opacity="0.28" d="M11.1777 28.7345C10.9306 28.7345 10.7303 28.5905 10.7303 28.4129C10.7303 28.2353 10.9306 28.0913 11.1777 28.0913C11.4248 28.0913 11.6251 28.2353 11.6251 28.4129C11.6251 28.5905 11.4248 28.7345 11.1777 28.7345Z" fill="#CC562A"/>
<path opacity="0.38" d="M20.9638 23.2137C20.9638 23.3903 21.1633 23.5353 21.4101 23.5353C21.657 23.5353 21.8575 23.3903 21.8575 23.2137C21.8575 23.037 21.658 22.8921 21.4101 22.8921C21.1623 22.8921 20.9638 23.0404 20.9638 23.2137Z" fill="#CC562A"/>
<path opacity="0.38" d="M23.4968 14.5944C23.4968 14.7722 23.6974 14.916 23.9442 14.916C24.191 14.916 24.3905 14.7722 24.3905 14.5944C24.3905 14.4166 24.191 14.2739 23.9442 14.2739C23.6974 14.2739 23.4968 14.4177 23.4968 14.5944Z" fill="#CC562A"/>
<path opacity="0.38" d="M11.8222 13.6307C11.8222 13.8085 12.0228 13.9523 12.2696 13.9523C12.5164 13.9523 12.717 13.8085 12.717 13.6307C12.717 13.4529 12.5164 13.3091 12.2696 13.3091C12.0228 13.3091 11.8222 13.4529 11.8222 13.6307Z" fill="#CC562A"/>
<path opacity="0.21" d="M36.4121 7.41712C36.165 7.41712 35.9647 7.27314 35.9647 7.09552C35.9647 6.91791 36.165 6.77393 36.4121 6.77393C36.6592 6.77393 36.8595 6.91791 36.8595 7.09552C36.8595 7.27314 36.6592 7.41712 36.4121 7.41712Z" fill="#CC562A"/>
<path opacity="0.21" d="M12.3192 9.45246C12.3192 9.62911 12.5198 9.77292 12.7666 9.77292C13.0134 9.77292 13.214 9.62911 13.214 9.45246C13.214 9.2758 13.0134 9.13086 12.7666 9.13086C12.5198 9.13086 12.3192 9.27467 12.3192 9.45246Z" fill="#CC562A"/>
<path opacity="0.41" d="M7.84825 8.70164C7.84825 8.87942 8.04884 9.02323 8.29564 9.02323C8.54245 9.02323 8.74304 8.87942 8.74304 8.70164C8.74304 8.52385 8.54245 8.37891 8.29669 8.37891C8.05094 8.37891 7.84825 8.52498 7.84825 8.70164Z" fill="#CC562A"/>
<path opacity="0.21" d="M31.7169 6.26497C31.7169 6.36915 31.8335 6.45294 31.9785 6.45294C32.1234 6.45294 32.2421 6.36915 32.2421 6.26497C32.2421 6.16079 32.1255 6.07812 31.9816 6.07812C31.8377 6.07812 31.7169 6.16192 31.7169 6.26497Z" fill="#CC562A"/>
<path opacity="0.21" d="M28.7006 3.63997C28.7006 3.74415 28.8172 3.82795 28.9611 3.82795C29.105 3.82795 29.2216 3.74415 29.2216 3.63997C29.2216 3.53579 29.105 3.45312 28.9611 3.45312C28.8172 3.45312 28.7006 3.53692 28.7006 3.63997Z" fill="#CC562A"/>
<path opacity="0.21" d="M35.8535 5.32747C35.8535 5.43165 35.9701 5.51544 36.114 5.51544C36.2579 5.51544 36.3755 5.43165 36.3755 5.32747C36.3755 5.22329 36.2579 5.14062 36.114 5.14062C35.9701 5.14062 35.8535 5.22442 35.8535 5.32747Z" fill="#CC562A"/>
<path opacity="0.21" d="M33.9161 5.80989C33.9161 5.91407 34.0327 5.99787 34.1777 5.99787C34.3226 5.99787 34.4381 5.91407 34.4381 5.80989C34.4381 5.70571 34.3215 5.62305 34.1777 5.62305C34.0338 5.62305 33.9161 5.70684 33.9161 5.80989Z" fill="#CC562A"/>
<path opacity="0.21" d="M27.8059 3.02538C27.8059 3.12843 27.9225 3.21222 28.0674 3.21222C28.2124 3.21222 28.3279 3.12843 28.3279 3.02538C28.3279 2.92233 28.2113 2.8374 28.0674 2.8374C27.9235 2.8374 27.8059 2.9212 27.8059 3.02538Z" fill="#CC562A"/>
<path opacity="0.38" d="M25.6332 17.005C25.3861 17.005 25.1858 16.861 25.1858 16.6834C25.1858 16.5058 25.3861 16.3618 25.6332 16.3618C25.8803 16.3618 26.0806 16.5058 26.0806 16.6834C26.0806 16.861 25.8803 17.005 25.6332 17.005Z" fill="#CC562A"/>
<path opacity="0.38" d="M9.78587 17.8621C9.78587 18.0388 9.98647 18.1826 10.2333 18.1826C10.4801 18.1826 10.6807 18.0388 10.6807 17.8621C10.6807 17.6855 10.4801 17.5405 10.2333 17.5405C9.98647 17.5405 9.78587 17.6843 9.78587 17.8621Z" fill="#CC562A"/>
<path opacity="0.38" d="M21.6094 36.931C21.6094 37.1076 21.809 37.2514 22.0558 37.2514C22.3026 37.2514 22.5032 37.1076 22.5032 36.931C22.5032 36.7543 22.3026 36.6094 22.0558 36.6094C21.809 36.6094 21.6094 36.7532 21.6094 36.931Z" fill="#CC562A"/>
<path opacity="0.16" d="M19.0755 31.7884C19.0755 31.965 19.2761 32.11 19.5229 32.11C19.7697 32.11 19.9703 31.965 19.9703 31.7884C19.9703 31.6117 19.7697 31.4668 19.5229 31.4668C19.2761 31.4668 19.0755 31.6106 19.0755 31.7884Z" fill="#CC562A"/>
<path opacity="0.38" d="M11.8729 21.7179C11.6258 21.7179 11.4255 21.5739 11.4255 21.3963C11.4255 21.2187 11.6258 21.0747 11.8729 21.0747C12.12 21.0747 12.3203 21.2187 12.3203 21.3963C12.3203 21.5739 12.12 21.7179 11.8729 21.7179Z" fill="#CC562A"/>
<path opacity="0.38" d="M12.2697 17.9679C12.2697 18.0574 12.3694 18.1287 12.4933 18.1287C12.6173 18.1287 12.717 18.0574 12.717 17.9679C12.717 17.8785 12.6173 17.8071 12.4933 17.8071C12.3694 17.8071 12.2697 17.8796 12.2697 17.9679Z" fill="#CC562A"/>
<path opacity="0.38" d="M20.6655 36.6087C20.5419 36.6087 20.4418 36.5367 20.4418 36.4479C20.4418 36.3591 20.5419 36.2871 20.6655 36.2871C20.789 36.2871 20.8892 36.3591 20.8892 36.4479C20.8892 36.5367 20.789 36.6087 20.6655 36.6087Z" fill="#CC562A"/>
<path opacity="0.38" d="M23.9683 16.2008C23.9683 16.2903 24.0733 16.3616 24.192 16.3616C24.3106 16.3616 24.4156 16.2903 24.4156 16.2008C24.4156 16.1114 24.3159 16.04 24.192 16.04C24.068 16.04 23.9683 16.1125 23.9683 16.2008Z" fill="#CC562A"/>
<path opacity="0.38" d="M13.2636 22.3079C13.1401 22.3079 13.0399 22.2359 13.0399 22.1471C13.0399 22.0583 13.1401 21.9863 13.2636 21.9863C13.3871 21.9863 13.4873 22.0583 13.4873 22.1471C13.4873 22.2359 13.3871 22.3079 13.2636 22.3079Z" fill="#CC562A"/>
<path opacity="0.38" d="M14.2569 22.1473C14.1333 22.1473 14.0332 22.0753 14.0332 21.9865C14.0332 21.8977 14.1333 21.8257 14.2569 21.8257C14.3804 21.8257 14.4806 21.8977 14.4806 21.9865C14.4806 22.0753 14.3804 22.1473 14.2569 22.1473Z" fill="#CC562A"/>
<path opacity="0.18" d="M20.6655 30.8236C20.5419 30.8236 20.4418 30.7516 20.4418 30.6628C20.4418 30.5739 20.5419 30.502 20.6655 30.502C20.789 30.502 20.8892 30.5739 20.8892 30.6628C20.8892 30.7516 20.789 30.8236 20.6655 30.8236Z" fill="#CC562A"/>
<path opacity="0.18" d="M29.4579 31.8411C29.3344 31.8411 29.2342 31.7691 29.2342 31.6803C29.2342 31.5915 29.3344 31.5195 29.4579 31.5195C29.5815 31.5195 29.6816 31.5915 29.6816 31.6803C29.6816 31.7691 29.5815 31.8411 29.4579 31.8411Z" fill="#CC562A"/>
<path opacity="0.18" d="M35.022 29.324C34.8985 29.324 34.7983 29.252 34.7983 29.1632C34.7983 29.0744 34.8985 29.0024 35.022 29.0024C35.1456 29.0024 35.2457 29.0744 35.2457 29.1632C35.2457 29.252 35.1456 29.324 35.022 29.324Z" fill="#CC562A"/>
<path opacity="0.18" d="M26.9246 37.0369C26.8011 37.0369 26.7009 36.9649 26.7009 36.8761C26.7009 36.7873 26.8011 36.7153 26.9246 36.7153C27.0482 36.7153 27.1483 36.7873 27.1483 36.8761C27.1483 36.9649 27.0482 37.0369 26.9246 37.0369Z" fill="#CC562A"/>
<path opacity="0.18" d="M24.1172 28.5744C24.1172 28.6627 24.2222 28.7352 24.3409 28.7352C24.4596 28.7352 24.5646 28.6627 24.5646 28.5744C24.5646 28.486 24.4596 28.4136 24.3409 28.4136C24.2222 28.4136 24.1172 28.4849 24.1172 28.5744Z" fill="#CC562A"/>
<path opacity="0.18" d="M34.7239 27.6639C34.6004 27.6639 34.5002 27.5919 34.5002 27.5031C34.5002 27.4143 34.6004 27.3423 34.7239 27.3423C34.8475 27.3423 34.9476 27.4143 34.9476 27.5031C34.9476 27.5919 34.8475 27.6639 34.7239 27.6639Z" fill="#CC562A"/>
<path opacity="0.38" d="M18.9263 22.6834C18.8028 22.6834 18.7026 22.6114 18.7026 22.5226C18.7026 22.4338 18.8028 22.3618 18.9263 22.3618C19.0499 22.3618 19.15 22.4338 19.15 22.5226C19.15 22.6114 19.0499 22.6834 18.9263 22.6834Z" fill="#CC562A"/>
<path opacity="0.38" d="M19.3985 36.5537C19.3985 36.6432 19.4983 36.7145 19.6222 36.7145C19.7461 36.7145 19.8448 36.6432 19.8448 36.5537C19.8448 36.4643 19.7398 36.394 19.6222 36.394C19.5046 36.394 19.3985 36.462 19.3985 36.5537Z" fill="#CC562A"/>
<path opacity="0.22" d="M35.6918 27.7174C35.6918 27.8058 35.7968 27.8782 35.9155 27.8782C36.0341 27.8782 36.1392 27.8058 36.1392 27.7174C36.1392 27.6291 36.0341 27.5566 35.9155 27.5566C35.7968 27.5566 35.6918 27.6302 35.6918 27.7174Z" fill="#CC562A"/>
<path opacity="0.22" d="M36.8097 31.8939C36.6862 31.8939 36.5861 31.8219 36.5861 31.7331C36.5861 31.6443 36.6862 31.5723 36.8097 31.5723C36.9333 31.5723 37.0334 31.6443 37.0334 31.7331C37.0334 31.8219 36.9333 31.8939 36.8097 31.8939Z" fill="#CC562A"/>
<path opacity="0.18" d="M21.5591 29.5926C21.4356 29.5926 21.3354 29.5206 21.3354 29.4318C21.3354 29.343 21.4356 29.271 21.5591 29.271C21.6827 29.271 21.7828 29.343 21.7828 29.4318C21.7828 29.5206 21.6827 29.5926 21.5591 29.5926Z" fill="#CC562A"/>
<path opacity="0.18" d="M17.0135 31.4129C16.8899 31.4129 16.7898 31.3409 16.7898 31.2521C16.7898 31.1633 16.8899 31.0913 17.0135 31.0913C17.137 31.0913 17.2372 31.1633 17.2372 31.2521C17.2372 31.3409 17.137 31.4129 17.0135 31.4129Z" fill="#CC562A"/>
<path opacity="0.38" d="M19.87 14.7542C19.7465 14.7542 19.6463 14.6822 19.6463 14.5934C19.6463 14.5046 19.7465 14.4326 19.87 14.4326C19.9936 14.4326 20.0938 14.5046 20.0938 14.5934C20.0938 14.6822 19.9936 14.7542 19.87 14.7542Z" fill="#CC562A"/>
<path opacity="0.38" d="M10.187 13.0417C10.187 13.13 10.2867 13.2024 10.4096 13.2024C10.5325 13.2024 10.6333 13.13 10.6333 13.0417C10.6333 12.9533 10.5283 12.8809 10.4096 12.8809C10.2909 12.8809 10.187 12.9522 10.187 13.0417Z" fill="#CC562A"/>
<path opacity="0.38" d="M13.3871 13.6307C13.2636 13.6307 13.1634 13.5587 13.1634 13.4699C13.1634 13.3811 13.2636 13.3091 13.3871 13.3091C13.5107 13.3091 13.6108 13.3811 13.6108 13.4699C13.6108 13.5587 13.5107 13.6307 13.3871 13.6307Z" fill="#CC562A"/>
<path opacity="0.21" d="M35.2206 6.66681C35.0971 6.66681 34.9969 6.59482 34.9969 6.50601C34.9969 6.41721 35.0971 6.34521 35.2206 6.34521C35.3442 6.34521 35.4443 6.41721 35.4443 6.50601C35.4443 6.59482 35.3442 6.66681 35.2206 6.66681Z" fill="#CC562A"/>
<path opacity="0.21" d="M29.2837 2.97086C29.2837 3.06032 29.3887 3.13166 29.5074 3.13166C29.6261 3.13166 29.7311 3.06032 29.7311 2.97086C29.7311 2.8814 29.6261 2.81006 29.5074 2.81006C29.3887 2.81006 29.2837 2.88253 29.2837 2.97086Z" fill="#CC562A"/>
<path opacity="0.21" d="M11.4749 8.97004C11.3514 8.97004 11.2512 8.89804 11.2512 8.80924C11.2512 8.72043 11.3514 8.64844 11.4749 8.64844C11.5985 8.64844 11.6986 8.72043 11.6986 8.80924C11.6986 8.89804 11.5985 8.97004 11.4749 8.97004Z" fill="#CC562A"/>
<path opacity="0.38" d="M8.61919 16.3616C8.49564 16.3616 8.39549 16.2896 8.39549 16.2008C8.39549 16.112 8.49564 16.04 8.61919 16.04C8.74274 16.04 8.8429 16.112 8.8429 16.2008C8.8429 16.2896 8.74274 16.3616 8.61919 16.3616Z" fill="#CC562A"/>
<path opacity="0.38" d="M18.355 15.3449C18.355 15.4332 18.46 15.5045 18.5787 15.5045C18.6973 15.5045 18.8024 15.4332 18.8024 15.3449C18.8024 15.2566 18.7026 15.1841 18.5787 15.1841C18.4547 15.1841 18.355 15.2554 18.355 15.3449Z" fill="#CC562A"/>
<path opacity="0.38" d="M26.2042 15.6653C26.0806 15.6653 25.9805 15.5934 25.9805 15.5045C25.9805 15.4157 26.0806 15.3438 26.2042 15.3438C26.3277 15.3438 26.4279 15.4157 26.4279 15.5045C26.4279 15.5934 26.3277 15.6653 26.2042 15.6653Z" fill="#CC562A"/>
<path opacity="0.21" d="M33.2577 6.93457C33.2577 7.02403 33.3627 7.09537 33.4814 7.09537C33.6001 7.09537 33.7051 7.02403 33.7051 6.93457C33.7051 6.84511 33.6001 6.7749 33.4814 6.7749C33.3627 6.7749 33.2577 6.84624 33.2577 6.93457Z" fill="#CC562A"/>
</svg>
