<svg width="116" height="80" viewBox="0 0 116 80" fill="none" xmlns="http://www.w3.org/2000/svg">
<g clip-path="url(#clip0_414_8519)">
<path fill-rule="evenodd" clip-rule="evenodd" d="M116 59.5125C116 70.8265 90.0465 79.9992 58.003 79.9992C25.9595 79.9992 0 70.8265 0 59.5125C0 48.1986 25.9535 39.0259 58.003 39.0259C90.0526 39.0259 116 48.1986 116 59.5125Z" fill="#E2CAB3"/>
<path fill-rule="evenodd" clip-rule="evenodd" d="M116 57.2528C116 68.5667 90.0465 77.7394 58.003 77.7394C25.9595 77.7394 0 68.5667 0 57.2528C0 45.9388 25.9535 36.7661 58.003 36.7661C90.0526 36.7661 116 45.9388 116 57.2528Z" fill="white"/>
<path fill-rule="evenodd" clip-rule="evenodd" d="M116 56.9286C116 67.8886 90.0465 76.7723 58.003 76.7723C25.9595 76.7723 0 67.8886 0 56.9286C0 45.9686 25.9535 37.0908 58.003 37.0908C90.0526 37.0908 116 45.9745 116 56.9286Z" fill="#E7D8C8"/>
<path fill-rule="evenodd" clip-rule="evenodd" d="M113.428 56.9292C113.428 64.751 91.2168 71.0864 63.8208 71.0864C36.4248 71.0864 14.2074 64.751 14.2074 56.9292C14.2074 49.1073 36.4187 42.772 63.8208 42.772C91.2228 42.772 113.428 49.1132 113.428 56.9292Z" fill="#E2CAB3"/>
<path d="M109.246 57.4364C108.19 52.5994 103.047 50.5525 98.9852 50.228C96.4804 50.0334 93.9756 50.5525 91.4768 50.6881C90.0884 50.7659 88.6956 50.7105 87.3182 50.523C85.7972 50.3165 84.3426 49.7797 82.8096 49.6558C80.1478 49.4435 77.5102 50.346 75.0296 51.2898C72.1143 52.4047 69.1991 53.4193 66.2114 54.2805C60.318 56.0352 54.2465 57.1567 48.1043 57.6252C45.606 57.8474 43.0916 57.8336 40.5959 57.5839C38.8456 57.3715 37.1194 56.994 35.369 56.7934C32.3029 56.4572 28.9048 56.8524 27.6675 60.374C26.7399 60.371 25.825 60.5854 24.9997 60.9993C23.7503 61.5243 22.0784 62.4563 21.4326 63.8071C20.0866 66.6327 24.4505 67.7417 26.068 68.0425C27.6071 68.3256 29.1583 68.4259 30.7034 68.5852C32.8521 68.8093 34.5783 69.8063 36.3951 71.0214C40.9762 74.0829 47.0903 74.2835 52.3052 73.9295C55.1817 73.7187 58.0256 73.1984 60.7853 72.3781C63.7006 71.5287 66.7003 72.0419 69.6457 72.5315C72.1758 73.0538 74.8032 72.8989 77.2507 72.0832C79.7133 71.2279 81.8499 69.6647 83.9564 68.0956C86.4129 66.267 89.2074 66.1549 92.0985 65.9248C94.9485 65.752 97.7767 65.3275 100.548 64.6566C102.875 64.0818 105.141 63.2917 107.314 62.297C109.161 61.3473 109.68 59.5777 109.246 57.4364Z" fill="#EEBE30"/>
<path d="M92.7808 53.2304C92.7808 60.8517 76.2249 67.9362 56.289 67.9362C36.3531 67.9362 19.6644 60.3267 19.6644 52.7054C19.6644 45.0841 36.3531 40.3179 56.289 40.3179C76.2249 40.3179 92.7808 45.6091 92.7808 53.2304Z" fill="#E3AC8A"/>
<path d="M92.3825 51.7608C92.3825 59.3821 76.225 65.5582 56.2891 65.5582C36.3532 65.5582 20.1896 59.3821 20.1896 51.7608C20.1896 44.1395 36.3532 37.9575 56.2891 37.9575C76.225 37.9575 92.3825 44.1395 92.3825 51.7608Z" fill="#DA840D"/>
<path d="M82.5445 50.4518C82.5445 56.1087 70.5576 60.6862 55.7641 60.6862C40.9706 60.6862 28.9717 56.1087 28.9717 50.4518C28.9717 44.7948 40.9767 40.2173 55.7641 40.2173C70.5516 40.2173 82.5445 44.8302 82.5445 50.4518Z" fill="#F0A508"/>
<path d="M37.7412 54.2266C37.7412 54.8165 37.0591 55.3297 36.2141 55.3297C35.3691 55.3297 34.6931 54.8342 34.6931 54.2266C34.6931 53.619 35.3752 53.1235 36.2141 53.1235C37.0531 53.1235 37.7412 53.619 37.7412 54.2266Z" fill="#DA840D"/>
<path d="M34.6934 49.5849C34.6852 49.7474 34.6283 49.904 34.5299 50.0353C34.4315 50.1665 34.2959 50.2666 34.1399 50.3233C33.9838 50.38 33.8142 50.3907 33.652 50.3541C33.4898 50.3175 33.3421 50.2352 33.2273 50.1174C33.1125 49.9996 33.0355 49.8514 33.006 49.6913C32.9764 49.5312 32.9955 49.3661 33.061 49.2165C33.1265 49.067 33.2354 48.9394 33.3743 48.8497C33.5132 48.76 33.6759 48.7121 33.8424 48.7119C33.9571 48.7142 34.0701 48.7387 34.1751 48.7838C34.28 48.829 34.3748 48.8941 34.4539 48.9753C34.533 49.0564 34.5949 49.1521 34.636 49.2567C34.6771 49.3613 34.6966 49.4729 34.6934 49.5849Z" fill="#DA840D"/>
<path d="M45.2674 55.5654C45.2868 55.8522 45.2175 56.138 45.0686 56.3858C44.9196 56.6336 44.6979 56.832 44.4322 56.9551C44.1665 57.0782 43.869 57.1204 43.5785 57.0762C43.2879 57.032 43.0176 56.9035 42.8027 56.7073C42.5879 56.5111 42.4383 56.2563 42.3734 55.976C42.3085 55.6957 42.3314 55.4028 42.439 55.1353C42.5466 54.8679 42.734 54.6382 42.9768 54.4761C43.2196 54.314 43.5067 54.227 43.8008 54.2264C43.9871 54.2201 44.1728 54.2498 44.3474 54.3137C44.5219 54.3776 44.6819 54.4745 44.8181 54.5988C44.9543 54.7232 45.0641 54.8726 45.1412 55.0384C45.2183 55.2043 45.2612 55.3834 45.2674 55.5654Z" fill="#DA840D"/>
<path d="M42.0807 50.252C42.0807 50.6178 41.6643 50.9186 41.1573 50.9186C40.6503 50.9186 40.2278 50.6178 40.2278 50.252C40.2278 49.8863 40.6442 49.5854 41.1573 49.5854C41.6703 49.5854 42.0807 49.8804 42.0807 50.252Z" fill="#DA840D"/>
<path d="M51.4119 53.4138C51.4339 53.599 51.3978 53.7865 51.3083 53.9513C51.2189 54.116 51.0803 54.2503 50.911 54.3364C50.7416 54.4224 50.5496 54.4562 50.3602 54.4331C50.1708 54.41 49.993 54.3313 49.8505 54.2072C49.708 54.0832 49.6073 53.9198 49.562 53.7386C49.5167 53.5574 49.5287 53.367 49.5966 53.1927C49.6645 53.0183 49.7849 52.8683 49.942 52.7624C50.0992 52.6565 50.2855 52.5998 50.4763 52.5997C50.7104 52.5884 50.9396 52.6673 51.1146 52.8196C51.2896 52.9719 51.3963 53.1853 51.4119 53.4138Z" fill="#DA840D"/>
<path d="M51.7684 58.3278C51.7684 58.7053 51.3217 59.0121 50.7665 59.0121C50.2112 59.0121 49.7645 58.7053 49.7645 58.3278C49.7645 57.9503 50.2172 57.6436 50.7665 57.6436C51.3157 57.6436 51.7684 57.9503 51.7684 58.3278Z" fill="#DA840D"/>
<path d="M47.7725 51.0063C47.7618 51.1434 47.7101 51.2744 47.6239 51.3831C47.5377 51.4917 47.4208 51.5732 47.2876 51.6175C47.1544 51.6618 47.0109 51.6668 46.8748 51.6321C46.7387 51.5974 46.616 51.5243 46.522 51.4221C46.428 51.3198 46.3668 51.1928 46.3459 51.0568C46.3251 50.9209 46.3456 50.7819 46.4048 50.6573C46.4641 50.5326 46.5595 50.4276 46.6792 50.3555C46.799 50.2833 46.9377 50.2471 47.0783 50.2513C47.2715 50.2649 47.4518 50.3512 47.5812 50.492C47.7107 50.6328 47.7792 50.8172 47.7725 51.0063Z" fill="#DA840D"/>
<path d="M58.1657 52.4401C58.1657 52.8176 57.7311 53.1243 57.1939 53.1243C56.6567 53.1243 56.2222 52.8176 56.2222 52.4401C56.2222 52.0626 56.6567 51.7617 57.1939 51.7617C57.7311 51.7617 58.1657 52.0626 58.1657 52.4401Z" fill="#DA840D"/>
<path d="M58.1657 55.972C58.1657 56.1961 57.7311 56.379 57.1939 56.379C56.6567 56.379 56.2222 56.1961 56.2222 55.972C56.2222 55.7478 56.6567 55.5649 57.1939 55.5649C57.7311 55.5649 58.1657 55.7478 58.1657 55.972Z" fill="#DA840D"/>
<path d="M64.7389 53.678C64.7389 53.9789 64.3465 54.2266 63.8576 54.2266C63.3687 54.2266 62.9824 53.9789 62.9824 53.678C62.9824 53.3772 63.3748 53.1235 63.8576 53.1235C64.3405 53.1235 64.7389 53.3713 64.7389 53.678Z" fill="#DA840D"/>
<path d="M63.6882 57.6197C63.7295 57.8035 63.7113 57.9952 63.6363 58.1685C63.5613 58.3417 63.433 58.488 63.2693 58.5869C63.1056 58.6859 62.9145 58.7328 62.7224 58.721C62.5302 58.7093 62.3466 58.6396 62.1967 58.5214C62.0469 58.4033 61.9383 58.2426 61.8859 58.0616C61.8335 57.8806 61.8399 57.6881 61.9043 57.5108C61.9686 57.3334 62.0877 57.18 62.2451 57.0717C62.4025 56.9633 62.5904 56.9054 62.7829 56.906C62.9992 56.886 63.215 56.9494 63.3842 57.0828C63.5533 57.2161 63.6624 57.4088 63.6882 57.6197Z" fill="#DA840D"/>
<path d="M71.0039 56.475C70.9662 56.6508 70.8783 56.8126 70.7503 56.9415C70.6223 57.0705 70.4596 57.1613 70.2809 57.2035C70.1022 57.2456 69.915 57.2374 69.7409 57.1798C69.5668 57.1221 69.413 57.0174 69.2974 56.8777C69.1818 56.7381 69.1091 56.5693 69.0877 56.3908C69.0663 56.2124 69.0971 56.0317 69.1765 55.8697C69.256 55.7077 69.3808 55.5711 69.5365 55.4757C69.6923 55.3802 69.8725 55.3299 70.0563 55.3306C70.3362 55.3618 70.5924 55.4992 70.7697 55.7133C70.9469 55.9273 71.031 56.2009 71.0039 56.475Z" fill="#DA840D"/>
<path d="M70.4788 51.3197C70.4788 51.5556 70.171 51.7444 69.7908 51.7444C69.4105 51.7444 69.1088 51.5556 69.1088 51.3197C69.1088 51.0837 69.4166 50.9009 69.7908 50.9009C70.1649 50.9009 70.4788 51.1073 70.4788 51.3197Z" fill="#DA840D"/>
<path d="M76.273 52.5755C76.273 53.4899 75.8565 54.2272 75.3495 54.2272C74.8425 54.2272 74.42 53.4899 74.42 52.5755C74.42 51.6612 74.8365 50.918 75.3495 50.918C75.8626 50.918 76.273 51.6612 76.273 52.5755Z" fill="#DA840D"/>
<path d="M78.5974 50.8946C78.5974 51.0119 78.5497 51.1244 78.4648 51.2074C78.3799 51.2904 78.2648 51.337 78.1447 51.337C78.0246 51.337 77.9095 51.2904 77.8246 51.2074C77.7397 51.1244 77.692 51.0119 77.692 50.8946C77.692 50.7772 77.7397 50.6647 77.8246 50.5817C77.9095 50.4988 78.0246 50.4521 78.1447 50.4521C78.2643 50.4537 78.3785 50.5008 78.4631 50.5834C78.5476 50.6661 78.5958 50.7777 78.5974 50.8946Z" fill="#DA840D"/>
<path d="M63.3747 49.4847C63.3747 49.9035 62.8074 50.2515 62.1133 50.2515C61.4192 50.2515 60.8518 49.9035 60.8518 49.4847C60.8518 49.0658 61.4131 48.7119 62.1133 48.7119C62.8134 48.7119 63.3747 49.0599 63.3747 49.4847Z" fill="#DA840D"/>
<path d="M39.7085 45.508C39.7085 45.7676 39.2679 45.9799 38.7247 45.9799C38.1815 45.9799 37.7408 45.7676 37.7408 45.508C37.7408 45.2485 38.1815 45.0361 38.7247 45.0361C39.2679 45.0361 39.7085 45.2485 39.7085 45.508Z" fill="#DA840D"/>
<path d="M45.5025 44.5593C45.5025 44.8248 45.0016 45.0371 44.3859 45.0371C43.7703 45.0371 43.2633 44.8248 43.2633 44.5593C43.2633 44.2939 43.7643 44.0874 44.3859 44.0874C45.0076 44.0874 45.5025 44.2998 45.5025 44.5593Z" fill="#DA840D"/>
<path d="M52.7945 45.7204C52.7945 46.092 52.1185 46.3988 51.2795 46.3988C50.4405 46.3988 49.7645 46.092 49.7645 45.7204C49.7645 45.3488 50.4466 45.0361 51.2795 45.0361C52.1124 45.0361 52.7945 45.3429 52.7945 45.7204Z" fill="#DA840D"/>
<path d="M58.1666 44.5593C58.1678 44.6543 58.14 44.7475 58.0867 44.827C58.0335 44.9065 57.9572 44.9686 57.8676 45.0055C57.778 45.0424 57.6792 45.0524 57.5838 45.0341C57.4884 45.0159 57.4008 44.9702 57.332 44.9031C57.2633 44.8359 57.2166 44.7502 57.1979 44.657C57.1793 44.5638 57.1895 44.4672 57.2272 44.3797C57.265 44.2921 57.3286 44.2176 57.4099 44.1655C57.4912 44.1135 57.5865 44.0863 57.6837 44.0874C57.8118 44.0874 57.9346 44.1372 58.0252 44.2257C58.1157 44.3142 58.1666 44.4342 58.1666 44.5593Z" fill="#DA840D"/>
<path d="M57.1944 48.2924C57.1944 48.5224 56.7357 48.7112 56.1623 48.7112C55.5889 48.7112 55.1362 48.5224 55.1362 48.2924C55.1362 48.0623 55.5949 47.8735 56.1623 47.8735C56.7297 47.8735 57.1944 48.0623 57.1944 48.2924Z" fill="#DA840D"/>
<path d="M65.2642 44.3518C65.2617 44.4888 65.2176 44.6219 65.1374 44.7343C65.0573 44.8467 64.9447 44.9332 64.8141 44.9828C64.6835 45.0325 64.5407 45.043 64.4039 45.0131C64.2671 44.9832 64.1425 44.9142 64.046 44.8148C63.9495 44.7155 63.8854 44.5904 63.8619 44.4553C63.8384 44.3203 63.8566 44.1814 63.9141 44.0565C63.9716 43.9316 64.0658 43.8262 64.1848 43.7538C64.3037 43.6813 64.4421 43.6452 64.5821 43.6498C64.6741 43.6521 64.7647 43.6721 64.8487 43.7086C64.9328 43.7451 65.0086 43.7975 65.072 43.8627C65.1353 43.9279 65.1849 44.0046 65.2179 44.0885C65.2508 44.1725 65.2666 44.2619 65.2642 44.3518Z" fill="#DA840D"/>
<path d="M69.1092 47.1371C69.1092 47.2551 68.7531 47.3495 68.3064 47.3495C67.8597 47.3495 67.5096 47.2551 67.5096 47.1371C67.5096 47.0192 67.8658 46.9248 68.3064 46.9248C68.747 46.9248 69.1092 47.0192 69.1092 47.1371Z" fill="#DA840D"/>
<path d="M71.6133 45.745C71.6283 45.8071 71.6232 45.8723 71.5985 45.9315C71.5739 45.9906 71.531 46.0408 71.4758 46.0749C71.4206 46.1091 71.3558 46.1256 71.2906 46.122C71.2253 46.1185 71.1628 46.0952 71.1118 46.0553C71.0608 46.0154 71.0238 45.9609 71.0059 45.8995C70.9881 45.8381 70.9903 45.7727 71.0123 45.7126C71.0343 45.6524 71.0749 45.6005 71.1286 45.564C71.1822 45.5275 71.2461 45.5083 71.3115 45.509C71.3833 45.5023 71.4549 45.5232 71.5113 45.5673C71.5676 45.6113 71.6042 45.6751 71.6133 45.745Z" fill="#DA840D"/>
<path d="M69.109 47.1363C69.095 47.2642 69.0435 47.3855 68.9605 47.4854C68.8776 47.5853 68.7669 47.6596 68.6417 47.6994C68.5165 47.7392 68.3822 47.7427 68.255 47.7095C68.1278 47.6764 68.0132 47.6079 67.9249 47.5125C67.8366 47.4171 67.7785 47.2987 67.7575 47.1717C67.7365 47.0447 67.7536 46.9144 67.8067 46.7967C67.8598 46.679 67.9466 46.5788 68.0567 46.5082C68.1667 46.4376 68.2953 46.3997 68.427 46.3989C68.5213 46.4035 68.6138 46.4261 68.6992 46.4657C68.7846 46.5052 68.8612 46.5608 68.9245 46.6293C68.9879 46.6978 69.0368 46.7778 69.0684 46.8648C69.1001 46.9518 69.1139 47.0441 69.109 47.1363Z" fill="#DA840D"/>
<path d="M72.9832 45.9561C72.9832 46.198 72.609 46.3986 72.1442 46.3986C71.6795 46.3986 71.3113 46.198 71.3113 45.9561C71.3113 45.7143 71.6855 45.5078 72.1442 45.5078C72.6029 45.5078 72.9832 45.7084 72.9832 45.9561Z" fill="#DA840D"/>
<path d="M92.7808 47.5678C92.7808 55.1832 76.2249 62.2736 56.289 62.2736C36.3531 62.2736 19.6644 54.6582 19.6644 47.0428C19.6644 39.4274 36.3531 34.6553 56.289 34.6553C76.2249 34.6553 92.7808 39.9465 92.7808 47.5678Z" fill="#E3AC8A"/>
<path d="M92.3825 46.0933C92.3825 53.7146 76.225 59.8906 56.2891 59.8906C36.3532 59.8906 20.1896 53.7146 20.1896 46.0933C20.1896 38.472 36.3532 32.2959 56.2891 32.2959C76.225 32.2959 92.3825 38.472 92.3825 46.0933Z" fill="#DA840D"/>
<path d="M55.7634 55.0236C70.5538 55.0236 82.5438 50.4415 82.5438 44.7892C82.5438 39.1368 70.5538 34.5547 55.7634 34.5547C40.973 34.5547 28.983 39.1368 28.983 44.7892C28.983 50.4415 40.973 55.0236 55.7634 55.0236Z" fill="#F0A508"/>
<path d="M37.7412 48.565C37.7412 49.1549 37.0591 49.6681 36.2141 49.6681C35.3691 49.6681 34.6931 49.1726 34.6931 48.565C34.6931 47.9574 35.3752 47.4619 36.2141 47.4619C37.0531 47.4619 37.7412 47.9515 37.7412 48.565Z" fill="#DA840D"/>
<path d="M34.6933 43.9159C34.6885 44.0793 34.6346 44.2377 34.5383 44.3714C34.4419 44.505 34.3074 44.6079 34.1516 44.6673C33.9957 44.7266 33.8254 44.7398 33.6619 44.7051C33.4985 44.6704 33.3491 44.5893 33.2325 44.4721C33.1159 44.3549 33.0372 44.2067 33.0062 44.0461C32.9753 43.8854 32.9935 43.7194 33.0586 43.5688C33.1236 43.4182 33.2327 43.2896 33.3721 43.1992C33.5114 43.1089 33.675 43.0606 33.8423 43.0605C34.0707 43.0652 34.288 43.1575 34.4473 43.3176C34.6065 43.4777 34.6949 43.6926 34.6933 43.9159Z" fill="#DA840D"/>
<path d="M45.2674 49.9027C45.2868 50.1894 45.2175 50.4753 45.0686 50.7231C44.9196 50.9709 44.6979 51.1692 44.4322 51.2923C44.1665 51.4154 43.869 51.4576 43.5785 51.4134C43.2879 51.3692 43.0176 51.2407 42.8027 51.0445C42.5879 50.8483 42.4383 50.5935 42.3734 50.3132C42.3085 50.0329 42.3314 49.74 42.439 49.4726C42.5466 49.2051 42.734 48.9754 42.9768 48.8133C43.2196 48.6513 43.5067 48.5643 43.8008 48.5636C44.1766 48.5525 44.5417 48.687 44.8164 48.9378C45.0912 49.1886 45.2533 49.5355 45.2674 49.9027Z" fill="#DA840D"/>
<path d="M42.0807 44.588C42.0807 44.9537 41.6643 45.2546 41.1573 45.2546C40.6503 45.2546 40.2278 44.9537 40.2278 44.588C40.2278 44.2223 40.6442 43.9155 41.1573 43.9155C41.6703 43.9155 42.0807 44.24 42.0807 44.588Z" fill="#DA840D"/>
<path d="M51.4119 47.7805C51.4339 47.9657 51.3978 48.1532 51.3083 48.318C51.2189 48.4827 51.0803 48.617 50.911 48.7031C50.7416 48.7891 50.5496 48.8229 50.3602 48.7998C50.1708 48.7767 49.993 48.698 49.8505 48.5739C49.708 48.4499 49.6073 48.2865 49.562 48.1053C49.5167 47.9241 49.5287 47.7337 49.5966 47.5594C49.6645 47.385 49.7849 47.235 49.942 47.1291C50.0992 47.0232 50.2855 46.9665 50.4763 46.9664C50.7104 46.9551 50.9396 47.034 51.1146 47.1863C51.2896 47.3386 51.3963 47.552 51.4119 47.7805Z" fill="#DA840D"/>
<path d="M51.7684 52.6579C51.7684 53.0354 51.3217 53.3421 50.7665 53.3421C50.2112 53.3421 49.7645 53.0354 49.7645 52.6579C49.7645 52.2803 50.2172 51.9795 50.7665 51.9795C51.3157 51.9795 51.7684 52.2803 51.7684 52.6579Z" fill="#DA840D"/>
<path d="M47.7726 45.3364C47.7631 45.4738 47.7124 45.6055 47.6268 45.715C47.5413 45.8244 47.4247 45.9069 47.2915 45.952C47.1584 45.9972 47.0146 46.0031 46.878 45.9689C46.7415 45.9348 46.6182 45.8622 46.5236 45.7601C46.429 45.6579 46.3672 45.5309 46.346 45.3947C46.3247 45.2586 46.3449 45.1193 46.4041 44.9943C46.4633 44.8692 46.5587 44.764 46.6787 44.6916C46.7986 44.6192 46.9376 44.5829 47.0785 44.5873C47.2712 44.5994 47.4514 44.6844 47.581 44.8243C47.7106 44.9642 47.7793 45.1479 47.7726 45.3364Z" fill="#DA840D"/>
<path d="M58.1657 46.7766C58.1657 47.1541 57.7311 47.4608 57.1939 47.4608C56.6567 47.4608 56.2222 47.1541 56.2222 46.7766C56.2222 46.399 56.6567 46.0923 57.1939 46.0923C57.7311 46.0923 58.1657 46.399 58.1657 46.7766Z" fill="#DA840D"/>
<path d="M58.1657 50.3103C58.1657 50.5345 57.7311 50.7174 57.1939 50.7174C56.6567 50.7174 56.2222 50.5345 56.2222 50.3103C56.2222 50.0862 56.6567 49.9033 57.1939 49.9033C57.7311 49.9033 58.1657 50.0862 58.1657 50.3103Z" fill="#DA840D"/>
<path d="M64.7389 48.0105C64.7389 48.3172 64.3465 48.565 63.8576 48.565C63.3687 48.565 62.9824 48.3172 62.9824 48.0105C62.9824 47.7038 63.3748 47.4619 63.8576 47.4619C64.3405 47.4619 64.7389 47.7097 64.7389 48.0105Z" fill="#DA840D"/>
<path d="M63.6884 51.9494C63.7309 52.1331 63.714 52.3252 63.6399 52.4991C63.5659 52.6729 63.4383 52.82 63.275 52.92C63.1117 53.0199 62.9206 53.0678 62.7282 53.0569C62.5358 53.046 62.3516 52.977 62.2011 52.8593C62.0507 52.7417 61.9413 52.5812 61.8882 52.4002C61.8352 52.2191 61.841 52.0264 61.9049 51.8487C61.9688 51.671 62.0876 51.5171 62.2449 51.4084C62.4023 51.2996 62.5903 51.2413 62.783 51.2415C62.9987 51.2199 63.2145 51.282 63.3839 51.4144C63.5532 51.5468 63.6626 51.7389 63.6884 51.9494Z" fill="#DA840D"/>
<path d="M71.0037 50.805C70.9661 50.9794 70.8788 51.1398 70.7518 51.2677C70.6247 51.3955 70.4633 51.4857 70.286 51.5276C70.1088 51.5696 69.923 51.5616 69.7502 51.5047C69.5774 51.4477 69.4247 51.3442 69.3096 51.2059C69.1945 51.0677 69.1218 50.9004 69.1 50.7235C69.0781 50.5465 69.108 50.3672 69.1861 50.2061C69.2642 50.0451 69.3873 49.9089 69.5413 49.8134C69.6953 49.7179 69.8737 49.667 70.0561 49.6665C70.3349 49.6977 70.5901 49.8343 70.7672 50.0471C70.9443 50.2598 71.0292 50.5319 71.0037 50.805Z" fill="#DA840D"/>
<path d="M70.4788 45.6742C70.4788 45.9042 70.171 46.093 69.7908 46.093C69.4105 46.093 69.1088 45.9042 69.1088 45.6742C69.1088 45.4441 69.4166 45.2554 69.7908 45.2554C70.1649 45.2554 70.4788 45.4205 70.4788 45.6742Z" fill="#DA840D"/>
<path d="M76.273 46.907C76.273 47.8214 75.8565 48.5646 75.3495 48.5646C74.8425 48.5646 74.42 47.8214 74.42 46.907C74.42 45.9927 74.8365 45.2554 75.3495 45.2554C75.8626 45.2554 76.273 46.0104 76.273 46.907Z" fill="#DA840D"/>
<path d="M78.5974 45.2305C78.5959 45.3474 78.5477 45.459 78.4631 45.5416C78.3785 45.6243 78.2643 45.6714 78.1447 45.6729C78.0552 45.6729 77.9677 45.647 77.8932 45.5983C77.8188 45.5497 77.7607 45.4806 77.7265 45.3998C77.6922 45.319 77.6832 45.23 77.7007 45.1442C77.7182 45.0584 77.7613 44.9795 77.8246 44.9177C77.8879 44.8558 77.9686 44.8137 78.0564 44.7966C78.1442 44.7795 78.2352 44.7883 78.318 44.8218C78.4007 44.8552 78.4714 44.912 78.5211 44.9847C78.5709 45.0575 78.5974 45.143 78.5974 45.2305Z" fill="#DA840D"/>
<path d="M63.3747 43.8162C63.3747 44.2409 62.8074 44.5889 62.1133 44.5889C61.4192 44.5889 60.8518 44.2409 60.8518 43.8162C60.8518 43.3914 61.4131 43.0493 62.1133 43.0493C62.8134 43.0493 63.3747 43.3914 63.3747 43.8162Z" fill="#DA840D"/>
<path d="M39.7085 39.8401C39.7085 40.1055 39.2679 40.3179 38.7247 40.3179C38.1815 40.3179 37.7408 40.1055 37.7408 39.8401C37.7408 39.5746 38.1815 39.3682 38.7247 39.3682C39.2679 39.3682 39.7085 39.5805 39.7085 39.8401Z" fill="#DA840D"/>
<path d="M45.5025 38.8952C45.5025 39.1548 45.0016 39.3672 44.3859 39.3672C43.7703 39.3672 43.2633 39.1548 43.2633 38.8952C43.2633 38.6357 43.7643 38.4233 44.3859 38.4233C45.0076 38.4233 45.5025 38.6357 45.5025 38.8952Z" fill="#DA840D"/>
<path d="M52.7945 40.0525C52.7945 40.43 52.1185 40.7367 51.2795 40.7367C50.4405 40.7367 49.7645 40.43 49.7645 40.0525C49.7645 39.6749 50.4466 39.3682 51.2795 39.3682C52.1124 39.3682 52.7945 39.6749 52.7945 40.0525Z" fill="#DA840D"/>
<path d="M58.1666 38.8953C58.1678 38.9903 58.14 39.0835 58.0867 39.1629C58.0335 39.2424 57.9572 39.3046 57.8676 39.3414C57.778 39.3783 57.6792 39.3883 57.5838 39.3701C57.4884 39.3518 57.4008 39.3062 57.332 39.239C57.2633 39.1718 57.2166 39.0862 57.1979 38.9929C57.1793 38.8997 57.1895 38.8031 57.2272 38.7156C57.265 38.628 57.3286 38.5535 57.4099 38.5014C57.4912 38.4494 57.5865 38.4222 57.6837 38.4234C57.8118 38.4234 57.9346 38.4731 58.0252 38.5616C58.1157 38.6501 58.1666 38.7701 58.1666 38.8953Z" fill="#DA840D"/>
<path d="M57.1944 42.6303C57.1944 42.8603 56.7357 43.0491 56.1623 43.0491C55.5889 43.0491 55.1362 42.8603 55.1362 42.6303C55.1362 42.4002 55.5949 42.2056 56.1623 42.2056C56.7297 42.2056 57.1944 42.3943 57.1944 42.6303Z" fill="#DA840D"/>
<path d="M65.2642 38.6896C65.2653 38.8273 65.2243 38.9622 65.1463 39.0769C65.0683 39.1917 64.957 39.281 64.8266 39.3334C64.6963 39.3857 64.5529 39.3988 64.4149 39.3709C64.2769 39.343 64.1506 39.2753 64.0523 39.1766C63.9539 39.078 63.888 38.9528 63.8631 38.8172C63.8381 38.6817 63.8553 38.5419 63.9122 38.4159C63.9692 38.29 64.0635 38.1835 64.1829 38.1104C64.3023 38.0372 64.4414 38.0006 64.5822 38.0053C64.7652 38.0084 64.9396 38.082 65.0673 38.2102C65.1951 38.3384 65.2658 38.5106 65.2642 38.6896Z" fill="#DA840D"/>
<path d="M69.1092 41.4731C69.1092 41.5852 68.7531 41.6796 68.3064 41.6796C67.8597 41.6796 67.5096 41.5852 67.5096 41.4731C67.5096 41.361 67.8658 41.2607 68.3064 41.2607C68.747 41.2607 69.1092 41.3551 69.1092 41.4731Z" fill="#DA840D"/>
<path d="M71.6137 40.1117C71.6275 40.1739 71.6211 40.2388 71.5955 40.2973C71.5698 40.3558 71.5262 40.4051 71.4706 40.4383C71.4151 40.4715 71.3503 40.4869 71.2853 40.4825C71.2203 40.4781 71.1584 40.4541 71.108 40.4137C71.0576 40.3734 71.0214 40.3187 71.0042 40.2573C70.9871 40.1958 70.9899 40.1307 71.0123 40.071C71.0348 40.0112 71.0756 39.9597 71.1293 39.9237C71.183 39.8876 71.2468 39.8688 71.312 39.8698C71.3847 39.8632 71.4572 39.8849 71.5137 39.9302C71.5702 39.9755 71.6061 40.0407 71.6137 40.1117Z" fill="#DA840D"/>
<path d="M69.109 41.4737C69.095 41.6016 69.0435 41.7228 68.9605 41.8228C68.8776 41.9227 68.7669 41.997 68.6417 42.0368C68.5165 42.0766 68.3822 42.0801 68.255 42.0469C68.1278 42.0138 68.0132 41.9453 67.9249 41.8499C67.8366 41.7544 67.7785 41.6361 67.7575 41.5091C67.7365 41.3821 67.7536 41.2518 67.8067 41.1341C67.8598 41.0164 67.9466 40.9162 68.0567 40.8456C68.1667 40.775 68.2953 40.7371 68.427 40.7363C68.5213 40.7409 68.6138 40.7635 68.6992 40.8031C68.7846 40.8426 68.8612 40.8982 68.9245 40.9667C68.9879 41.0352 69.0368 41.1152 69.0684 41.2022C69.1001 41.2892 69.1139 41.3815 69.109 41.4737Z" fill="#DA840D"/>
<path d="M72.9832 40.2882C72.9832 40.5359 72.609 40.7365 72.1442 40.7365C71.6795 40.7365 71.3113 40.5359 71.3113 40.2882C71.3113 40.0404 71.6855 39.8398 72.1442 39.8398C72.6029 39.8398 72.9832 40.0404 72.9832 40.2882Z" fill="#DA840D"/>
<path d="M93.3541 37.4451C93.3541 45.0605 76.7921 52.1509 56.8562 52.1509C36.9203 52.1509 20.2377 44.5355 20.2377 36.9142C20.2377 29.2929 36.9203 24.5562 56.8562 24.5562C76.7921 24.5562 93.3541 29.8238 93.3541 37.4451Z" fill="#E3AC8A"/>
<path d="M92.9492 35.9825C92.9492 43.6038 76.7856 49.7799 56.8497 49.7799C36.9138 49.7799 20.7623 43.592 20.7623 35.9825C20.7623 28.373 36.9199 22.1733 56.8558 22.1733C76.7917 22.1733 92.9492 28.3494 92.9492 35.9825Z" fill="#DA840D"/>
<path d="M83.1176 34.6666C83.1176 40.3177 71.1247 44.9011 56.3372 44.9011C41.5498 44.9011 29.575 40.3177 29.575 34.6666C29.575 29.0156 41.5498 24.4263 56.3372 24.4263C71.1247 24.4263 83.1176 29.0097 83.1176 34.6666Z" fill="#F0A508"/>
<path d="M38.3086 38.4424C38.3086 39.0323 37.6326 39.5455 36.7876 39.5455C35.9426 39.5455 35.2666 39.05 35.2666 38.4424C35.2666 37.8349 35.9486 37.3394 36.8178 37.3394C37.6869 37.3394 38.3086 37.829 38.3086 38.4424Z" fill="#DA840D"/>
<path d="M35.2666 33.7939C35.2595 33.9562 35.2039 34.1129 35.1067 34.2447C35.0095 34.3765 34.875 34.4776 34.7197 34.5355C34.5644 34.5934 34.3951 34.6056 34.2328 34.5705C34.0705 34.5355 33.9222 34.4548 33.8063 34.3383C33.6904 34.2219 33.6119 34.0748 33.5806 33.9153C33.5492 33.7558 33.5664 33.5907 33.6299 33.4406C33.6934 33.2905 33.8005 33.1618 33.938 33.0705C34.0755 32.9792 34.2373 32.9292 34.4035 32.9268C34.5187 32.9275 34.6325 32.9506 34.7385 32.9948C34.8444 33.0389 34.9403 33.1032 35.0206 33.1839C35.1009 33.2646 35.164 33.36 35.2063 33.4647C35.2485 33.5695 35.269 33.6813 35.2666 33.7939Z" fill="#DA840D"/>
<path d="M45.871 39.7811C45.8891 40.0665 45.8191 40.3507 45.67 40.5968C45.5209 40.8429 45.2997 41.0396 45.0349 41.1613C44.7701 41.283 44.474 41.3242 44.185 41.2795C43.8959 41.2349 43.6273 41.1064 43.4139 40.9107C43.2004 40.7151 43.0521 40.4613 42.988 40.1822C42.9239 39.9032 42.947 39.6117 43.0544 39.3457C43.1618 39.0797 43.3485 38.8513 43.5902 38.6902C43.832 38.529 44.1177 38.4426 44.4103 38.442C44.7855 38.4309 45.15 38.5656 45.4238 38.8166C45.6975 39.0676 45.8584 39.4144 45.871 39.7811Z" fill="#DA840D"/>
<path d="M42.654 34.46C42.654 34.8316 42.2375 35.1325 41.7245 35.1325C41.2115 35.1325 40.801 34.8316 40.801 34.46C40.801 34.0884 41.2175 33.7935 41.7245 33.7935C42.2315 33.7935 42.654 34.0943 42.654 34.46Z" fill="#DA840D"/>
<path d="M51.9856 37.6286C52.0076 37.8139 51.9715 38.0013 51.8821 38.1661C51.7926 38.3308 51.654 38.4652 51.4847 38.5512C51.3154 38.6373 51.1233 38.671 50.9339 38.6479C50.7445 38.6249 50.5668 38.5461 50.4242 38.4221C50.2817 38.298 50.1811 38.1346 50.1357 37.9534C50.0904 37.7722 50.1024 37.5818 50.1703 37.4075C50.2382 37.2332 50.3587 37.0831 50.5158 36.9772C50.6729 36.8713 50.8592 36.8146 51.0501 36.8145C51.2841 36.8032 51.5133 36.8822 51.6883 37.0345C51.8633 37.1867 51.9701 37.4001 51.9856 37.6286Z" fill="#DA840D"/>
<path d="M52.3413 42.5366C52.3413 42.9141 51.8946 43.2209 51.3393 43.2209C50.784 43.2209 50.3374 42.9141 50.3374 42.5366C50.3374 42.1591 50.784 41.8818 51.3393 41.8818C51.8946 41.8818 52.3413 42.165 52.3413 42.5366Z" fill="#DA840D"/>
<path d="M48.3463 35.2151C48.3463 35.4013 48.2706 35.5799 48.1359 35.7115C48.0012 35.8432 47.8185 35.9171 47.628 35.9171C47.4375 35.9171 47.2549 35.8432 47.1202 35.7115C46.9855 35.5799 46.9098 35.4013 46.9098 35.2151C46.9098 35.029 46.9855 34.8504 47.1202 34.7188C47.2549 34.5871 47.4375 34.5132 47.628 34.5132C47.8185 34.5132 48.0012 34.5871 48.1359 34.7188C48.2706 34.8504 48.3463 35.029 48.3463 35.2151Z" fill="#DA840D"/>
<path d="M58.7393 36.6544C58.7393 37.0319 58.3047 37.3387 57.7675 37.3387C57.2303 37.3387 56.7958 37.0319 56.7958 36.6544C56.7958 36.2769 57.2303 35.9819 57.7675 35.9819C58.3047 35.9819 58.7393 36.2769 58.7393 36.6544Z" fill="#DA840D"/>
<path d="M58.7393 40.1878C58.7393 40.4119 58.3047 40.5948 57.7675 40.5948C57.2303 40.5948 56.7958 40.4119 56.7958 40.1878C56.7958 39.9636 57.2303 39.7808 57.7675 39.7808C58.3047 39.7808 58.7393 39.9636 58.7393 40.1878Z" fill="#DA840D"/>
<path d="M65.3117 37.8879C65.3117 38.1947 64.9194 38.4424 64.4305 38.4424C63.9416 38.4424 63.5493 38.1947 63.5493 37.8879C63.5493 37.5812 63.9477 37.3394 64.4305 37.3394C64.9134 37.3394 65.3117 37.5871 65.3117 37.8879Z" fill="#DA840D"/>
<path d="M64.262 41.8274C64.3058 42.0123 64.2897 42.2058 64.216 42.3813C64.1422 42.5568 64.0145 42.7055 63.8504 42.8069C63.6863 42.9082 63.494 42.9571 63.3002 42.9469C63.1064 42.9367 62.9206 42.8678 62.7686 42.7497C62.6167 42.6317 62.506 42.4704 62.4521 42.2881C62.3981 42.1059 62.4034 41.9118 62.4674 41.7327C62.5313 41.5535 62.6507 41.3983 62.809 41.2885C62.9672 41.1786 63.1565 41.1196 63.3506 41.1196C63.5673 41.0963 63.7847 41.1576 63.9554 41.2902C64.126 41.4228 64.2362 41.6159 64.262 41.8274Z" fill="#DA840D"/>
<path d="M71.5775 40.7012C71.5335 40.8732 71.4412 41.0297 71.311 41.153C71.1807 41.2764 71.0178 41.3616 70.8405 41.3992C70.6633 41.4367 70.4789 41.4251 70.3081 41.3655C70.1372 41.3059 69.9869 41.2008 69.8741 41.062C69.7612 40.9233 69.6903 40.7565 69.6694 40.5804C69.6485 40.4043 69.6785 40.2261 69.7559 40.0658C69.8333 39.9055 69.955 39.7696 70.1073 39.6734C70.2597 39.5772 70.4365 39.5246 70.6178 39.5215C70.7609 39.5353 70.8997 39.5771 71.026 39.6443C71.1523 39.7116 71.2635 39.8029 71.353 39.913C71.4425 40.023 71.5085 40.1494 71.5471 40.2848C71.5856 40.4203 71.596 40.5618 71.5775 40.7012Z" fill="#DA840D"/>
<path d="M71.0526 35.5511C71.0526 35.7812 70.7448 35.97 70.3645 35.97C69.9843 35.97 69.6825 35.7812 69.6825 35.5511C69.6825 35.3211 69.9843 35.1323 70.3645 35.1323C70.7448 35.1323 71.0526 35.3211 71.0526 35.5511Z" fill="#DA840D"/>
<path d="M76.8467 36.784C76.8467 37.6983 76.4302 38.4416 75.9172 38.4416C75.4042 38.4416 74.9938 37.6983 74.9938 36.784C74.9938 35.8697 75.4102 35.1323 75.9172 35.1323C76.4242 35.1323 76.8467 35.8697 76.8467 36.784Z" fill="#DA840D"/>
<path d="M79.1645 35.1089C79.1633 35.195 79.1361 35.2788 79.0863 35.3498C79.0365 35.4208 78.9663 35.4758 78.8846 35.508C78.8029 35.5401 78.7133 35.5479 78.6271 35.5304C78.5408 35.5129 78.4618 35.4709 78.4 35.4096C78.3381 35.3483 78.2961 35.2705 78.2794 35.186C78.2626 35.1015 78.2718 35.0141 78.3058 34.9346C78.3398 34.8552 78.397 34.7874 78.4703 34.7397C78.5437 34.692 78.6298 34.6665 78.7179 34.6665C78.8369 34.6681 78.9505 34.7153 79.0341 34.7981C79.1176 34.8809 79.1645 34.9926 79.1645 35.1089Z" fill="#DA840D"/>
<path d="M63.942 33.6936C63.942 34.1183 63.3807 34.4605 62.6866 34.4605C61.9925 34.4605 61.4252 34.1183 61.4252 33.6936C61.4252 33.2689 61.9865 32.9268 62.6866 32.9268C63.3867 32.9268 63.942 33.2689 63.942 33.6936Z" fill="#DA840D"/>
<path d="M40.2825 29.7229C40.2825 29.9825 39.8419 30.1948 39.2987 30.1948C38.7555 30.1948 38.3088 29.9825 38.3088 29.7229C38.3088 29.4634 38.7494 29.2451 39.2987 29.2451C39.8479 29.2451 40.2825 29.4575 40.2825 29.7229Z" fill="#DA840D"/>
<path d="M46.0763 28.7742C46.0763 29.0396 45.5753 29.2461 44.9536 29.2461C44.332 29.2461 43.837 29.0396 43.837 28.7742C43.837 28.5087 44.338 28.3022 44.9536 28.3022C45.5693 28.3022 46.0763 28.5146 46.0763 28.7742Z" fill="#DA840D"/>
<path d="M53.3673 29.9294C53.3673 30.3069 52.6913 30.6136 51.8524 30.6136C51.0134 30.6136 50.3374 30.3069 50.3374 29.9294C50.3374 29.5519 51.0194 29.2451 51.8524 29.2451C52.6853 29.2451 53.3673 29.5519 53.3673 29.9294Z" fill="#DA840D"/>
<path d="M58.7395 28.7729C58.7261 28.8898 58.6692 28.9977 58.5795 29.076C58.4899 29.1544 58.3738 29.1977 58.2536 29.1977C58.1333 29.1977 58.0173 29.1544 57.9276 29.076C57.838 28.9977 57.781 28.8898 57.7677 28.7729C57.781 28.6561 57.838 28.5482 57.9276 28.4698C58.0173 28.3915 58.1333 28.3481 58.2536 28.3481C58.3738 28.3481 58.4899 28.3915 58.5795 28.4698C58.6692 28.5482 58.7261 28.6561 58.7395 28.7729Z" fill="#DA840D"/>
<path d="M57.7675 32.5013C57.7675 32.7373 57.3087 32.9261 56.7353 32.9261C56.162 32.9261 55.7032 32.7373 55.7032 32.5013C55.7032 32.2654 56.168 32.0825 56.7353 32.0825C57.3027 32.0825 57.7675 32.2713 57.7675 32.5013Z" fill="#DA840D"/>
<path d="M65.8376 28.5667C65.8388 28.7034 65.7984 28.8374 65.7215 28.9517C65.6447 29.066 65.5348 29.1553 65.4059 29.2085C65.277 29.2616 65.1348 29.2761 64.9974 29.2502C64.86 29.2242 64.7336 29.159 64.6343 29.0627C64.5349 28.9664 64.4671 28.8434 64.4393 28.7094C64.4116 28.5754 64.4252 28.4363 64.4785 28.3099C64.5317 28.1834 64.6222 28.0753 64.7385 27.9992C64.8547 27.9231 64.9915 27.8824 65.1314 27.8824C65.2241 27.8808 65.3162 27.8974 65.4022 27.9312C65.4882 27.9649 65.5664 28.0152 65.6322 28.079C65.698 28.1427 65.7501 28.2187 65.7854 28.3025C65.8207 28.3863 65.8384 28.4761 65.8376 28.5667Z" fill="#DA840D"/>
<path d="M69.6815 31.352C69.6815 31.4641 69.3193 31.5585 68.8787 31.5585C68.4381 31.5585 68.082 31.4641 68.082 31.352C68.082 31.2399 68.4381 31.1396 68.8787 31.1396C69.3193 31.1396 69.6815 31.2635 69.6815 31.352Z" fill="#DA840D"/>
<path d="M72.1871 29.9598C72.1684 30.0239 72.1288 30.0803 72.0744 30.1204C72.0199 30.1606 71.9535 30.1823 71.8853 30.1823C71.8171 30.1823 71.7507 30.1606 71.6963 30.1204C71.6418 30.0803 71.6022 30.0239 71.5835 29.9598C71.6022 29.8957 71.6418 29.8393 71.6963 29.7992C71.7507 29.759 71.8171 29.7373 71.8853 29.7373C71.9535 29.7373 72.0199 29.759 72.0744 29.7992C72.1288 29.8393 72.1684 29.8957 72.1871 29.9598Z" fill="#DA840D"/>
<path d="M69.6824 31.3511C69.6684 31.4791 69.6168 31.6003 69.5339 31.7002C69.451 31.8001 69.3402 31.8745 69.215 31.9142C69.0898 31.954 68.9555 31.9575 68.8284 31.9244C68.7012 31.8912 68.5865 31.8228 68.4982 31.7273C68.41 31.6319 68.3518 31.5135 68.3309 31.3865C68.3099 31.2595 68.327 31.1293 68.3801 31.0115C68.4331 30.8938 68.5199 30.7936 68.63 30.723C68.7401 30.6524 68.8687 30.6145 69.0003 30.6138C69.0947 30.6183 69.1872 30.641 69.2726 30.6805C69.358 30.72 69.4345 30.7757 69.4979 30.8441C69.5612 30.9126 69.6101 30.9927 69.6418 31.0797C69.6735 31.1667 69.6872 31.2589 69.6824 31.3511Z" fill="#DA840D"/>
<path d="M73.5572 30.166C73.5572 30.4138 73.183 30.6144 72.7182 30.6144C72.2535 30.6144 71.8793 30.4138 71.8793 30.166C71.8793 29.9183 72.2535 29.7236 72.7182 29.7236C73.183 29.7236 73.5572 29.9183 73.5572 30.166Z" fill="#DA840D"/>
<path d="M93.3541 30.9384C93.3541 38.5597 76.7921 45.6442 56.8562 45.6442C36.9203 45.6442 20.2377 38.0347 20.2377 30.4134C20.2377 22.7921 36.9203 18.0259 56.8562 18.0259C76.7921 18.0259 93.3541 23.3171 93.3541 30.9384Z" fill="#E3AC8A"/>
<path d="M92.9492 29.4937C92.9492 37.1091 76.7856 43.2911 56.8497 43.2911C36.9138 43.2911 20.7623 37.0855 20.7623 29.4937C20.7623 21.9019 36.9199 15.6904 56.8558 15.6904C76.7917 15.6904 92.9492 21.8252 92.9492 29.4937Z" fill="#DA840D"/>
<path d="M83.1176 28.1603C83.1176 33.8114 71.1247 38.3948 56.3372 38.3948C41.5498 38.3948 29.575 33.8114 29.575 28.1603C29.575 22.5092 41.5498 17.9199 56.3372 17.9199C71.1247 17.9199 83.1176 22.5033 83.1176 28.1603Z" fill="#F0A508"/>
<path d="M38.3086 31.9356C38.3086 32.5255 37.6326 33.0387 36.7876 33.0387C35.9426 33.0387 35.2666 32.5432 35.2666 31.9356C35.2666 31.328 35.9486 30.8325 36.7876 30.8325C37.6266 30.8325 38.3086 31.328 38.3086 31.9356Z" fill="#DA840D"/>
<path d="M35.2666 27.287C35.2595 27.4494 35.2039 27.6061 35.1067 27.7379C35.0095 27.8697 34.875 27.9708 34.7197 28.0287C34.5644 28.0866 34.3951 28.0988 34.2328 28.0637C34.0705 28.0287 33.9222 27.948 33.8063 27.8315C33.6904 27.7151 33.6119 27.568 33.5806 27.4085C33.5492 27.2489 33.5664 27.0839 33.6299 26.9338C33.6934 26.7836 33.8005 26.655 33.938 26.5637C34.0755 26.4723 34.2373 26.4224 34.4035 26.4199C34.5187 26.4207 34.6325 26.4438 34.7385 26.4879C34.8444 26.5321 34.9403 26.5964 35.0206 26.677C35.1009 26.7577 35.164 26.8532 35.2063 26.9579C35.2485 27.0626 35.269 27.1745 35.2666 27.287Z" fill="#DA840D"/>
<path d="M44.3927 34.6131C45.1993 34.6131 45.8533 34.0136 45.8533 33.2741C45.8533 32.5346 45.1993 31.9351 44.3927 31.9351C43.586 31.9351 42.932 32.5346 42.932 33.2741C42.932 34.0136 43.586 34.6131 44.3927 34.6131Z" fill="#DA840D"/>
<path d="M42.654 27.9601C42.654 28.3258 42.2375 28.6266 41.7245 28.6266C41.2115 28.6266 40.801 28.314 40.801 27.9601C40.801 27.6061 41.2175 27.2876 41.7245 27.2876C42.2315 27.2876 42.654 27.5884 42.654 27.9601Z" fill="#DA840D"/>
<path d="M51.9856 31.1217C52.0076 31.307 51.9715 31.4945 51.8821 31.6592C51.7926 31.824 51.654 31.9583 51.4847 32.0444C51.3154 32.1304 51.1233 32.1641 50.9339 32.1411C50.7445 32.118 50.5668 32.0392 50.4242 31.9152C50.2817 31.7912 50.1811 31.6277 50.1357 31.4466C50.0904 31.2654 50.1024 31.075 50.1703 30.9007C50.2382 30.7263 50.3587 30.5763 50.5158 30.4704C50.6729 30.3645 50.8592 30.3078 51.0501 30.3077C51.2841 30.2964 51.5133 30.3754 51.6883 30.5276C51.8633 30.6799 51.9701 30.8933 51.9856 31.1217Z" fill="#DA840D"/>
<path d="M52.3413 36.0285C52.3413 36.406 51.8946 36.7127 51.3393 36.7127C50.784 36.7127 50.3374 36.406 50.3374 36.0285C50.3374 35.6509 50.784 35.3501 51.3393 35.3501C51.8946 35.3501 52.3413 35.6568 52.3413 36.0285Z" fill="#DA840D"/>
<path d="M48.3462 28.714C48.3356 28.8501 48.2847 28.9803 48.1996 29.0885C48.1146 29.1967 47.999 29.2784 47.8672 29.3235C47.7354 29.3686 47.593 29.3751 47.4575 29.3423C47.3219 29.3096 47.199 29.2389 47.104 29.1389C47.0089 29.0389 46.9457 28.914 46.9221 28.7795C46.8985 28.645 46.9155 28.5067 46.9711 28.3815C47.0267 28.2563 47.1185 28.1496 47.2351 28.0746C47.3518 27.9995 47.4883 27.9594 47.6279 27.959C47.8254 27.9667 48.0117 28.0504 48.1463 28.1918C48.2809 28.3333 48.3527 28.521 48.3462 28.714Z" fill="#DA840D"/>
<path d="M58.7393 30.1484C58.7393 30.5259 58.3047 30.8327 57.7675 30.8327C57.2303 30.8327 56.7958 30.5259 56.7958 30.1484C56.7958 29.7709 57.2303 29.4937 57.7675 29.4937C58.3047 29.4937 58.7393 29.7709 58.7393 30.1484Z" fill="#DA840D"/>
<path d="M58.7393 33.6809C58.7393 33.9051 58.3047 34.088 57.7675 34.088C57.2303 34.088 56.7958 33.9051 56.7958 33.6809C56.7958 33.4568 57.2303 33.2739 57.7675 33.2739C58.3047 33.2739 58.7393 33.4568 58.7393 33.6809Z" fill="#DA840D"/>
<path d="M65.3117 31.3811C65.3117 31.6879 64.9194 31.9356 64.4305 31.9356C63.9416 31.9356 63.5493 31.6879 63.5493 31.3811C63.5493 31.0744 63.9477 30.8325 64.4305 30.8325C64.9134 30.8325 65.3117 31.0803 65.3117 31.3811Z" fill="#DA840D"/>
<path d="M64.262 35.3216C64.3058 35.5064 64.2897 35.6999 64.216 35.8754C64.1422 36.0509 64.0145 36.1996 63.8504 36.301C63.6863 36.4023 63.494 36.4513 63.3002 36.441C63.1064 36.4308 62.9206 36.3619 62.7686 36.2438C62.6167 36.1258 62.506 35.9645 62.4521 35.7823C62.3981 35.6 62.4034 35.4059 62.4674 35.2268C62.5313 35.0477 62.6507 34.8924 62.809 34.7826C62.9672 34.6727 63.1565 34.6137 63.3506 34.6137C63.5673 34.5905 63.7847 34.6518 63.9554 34.7843C64.126 34.9169 64.2362 35.11 64.262 35.3216Z" fill="#DA840D"/>
<path d="M71.5774 34.2125C71.5335 34.3845 71.4412 34.541 71.3109 34.6643C71.1807 34.7877 71.0178 34.8729 70.8405 34.9105C70.6633 34.948 70.4788 34.9363 70.308 34.8767C70.1372 34.8172 69.9869 34.7121 69.8741 34.5733C69.7612 34.4346 69.6903 34.2677 69.6694 34.0917C69.6485 33.9156 69.6785 33.7373 69.7559 33.577C69.8333 33.4167 69.955 33.2808 70.1073 33.1846C70.2596 33.0884 70.4365 33.0358 70.6178 33.0327C70.7612 33.0458 70.9005 33.087 71.0272 33.154C71.1539 33.221 71.2654 33.3124 71.3551 33.4226C71.4447 33.5328 71.5106 33.6596 71.5488 33.7953C71.5871 33.9311 71.5968 34.073 71.5774 34.2125Z" fill="#DA840D"/>
<path d="M71.0526 29.0458C71.0526 29.2817 70.7448 29.4705 70.3645 29.4705C69.9843 29.4705 69.6825 29.2817 69.6825 29.0458C69.6825 28.8098 69.9843 28.627 70.3645 28.627C70.7448 28.627 71.0526 28.8157 71.0526 29.0458Z" fill="#DA840D"/>
<path d="M76.8467 30.2786C76.8467 31.193 76.4302 31.9362 75.9172 31.9362C75.4042 31.9362 74.9938 31.193 74.9938 30.2786C74.9938 29.3643 75.4102 28.627 75.9172 28.627C76.4242 28.627 76.8467 29.3702 76.8467 30.2786Z" fill="#DA840D"/>
<path d="M79.1646 28.6036C79.1634 28.6896 79.1362 28.7734 79.0864 28.8445C79.0366 28.9155 78.9664 28.9705 78.8847 29.0026C78.803 29.0348 78.7133 29.0426 78.6271 29.0251C78.5409 29.0076 78.4618 28.9655 78.4 28.9043C78.3381 28.843 78.2961 28.7652 78.2794 28.6807C78.2626 28.5962 78.2718 28.5087 78.3058 28.4293C78.3398 28.3499 78.397 28.282 78.4704 28.2343C78.5437 28.1866 78.6298 28.1611 78.7179 28.1611C78.777 28.1611 78.8356 28.1726 78.8902 28.1949C78.9448 28.2172 78.9943 28.2499 79.0359 28.2911C79.0774 28.3322 79.1102 28.3811 79.1323 28.4347C79.1544 28.4883 79.1654 28.5457 79.1646 28.6036Z" fill="#DA840D"/>
<path d="M63.942 27.1868C63.942 27.6115 63.3807 27.9595 62.6866 27.9595C61.9925 27.9595 61.4252 27.6115 61.4252 27.1868C61.4252 26.7621 61.9865 26.4199 62.6866 26.4199C63.3867 26.4199 63.942 26.7621 63.942 27.1868Z" fill="#DA840D"/>
<path d="M40.2825 23.217C40.2825 23.4766 39.8419 23.6889 39.2987 23.6889C38.7555 23.6889 38.3088 23.4766 38.3088 23.217C38.3088 22.9575 38.7494 22.7451 39.2987 22.7451C39.8479 22.7451 40.2825 22.9575 40.2825 23.217Z" fill="#DA840D"/>
<path d="M46.0763 22.2668C46.0763 22.5323 45.5753 22.7446 44.9536 22.7446C44.332 22.7446 43.837 22.5323 43.837 22.2668C43.837 22.0014 44.338 21.7949 44.9536 21.7949C45.5693 21.7949 46.0763 22.0073 46.0763 22.2668Z" fill="#DA840D"/>
<path d="M53.3673 23.4235C53.3673 23.801 52.6913 24.1077 51.8524 24.1077C51.0134 24.1077 50.3374 23.801 50.3374 23.4235C50.3374 23.046 51.0194 22.7451 51.8524 22.7451C52.6853 22.7451 53.3673 23.046 53.3673 23.4235Z" fill="#DA840D"/>
<path d="M58.7391 22.2674C58.7403 22.3623 58.7125 22.4555 58.6592 22.535C58.606 22.6145 58.5297 22.6766 58.4401 22.7135C58.3505 22.7504 58.2517 22.7604 58.1563 22.7421C58.0609 22.7239 57.9733 22.6783 57.9045 22.6111C57.8358 22.5439 57.7891 22.4582 57.7705 22.365C57.7518 22.2718 57.762 22.1752 57.7997 22.0877C57.8375 22.0001 57.9011 21.9256 57.9824 21.8735C58.0637 21.8215 58.159 21.7943 58.2562 21.7954C58.3843 21.7954 58.5071 21.8452 58.5977 21.9337C58.6882 22.0222 58.7391 22.1422 58.7391 22.2674Z" fill="#DA840D"/>
<path d="M57.7675 26.0009C57.7675 26.2309 57.3087 26.4197 56.7353 26.4197C56.162 26.4197 55.7032 26.2309 55.7032 26.0009C55.7032 25.7708 56.168 25.5762 56.7353 25.5762C57.3027 25.5762 57.7675 25.7649 57.7675 26.0009Z" fill="#DA840D"/>
<path d="M65.8376 22.0612C65.8388 22.198 65.7984 22.332 65.7215 22.4463C65.6447 22.5606 65.5348 22.6499 65.4059 22.7031C65.277 22.7562 65.1348 22.7707 64.9974 22.7448C64.86 22.7188 64.7336 22.6535 64.6343 22.5573C64.5349 22.461 64.4671 22.338 64.4393 22.204C64.4116 22.0699 64.4252 21.9309 64.4785 21.8044C64.5317 21.678 64.6222 21.5698 64.7385 21.4937C64.8547 21.4176 64.9915 21.377 65.1314 21.377C65.2239 21.3762 65.3156 21.3933 65.4012 21.4274C65.4869 21.4614 65.5647 21.5117 65.6304 21.5753C65.6961 21.6389 65.7482 21.7146 65.7837 21.798C65.8193 21.8814 65.8376 21.9709 65.8376 22.0612Z" fill="#DA840D"/>
<path d="M69.6815 24.8452C69.6815 24.9573 69.3193 25.0516 68.8787 25.0516C68.4381 25.0516 68.082 24.9573 68.082 24.8452C68.082 24.7331 68.4381 24.6328 68.8787 24.6328C69.3193 24.6328 69.6815 24.7272 69.6815 24.8452Z" fill="#DA840D"/>
<path d="M72.1873 23.453C72.2024 23.5149 72.1973 23.5799 72.1729 23.6388C72.1485 23.6978 72.106 23.7479 72.0511 23.7822C71.9963 23.8165 71.9319 23.8333 71.8669 23.8302C71.8019 23.8272 71.7395 23.8045 71.6883 23.7652C71.6371 23.7259 71.5996 23.6721 71.5811 23.6111C71.5626 23.5501 71.5639 23.485 71.5849 23.4248C71.6059 23.3646 71.6456 23.3123 71.6983 23.2751C71.7511 23.2378 71.8144 23.2176 71.8795 23.2171C71.952 23.2103 72.0244 23.231 72.0817 23.2749C72.139 23.3188 72.1768 23.3826 72.1873 23.453Z" fill="#DA840D"/>
<path d="M69.6824 24.8443C69.6684 24.9722 69.6168 25.0934 69.5339 25.1934C69.451 25.2933 69.3402 25.3676 69.215 25.4074C69.0898 25.4472 68.9555 25.4507 68.8284 25.4175C68.7012 25.3844 68.5865 25.3159 68.4982 25.2205C68.41 25.125 68.3518 25.0067 68.3309 24.8797C68.3099 24.7527 68.327 24.6224 68.3801 24.5047C68.4331 24.387 68.5199 24.2868 68.63 24.2162C68.7401 24.1456 68.8687 24.1077 69.0003 24.1069C69.0947 24.1115 69.1872 24.1341 69.2726 24.1737C69.358 24.2132 69.4345 24.2688 69.4979 24.3373C69.5612 24.4058 69.6101 24.4858 69.6418 24.5728C69.6735 24.6598 69.6872 24.7521 69.6824 24.8443Z" fill="#DA840D"/>
<path d="M73.5572 23.6592C73.5572 23.907 73.183 24.1075 72.7182 24.1075C72.2535 24.1075 71.8793 23.907 71.8793 23.6592C71.8793 23.4115 72.2535 23.2168 72.7182 23.2168C73.183 23.2168 73.5572 23.4174 73.5572 23.6592Z" fill="#DA840D"/>
<path d="M91.9595 24.2379C91.1146 16.9115 75.977 11.0835 57.4233 11.0835C40.0647 11.0835 25.6997 16.186 23.2251 22.834C22.6534 23.7324 22.3445 24.7668 22.3318 25.8247C22.3318 33.446 38.3264 41.0614 57.4233 41.0614C76.5202 41.0614 92.382 33.9828 92.382 26.3497C92.3808 25.6258 92.2373 24.9089 91.9595 24.2379Z" fill="#C66720"/>
<path d="M94.0908 22.9168C94.0908 30.5381 77.5288 37.6285 57.5929 37.6285C37.657 37.6285 20.9744 30.0131 20.9744 22.4154C20.9744 14.8177 37.657 10.0278 57.5929 10.0278C77.5288 10.0278 94.0908 15.2955 94.0908 22.9168Z" fill="#E3AC8A"/>
<path d="M93.7706 21.4481C93.7706 29.0694 78.0778 34.8267 58.16 34.8267C38.2422 34.8267 22.0665 28.6506 22.0665 21.0293C22.0665 13.408 38.2241 7.23193 58.16 7.23193C78.0959 7.23193 93.7706 13.8268 93.7706 21.4481Z" fill="#DA840D"/>
<path d="M57.0737 30.3728C71.8641 30.3728 83.8541 25.7906 83.8541 20.1383C83.8541 14.4859 71.8641 9.90381 57.0737 9.90381C42.2833 9.90381 30.2933 14.4859 30.2933 20.1383C30.2933 25.7906 42.2833 30.3728 57.0737 30.3728Z" fill="#F0A508"/>
<path d="M39.0449 23.9127C39.0449 24.5025 38.3629 25.0216 37.5239 25.0216C36.685 25.0216 36.0029 24.5261 36.0029 23.9127C36.0029 23.2992 36.685 22.8096 37.5239 22.8096C38.3629 22.8096 39.0449 23.3051 39.0449 23.9127Z" fill="#DA840D"/>
<path d="M36.0027 19.27C35.9944 19.4325 35.9376 19.5891 35.8392 19.7203C35.7408 19.8516 35.6052 19.9517 35.4491 20.0084C35.2931 20.065 35.1234 20.0757 34.9612 20.0391C34.799 20.0025 34.6513 19.9202 34.5365 19.8024C34.4217 19.6846 34.3447 19.5365 34.3152 19.3764C34.2856 19.2163 34.3047 19.0512 34.3702 18.9016C34.4357 18.752 34.5446 18.6245 34.6835 18.5348C34.8224 18.4451 34.9852 18.3972 35.1516 18.397C35.2663 18.3993 35.3794 18.4237 35.4843 18.4689C35.5893 18.5141 35.684 18.5792 35.7632 18.6603C35.8423 18.7415 35.9042 18.8371 35.9453 18.9418C35.9864 19.0464 36.0059 19.158 36.0027 19.27Z" fill="#DA840D"/>
<path d="M46.5895 25.2572C46.6064 25.5425 46.5353 25.8262 46.3854 26.0715C46.2356 26.3169 46.0138 26.5126 45.7488 26.6334C45.4839 26.7543 45.1879 26.7946 44.8992 26.7492C44.6106 26.7038 44.3425 26.5748 44.1297 26.3788C43.9169 26.1829 43.7691 25.929 43.7056 25.6501C43.642 25.3711 43.6656 25.08 43.7732 24.8143C43.8808 24.5486 44.0676 24.3206 44.3093 24.1598C44.5509 23.999 44.8365 23.9127 45.1288 23.9123C45.3151 23.9068 45.5007 23.9372 45.6749 24.0018C45.8492 24.0664 46.0087 24.164 46.1443 24.2889C46.28 24.4138 46.3891 24.5636 46.4655 24.7298C46.5419 24.8959 46.584 25.0751 46.5895 25.2572Z" fill="#DA840D"/>
<path d="M43.391 19.9366C43.391 20.3082 42.9746 20.6032 42.4615 20.6032C41.9485 20.6032 41.5381 20.3082 41.5381 19.9366C41.5381 19.565 41.9545 19.27 42.4615 19.27C42.9685 19.27 43.391 19.5709 43.391 19.9366Z" fill="#DA840D"/>
<path d="M52.7214 23.0991C52.7435 23.2844 52.7074 23.4718 52.6179 23.6366C52.5284 23.8014 52.3899 23.9357 52.2205 24.0217C52.0512 24.1078 51.8591 24.1415 51.6697 24.1185C51.4804 24.0954 51.3026 24.0166 51.1601 23.8926C51.0175 23.7686 50.9169 23.6051 50.8716 23.4239C50.8262 23.2427 50.8383 23.0524 50.9062 22.878C50.974 22.7037 51.0945 22.5536 51.2516 22.4477C51.4087 22.3418 51.5951 22.2851 51.7859 22.2851C52.0203 22.2722 52.2504 22.3506 52.4258 22.5032C52.6011 22.6558 52.7074 22.8701 52.7214 23.0991Z" fill="#DA840D"/>
<path d="M53.0782 28.0124C53.0782 28.3899 52.6315 28.6967 52.0763 28.6967C51.521 28.6967 51.0743 28.3899 51.0743 28.0124C51.0743 27.6349 51.521 27.3281 52.0763 27.3281C52.6315 27.3281 53.0782 27.6349 53.0782 28.0124Z" fill="#DA840D"/>
<path d="M49.0827 20.6921C49.0722 20.8282 49.0212 20.9583 48.9362 21.0665C48.8511 21.1748 48.7356 21.2565 48.6038 21.3015C48.472 21.3466 48.3296 21.3532 48.194 21.3204C48.0585 21.2876 47.9356 21.2169 47.8405 21.1169C47.7454 21.017 47.6822 20.8921 47.6586 20.7576C47.635 20.623 47.6521 20.4847 47.7077 20.3595C47.7633 20.2343 47.855 20.1277 47.9717 20.0526C48.0883 19.9776 48.2248 19.9374 48.3645 19.937C48.4625 19.94 48.559 19.962 48.6483 20.0017C48.7375 20.0414 48.8179 20.098 48.8847 20.1682C48.9515 20.2384 49.0034 20.3208 49.0373 20.4108C49.0713 20.5007 49.0868 20.5963 49.0827 20.6921Z" fill="#DA840D"/>
<path d="M59.4759 22.131C59.4759 22.5086 59.0413 22.8094 58.5041 22.8094C57.9669 22.8094 57.5323 22.5086 57.5323 22.131C57.5323 21.7535 57.9669 21.4468 58.5041 21.4468C59.0413 21.4468 59.4759 21.7535 59.4759 22.131Z" fill="#DA840D"/>
<path d="M59.4759 25.6648C59.4759 25.889 59.0413 26.0719 58.5041 26.0719C57.9669 26.0719 57.5323 25.889 57.5323 25.6648C57.5323 25.4407 57.9669 25.2578 58.5041 25.2578C59.0413 25.2578 59.4759 25.4407 59.4759 25.6648Z" fill="#DA840D"/>
<path d="M66.0488 23.3641C66.0488 23.6708 65.6505 23.9127 65.1676 23.9127C64.6847 23.9127 64.2864 23.6708 64.2864 23.3641C64.2864 23.0573 64.6847 22.8096 65.1676 22.8096C65.6505 22.8096 66.0488 23.0573 66.0488 23.3641Z" fill="#DA840D"/>
<path d="M64.9984 27.3054C65.0422 27.4902 65.0262 27.6838 64.9524 27.8592C64.8786 28.0347 64.7509 28.1834 64.5868 28.2848C64.4227 28.3861 64.2304 28.4351 64.0365 28.4248C63.8427 28.4146 63.6569 28.3457 63.505 28.2277C63.353 28.1096 63.2424 27.9483 63.1884 27.7661C63.1344 27.5839 63.1398 27.3897 63.2037 27.2106C63.2677 27.0315 63.3871 26.8762 63.5453 26.7664C63.7036 26.6565 63.8929 26.5975 64.087 26.5975C64.3034 26.5758 64.5199 26.6377 64.6902 26.77C64.8606 26.9023 64.9712 27.0944 64.9984 27.3054Z" fill="#DA840D"/>
<path d="M72.3133 26.1604C72.2757 26.3348 72.1884 26.4952 72.0614 26.6231C71.9344 26.751 71.7729 26.8411 71.5957 26.8831C71.4185 26.925 71.2327 26.9171 71.0599 26.8601C70.8871 26.8032 70.7343 26.6996 70.6193 26.5614C70.5042 26.4231 70.4315 26.2559 70.4097 26.0789C70.3878 25.902 70.4177 25.7226 70.4958 25.5616C70.5738 25.4005 70.697 25.2644 70.851 25.1689C71.0049 25.0734 71.1834 25.0225 71.3658 25.022C71.6445 25.0532 71.8998 25.1898 72.0769 25.4025C72.2539 25.6153 72.3388 25.8873 72.3133 26.1604Z" fill="#DA840D"/>
<path d="M71.7821 21.0282C71.7821 21.2583 71.4804 21.447 71.1001 21.447C70.7199 21.447 70.4181 21.2583 70.4181 21.0282C70.4181 20.7982 70.7199 20.6035 71.1001 20.6035C71.4804 20.6035 71.7821 20.7923 71.7821 21.0282Z" fill="#DA840D"/>
<path d="M77.583 22.2611C77.583 23.1754 77.1666 23.9128 76.6535 23.9128C76.1405 23.9128 75.7301 23.1754 75.7301 22.2611C75.7301 21.3468 76.1466 20.6035 76.6535 20.6035C77.1605 20.6035 77.583 21.3468 77.583 22.2611Z" fill="#DA840D"/>
<path d="M79.9008 20.586C79.8984 20.6718 79.8702 20.755 79.8197 20.8252C79.7692 20.8954 79.6987 20.9496 79.6169 20.9808C79.5351 21.012 79.4457 21.019 79.3599 21.0009C79.274 20.9827 79.1956 20.9402 79.1343 20.8787C79.0731 20.8172 79.0317 20.7395 79.0154 20.6551C78.9992 20.5708 79.0087 20.4836 79.0428 20.4046C79.0769 20.3255 79.1342 20.258 79.2073 20.2105C79.2805 20.1631 79.3664 20.1377 79.4542 20.1377C79.5136 20.1385 79.5723 20.1507 79.627 20.1736C79.6816 20.1966 79.731 20.2298 79.7725 20.2714C79.814 20.3131 79.8467 20.3623 79.8687 20.4163C79.8907 20.4702 79.9016 20.5279 79.9008 20.586Z" fill="#DA840D"/>
<path d="M64.6783 19.1697C64.6783 19.5944 64.117 19.9366 63.4229 19.9366C62.7288 19.9366 62.1675 19.5944 62.1675 19.1697C62.1675 18.745 62.7288 18.397 63.4289 18.397C64.129 18.397 64.6783 18.745 64.6783 19.1697Z" fill="#DA840D"/>
<path d="M41.0428 15.1955C41.0428 15.4551 40.6022 15.6674 40.0589 15.6674C39.5157 15.6674 39.0691 15.4551 39.0691 15.1955C39.0691 14.936 39.5097 14.7236 40.0589 14.7236C40.6082 14.7236 41.0428 14.936 41.0428 15.1955Z" fill="#DA840D"/>
<path d="M46.8131 14.2507C46.8131 14.5103 46.3121 14.7226 45.6905 14.7226C45.0688 14.7226 44.5739 14.5103 44.5739 14.2507C44.5739 13.9912 45.0748 13.7788 45.6905 13.7788C46.3061 13.7788 46.8131 13.9912 46.8131 14.2507Z" fill="#DA840D"/>
<path d="M54.1042 15.4068C54.1042 15.7843 53.4283 16.091 52.5893 16.091C51.7503 16.091 51.0743 15.7843 51.0743 15.4068C51.0743 15.0292 51.7503 14.7461 52.5893 14.7461C53.4283 14.7461 54.1042 15.0292 54.1042 15.4068Z" fill="#DA840D"/>
<path d="M59.4754 14.2498C59.4766 14.3445 59.449 14.4375 59.396 14.5168C59.343 14.5962 59.2671 14.6583 59.1778 14.6954C59.0886 14.7325 58.9901 14.7428 58.8949 14.725C58.7997 14.7072 58.712 14.6622 58.643 14.5956C58.574 14.529 58.5269 14.4439 58.5075 14.3511C58.4882 14.2582 58.4975 14.1619 58.5343 14.0742C58.5711 13.9866 58.6338 13.9116 58.7143 13.8588C58.7948 13.8061 58.8896 13.7779 58.9865 13.7779C59.0504 13.7771 59.1139 13.7887 59.1732 13.8121C59.2324 13.8354 59.2864 13.8701 59.3319 13.914C59.3773 13.9579 59.4135 14.0102 59.4381 14.0678C59.4627 14.1255 59.4754 14.1873 59.4754 14.2498Z" fill="#DA840D"/>
<path d="M58.5038 17.9789C58.5038 18.2148 58.0451 18.3977 57.4717 18.3977C56.8983 18.3977 56.4396 18.2148 56.4396 17.9789C56.4396 17.7429 56.9043 17.5601 57.4717 17.5601C58.039 17.5601 58.5038 17.7488 58.5038 17.9789Z" fill="#DA840D"/>
<path d="M66.5738 14.0378C66.5762 14.1747 66.5369 14.3093 66.4607 14.4244C66.3846 14.5394 66.2752 14.6297 66.1464 14.6837C66.0176 14.7378 65.8752 14.7532 65.7375 14.7279C65.5997 14.7026 65.4727 14.6378 65.3728 14.5418C65.2728 14.4457 65.2043 14.3228 65.1761 14.1886C65.1479 14.0544 65.1611 13.915 65.2142 13.7882C65.2673 13.6614 65.3578 13.553 65.4741 13.4766C65.5905 13.4002 65.7275 13.3594 65.8677 13.3594C65.9596 13.3586 66.0508 13.3756 66.1361 13.4092C66.2213 13.4429 66.2989 13.4926 66.3645 13.5556C66.4301 13.6186 66.4823 13.6936 66.5182 13.7764C66.5541 13.8591 66.573 13.9479 66.5738 14.0378Z" fill="#DA840D"/>
<path d="M70.4186 16.8222C70.4186 16.9402 70.0564 17.0345 69.6158 17.0345C69.1752 17.0345 68.8191 16.9402 68.8191 16.8222C68.8191 16.7042 69.1752 16.6157 69.6158 16.6157C70.0564 16.6157 70.4186 16.7101 70.4186 16.8222Z" fill="#DA840D"/>
<path d="M72.9233 15.4311C72.9383 15.493 72.9332 15.5579 72.9088 15.6169C72.8844 15.6758 72.8419 15.7259 72.7871 15.7602C72.7323 15.7945 72.6679 15.8113 72.6029 15.8082C72.5379 15.8052 72.4754 15.7825 72.4242 15.7432C72.373 15.704 72.3356 15.6501 72.317 15.5891C72.2985 15.5281 72.2999 15.463 72.3209 15.4028C72.3419 15.3426 72.3815 15.2903 72.4343 15.2531C72.4871 15.2159 72.5504 15.1956 72.6155 15.1951C72.688 15.1883 72.7603 15.209 72.8176 15.2529C72.8749 15.2969 72.9128 15.3606 72.9233 15.4311Z" fill="#DA840D"/>
<path d="M70.4182 16.8225C70.4271 16.9149 70.4162 17.0081 70.3861 17.0961C70.3561 17.1842 70.3075 17.2651 70.2436 17.3337C70.1797 17.4024 70.1018 17.4572 70.0149 17.4948C69.9281 17.5323 69.8341 17.5517 69.7392 17.5517C69.6442 17.5517 69.5503 17.5323 69.4634 17.4948C69.3766 17.4572 69.2987 17.4024 69.2347 17.3337C69.1708 17.2651 69.1223 17.1842 69.0922 17.0961C69.0621 17.0081 69.0512 16.9149 69.0601 16.8225C69.0512 16.7301 69.0621 16.6369 69.0922 16.5488C69.1223 16.4608 69.1708 16.3798 69.2347 16.3112C69.2987 16.2425 69.3766 16.1877 69.4634 16.1502C69.5503 16.1126 69.6442 16.0933 69.7392 16.0933C69.8341 16.0933 69.9281 16.1126 70.0149 16.1502C70.1018 16.1877 70.1797 16.2425 70.2436 16.3112C70.3075 16.3798 70.3561 16.4608 70.3861 16.5488C70.4162 16.6369 70.4271 16.7301 70.4182 16.8225Z" fill="#DA840D"/>
<path d="M74.2872 15.6436C74.2872 15.8914 73.9191 16.0919 73.4543 16.0919C72.9896 16.0919 72.6154 15.8914 72.6154 15.6436C72.6154 15.3959 72.9896 15.1953 73.4543 15.1953C73.9191 15.1953 74.2872 15.3959 74.2872 15.6436Z" fill="#DA840D"/>
<path d="M93.9334 15.5668C93.9334 20.2151 87.777 24.6628 78.4519 27.4235C71.6239 29.3598 64.545 30.3195 57.4356 30.2726C50.0298 30.2726 43.9458 28.3673 37.8015 27.9131C27.5529 27.1345 20.817 19.8317 20.817 15.0418C20.817 7.42056 37.5057 2.6543 57.4356 2.6543C77.3654 2.6543 93.9334 7.94555 93.9334 15.5668Z" fill="#E3AC8A"/>
<path d="M93.475 14.5576C93.475 22.1789 77.3114 28.355 57.3755 28.355C37.4397 28.355 21.2821 22.1789 21.2821 14.5576C21.2821 6.93633 37.4215 0.760254 57.3755 0.760254C77.3296 0.760254 93.475 6.93633 93.475 14.5576Z" fill="#DA840D"/>
<path d="M83.6369 13.2536C83.6369 18.9046 71.644 23.488 56.8565 23.488C42.0691 23.488 30.0762 18.9046 30.0762 13.2536C30.0762 7.60248 42.0631 3.01318 56.8565 3.01318C71.65 3.01318 83.6369 7.59658 83.6369 13.2536Z" fill="#F0A508"/>
<path d="M38.8279 17.0294C38.8279 17.6192 38.1459 18.1324 37.3069 18.1324C36.4679 18.1324 35.7859 17.6369 35.7859 17.0294C35.7859 16.4218 36.4679 15.9263 37.3069 15.9263C38.1459 15.9263 38.8279 16.4159 38.8279 17.0294Z" fill="#DA840D"/>
<path d="M35.7854 12.3876C35.7783 12.5504 35.7225 12.7076 35.6247 12.8397C35.527 12.9717 35.3918 13.0728 35.2358 13.1304C35.0798 13.1879 34.9099 13.1994 34.7473 13.1634C34.5846 13.1275 34.4364 13.0456 34.321 12.928C34.2055 12.8104 34.128 12.6622 34.098 12.5019C34.068 12.3416 34.0868 12.1762 34.1522 12.0263C34.2175 11.8764 34.3265 11.7485 34.4656 11.6586C34.6046 11.5687 34.7676 11.5207 34.9344 11.5205C35.0485 11.5228 35.1611 11.5471 35.2657 11.5919C35.3702 11.6367 35.4647 11.7012 35.5437 11.7818C35.6228 11.8623 35.6848 11.9572 35.7263 12.0612C35.7677 12.1652 35.7878 12.2761 35.7854 12.3876Z" fill="#DA840D"/>
<path d="M46.3722 18.368C46.3904 18.6534 46.3204 18.9376 46.1713 19.1837C46.0222 19.4298 45.8009 19.6265 45.5361 19.7482C45.2713 19.87 44.9752 19.9111 44.6862 19.8665C44.3972 19.8218 44.1285 19.6933 43.9151 19.4976C43.7017 19.302 43.5533 19.0482 43.4892 18.7691C43.4251 18.4901 43.4483 18.1987 43.5556 17.9326C43.663 17.6666 43.8497 17.4382 44.0915 17.2771C44.3332 17.1159 44.619 17.0295 44.9116 17.029C45.2868 17.0178 45.6512 17.1525 45.925 17.4035C46.1988 17.6545 46.3596 18.0013 46.3722 18.368Z" fill="#DA840D"/>
<path d="M43.1738 13.0533C43.1738 13.419 42.7573 13.7199 42.2443 13.7199C41.7312 13.7199 41.3208 13.419 41.3208 13.0533C41.3208 12.6876 41.7373 12.3867 42.2503 12.3867C42.7633 12.3867 43.1738 12.6817 43.1738 13.0533Z" fill="#DA840D"/>
<path d="M52.5107 16.214C52.5315 16.398 52.4946 16.5839 52.405 16.747C52.3153 16.9101 52.1771 17.0427 52.0087 17.1274C51.8402 17.2121 51.6494 17.2448 51.4615 17.2212C51.2737 17.1976 51.0975 17.1188 50.9565 16.9952C50.8154 16.8717 50.716 16.7092 50.6715 16.5292C50.627 16.3493 50.6394 16.1604 50.7071 15.9875C50.7748 15.8146 50.8946 15.6658 51.0507 15.5609C51.2068 15.456 51.3918 15.3999 51.5812 15.4C51.8146 15.3887 52.0431 15.4679 52.2172 15.6203C52.3912 15.7727 52.4967 15.9861 52.5107 16.214Z" fill="#DA840D"/>
<path d="M52.8608 21.1222C52.8608 21.4997 52.4141 21.8065 51.8589 21.8065C51.3036 21.8065 50.8569 21.4997 50.8569 21.1222C50.8569 20.7447 51.3036 20.4438 51.8589 20.4438C52.4141 20.4438 52.8608 20.7506 52.8608 21.1222Z" fill="#DA840D"/>
<path d="M48.8893 13.8029C48.8799 13.9393 48.8299 14.0701 48.7455 14.1792C48.6611 14.2882 48.5459 14.3708 48.4141 14.4168C48.2824 14.4628 48.1397 14.4701 48.0037 14.4379C47.8677 14.4057 47.7443 14.3354 47.6486 14.2356C47.5529 14.1358 47.4892 14.0109 47.4651 13.8762C47.4411 13.7415 47.4579 13.6028 47.5134 13.4773C47.5689 13.3517 47.6607 13.2448 47.7775 13.1695C47.8944 13.0943 48.0312 13.054 48.1711 13.0537C48.2686 13.0568 48.3645 13.0786 48.4534 13.1179C48.5423 13.1572 48.6224 13.2132 48.6891 13.2828C48.7558 13.3524 48.8078 13.4341 48.8422 13.5234C48.8765 13.6126 48.8926 13.7076 48.8893 13.8029Z" fill="#DA840D"/>
<path d="M59.2586 15.2419C59.2586 15.6194 58.824 15.9261 58.2868 15.9261C57.7497 15.9261 57.3392 15.6194 57.3392 15.2419C57.3392 14.8644 57.7738 14.5576 58.311 14.5576C58.8482 14.5576 59.2586 14.8644 59.2586 15.2419Z" fill="#DA840D"/>
<path d="M59.2586 18.7747C59.2586 18.9989 58.824 19.1817 58.2868 19.1817C57.7497 19.1817 57.3392 18.9989 57.3392 18.7747C57.3392 18.5505 57.7738 18.3677 58.311 18.3677C58.8482 18.3677 59.2586 18.5505 59.2586 18.7747Z" fill="#DA840D"/>
<path d="M65.8315 16.4749C65.8315 16.7816 65.4332 17.0294 64.9503 17.0294C64.4674 17.0294 64.0691 16.7816 64.0691 16.4749C64.0691 16.1681 64.4674 15.9263 64.9503 15.9263C65.4332 15.9263 65.8315 16.174 65.8315 16.4749Z" fill="#DA840D"/>
<path d="M64.7815 20.4144C64.7294 20.6103 64.6122 20.7837 64.4483 20.9075C64.2845 21.0312 64.0833 21.0984 63.8762 21.0984C63.6691 21.0984 63.4679 21.0312 63.304 20.9075C63.1402 20.7837 63.023 20.6103 62.9708 20.4144C63.023 20.2186 63.1402 20.0452 63.304 19.9214C63.4679 19.7976 63.6691 19.7305 63.8762 19.7305C64.0833 19.7305 64.2845 19.7976 64.4483 19.9214C64.6122 20.0452 64.7294 20.2186 64.7815 20.4144Z" fill="#DA840D"/>
<path d="M72.0964 19.2768C72.1238 19.4135 72.12 19.5546 72.0851 19.6897C72.0502 19.8248 71.9851 19.9507 71.8945 20.0583C71.8039 20.166 71.6901 20.2526 71.5611 20.3121C71.4322 20.3717 71.2913 20.4025 71.1488 20.4025C71.0062 20.4025 70.8653 20.3717 70.7364 20.3121C70.6074 20.2526 70.4936 20.166 70.403 20.0583C70.3124 19.9507 70.2473 19.8248 70.2124 19.6897C70.1775 19.5546 70.1737 19.4135 70.2011 19.2768C70.1688 19.1377 70.169 18.9934 70.2015 18.8544C70.2341 18.7154 70.2983 18.5853 70.3893 18.4739C70.4803 18.3625 70.5959 18.2725 70.7273 18.2106C70.8588 18.1488 71.0028 18.1167 71.1488 18.1167C71.2947 18.1167 71.4387 18.1488 71.5702 18.2106C71.7016 18.2725 71.8172 18.3625 71.9082 18.4739C71.9992 18.5853 72.0634 18.7154 72.096 18.8544C72.1285 18.9934 72.1287 19.1377 72.0964 19.2768Z" fill="#DA840D"/>
<path d="M71.565 14.1561C71.565 14.3862 71.2632 14.5749 70.883 14.5749C70.5027 14.5749 70.2009 14.3862 70.2009 14.1561C70.2009 13.9261 70.5027 13.7373 70.883 13.7373C71.2632 13.7373 71.565 13.9084 71.565 14.1561Z" fill="#DA840D"/>
<path d="M77.3653 15.3719C77.3653 16.2862 76.9488 17.0295 76.4358 17.0295C75.9227 17.0295 75.5123 16.2862 75.5123 15.3719C75.5123 14.4576 75.9227 13.7202 76.4358 13.7202C76.9488 13.7202 77.3653 14.4576 77.3653 15.3719Z" fill="#DA840D"/>
<path d="M79.671 13.6968C79.6698 13.7829 79.6426 13.8667 79.5928 13.9377C79.543 14.0087 79.4728 14.0637 79.3911 14.0959C79.3094 14.128 79.2198 14.1358 79.1335 14.1183C79.0473 14.1008 78.9683 14.0588 78.9064 13.9975C78.8446 13.9362 78.8026 13.8584 78.7859 13.7739C78.7691 13.6894 78.7783 13.6019 78.8123 13.5225C78.8463 13.4431 78.9035 13.3753 78.9768 13.3276C79.0501 13.2799 79.1362 13.2544 79.2243 13.2544C79.3433 13.2559 79.4569 13.3032 79.5405 13.386C79.6241 13.4688 79.671 13.5805 79.671 13.6968Z" fill="#DA840D"/>
<path d="M64.4612 12.2805C64.4612 12.7052 63.8999 13.0533 63.1998 13.0533C62.4996 13.0533 61.9443 12.7052 61.9443 12.2805C61.9443 11.8558 62.5057 11.5137 63.1998 11.5137C63.8939 11.5137 64.4612 11.8558 64.4612 12.2805Z" fill="#DA840D"/>
<path d="M40.8016 8.31081C40.8016 8.57036 40.3609 8.78272 39.8117 8.78272C39.2624 8.78272 38.8279 8.57036 38.8279 8.31081C38.8279 8.05126 39.2685 7.83301 39.8117 7.83301C40.3549 7.83301 40.8016 8.04537 40.8016 8.31081Z" fill="#DA840D"/>
<path d="M46.5956 7.36058C46.5956 7.62603 46.0946 7.83249 45.473 7.83249C44.8513 7.83249 44.3503 7.62603 44.3503 7.36058C44.3503 7.09513 44.8573 6.88867 45.473 6.88867C46.0886 6.88867 46.5956 7.07744 46.5956 7.36058Z" fill="#DA840D"/>
<path d="M53.8868 8.51727C53.8868 8.8948 53.2108 9.20154 52.3719 9.20154C51.5329 9.20154 50.8569 8.8948 50.8569 8.51727C50.8569 8.13975 51.5329 7.83301 52.3719 7.83301C53.2108 7.83301 53.8868 8.13975 53.8868 8.51727Z" fill="#DA840D"/>
<path d="M59.2583 7.3611C59.2595 7.45585 59.2318 7.5488 59.1788 7.62814C59.1258 7.70749 59.0499 7.76965 58.9607 7.80672C58.8715 7.84379 58.773 7.8541 58.6777 7.83633C58.5825 7.81857 58.4948 7.77353 58.4259 7.70695C58.3569 7.64037 58.3097 7.55525 58.2904 7.46241C58.271 7.36956 58.2803 7.27319 58.3171 7.18554C58.354 7.09789 58.4166 7.02292 58.4971 6.97015C58.5777 6.91738 58.6724 6.8892 58.7694 6.8892C58.8333 6.88842 58.8967 6.90005 58.956 6.92341C59.0153 6.94678 59.0692 6.98141 59.1147 7.02531C59.1602 7.06921 59.1963 7.1215 59.2209 7.17914C59.2456 7.23678 59.2583 7.29863 59.2583 7.3611Z" fill="#DA840D"/>
<path d="M58.2864 11.0946C58.2864 11.3247 57.8216 11.5135 57.2543 11.5135C56.6869 11.5135 56.2222 11.3247 56.2222 11.0946C56.2222 10.8646 56.6869 10.6699 57.2543 10.6699C57.8216 10.6699 58.2864 10.8587 58.2864 11.0946Z" fill="#DA840D"/>
<path d="M66.3507 7.15487C66.3543 7.29091 66.3164 7.4249 66.2417 7.53973C66.1669 7.65456 66.0589 7.74501 65.9313 7.79953C65.8037 7.85404 65.6624 7.87014 65.5254 7.84577C65.3885 7.8214 65.262 7.75767 65.1623 7.66271C65.0625 7.56776 64.994 7.4459 64.9655 7.31271C64.937 7.17951 64.9498 7.04103 65.0022 6.91497C65.0546 6.7889 65.1443 6.68097 65.2598 6.60497C65.3753 6.52897 65.5114 6.48835 65.6506 6.48831C65.8337 6.48673 66.0099 6.55588 66.1411 6.68073C66.2722 6.80557 66.3476 6.97599 66.3507 7.15487Z" fill="#DA840D"/>
<path d="M70.2007 9.93892C70.2007 10.051 69.8386 10.1454 69.398 10.1454C68.9574 10.1454 68.5952 10.051 68.5952 9.93892C68.5952 9.82684 68.9574 9.72656 69.398 9.72656C69.8386 9.72656 70.2007 9.82094 70.2007 9.93892Z" fill="#DA840D"/>
<path d="M72.7058 8.5463C72.7208 8.6082 72.7158 8.67312 72.6914 8.73209C72.6669 8.79106 72.6244 8.84116 72.5696 8.87545C72.5147 8.90973 72.4504 8.92652 72.3854 8.92347C72.3204 8.92042 72.2579 8.8977 72.2067 8.85844C72.1555 8.81918 72.118 8.76534 72.0995 8.70436C72.081 8.64337 72.0823 8.57827 72.1033 8.51807C72.1244 8.45786 72.164 8.40553 72.2168 8.36832C72.2696 8.3311 72.3329 8.31085 72.398 8.31035C72.4705 8.30355 72.5428 8.32425 72.6001 8.36818C72.6574 8.4121 72.6953 8.47588 72.7058 8.5463Z" fill="#DA840D"/>
<path d="M70.2011 9.93902C70.1871 10.0669 70.1356 10.1882 70.0527 10.2881C69.9697 10.388 69.859 10.4624 69.7338 10.5021C69.6086 10.5419 69.4743 10.5454 69.3471 10.5123C69.22 10.4791 69.1053 10.4107 69.017 10.3152C68.9288 10.2198 68.8706 10.1014 68.8497 9.9744C68.8287 9.84739 68.8458 9.71716 68.8989 9.59943C68.9519 9.4817 69.0387 9.38149 69.1488 9.31091C69.2589 9.24033 69.3875 9.20239 69.5191 9.20166C69.6135 9.20619 69.706 9.22887 69.7914 9.26841C69.8767 9.30794 69.9533 9.36354 70.0167 9.43204C70.08 9.50053 70.1289 9.58057 70.1606 9.66757C70.1922 9.75456 70.206 9.84681 70.2011 9.93902Z" fill="#DA840D"/>
<path d="M74.0696 8.75296C74.0696 9.00071 73.6954 9.20127 73.2367 9.20127C72.778 9.20127 72.3977 9.00071 72.3977 8.75296C72.3977 8.50521 72.7719 8.31055 73.2367 8.31055C73.7014 8.31055 74.0696 8.50521 74.0696 8.75296Z" fill="#DA840D"/>
<path d="M62.8554 45.6152C62.7186 45.1057 62.4004 44.6606 61.9578 44.36C61.5152 44.0594 60.9774 43.923 60.4411 43.9753C56.8197 44.229 56.5179 50.1573 57.7914 52.7469C58.1705 53.0334 58.6475 53.1674 59.1244 53.1213C59.6014 53.0753 60.0422 52.8526 60.3566 52.4991C61.5155 51.2309 61.8836 49.3963 62.2941 47.78C62.4953 47.0643 62.6824 46.3427 62.8554 45.6152Z" fill="#EEBE30"/>
<path d="M89.7389 14.8111C88.4796 14.3355 87.3184 13.6421 86.3106 12.7642C85.1063 11.6228 83.9962 10.3901 82.991 9.07747C81.4881 7.27242 79.3032 6.56456 77.0096 6.29912C74.4565 5.99827 71.8189 6.55277 69.2477 6.42299C67.8688 6.38629 66.5175 6.03694 65.3004 5.40249C64.0932 4.73003 63.1456 3.63284 62.1135 2.68313C60.0915 0.913479 57.5264 0.913479 54.9733 0.512358C53.2821 0.220595 51.5716 0.0490788 49.855 -0.000840695C48.0986 -0.0421325 45.0265 -0.0657278 43.8495 1.56825C42.5458 2.15813 42.0871 3.72722 41.7913 5.04856C41.6247 6.13884 41.3601 7.21265 41.0007 8.25753C40.4644 9.44586 39.6348 10.4856 38.5864 11.2836C36.2868 13.1536 33.444 14.1564 30.8426 15.46C28.7301 16.5159 26.1408 18.0142 25.0061 20.1319C24.324 21.4001 24.4025 23.5709 25.6096 24.5088C27.1005 25.6296 28.2352 23.5178 28.5551 22.4501C28.8508 21.4827 28.9594 20.4976 29.7622 19.7721C30.8436 18.8545 32.129 18.1961 33.5164 17.849C34.6813 17.5305 35.9307 17.5305 37.0775 17.1825C38.454 16.6761 39.7488 15.9787 40.9222 15.112C42.2983 14.2154 43.6383 13.3423 45.2739 12.953C46.632 12.6463 48.7324 12.6935 49.8007 13.7081C50.3866 14.4017 50.8908 15.1575 51.3036 15.9614C51.8542 16.7112 52.5834 17.3186 53.4281 17.7311C55.1302 18.6808 57.0797 19.0996 58.8603 19.9608C59.4557 20.2633 59.9688 20.7001 60.3571 21.235C60.4175 21.3234 60.4718 21.4119 60.5261 21.5063C60.5699 21.5731 60.6102 21.642 60.6468 21.7128C62.5903 25.2167 60.1459 28.927 60.2123 32.6256C60.2123 34.6194 61.691 37.8815 64.1898 36.2829C64.3588 36.1767 64.5157 36.0587 64.6726 35.9408C64.9563 33.3571 65.1857 30.7085 66.1031 28.2723C66.9662 26.0071 68.1432 23.913 68.0164 21.4178C67.944 20.0434 67.274 18.781 67.1111 17.4243C66.8817 15.5367 68.62 14.6814 70.1832 14.3097C72.4137 13.7296 74.7778 13.8873 76.907 14.758C80.9147 16.3684 84.1498 19.6895 88.6042 20.2381C90.3666 20.4563 92.9197 20.185 93.6198 18.3032C94.32 16.4215 90.9943 15.3361 89.7389 14.8111Z" fill="#EEBE30"/>
<path opacity="0.5" d="M65.2155 17.2718C65.0327 16.636 64.6951 16.0528 64.2315 15.572C63.768 15.0913 63.1924 14.7273 62.5538 14.5112C61.6363 14.2752 60.1878 14.871 60.3024 15.9564C60.3041 15.9781 60.3103 15.9993 60.3207 16.0186C60.3311 16.0378 60.3454 16.0548 60.3628 16.0685C59.7592 17.3249 61.5096 19.4898 62.1132 20.41C62.5552 20.9992 62.8339 21.6901 62.9219 22.4156C63.0246 23.3535 62.7167 24.2797 62.8073 25.2058C62.8435 25.6187 63.1634 27.3824 64.0144 26.6746C64.9862 25.8723 65.0888 24.0555 65.288 22.9111C65.6895 21.0491 65.6647 19.1234 65.2155 17.2718Z" fill="white"/>
<path opacity="0.5" d="M82.7673 11.1655C81.7804 9.56543 80.2071 8.39271 78.3672 7.88573C76.5082 7.36073 72.0479 6.79444 71.5771 9.45482C71.5732 9.50853 71.5869 9.56206 71.6162 9.60766C71.6455 9.65326 71.6888 9.68857 71.74 9.70847C71.8591 9.7933 71.9648 9.89465 72.0539 10.0093C72.0792 10.0574 72.1193 10.0966 72.1686 10.1214C72.2173 10.1385 72.2707 10.1385 72.3195 10.1214C72.6641 10.43 73.0773 10.6562 73.5266 10.7821C74.6331 11.0216 75.7614 11.152 76.8945 11.1714C78.4638 11.3189 79.339 11.9795 80.4314 13.0059C81.035 13.5958 82.6888 14.8346 83.5398 13.8966C84.1917 13.236 83.1234 11.7082 82.7673 11.1655Z" fill="white"/>
<path opacity="0.5" d="M29.1284 18.5752C28.8639 18.5429 28.5963 18.5429 28.3317 18.5752C28.3328 18.5636 28.3311 18.5519 28.3269 18.541C28.3226 18.5301 28.3158 18.5203 28.3071 18.5123C28.2984 18.5044 28.2879 18.4984 28.2765 18.495C28.2651 18.4916 28.253 18.4908 28.2412 18.4927C27.8 18.5614 27.3812 18.7293 27.0178 18.9832C26.6544 19.237 26.3562 19.5699 26.1468 19.9556C26.002 20.2505 25.7183 21.2828 26.34 21.3359C26.9616 21.389 27.4505 20.746 27.8006 20.4098C28.308 19.898 28.7875 19.3604 29.2371 18.7994C29.2504 18.7784 29.2582 18.7545 29.2596 18.7299C29.2611 18.7053 29.2561 18.6807 29.2453 18.6584C29.2345 18.636 29.2182 18.6167 29.1977 18.6022C29.1773 18.5877 29.1535 18.5784 29.1284 18.5752Z" fill="white"/>
<path opacity="0.5" d="M101.931 52.5875C101.396 52.4762 100.844 52.471 100.307 52.5722C99.7696 52.6734 99.2589 52.8788 98.8047 53.1764C98.3505 53.474 97.962 53.8577 97.6623 54.3047C97.3626 54.7517 97.1577 55.2529 97.0599 55.7788C97.0563 55.7977 97.057 55.8171 97.0621 55.8357C97.0671 55.8543 97.0763 55.8715 97.0891 55.8862C97.1018 55.9009 97.1176 55.9126 97.1356 55.9205C97.1535 55.9285 97.173 55.9324 97.1926 55.9321C97.1955 55.9714 97.1955 56.0108 97.1926 56.0501C96.9814 56.9703 95.8648 57.395 95.1586 57.7844C94.6335 58.0675 94.0903 58.3211 93.5471 58.5807C91.7364 59.4773 88.8875 60.6335 88.3262 63.0107C88.3172 63.0366 88.3164 63.0645 88.324 63.0908C88.3315 63.1171 88.347 63.1406 88.3684 63.1582C89.4549 63.8896 90.7043 62.7984 91.5553 62.1141C93.2727 60.7841 95.2868 59.8686 97.4341 59.4419C99.8121 58.9346 104.248 59.088 105.105 55.9026C105.625 53.9265 103.325 52.8293 101.931 52.5875Z" fill="white"/>
<path d="M63.0306 6.83556C62.8194 6.54651 62.2822 5.92714 61.92 5.88584C61.7148 5.88584 61.6364 5.48472 61.4432 5.54371C61.2501 5.6027 60.9543 5.75017 60.6887 5.54371C60.5996 5.46263 60.5049 5.38773 60.4051 5.31956C60.3496 5.28152 60.2862 5.25598 60.2194 5.24476C60.1526 5.23354 60.0841 5.23692 60.0188 5.25467C59.8498 5.31956 59.7834 5.56731 59.5782 5.40804C59.373 5.24877 58.8841 5.49062 58.7634 5.72658C58.7227 5.79129 58.6902 5.86063 58.6668 5.93303C57.9485 6.03332 57.2242 7.1128 56.9526 7.6142C56.6987 8.09672 56.5801 8.63634 56.6087 9.17822C56.6373 9.72009 56.8122 10.2449 57.1156 10.6993C57.7735 11.7965 59.1134 11.9439 60.2964 11.9793C60.7626 12.0321 61.2348 11.992 61.6846 11.8614C62.1007 11.683 62.461 11.4001 62.7288 11.0414C63.9239 9.60211 64.1532 8.35156 63.0306 6.83556Z" fill="#48264C"/>
<path d="M63.0307 6.83614C62.8247 6.55235 62.5811 6.29648 62.3064 6.0752C62.3316 7.04995 62.0094 8.00296 61.3951 8.77124C60.7807 9.53951 59.9124 10.0753 58.9385 10.287C58.2516 10.4345 57.538 10.4122 56.8622 10.2221C56.9345 10.3929 57.0192 10.5585 57.1157 10.7176C57.7736 11.8148 59.1135 11.9622 60.2965 11.9976C60.7626 12.0504 61.2349 12.0103 61.6847 11.8796C62.1008 11.7013 62.4611 11.4184 62.7289 11.0597C63.924 9.6027 64.1533 8.35214 63.0307 6.83614Z" fill="#300D33"/>
<path d="M64.0928 65.5523C63.8987 65.0653 63.5859 64.6319 63.1814 64.2899C63.115 63.9242 63.0305 63.5644 62.9521 63.1987C62.9458 63.1629 62.9314 63.129 62.9099 63.0995C62.8885 63.0699 62.8605 63.0455 62.828 63.0279C62.7956 63.0103 62.7595 63.0001 62.7225 62.998C62.6854 62.9959 62.6484 63.002 62.6141 63.0158C62.0709 63.2636 61.9501 62.945 61.5759 62.656C61.516 62.62 61.4471 62.6009 61.3768 62.6009C61.3064 62.6009 61.2375 62.62 61.1776 62.656C60.574 63.0571 59.9342 62.1074 59.4634 62.656C59.1881 63.0694 58.8835 63.4637 58.5521 63.8357C58.1602 64.0778 57.7995 64.365 57.4777 64.6911C57.2464 64.892 57.0434 65.1221 56.8741 65.3753C56.8059 65.4822 56.7435 65.5924 56.687 65.7057C56.6387 65.8118 56.5965 65.9239 56.5603 66.0301C56.5577 66.0418 56.5577 66.0538 56.5603 66.0655C56.316 66.8362 56.3308 67.6631 56.6025 68.425C57.0612 69.7877 58.5098 70.2714 59.8075 70.584C60.3095 70.7528 60.8412 70.821 61.3707 70.7846C61.8773 70.683 62.3477 70.4531 62.7348 70.118C64.4006 68.8203 64.9559 67.493 64.0928 65.5523Z" fill="#48264C"/>
<path d="M64.0931 65.5522C63.9388 65.1911 63.7358 64.8519 63.4895 64.5435C63.2765 65.6275 62.6842 66.6053 61.8143 67.3092C60.9443 68.0131 59.8508 68.3992 58.7214 68.4013C57.9223 68.4028 57.1358 68.2081 56.4338 67.835C56.472 68.035 56.5245 68.2321 56.5908 68.4249C57.0495 69.7875 58.498 70.2712 59.7957 70.5839C60.2977 70.7526 60.8294 70.8208 61.3589 70.7844C61.8655 70.6829 62.3359 70.453 62.723 70.1179C64.4009 68.8201 64.9562 67.4929 64.0931 65.5522Z" fill="#300D33"/>
<path d="M53.1803 5.80951C52.9932 5.44968 52.5104 4.66513 52.112 4.55305C51.9068 4.49996 51.9068 4.12834 51.7076 4.09294C51.6473 3.56205 51.3998 3.00756 50.7661 3.11964C50.6212 3.11964 50.2349 3.51486 50.084 3.2907C50.01 3.15827 49.8902 3.05583 49.746 3.00166C49.4503 2.88958 49.1908 3.14323 49.0218 3.33789C48.7381 3.66233 48.3759 3.18452 48.0078 3.33789C47.8315 3.43955 47.6879 3.5873 47.593 3.76448C47.4981 3.94167 47.4557 4.14123 47.4706 4.3407C47.4706 4.37609 47.4706 4.39968 47.4706 4.43508C47.0151 4.77272 46.6089 5.16965 46.2635 5.61484C45.8898 6.10609 45.6561 6.68535 45.5862 7.29361C45.5162 7.90187 45.6124 8.51739 45.8651 9.07746C46.3962 10.4165 47.8689 10.8471 49.1787 11.0772C49.6729 11.2132 50.1888 11.2572 50.6997 11.2069C51.1975 11.0787 51.6529 10.8267 52.0215 10.4755C53.6572 9.05387 54.14 7.70303 53.1803 5.80951Z" fill="#48264C"/>
<path d="M53.1805 5.8088C52.9992 5.4567 52.7742 5.12781 52.5105 4.82959C52.3596 5.9279 51.8224 6.94066 50.9909 7.69409C50.1594 8.44752 49.0855 8.89466 47.9536 8.95877C47.1589 8.99898 46.3664 8.8449 45.6479 8.51046C45.6959 8.71119 45.7584 8.90832 45.8351 9.10034C46.3662 10.4394 47.8389 10.87 49.1486 11.1C49.654 11.2319 50.1806 11.2679 50.6998 11.2062C51.1976 11.078 51.653 10.826 52.0216 10.4748C53.6573 9.05315 54.1401 7.70232 53.1805 5.8088Z" fill="#300D33"/>
<path d="M76.6527 10.5761C76.4656 10.1219 75.9526 9.12497 75.4939 8.9598C75.2344 8.87132 75.2464 8.33453 74.9809 8.36992C74.6187 8.40531 74.2747 8.49969 73.991 8.16346C73.9012 8.0294 73.8024 7.90131 73.6953 7.78004C73.6366 7.7111 73.5626 7.65614 73.4789 7.61935C73.3953 7.58255 73.3041 7.56488 73.2124 7.56768C72.971 7.60897 72.808 7.92751 72.6088 7.64436C72.3252 7.26684 71.6793 7.54998 71.45 7.83312C71.379 7.90918 71.3163 7.99221 71.2629 8.08088C70.2972 8.00419 69.0236 9.26064 68.5227 9.85053C68.045 10.4354 67.7278 11.1296 67.601 11.8676C67.4743 12.6056 67.5422 13.363 67.7984 14.0682C68.3175 15.7494 70.0256 16.3569 71.5466 16.764C72.1265 16.9668 72.7424 17.0531 73.3573 17.0176C73.9591 16.8985 74.5163 16.6211 74.9688 16.2154C76.9968 14.5873 77.6728 12.9769 76.6527 10.5761Z" fill="#48264C"/>
<path d="M76.6532 10.5762C76.4706 10.1335 76.2313 9.7153 75.941 9.33154C75.7056 10.6356 75.0105 11.8179 73.9764 12.6734C72.9423 13.5289 71.6343 14.0037 70.2795 14.0152C69.3406 14.0091 68.4194 13.7652 67.6057 13.3074C67.6461 13.5569 67.7046 13.8033 67.7807 14.0447C68.2998 15.7259 70.0079 16.3335 71.5289 16.7405C72.1089 16.9433 72.7247 17.0296 73.3396 16.9941C73.9415 16.875 74.4987 16.5976 74.9511 16.1919C76.9972 14.5874 77.6732 12.977 76.6532 10.5762Z" fill="#300D33"/>
<path d="M75.7661 60.5088C75.5307 59.9838 74.909 58.8395 74.3598 58.6566C74.0459 58.5563 74.0459 57.931 73.7562 57.9664C73.3277 58.0136 72.9172 58.1257 72.5491 57.7423C72.4403 57.5858 72.3192 57.4379 72.1869 57.2999C72.111 57.2187 72.0172 57.1553 71.9127 57.1145C71.8082 57.0736 71.6956 57.0564 71.5834 57.0639C71.2937 57.1111 71.1005 57.4768 70.841 57.1583C70.4909 56.7218 69.7244 57.058 69.4467 57.3824C69.3637 57.4743 69.289 57.5729 69.2234 57.6774C68.0646 57.5948 66.5496 59.0695 65.9521 59.7302C65.388 60.3996 65.015 61.2028 64.8708 62.0585C64.7267 62.9141 64.8165 63.7918 65.1312 64.6026C65.777 66.5375 67.8352 67.2158 69.664 67.6641C70.3776 67.9022 71.1332 67.9965 71.8851 67.9414C72.6006 67.8008 73.265 67.4771 73.8105 67.0035C76.2007 65.1276 76.9853 63.2518 75.7661 60.5088Z" fill="#48264C"/>
<path d="M75.7664 60.5096C75.5428 59.9963 75.2505 59.5143 74.8972 59.0762C74.594 60.6102 73.7556 61.9938 72.525 62.991C71.2944 63.9882 69.7479 64.5372 68.1493 64.5444C67.0238 64.546 65.9158 64.2723 64.9263 63.7481C64.9743 64.0386 65.047 64.3247 65.1436 64.6034C65.7894 66.5382 67.8475 67.2166 69.6764 67.6649C70.39 67.9029 71.1456 67.9973 71.8975 67.9421C72.6129 67.8016 73.2773 67.4779 73.8229 67.0042C76.2009 65.1284 76.9856 63.2526 75.7664 60.5096Z" fill="#300D33"/>
<path d="M48.4731 56.2624C48.4731 56.2624 50.0847 55.6725 51.0202 57.7548C51.9557 59.8371 52.2937 61.884 53.2293 62.8573C53.4864 63.0758 53.6891 63.3488 53.8219 63.6555C53.9547 63.9622 54.0142 64.2944 53.9958 64.6269C53.9958 64.6269 51.3582 63.2171 50.6822 62.468C49.6791 61.4502 48.8204 60.3054 48.1291 59.0643C47.3686 57.566 46.8314 56.1621 46.8314 56.1621L48.4731 56.2624Z" fill="#5F825C"/>
<path d="M47.8392 55.8959C47.8392 55.8959 48.2436 54.2619 46.0285 53.5953C43.8134 52.9287 41.6828 52.8285 40.5964 52.0321C40.3421 51.8054 40.0377 51.639 39.7069 51.5459C39.3761 51.4528 39.0278 51.4355 38.6891 51.4953C38.6891 51.4953 40.4213 53.8961 41.2603 54.4447C42.4117 55.2985 43.6742 55.9987 45.0145 56.527C46.62 57.1169 48.1108 57.459 48.1108 57.459L47.8392 55.8959Z" fill="#5F825C"/>
<path d="M47.5256 56.6935C47.5256 56.6935 50.5012 58.7699 50.4167 61.5954C50.3322 64.421 50.3322 65.8308 48.606 67.4058C46.8798 68.9808 43.5964 69.0692 41.8943 69.8125C40.1922 70.5557 38.1582 71.2282 37.6693 71.6411C37.1804 72.0541 36.1423 72.4729 34.6153 71.6411C33.0882 70.8094 32.201 70.8979 32.4907 68.5678C32.9238 65.5693 33.6639 62.6208 34.6998 59.7668C35.5448 57.6078 36.2932 55.9443 38.6833 55.2837C40.9746 54.7081 43.3957 54.8821 45.5761 55.7792C47.079 56.5283 47.5256 56.6935 47.5256 56.6935Z" fill="#ED6366"/>
<path d="M32.8462 66.3208C34.1969 66.8168 35.6282 67.0705 37.0711 67.0699C42.9861 67.0699 47.7784 63.0056 47.7784 57.9975C47.78 57.5847 47.7477 57.1724 47.6819 56.7646C48.3217 57.2661 50.4643 59.1242 50.3919 61.5309C50.3074 64.3506 50.3074 65.7663 48.5812 67.3413C46.855 68.9163 43.5716 69.0048 41.8695 69.748C40.1674 70.4913 38.1334 71.1637 37.6445 71.5767C37.1556 71.9896 36.1175 72.4084 34.5905 71.5767C33.0634 70.7449 32.1762 70.8275 32.4659 68.5034C32.5564 67.8899 32.6832 67.1407 32.8462 66.3208Z" fill="#C73A54"/>
<path d="M48.8466 62.8867C49.251 62.9398 49.3476 62.2614 49.3778 61.7659C49.4085 61.6418 49.4085 61.5124 49.3778 61.3884V61.3471C49.3778 61.2999 49.3114 61.2881 49.3054 61.3471C49.2917 61.3482 49.2785 61.3525 49.2669 61.3597C49.2554 61.3669 49.2458 61.3767 49.239 61.3884C49.1665 61.5476 48.2853 62.8159 48.8466 62.8867Z" fill="#E7D8C8"/>
<path d="M48.0017 60.327C48.0073 60.3343 48.0146 60.3403 48.023 60.3444C48.0314 60.3484 48.0406 60.3506 48.05 60.3506C48.0593 60.3506 48.0686 60.3484 48.077 60.3444C48.0853 60.3403 48.0926 60.3343 48.0983 60.327C48.2168 60.2325 48.3127 60.1139 48.3795 59.9794C48.4462 59.8449 48.4821 59.6978 48.4845 59.5483C48.517 59.4673 48.5354 59.3816 48.5389 59.2946C48.5401 59.2823 48.5379 59.2698 48.5325 59.2585C48.5272 59.2472 48.5189 59.2374 48.5085 59.2302C48.4981 59.2231 48.486 59.2187 48.4733 59.2176C48.4606 59.2165 48.4478 59.2186 48.4363 59.2239C48.4363 59.2239 48.3638 59.2239 48.3699 59.2239C48.1969 59.346 48.0681 59.5186 48.002 59.7168C47.9358 59.9151 47.9357 60.1287 48.0017 60.327Z" fill="#E7D8C8"/>
<path d="M46.2576 58.9864C46.6077 59.2577 46.7706 58.6384 46.8612 58.2313C46.9128 58.1082 46.9493 57.9795 46.9698 57.8479C46.9713 57.833 46.9678 57.818 46.96 57.8051C46.9521 57.7923 46.9403 57.7821 46.9262 57.7762C46.9121 57.7703 46.8965 57.7689 46.8816 57.7723C46.8666 57.7756 46.8531 57.7835 46.8431 57.7948C46.6741 57.9895 45.9136 58.7386 46.2576 58.9864Z" fill="#E7D8C8"/>
<path d="M46.0344 61.6184C46.0395 61.6245 46.0459 61.6295 46.0533 61.6329C46.0606 61.6363 46.0686 61.6381 46.0767 61.6381C46.0848 61.6381 46.0928 61.6363 46.1001 61.6329C46.1074 61.6295 46.1138 61.6245 46.1189 61.6184C46.2342 61.5088 46.3355 61.386 46.4207 61.2526C46.6307 61.0224 46.7616 60.7336 46.7949 60.4268C46.7949 60.3796 46.7466 60.3206 46.6923 60.3442L46.5836 60.415C46.1974 60.6923 45.7387 61.229 46.0344 61.6184Z" fill="#E7D8C8"/>
<path d="M46.6375 64.2562C46.8608 64.3919 46.9936 64.0793 47.066 63.7548C47.1647 63.5892 47.2226 63.4034 47.235 63.2121C47.2362 63.1997 47.234 63.1873 47.2287 63.1759C47.2234 63.1646 47.2151 63.1549 47.2047 63.1477C47.1943 63.1405 47.1821 63.1362 47.1694 63.1351C47.1567 63.1339 47.144 63.1361 47.1324 63.1413H47.06C47.06 63.1413 47.06 63.1413 47.06 63.1826C46.9012 63.342 46.7761 63.5304 46.6918 63.7371C46.6315 63.8728 46.4745 64.1677 46.6375 64.2562Z" fill="#E7D8C8"/>
<path d="M47.7785 65.7175C48.02 65.8709 48.2735 65.6526 48.3821 65.4403C48.4418 65.2956 48.4863 65.1454 48.5149 64.992C48.5868 64.8733 48.6302 64.7402 48.6416 64.6027C48.6561 64.5874 48.6641 64.5674 48.6641 64.5466C48.6641 64.5259 48.6561 64.5058 48.6416 64.4906V64.4493C48.6416 64.4021 48.5632 64.3549 48.5149 64.3962C48.3157 64.5378 47.4104 65.4757 47.7785 65.7175Z" fill="#E7D8C8"/>
<path d="M45.4371 66.5316C45.6424 66.8089 45.8415 66.5316 45.9804 66.2603C46.0655 66.1864 46.1332 66.0955 46.1791 65.9937C46.2249 65.8919 46.2477 65.7816 46.2459 65.6704C46.2457 65.6599 46.2429 65.6497 46.2378 65.6406C46.2326 65.6314 46.2253 65.6236 46.2164 65.6178C46.2075 65.612 46.1973 65.6084 46.1867 65.6073C46.1761 65.6062 46.1654 65.6076 46.1554 65.6114C45.8717 65.7176 45.1836 66.1895 45.4371 66.5316Z" fill="#E7D8C8"/>
<path d="M44.3013 63.1167C44.4763 62.9098 44.6794 62.7272 44.9049 62.574C44.9172 62.5644 44.9321 62.5586 44.9478 62.5574C44.9635 62.5562 44.9792 62.5596 44.9929 62.5672C45.0066 62.5749 45.0176 62.5863 45.0245 62.6002C45.0314 62.614 45.0339 62.6295 45.0316 62.6448C45.0253 62.7325 45.0028 62.8185 44.9652 62.8984V62.9869C44.9346 63.2335 44.8296 63.4655 44.6635 63.6535C44.5367 63.7951 44.241 63.8659 44.1203 63.6535C43.9995 63.4411 44.1927 63.217 44.3013 63.1167Z" fill="#E7D8C8"/>
<path d="M43.964 61.0347C44.0122 61.2176 44.2537 61.1999 44.3744 61.1055C44.4551 61.0341 44.5207 60.948 44.5675 60.8519C44.6797 60.7175 44.7471 60.5529 44.7606 60.38C44.7612 60.3668 44.7586 60.3538 44.7529 60.3418C44.7472 60.3299 44.7387 60.3194 44.7281 60.3113C44.7175 60.3033 44.705 60.2978 44.6918 60.2954C44.6785 60.2929 44.6649 60.2936 44.652 60.2974C44.4803 60.3634 44.3271 60.4686 44.2054 60.6041C44.0967 60.7044 43.9157 60.8696 43.964 61.0347Z" fill="#E7D8C8"/>
<path d="M45.0022 56.6286C45.0222 56.6226 45.0438 56.6241 45.0628 56.6329C45.0817 56.6416 45.0967 56.6569 45.1048 56.6758C45.1502 56.8517 45.1425 57.0367 45.0825 57.2084C45.0225 57.3801 44.9128 57.5312 44.7668 57.6432C44.7554 57.6513 44.7423 57.6568 44.7284 57.6591C44.7145 57.6614 44.7003 57.6606 44.6868 57.6566C44.6733 57.6525 44.661 57.6455 44.6508 57.636C44.6405 57.6265 44.6327 57.6148 44.628 57.6019C44.6095 57.5606 44.5973 57.5169 44.5918 57.4721C44.5366 57.3069 44.5484 57.1273 44.6248 56.9703C44.7011 56.8134 44.8362 56.691 45.0022 56.6286Z" fill="#E7D8C8"/>
<path d="M42.9194 59.8723C43.1004 60.0197 43.2513 59.8723 43.36 59.6363C43.4979 59.502 43.5994 59.3362 43.6552 59.1539C43.7111 58.9716 43.7196 58.7785 43.6798 58.5922C43.6717 58.5757 43.6587 58.5619 43.6427 58.5525C43.6266 58.5431 43.608 58.5384 43.5893 58.5391C43.3177 58.5745 43.0884 58.9461 42.9857 59.129C42.8831 59.3119 42.69 59.6953 42.9194 59.8723Z" fill="#E7D8C8"/>
<path d="M42.8534 56.4855C42.8885 56.4434 42.9268 56.4039 42.9681 56.3675C42.9817 56.3583 42.9975 56.3526 43.0139 56.351C43.0304 56.3495 43.047 56.3521 43.0622 56.3586C43.0773 56.3651 43.0905 56.3753 43.1004 56.3882C43.1104 56.4012 43.1168 56.4164 43.119 56.4324C43.136 56.5688 43.1209 56.7072 43.0749 56.837C43.0289 56.9668 42.9531 57.0847 42.8534 57.1816C42.8545 57.1973 42.8545 57.213 42.8534 57.2288C42.835 57.265 42.8074 57.296 42.7733 57.3188C42.7391 57.3416 42.6996 57.3554 42.6584 57.3589C42.6172 57.3625 42.5757 57.3556 42.538 57.339C42.5003 57.3225 42.4676 57.2967 42.443 57.2642C42.1834 57.0046 42.5516 56.6271 42.8534 56.4855Z" fill="#E7D8C8"/>
<path d="M40.8011 58.6453C40.9217 58.4008 41.1125 58.1958 41.3503 58.0555C41.3641 58.0457 41.3805 58.0401 41.3975 58.0396C41.4145 58.0391 41.4312 58.0435 41.4456 58.0525C41.4599 58.0614 41.4712 58.0743 41.4779 58.0896C41.4846 58.1049 41.4864 58.1217 41.4831 58.138C41.4757 58.2478 41.4492 58.3555 41.4047 58.4566C41.4047 58.492 41.4047 58.5274 41.4047 58.5569C41.3916 58.6874 41.3633 58.8161 41.3202 58.9403C41.2814 59.0605 41.1972 59.1617 41.0848 59.2234C41.0764 59.2382 41.0642 59.2505 41.0493 59.259C41.0345 59.2676 41.0175 59.2721 41.0003 59.2721C40.983 59.2721 40.9661 59.2676 40.9512 59.259C40.9364 59.2505 40.9241 59.2382 40.9158 59.2234C40.6804 59.0996 40.7528 58.7928 40.8011 58.6453Z" fill="#E7D8C8"/>
<path d="M40.3721 57.2181C40.3819 57.2245 40.3935 57.2278 40.4053 57.2278C40.4171 57.2278 40.4286 57.2245 40.4385 57.2181C40.519 57.143 40.5936 57.0622 40.6618 56.9763C40.8141 56.8518 40.9429 56.702 41.042 56.5339C41.0833 56.4601 41.1002 56.3756 41.0903 56.292V56.2507C41.0903 56.2094 41.0903 56.1799 41.03 56.1976C41.0075 56.1709 40.9787 56.15 40.9461 56.1366C40.9135 56.1233 40.8781 56.1179 40.8429 56.121C40.4385 56.1269 40.0159 56.9291 40.3721 57.2181Z" fill="#E7D8C8"/>
<path d="M37.9345 57.9561C38.0552 58.1802 38.3389 57.9561 38.4415 57.8322C38.6059 57.6464 38.72 57.4233 38.7734 57.1833C38.8156 57.1029 38.8383 57.0141 38.8398 56.9238C38.8417 56.9107 38.8405 56.8974 38.8364 56.8848C38.8323 56.8722 38.8253 56.8607 38.8161 56.8511C38.8068 56.8415 38.7955 56.834 38.7829 56.8292C38.7703 56.8244 38.7567 56.8225 38.7433 56.8235C38.6023 56.843 38.4684 56.8963 38.3536 56.9787C38.2388 57.061 38.1467 57.1698 38.0854 57.2954C37.9827 57.4665 37.8258 57.7555 37.9345 57.9561Z" fill="#E7D8C8"/>
<path d="M38.5318 60.3273C38.6042 60.5102 38.7973 60.4217 38.8698 60.3273C38.9422 60.2329 38.9362 60.2034 38.9663 60.1445C39.0858 60.0168 39.1705 59.8618 39.2127 59.6938C39.2549 59.5258 39.2532 59.3501 39.2078 59.1829C39.2036 59.1717 39.1968 59.1615 39.1879 59.1533C39.179 59.1451 39.1683 59.139 39.1565 59.1356C39.1448 59.1321 39.1324 59.1314 39.1203 59.1335C39.1083 59.1356 39.0969 59.1404 39.087 59.1475C38.9179 59.2975 38.7858 59.4831 38.7008 59.6902C38.6283 59.8436 38.4473 60.115 38.5318 60.3273Z" fill="#E7D8C8"/>
<path d="M40.9882 61.3472C41.0527 61.0507 41.2214 60.7857 41.465 60.598C41.4757 60.5868 41.4893 60.5788 41.5044 60.5747C41.5195 60.5707 41.5354 60.5708 41.5504 60.5751C41.5655 60.5794 41.579 60.5876 41.5895 60.599C41.6 60.6103 41.607 60.6243 41.6099 60.6393C41.62 60.7492 41.6056 60.8599 41.5676 60.9638C41.5525 61.0941 41.5013 61.218 41.4194 61.322C41.3374 61.426 41.228 61.5061 41.1029 61.5536H41.0425C41.0278 61.5556 41.0128 61.5542 40.9987 61.5495C40.9846 61.5449 40.9718 61.5371 40.9613 61.5269C40.9508 61.5166 40.9428 61.5041 40.9381 61.4903C40.9333 61.4765 40.9319 61.4619 40.9339 61.4475L40.9882 61.3472Z" fill="#E7D8C8"/>
<path d="M42.7509 62.0428C42.7635 62.0347 42.7779 62.0299 42.7928 62.0286C42.8078 62.0274 42.8228 62.0298 42.8366 62.0357C42.8504 62.0415 42.8624 62.0506 42.8717 62.0622C42.881 62.0737 42.8872 62.0873 42.8897 62.1018C42.8897 62.1018 42.8897 62.1018 42.8897 62.1431C42.8897 62.4734 42.6543 63.0043 42.2862 63.0338C42.2762 63.0355 42.266 63.0351 42.2561 63.0326C42.2463 63.0302 42.2371 63.0258 42.2292 63.0197C42.2212 63.0136 42.2146 63.0059 42.2099 62.9971C42.2052 62.9884 42.2024 62.9788 42.2017 62.9689C42.212 62.7831 42.2672 62.6024 42.3626 62.4415C42.4581 62.2805 42.5911 62.1439 42.7509 62.0428Z" fill="#E7D8C8"/>
<path d="M40.6804 63.1155C40.756 63.0419 40.8412 62.9784 40.9339 62.9268C40.9822 62.9268 41.0667 62.9268 41.0667 62.9798C41.0547 63.216 40.9561 63.44 40.7891 63.611C40.7199 63.7199 40.619 63.8062 40.4993 63.8587C40.4833 63.8646 40.4656 63.8642 40.4498 63.8576C40.4341 63.851 40.4215 63.8387 40.4148 63.8233C40.4148 63.8233 40.4148 63.782 40.4148 63.7584C40.4114 63.7429 40.4114 63.7268 40.4148 63.7113C40.3946 63.5975 40.4089 63.4803 40.4561 63.3744C40.5033 63.2685 40.5813 63.1785 40.6804 63.1155Z" fill="#E7D8C8"/>
<path d="M39.093 61.4592C39.1177 61.4575 39.1421 61.4651 39.1612 61.4805C39.1803 61.4959 39.1926 61.5178 39.1956 61.5418C39.2046 61.5925 39.2046 61.6444 39.1956 61.6952C39.207 61.7812 39.1989 61.8686 39.1717 61.9512C39.1446 62.0338 39.0992 62.1095 39.0387 62.173C38.9582 62.3167 38.8337 62.4322 38.6826 62.5033C38.6464 62.5033 38.6041 62.5033 38.586 62.462C38.4532 62.1553 38.6584 61.4533 39.093 61.4592Z" fill="#E7D8C8"/>
<path d="M36.3712 61.0881C36.3752 61.1003 36.3818 61.1116 36.3905 61.1213C36.3991 61.1309 36.4097 61.1388 36.4216 61.1443C36.4334 61.1498 36.4463 61.1529 36.4595 61.1534C36.4726 61.1539 36.4857 61.1517 36.4979 61.1471C36.685 61.0617 36.8363 60.916 36.9264 60.7345C37.0165 60.5529 37.04 60.3466 36.9929 60.1502C36.9872 60.1379 36.9789 60.127 36.9686 60.1182C36.9583 60.1093 36.9461 60.1027 36.933 60.0988C36.9199 60.0949 36.906 60.0938 36.8924 60.0955C36.8788 60.0973 36.8657 60.1018 36.854 60.1089C36.7176 60.2027 36.6025 60.3233 36.5161 60.4628C36.4437 60.5488 36.3929 60.6501 36.3678 60.7587C36.3426 60.8672 36.3438 60.9801 36.3712 61.0881Z" fill="#E7D8C8"/>
<path d="M36.6369 63.3649C36.636 63.2435 36.6693 63.1243 36.7332 63.0202C36.7971 62.9162 36.889 62.8313 36.999 62.775C37.0124 62.7693 37.0271 62.7668 37.0417 62.7678C37.0563 62.7688 37.0705 62.7733 37.083 62.7808C37.0954 62.7884 37.1059 62.7988 37.1133 62.8111C37.1208 62.8235 37.125 62.8374 37.1257 62.8517C37.1422 62.969 37.13 63.0884 37.0901 63.2001C37.0503 63.3119 36.9839 63.4128 36.8964 63.4947C36.8704 63.53 36.8376 63.56 36.7998 63.5831C36.7884 63.5892 36.7758 63.593 36.7629 63.5942C36.7499 63.5954 36.7368 63.594 36.7244 63.5902C36.712 63.5863 36.7005 63.58 36.6907 63.5717C36.6808 63.5634 36.6728 63.5533 36.667 63.5419C36.6642 63.5353 36.6628 63.5283 36.6628 63.5212C36.6628 63.5141 36.6642 63.5071 36.667 63.5006C36.6507 63.4569 36.6405 63.4112 36.6369 63.3649Z" fill="#E7D8C8"/>
<path d="M42.1658 64.22C42.1766 64.2191 42.1875 64.2205 42.1977 64.224C42.2079 64.2275 42.2173 64.233 42.2252 64.2402C42.2332 64.2474 42.2395 64.2562 42.2438 64.2659C42.2481 64.2756 42.2503 64.2861 42.2503 64.2966C42.2496 64.4539 42.2033 64.6078 42.1168 64.7404C42.0303 64.873 41.907 64.9789 41.7614 65.0458C41.7418 65.0517 41.7207 65.0517 41.7011 65.0458H41.6166C41.6069 65.0475 41.5969 65.0472 41.5874 65.0447C41.5779 65.0422 41.5691 65.0377 41.5616 65.0315C41.5541 65.0253 41.5481 65.0175 41.544 65.0088C41.54 65 41.5379 64.9905 41.5381 64.9809C41.5713 64.8136 41.6458 64.6568 41.7552 64.5242C41.8646 64.3916 42.0056 64.2871 42.1658 64.22Z" fill="#E7D8C8"/>
<path d="M42.8054 65.8651C42.8036 65.8809 42.8058 65.8969 42.812 65.9116C42.8181 65.9263 42.828 65.9393 42.8406 65.9493C42.8533 65.9593 42.8683 65.966 42.8843 65.9688C42.9003 65.9717 42.9168 65.9705 42.9322 65.9654H42.9744C42.9834 65.9712 42.9939 65.9743 43.0046 65.9743C43.0154 65.9743 43.0259 65.9712 43.0348 65.9654L43.0771 65.9241C43.1943 65.844 43.2937 65.7415 43.3694 65.6229C43.4451 65.5043 43.4956 65.372 43.5177 65.2339C43.5199 65.2203 43.5184 65.2064 43.5132 65.1936C43.5081 65.1808 43.4995 65.1696 43.4884 65.1612C43.4773 65.1527 43.464 65.1474 43.4501 65.1456C43.4361 65.1439 43.4219 65.1459 43.409 65.1513C43.216 65.2391 43.0557 65.3834 42.9503 65.5643C42.8817 65.6539 42.8324 65.7563 42.8054 65.8651Z" fill="#E7D8C8"/>
<path d="M42.4486 67.9426C42.5251 67.7851 42.6364 67.646 42.7745 67.5356C42.8332 67.4727 42.8978 67.4154 42.9677 67.3645C42.9873 67.3582 43.0084 67.3582 43.028 67.3645C43.0403 67.3549 43.0553 67.3491 43.071 67.3479C43.0867 67.3467 43.1024 67.3501 43.116 67.3578C43.1297 67.3654 43.1407 67.3769 43.1476 67.3907C43.1545 67.4045 43.157 67.4201 43.1548 67.4353C43.1314 67.575 43.0671 67.7051 42.9696 67.8098C42.8721 67.9145 42.7456 67.9894 42.6055 68.0252H42.5572C42.5446 68.0335 42.5295 68.0377 42.5143 68.0372C42.499 68.0367 42.4843 68.0315 42.4723 68.0223C42.4603 68.0132 42.4515 68.0005 42.4472 67.9862C42.443 67.9719 42.4434 67.9566 42.4486 67.9426Z" fill="#E7D8C8"/>
<path d="M40.4931 66.9271C40.4985 66.8416 40.5229 66.7582 40.5646 66.6829C40.6063 66.6075 40.6643 66.5419 40.7346 66.4906C40.8279 66.3966 40.9442 66.3276 41.0726 66.29C41.1269 66.29 41.1993 66.29 41.1993 66.3608C41.1898 66.5285 41.1264 66.689 41.018 66.8193C40.9096 66.9496 40.7618 67.0431 40.5957 67.0864C40.583 67.0881 40.5701 67.0872 40.5578 67.084C40.5454 67.0807 40.5338 67.075 40.5237 67.0674C40.5136 67.0597 40.5052 67.0501 40.4989 67.0392C40.4926 67.0283 40.4886 67.0163 40.4871 67.0038C40.4812 66.999 40.4765 66.9929 40.4735 66.9859C40.4705 66.979 40.4693 66.9715 40.4699 66.964C40.4705 66.9565 40.4729 66.9492 40.4769 66.9428C40.481 66.9364 40.4865 66.931 40.4931 66.9271Z" fill="#E7D8C8"/>
<path d="M39.0992 64.5095H39.1475C39.1669 64.502 39.1879 64.4991 39.2087 64.5011C39.2294 64.503 39.2495 64.5097 39.2671 64.5206C39.2847 64.5315 39.2995 64.5464 39.3102 64.5639C39.3208 64.5815 39.3271 64.6012 39.3285 64.6216C39.2923 64.9224 39.0328 65.3117 38.725 65.3294C38.6767 65.3294 38.6103 65.294 38.6164 65.2409C38.614 65.086 38.6585 64.9339 38.7445 64.8038C38.8304 64.6736 38.9538 64.5712 39.0992 64.5095Z" fill="#E7D8C8"/>
<path d="M38.1214 67.2462C38.2438 67.0708 38.4188 66.9368 38.6223 66.8627C38.6381 66.8563 38.6552 66.8541 38.6721 66.8563C38.689 66.8585 38.705 66.865 38.7185 66.8752C38.732 66.8854 38.7425 66.8988 38.7489 66.9143C38.7554 66.9297 38.7575 66.9465 38.7551 66.963C38.6433 67.3067 38.4015 67.5957 38.0791 67.7711C38.0655 67.7819 38.0492 67.7888 38.0318 67.7912C38.0145 67.7936 37.9968 67.7914 37.9807 67.7847C37.9646 67.778 37.9506 67.7672 37.9403 67.7534C37.93 67.7396 37.9237 67.7233 37.9222 67.7063C37.9162 67.6197 37.9311 67.5329 37.9657 67.453C38.0003 67.3731 38.0536 67.3023 38.1214 67.2462Z" fill="#E7D8C8"/>
<path d="M36.5279 65.3585C36.5323 65.2396 36.5666 65.1237 36.6276 65.0208C36.6887 64.9179 36.7746 64.8313 36.878 64.7686C36.9263 64.7686 37.0168 64.7686 37.0349 64.8098C37.057 64.966 37.033 65.125 36.9656 65.2682C36.8982 65.4114 36.7903 65.5328 36.6546 65.618C36.6375 65.6314 36.6166 65.6394 36.5946 65.641C36.5727 65.6425 36.5508 65.6376 36.5319 65.6267C36.5129 65.6158 36.4977 65.5996 36.4884 65.5801C36.4791 65.5607 36.476 65.5389 36.4796 65.5177C36.4923 65.4637 36.5085 65.4105 36.5279 65.3585Z" fill="#E7D8C8"/>
<path d="M35.0067 63.5242C35.0263 63.454 35.0687 63.3919 35.1275 63.3472L35.1637 63.3059C35.2059 63.2528 35.3206 63.2705 35.3206 63.3472C35.3165 63.476 35.2746 63.6009 35.1999 63.707C35.1958 63.7847 35.1748 63.8606 35.1384 63.9298C35.102 63.9989 35.0509 64.0597 34.9886 64.1081C34.9772 64.1153 34.964 64.1195 34.9504 64.1202C34.9368 64.1209 34.9233 64.1182 34.9111 64.1122C34.8989 64.1063 34.8885 64.0973 34.881 64.0863C34.8734 64.0752 34.8689 64.0624 34.8679 64.0491C34.8524 63.8639 34.9013 63.6789 35.0067 63.5242Z" fill="#E7D8C8"/>
<path d="M36.5097 58.4274L36.5881 58.3272C36.6304 58.2859 36.727 58.3272 36.727 58.3685C36.7383 58.4861 36.7219 58.6047 36.679 58.7151C36.6361 58.8255 36.5678 58.9249 36.4795 59.0055V59.0409C36.4702 59.0496 36.4588 59.0557 36.4463 59.0586C36.4339 59.0616 36.4209 59.0612 36.4086 59.0576C36.3963 59.054 36.3852 59.0473 36.3765 59.0381C36.3677 59.029 36.3616 59.0177 36.3588 59.0055C36.3528 58.9684 36.3528 58.9306 36.3588 58.8934C36.3343 58.8099 36.3356 58.7211 36.3624 58.6382C36.3892 58.5554 36.4405 58.482 36.5097 58.4274Z" fill="#E7D8C8"/>
<path d="M35.7854 68.1489C35.7917 68.1599 35.8009 68.1692 35.812 68.1756C35.8232 68.182 35.8359 68.1854 35.8488 68.1854C35.8617 68.1854 35.8744 68.182 35.8856 68.1756C35.8967 68.1692 35.9059 68.1599 35.9122 68.1489L35.9605 68.0958C36.0827 68.0026 36.1831 67.8849 36.255 67.7506C36.3268 67.6162 36.3684 67.4685 36.3769 67.3172C36.3784 67.3007 36.3752 67.2841 36.3676 67.2694C36.36 67.2546 36.3483 67.2422 36.3338 67.2336C36.3194 67.225 36.3027 67.2205 36.2858 67.2207C36.2689 67.2209 36.2524 67.2257 36.2381 67.2346C35.9786 67.4174 35.6707 67.8362 35.7854 68.1489Z" fill="#E7D8C8"/>
<path d="M34.3429 66.9101C34.3577 66.8328 34.398 66.7623 34.4576 66.7095C34.4808 66.6706 34.5092 66.6349 34.5421 66.6033C34.551 66.5911 34.5628 66.5812 34.5765 66.5744C34.5901 66.5675 34.6052 66.564 34.6206 66.564C34.6359 66.564 34.651 66.5675 34.6647 66.5744C34.6783 66.5812 34.6901 66.5911 34.699 66.6033C34.747 66.7329 34.747 66.8748 34.699 67.0044C34.6671 67.1376 34.5957 67.2587 34.4938 67.3525C34.484 67.3596 34.4726 67.3644 34.4605 67.3665C34.4485 67.3686 34.4361 67.3679 34.4244 67.3645C34.4126 67.361 34.4019 67.3549 34.393 67.3467C34.3841 67.3385 34.3773 67.3283 34.3731 67.3171C34.338 67.2555 34.3172 67.1871 34.312 67.1168C34.3068 67.0465 34.3173 66.976 34.3429 66.9101Z" fill="#E7D8C8"/>
<path d="M34.5906 68.9212C34.6036 68.9115 34.6191 68.9056 34.6353 68.9038C34.6515 68.9021 34.668 68.9047 34.6828 68.9114C34.6977 68.918 34.7104 68.9285 34.7197 68.9416C34.7289 68.9548 34.7344 68.9701 34.7354 68.986C34.7507 69.1282 34.7344 69.272 34.6875 69.4074C34.6406 69.5428 34.5643 69.6667 34.4638 69.7706C34.4638 69.7706 34.4638 69.806 34.4638 69.8178C34.4579 69.8318 34.4478 69.8437 34.4349 69.8521C34.422 69.8605 34.4069 69.865 34.3914 69.865C34.3759 69.865 34.3608 69.8605 34.3479 69.8521C34.335 69.8437 34.3249 69.8318 34.319 69.8178C34.2788 69.6582 34.2828 69.4911 34.3305 69.3335C34.3782 69.1759 34.468 69.0336 34.5906 68.9212Z" fill="#E7D8C8"/>
<path d="M36.8177 69.7888C36.8379 69.7831 36.8595 69.7841 36.8791 69.7916C36.8987 69.799 36.9153 69.8125 36.9263 69.83C36.9328 69.8397 36.9363 69.851 36.9363 69.8625C36.9363 69.874 36.9328 69.8853 36.9263 69.8949C36.9283 69.9086 36.9283 69.9225 36.9263 69.9362C36.9256 70.0512 36.8974 70.1644 36.844 70.2668C36.7905 70.3693 36.7133 70.458 36.6185 70.5261C36.6075 70.5344 36.5948 70.5401 36.5812 70.5429C36.5676 70.5456 36.5536 70.5452 36.5402 70.5418C36.5268 70.5384 36.5143 70.532 36.5039 70.5231C36.4934 70.5143 36.4851 70.5032 36.4797 70.4907C36.4769 70.4791 36.4769 70.467 36.4797 70.4553C36.4686 70.4564 36.4574 70.4549 36.4469 70.4511C36.4365 70.4472 36.4271 70.441 36.4195 70.433C36.4119 70.425 36.4063 70.4154 36.4031 70.405C36.4 70.3945 36.3993 70.3835 36.4012 70.3727C36.4167 70.2496 36.4627 70.132 36.5353 70.0302C36.6079 69.9284 36.7048 69.8455 36.8177 69.7888Z" fill="#E7D8C8"/>
<path d="M39.6905 68.367C39.7031 68.359 39.7175 68.3541 39.7324 68.3529C39.7474 68.3516 39.7624 68.354 39.7762 68.3599C39.79 68.3657 39.802 68.3748 39.8113 68.3864C39.8206 68.3979 39.8268 68.4115 39.8293 68.426C39.8353 68.6051 39.7876 68.782 39.6922 68.935C39.5968 69.088 39.4577 69.2104 39.2921 69.2873C39.263 69.2981 39.2307 69.2981 39.2016 69.2873L39.1292 69.3344C39.1184 69.3382 39.1069 69.3394 39.0955 69.3379C39.0842 69.3364 39.0734 69.3324 39.064 69.326C39.0545 69.3197 39.0468 69.3113 39.0413 69.3015C39.0359 69.2917 39.0329 69.2807 39.0326 69.2696C39.0582 69.078 39.1317 68.8955 39.2464 68.7381C39.3611 68.5807 39.5136 68.4533 39.6905 68.367Z" fill="#E7D8C8"/>
<path d="M44.5915 67.9594C44.604 67.9318 44.6202 67.906 44.6398 67.8827C44.6301 67.8399 44.6301 67.7957 44.6398 67.7529C44.7078 67.6246 44.8185 67.5226 44.9537 67.4639C45.0019 67.4639 45.0683 67.4639 45.0864 67.4993C45.1104 67.5822 45.1104 67.67 45.0864 67.7529C45.0674 67.8488 45.0121 67.9342 44.9316 67.9921C44.8511 68.05 44.7512 68.0762 44.6519 68.0655C44.6306 68.0576 44.6129 68.0426 44.6019 68.0232C44.5908 68.0038 44.5872 67.9812 44.5915 67.9594Z" fill="#E7D8C8"/>
</g>
<defs>
<clipPath id="clip0_414_8519">
<rect width="116" height="80" fill="white"/>
</clipPath>
</defs>
</svg>
