<svg width="25" height="19" viewBox="0 0 25 19" fill="none" xmlns="http://www.w3.org/2000/svg">
<g clip-path="url(#clip0_414_9487)">
<path d="M9.78833 2.69534C9.78833 2.69534 12.3884 -0.339352 16.9568 1.35937C16.9568 1.35937 14.3552 5.77132 9.78833 2.69534Z" fill="#5C7732"/>
<path d="M9.78833 2.69534C9.78833 2.69534 12.3884 -0.339352 16.9568 1.35937C16.9568 1.35937 12.5918 2.37093 9.78833 2.69534Z" fill="#69893E"/>
<path d="M8.87842 5.4825L9.71348 0L10.6893 0.576562L9.34948 5.63438C9.18863 5.59555 9.03114 5.54477 8.87842 5.4825Z" fill="#69893E"/>
<path d="M16.8742 11.9014C16.8742 15.8238 11.1587 18.9441 6.67442 18.9441C2.19014 18.9441 0 15.5216 0 11.5992C0 7.67677 3.63698 4.49609 8.12278 4.49609C12.6086 4.49609 16.8742 7.97906 16.8742 11.9014Z" fill="#E87F18"/>
<path d="M7.64727 6.21669C8.69952 4.89989 11.4555 5.27886 12.9605 6.39659C14.4655 7.51432 14.2835 9.21157 13.2312 10.5254C12.179 11.8393 10.1035 12 8.59857 10.8837C7.09362 9.76749 6.59197 7.53497 7.64727 6.21669Z" fill="#E89B34"/>
<path d="M17.2413 18.7181C15.7652 18.7181 14.3221 18.2961 13.0948 17.5054C11.8674 16.7147 10.9107 15.5908 10.3458 14.2759C9.78094 12.961 9.63314 11.5142 9.92112 10.1183C10.2091 8.72239 10.9199 7.4402 11.9638 6.43382C13.0076 5.42745 14.3374 4.7421 15.7852 4.46444C17.233 4.18679 18.7337 4.32929 20.0975 4.87394C21.4613 5.41858 22.627 6.3409 23.4471 7.52427C24.2672 8.70764 24.7049 10.0989 24.7049 11.5221C24.7029 13.43 23.9159 15.2592 22.5166 16.6083C21.1174 17.9574 19.2202 18.7161 17.2413 18.7181Z" fill="#FFB506"/>
<path d="M17.2412 4.69531C15.8297 4.69531 14.45 5.09884 13.2764 5.85487C12.1029 6.6109 11.1882 7.68547 10.6481 8.9427C10.108 10.1999 9.96663 11.5833 10.242 12.918C10.5173 14.2527 11.197 15.4787 12.195 16.4409C13.1931 17.4031 14.4646 18.0584 15.8489 18.3239C17.2332 18.5894 18.6681 18.4531 19.9721 17.9324C21.2761 17.4116 22.3906 16.5297 23.1748 15.3983C23.9589 14.2668 24.3775 12.9365 24.3775 11.5757C24.3754 9.75152 23.6229 8.00259 22.2851 6.71269C20.9472 5.42279 19.1332 4.69726 17.2412 4.69531ZM11.7016 8.70028C11.7215 8.64572 12.2675 7.29353 13.1331 7.0458C13.1983 7.02801 13.2657 7.01907 13.3335 7.01926C13.4349 7.01947 13.535 7.04049 13.6273 7.08092C13.7196 7.12134 13.8019 7.18025 13.8688 7.25371L16.3908 10.6762C16.4183 10.7116 16.559 10.9033 16.4979 11.0183C16.4829 11.0439 16.4603 11.0646 16.4331 11.0777C16.4058 11.0909 16.3751 11.0958 16.3449 11.0921C16.2395 11.0845 16.1361 11.0601 16.039 11.0198L11.9096 9.69267C11.8434 9.67368 11.7823 9.64102 11.7305 9.59697C11.6788 9.55291 11.6376 9.49852 11.6098 9.43757C11.5181 9.25915 11.5486 9.00699 11.7016 8.70028ZM11.206 12.8291C10.657 12.139 11.0409 10.7367 11.0531 10.6762C11.1724 10.0643 11.4829 9.97137 11.6649 9.97137C11.7212 9.97162 11.777 9.9811 11.8301 9.99939L15.9809 11.2616C16.2348 11.3295 16.3541 11.4091 16.3556 11.5064C16.3556 11.645 16.1063 11.7276 16.0497 11.7438L11.9295 13.0842C11.8746 13.095 11.8188 13.1005 11.7628 13.1004C11.6545 13.1 11.5478 13.0752 11.4512 13.0281C11.3546 12.981 11.2706 12.9129 11.206 12.8291ZM13.3335 16.1027C13.2656 16.1031 13.1981 16.0937 13.1331 16.0747C12.2675 15.8284 11.7215 14.4762 11.7001 14.4187C11.5471 14.112 11.5181 13.8598 11.6098 13.6814C11.6404 13.623 11.6835 13.5716 11.7362 13.5304C11.7889 13.4892 11.8501 13.4593 11.9157 13.4425L16.0452 12.108C16.1423 12.0682 16.2457 12.0443 16.351 12.0373C16.3812 12.0335 16.4119 12.0385 16.4392 12.0516C16.4664 12.0647 16.489 12.0854 16.504 12.111C16.5652 12.226 16.4244 12.4177 16.3969 12.4546L13.8734 15.8697C13.806 15.944 13.723 16.0037 13.63 16.0449C13.5369 16.0861 13.4359 16.1078 13.3335 16.1086V16.1027ZM17.0775 17.0317C17.0805 17.0908 17.0713 17.1498 17.0506 17.2055C17.0299 17.2611 16.998 17.3123 16.9567 17.3561C16.8818 17.4242 16.7927 17.4762 16.6955 17.5087C16.5982 17.5412 16.4949 17.5535 16.3923 17.5448C16.3187 17.544 16.2452 17.539 16.1721 17.5301C16.1124 17.5301 14.609 17.4593 14.0921 16.7471C14.0151 16.6396 13.9714 16.5132 13.966 16.3827C13.9606 16.2522 13.9937 16.1229 14.0615 16.0098L16.6248 12.6182C16.6508 12.5843 16.7777 12.4089 16.9093 12.4089C16.9268 12.4092 16.9441 12.4128 16.9601 12.4197C16.9761 12.4265 16.9906 12.4364 17.0026 12.4487C17.0622 12.5077 17.0852 12.63 17.0775 12.835V17.0317ZM17.0026 10.6674C16.9905 10.6795 16.976 10.6891 16.96 10.6957C16.9439 10.7023 16.9267 10.7057 16.9093 10.7057C16.7839 10.7057 16.6508 10.5317 16.6248 10.4963L14.0707 7.1151C14.0026 7.00223 13.9691 6.8731 13.9739 6.74262C13.9788 6.61215 14.0219 6.48567 14.0982 6.37781C14.6151 5.66559 16.1186 5.59628 16.1828 5.59481C16.2543 5.5857 16.3263 5.58078 16.3984 5.58006C16.501 5.57135 16.6043 5.58366 16.7016 5.61619C16.7989 5.64872 16.8879 5.70073 16.9628 5.76881C17.0044 5.81324 17.0365 5.86516 17.0573 5.92159C17.078 5.97803 17.087 6.03786 17.0836 6.09764V10.2884C17.0852 10.4919 17.0622 10.6172 17.0026 10.6733V10.6674ZM21.2024 7.01041C21.2701 7.01013 21.3376 7.01906 21.4027 7.03695C22.2684 7.28468 22.8144 8.63687 22.8373 8.69438C22.9903 9.00109 23.0178 9.25325 22.926 9.43167C22.8959 9.49051 22.8529 9.54241 22.8002 9.58388C22.7474 9.62534 22.686 9.6554 22.6202 9.67203L18.4907 10.9992C18.3935 11.039 18.2902 11.0629 18.1848 11.0699C18.1546 11.0737 18.1239 11.0687 18.0967 11.0556C18.0694 11.0425 18.0469 11.0218 18.0319 10.9962C17.9722 10.8812 18.1114 10.6895 18.1405 10.6526L20.664 7.25519C20.7309 7.18069 20.8136 7.12083 20.9064 7.07964C20.9993 7.03844 21.1002 7.01685 21.2024 7.01631V7.01041ZM17.3498 10.3666L17.4415 6.17727C17.4579 6.04627 17.5126 5.92247 17.5993 5.82036C17.6859 5.71825 17.801 5.64206 17.9309 5.60071C18.0509 5.5655 18.1757 5.5481 18.3011 5.5491C19.1117 5.5491 20.0431 6.1699 20.0828 6.19644C20.3887 6.36749 20.557 6.55919 20.5891 6.76268C20.5986 6.82654 20.5939 6.89161 20.5755 6.95363C20.557 7.01564 20.5252 7.07318 20.482 7.12248L17.8438 10.4609C17.7138 10.6408 17.6098 10.7249 17.521 10.7249C17.5035 10.7249 17.4861 10.7214 17.47 10.7145C17.4539 10.7077 17.4395 10.6976 17.4278 10.6851C17.3663 10.59 17.3389 10.4781 17.3498 10.3666ZM20.5891 16.3681C20.557 16.5716 20.3857 16.7633 20.0782 16.9373C20.0431 16.9609 19.1117 17.5817 18.3011 17.5817C18.1757 17.5827 18.0509 17.5653 17.9309 17.5301C17.802 17.4895 17.6878 17.4145 17.6014 17.3137C17.515 17.2129 17.4601 17.0906 17.443 16.9609L17.3498 12.7628C17.3391 12.6517 17.3665 12.5403 17.4278 12.4457C17.4395 12.4332 17.4539 12.4231 17.47 12.4163C17.4861 12.4094 17.5035 12.4059 17.521 12.4059C17.6098 12.4059 17.7138 12.49 17.8453 12.6713L20.4851 16.0113C20.5275 16.0603 20.5586 16.1175 20.5766 16.179C20.5945 16.2405 20.5987 16.3049 20.5891 16.3681ZM22.8358 14.4335C22.8144 14.488 22.2684 15.8402 21.4043 16.0865C21.3388 16.1055 21.2707 16.1149 21.2024 16.1145C21.1013 16.114 21.0014 16.0928 20.9094 16.0524C20.8174 16.012 20.7354 15.9532 20.6686 15.88L18.1451 12.4575C18.1175 12.4221 17.9783 12.2304 18.038 12.1154C18.053 12.0898 18.0755 12.0692 18.1028 12.056C18.13 12.0429 18.1607 12.0379 18.1909 12.0417C18.2964 12.0492 18.3997 12.0736 18.4968 12.1139L22.6263 13.4411C22.6897 13.4587 22.7486 13.4889 22.7992 13.5298C22.8498 13.5707 22.8909 13.6213 22.9199 13.6785C23.0178 13.8613 22.9887 14.1179 22.8358 14.4276V14.4335ZM22.77 13.2125C22.7186 13.2118 22.6674 13.2063 22.6171 13.1963L18.4876 11.8603C18.4387 11.8456 18.1818 11.7615 18.1894 11.6229C18.1894 11.5241 18.3118 11.446 18.5656 11.3796L22.7196 10.1144C22.7686 10.0972 22.8203 10.0883 22.8725 10.0879C23.0469 10.0879 23.3589 10.1808 23.4843 10.7971C23.4996 10.8532 23.8835 12.2555 23.3313 12.9471C23.2648 13.029 23.1795 13.0951 23.0822 13.1401C22.9848 13.1851 22.878 13.2079 22.77 13.2066V13.2125Z" fill="#FFFFCF"/>
<path d="M17.2352 4.29541C13.121 4.29541 9.70276 7.25932 9.70276 11.2259C9.70276 15.1926 12.7066 19 16.8238 19C20.941 19 25.0016 15.5922 25.0016 11.627C25.0016 7.66188 21.3509 4.29541 17.2352 4.29541ZM17.2352 18.4514C15.8238 18.4502 14.4445 18.0456 13.2717 17.2887C12.0988 16.5317 11.1851 15.4565 10.646 14.1989C10.107 12.9413 9.96679 11.5579 10.2432 10.2235C10.5196 8.88906 11.2002 7.66365 12.199 6.70218C13.1977 5.7407 14.4697 5.08634 15.8541 4.82184C17.2386 4.55733 18.6733 4.69456 19.9768 5.21618C21.2804 5.73779 22.3942 6.62036 23.1776 7.75229C23.9609 8.88422 24.3785 10.2147 24.3776 11.5754C24.3756 13.3996 23.6231 15.1485 22.2852 16.4384C20.9473 17.7284 19.1333 18.4539 17.2413 18.4558L17.2352 18.4514Z" fill="#F38E1C"/>
<path d="M16.9569 5.76275C16.8819 5.69468 16.7929 5.64267 16.6956 5.61013C16.5984 5.5776 16.4951 5.56529 16.3925 5.574C16.3204 5.57472 16.2484 5.57965 16.1769 5.58875C16.1126 5.58875 14.6092 5.65953 14.0922 6.37175C14.0159 6.47961 13.9729 6.60609 13.968 6.73656C13.9631 6.86704 13.9967 6.99618 14.0647 7.10904L16.625 10.5006C16.651 10.536 16.7779 10.71 16.9095 10.71C16.9269 10.7099 16.9441 10.7065 16.9601 10.6999C16.9762 10.6934 16.9907 10.6837 17.0027 10.6716C17.0624 10.6127 17.0853 10.4903 17.0777 10.2868V6.09158C17.081 6.0318 17.0721 5.97197 17.0513 5.91554C17.0306 5.8591 16.9985 5.80718 16.9569 5.76275Z" fill="#FFB506"/>
<path d="M20.5892 6.76245C20.5571 6.55896 20.3858 6.36726 20.0829 6.19621C20.0432 6.16967 19.1118 5.54887 18.3012 5.54887C18.1758 5.54787 18.051 5.56527 17.931 5.60048C17.8011 5.64183 17.686 5.71803 17.5994 5.82013C17.5127 5.92224 17.458 6.04604 17.4416 6.17704L17.3499 10.3663C17.339 10.4779 17.3664 10.5898 17.4279 10.6848C17.4396 10.6974 17.454 10.7074 17.4701 10.7143C17.4862 10.7212 17.5036 10.7247 17.5212 10.7247C17.6099 10.7247 17.7139 10.6406 17.8439 10.4607L20.4821 7.12225C20.5253 7.07296 20.5572 7.01541 20.5756 6.9534C20.5941 6.89139 20.5987 6.82631 20.5892 6.76245Z" fill="#FFB506"/>
<path d="M22.8374 8.7C22.8144 8.6425 22.2684 7.2903 21.4028 7.04257C21.2714 7.00651 21.1322 7.00733 21.0013 7.04494C20.8704 7.08256 20.7534 7.1554 20.664 7.25491L18.1466 10.6715C18.1176 10.7084 17.9784 10.9001 18.038 11.0151C18.053 11.0407 18.0756 11.0614 18.1028 11.0745C18.1301 11.0876 18.1608 11.0926 18.191 11.0888C18.2963 11.0818 18.3997 11.0579 18.4968 11.0181L22.6263 9.69093C22.6922 9.6743 22.7535 9.64424 22.8063 9.60277C22.8591 9.56131 22.902 9.5094 22.9322 9.45057C23.0178 9.25887 22.9888 9.00672 22.8374 8.7Z" fill="#FFB506"/>
<path d="M16.3908 10.6731L13.8688 7.25057C13.8019 7.17711 13.7196 7.1182 13.6273 7.07778C13.535 7.03735 13.4349 7.01633 13.3335 7.01612C13.2658 7.01593 13.1983 7.02487 13.1332 7.04266C12.2675 7.29039 11.7215 8.64258 11.7016 8.70009C11.5487 9.00975 11.5181 9.26191 11.6098 9.44623C11.6389 9.50355 11.68 9.5544 11.7305 9.59553C11.7811 9.63666 11.84 9.66717 11.9035 9.68511L16.0329 11.0122C16.13 11.0525 16.2334 11.077 16.3388 11.0845C16.369 11.0883 16.3997 11.0833 16.427 11.0702C16.4542 11.057 16.4768 11.0363 16.4918 11.0108C16.5591 10.9002 16.4184 10.7085 16.3908 10.6731Z" fill="#FFB506"/>
<path d="M17.0774 17.0374V12.8378C17.0774 12.6328 17.0621 12.5104 17.0025 12.4514C16.9905 12.4391 16.976 12.4293 16.96 12.4225C16.944 12.4156 16.9267 12.4119 16.9092 12.4116C16.7838 12.4116 16.6507 12.5871 16.6247 12.621L14.0614 16.0126C13.9936 16.1256 13.9605 16.255 13.9659 16.3855C13.9713 16.516 14.015 16.6423 14.092 16.7498C14.6089 17.4621 16.1124 17.5314 16.172 17.5328C16.2451 17.5418 16.3186 17.5467 16.3922 17.5476C16.4948 17.5563 16.5981 17.544 16.6954 17.5115C16.7926 17.4789 16.8817 17.4269 16.9566 17.3588C17.0392 17.2712 17.0826 17.1557 17.0774 17.0374Z" fill="#FFB506"/>
<path d="M20.485 16.0053L17.8452 12.6653C17.7137 12.484 17.6097 12.3999 17.521 12.3999C17.5034 12.3999 17.486 12.4034 17.4699 12.4102C17.4538 12.4171 17.4394 12.4271 17.4277 12.4397C17.3664 12.5343 17.339 12.6457 17.3497 12.7568L17.443 16.9549C17.46 17.0846 17.5149 17.2069 17.6013 17.3077C17.6877 17.4085 17.8019 17.4835 17.9308 17.5241C18.0508 17.5593 18.1756 17.5767 18.301 17.5757C19.1116 17.5757 20.043 16.9549 20.0782 16.9313C20.384 16.7573 20.5569 16.5656 20.589 16.3621C20.5986 16.2989 20.5944 16.2345 20.5765 16.173C20.5585 16.1115 20.5274 16.0543 20.485 16.0053Z" fill="#FFB506"/>
<path d="M22.9261 13.6795C22.8973 13.6227 22.8567 13.5722 22.8067 13.5313C22.7566 13.4905 22.6983 13.4601 22.6355 13.4421L18.506 12.115C18.4089 12.0747 18.3055 12.0503 18.2001 12.0427C18.1699 12.0389 18.1392 12.0439 18.112 12.0571C18.0847 12.0702 18.0622 12.0909 18.0472 12.1165C17.9875 12.2315 18.1267 12.4232 18.1542 12.4586L20.6778 15.8811C20.7445 15.9543 20.8266 16.013 20.9186 16.0534C21.0106 16.0939 21.1105 16.115 21.2116 16.1155C21.2799 16.116 21.348 16.1065 21.4135 16.0875C22.2776 15.8413 22.8236 14.4891 22.845 14.4345C22.9888 14.1175 23.0178 13.8609 22.9261 13.6795Z" fill="#FFB506"/>
<path d="M23.4813 10.7908C23.362 10.1744 23.05 10.0815 22.8695 10.0815C22.8173 10.0819 22.7656 10.0909 22.7166 10.1081L18.5626 11.3733C18.3088 11.4396 18.1895 11.5207 18.1864 11.6166C18.1864 11.7552 18.4357 11.8392 18.4846 11.854L22.6141 13.19C22.6644 13.2 22.7156 13.2054 22.767 13.2062C22.8755 13.2068 22.9826 13.1831 23.08 13.137C23.1774 13.091 23.2624 13.0238 23.3283 12.9408C23.8805 12.2492 23.4966 10.8469 23.4813 10.7908Z" fill="#FFB506"/>
<path d="M16.4979 12.1091C16.4829 12.0836 16.4603 12.0629 16.4331 12.0497C16.4058 12.0366 16.3751 12.0316 16.3449 12.0354C16.2396 12.0425 16.1362 12.0664 16.039 12.1062L11.9096 13.4407C11.844 13.4574 11.7828 13.4874 11.7301 13.5285C11.6774 13.5697 11.6343 13.6212 11.6037 13.6796C11.5119 13.8654 11.5425 14.122 11.6939 14.4169C11.7153 14.4744 12.2614 15.8266 13.127 16.0728C13.192 16.0918 13.2595 16.1013 13.3274 16.1008C13.4297 16.1 13.5308 16.0783 13.6239 16.0372C13.7169 15.996 13.7999 15.9363 13.8673 15.862L16.3847 12.4453C16.4183 12.4159 16.559 12.2242 16.4979 12.1091Z" fill="#FFB506"/>
<path d="M15.9779 11.2673L11.8271 10.0051C11.774 9.98678 11.7182 9.9773 11.6619 9.97705C11.4875 9.97705 11.177 10.0699 11.0501 10.6819C11.0333 10.7424 10.6494 12.1447 11.203 12.8348C11.2687 12.9181 11.3537 12.9855 11.4511 13.0315C11.5486 13.0776 11.6558 13.1011 11.7643 13.1002C11.8198 13.1001 11.8752 13.0947 11.9295 13.084L16.0498 11.7569C16.0987 11.7407 16.3557 11.6581 16.3557 11.5195C16.3511 11.4133 16.2318 11.3351 15.9779 11.2673Z" fill="#FFB506"/>
</g>
<defs>
<clipPath id="clip0_414_9487">
<rect width="25" height="19" fill="white"/>
</clipPath>
</defs>
</svg>
