<svg width="24" height="16" viewBox="0 0 24 16" fill="none" xmlns="http://www.w3.org/2000/svg">
<g clip-path="url(#clip0_414_9176)">
<path fill-rule="evenodd" clip-rule="evenodd" d="M24 11.9025C24 14.1653 18.6303 15.9998 12.0006 15.9998C5.37093 15.9998 0 14.1653 0 11.9025C0 9.63971 5.36969 7.80518 12.0006 7.80518C18.6316 7.80518 24 9.63971 24 11.9025Z" fill="#E2CAB3"/>
<path fill-rule="evenodd" clip-rule="evenodd" d="M24 11.4508C24 13.7136 18.6303 15.5482 12.0006 15.5482C5.37093 15.5482 0 13.7136 0 11.4508C0 9.18805 5.36969 7.35352 12.0006 7.35352C18.6316 7.35352 24 9.18805 24 11.4508Z" fill="white"/>
<path fill-rule="evenodd" clip-rule="evenodd" d="M24 11.386C24 13.578 18.6303 15.3547 12.0006 15.3547C5.37093 15.3547 0 13.578 0 11.386C0 9.19401 5.36969 7.41846 12.0006 7.41846C18.6316 7.41846 24 9.19519 24 11.386Z" fill="#E7D8C8"/>
<path fill-rule="evenodd" clip-rule="evenodd" d="M23.468 11.3861C23.468 12.9505 18.8726 14.2176 13.2044 14.2176C7.53628 14.2176 2.93958 12.9505 2.93958 11.3861C2.93958 9.82176 7.53503 8.55469 13.2044 8.55469C18.8738 8.55469 23.468 9.82294 23.468 11.3861Z" fill="#E2CAB3"/>
<path d="M22.6027 11.4872C22.3841 10.5198 21.3202 10.1104 20.4798 10.0455C19.9615 10.0066 19.4433 10.1104 18.9263 10.1375C18.639 10.1531 18.3509 10.142 18.0659 10.1045C17.7512 10.0632 17.4503 9.95585 17.1331 9.93107C16.5824 9.8886 16.0367 10.0691 15.5234 10.2579C14.9203 10.4808 14.3171 10.6838 13.699 10.856C12.4797 11.2069 11.2235 11.4313 9.95268 11.5249C9.43578 11.5694 8.91555 11.5666 8.39922 11.5167C8.03708 11.4742 7.67993 11.3987 7.31779 11.3586C6.68342 11.2913 5.98036 11.3704 5.72437 12.0747C5.53244 12.0741 5.34316 12.117 5.17241 12.1998C4.91392 12.3048 4.56801 12.4912 4.43439 12.7613C4.15592 13.3264 5.05877 13.5482 5.39344 13.6084C5.71188 13.665 6.03281 13.6851 6.35249 13.7169C6.79705 13.7618 7.1542 13.9612 7.53008 14.2042C8.47789 14.8165 9.74289 14.8566 10.8218 14.7858C11.417 14.7436 12.0053 14.6396 12.5763 14.4755C13.1795 14.3056 13.8001 14.4083 14.4095 14.5062C14.933 14.6107 15.4766 14.5797 15.983 14.4165C16.4925 14.2455 16.9345 13.9328 17.3703 13.619C17.8786 13.2533 18.4568 13.2309 19.0549 13.1849C19.6446 13.1503 20.2297 13.0654 20.8032 12.9312C21.2846 12.8163 21.7534 12.6582 22.2031 12.4593C22.5852 12.2694 22.6926 11.9154 22.6027 11.4872Z" fill="#EEBE30"/>
<path d="M19.1959 10.646C19.1959 12.1702 15.7705 13.5871 11.6459 13.5871C7.52119 13.5871 4.06836 12.0652 4.06836 10.541C4.06836 9.01673 7.52119 8.06348 11.6459 8.06348C15.7705 8.06348 19.1959 9.12173 19.1959 10.646Z" fill="#E3AC8A"/>
<path d="M19.1136 10.3525C19.1136 11.8767 15.7707 13.1119 11.646 13.1119C7.52131 13.1119 4.17712 11.8767 4.17712 10.3525C4.17712 8.82819 7.52131 7.5918 11.646 7.5918C15.7707 7.5918 19.1136 8.82819 19.1136 10.3525Z" fill="#DA840D"/>
<path d="M17.0782 10.0904C17.0782 11.2217 14.5981 12.1372 11.5374 12.1372C8.47668 12.1372 5.99414 11.2217 5.99414 10.0904C5.99414 8.95896 8.47793 8.04346 11.5374 8.04346C14.5969 8.04346 17.0782 8.96603 17.0782 10.0904Z" fill="#F0A508"/>
<path d="M7.80849 10.8456C7.80849 10.9636 7.66738 11.0662 7.49255 11.0662C7.31772 11.0662 7.17786 10.9671 7.17786 10.8456C7.17786 10.7241 7.31897 10.625 7.49255 10.625C7.66613 10.625 7.80849 10.7241 7.80849 10.8456Z" fill="#DA840D"/>
<path d="M7.17798 9.91728C7.17627 9.94978 7.16451 9.9811 7.14415 10.0073C7.12379 10.0336 7.09574 10.0536 7.06345 10.065C7.03116 10.0763 6.99607 10.0784 6.96251 10.0711C6.92895 10.0638 6.8984 10.0473 6.87464 10.0238C6.85088 10.0002 6.83496 9.97058 6.82885 9.93856C6.82273 9.90654 6.82669 9.87352 6.84024 9.8436C6.85378 9.81369 6.87632 9.78818 6.90505 9.77024C6.93379 9.7523 6.96746 9.74272 7.00191 9.74268C7.02563 9.74313 7.04902 9.74802 7.07074 9.75706C7.09245 9.7661 7.11206 9.77911 7.12842 9.79534C7.14479 9.81157 7.1576 9.83071 7.1661 9.85163C7.17461 9.87256 7.17864 9.89487 7.17798 9.91728Z" fill="#DA840D"/>
<path d="M9.36589 11.1132C9.36989 11.1705 9.35556 11.2277 9.32474 11.2773C9.29392 11.3268 9.24805 11.3665 9.19307 11.3911C9.1381 11.4157 9.07656 11.4242 9.01644 11.4153C8.95632 11.4065 8.90041 11.3808 8.85595 11.3416C8.81149 11.3023 8.78054 11.2514 8.76712 11.1953C8.7537 11.1392 8.75842 11.0807 8.78069 11.0272C8.80295 10.9737 8.84172 10.9277 8.89196 10.8953C8.9422 10.8629 9.00159 10.8455 9.06244 10.8454C9.10098 10.8441 9.13941 10.85 9.17552 10.8628C9.21164 10.8756 9.24473 10.895 9.27292 10.9199C9.3011 10.9447 9.32382 10.9746 9.33977 11.0078C9.35572 11.041 9.3646 11.0768 9.36589 11.1132Z" fill="#DA840D"/>
<path d="M8.70625 10.0503C8.70625 10.1235 8.62008 10.1836 8.51519 10.1836C8.41029 10.1836 8.32288 10.1235 8.32288 10.0503C8.32288 9.97716 8.40904 9.91699 8.51519 9.91699C8.62133 9.91699 8.70625 9.97598 8.70625 10.0503Z" fill="#DA840D"/>
<path d="M10.6371 10.683C10.6416 10.7201 10.6342 10.7576 10.6157 10.7905C10.5972 10.8235 10.5685 10.8504 10.5335 10.8676C10.4984 10.8848 10.4587 10.8915 10.4195 10.8869C10.3803 10.8823 10.3435 10.8665 10.314 10.8417C10.2846 10.8169 10.2637 10.7842 10.2544 10.748C10.245 10.7118 10.2475 10.6737 10.2615 10.6388C10.2756 10.604 10.3005 10.5739 10.333 10.5528C10.3655 10.5316 10.404 10.5202 10.4435 10.5202C10.4919 10.518 10.5394 10.5338 10.5756 10.5642C10.6118 10.5947 10.6339 10.6373 10.6371 10.683Z" fill="#DA840D"/>
<path d="M10.7106 11.6657C10.7106 11.7412 10.6182 11.8025 10.5033 11.8025C10.3884 11.8025 10.296 11.7412 10.296 11.6657C10.296 11.5902 10.3897 11.5288 10.5033 11.5288C10.617 11.5288 10.7106 11.5902 10.7106 11.6657Z" fill="#DA840D"/>
<path d="M9.88418 10.2014C9.88197 10.2288 9.87128 10.255 9.85345 10.2767C9.83561 10.2984 9.81142 10.3147 9.78387 10.3236C9.75631 10.3324 9.72661 10.3335 9.69845 10.3265C9.6703 10.3196 9.64492 10.305 9.62547 10.2845C9.60601 10.2641 9.59335 10.2387 9.58904 10.2115C9.58473 10.1843 9.58897 10.1565 9.60123 10.1315C9.61349 10.1066 9.63323 10.0856 9.658 10.0712C9.68277 10.0568 9.71148 10.0495 9.74057 10.0504C9.78054 10.0531 9.81783 10.0703 9.84462 10.0985C9.8714 10.1267 9.88558 10.1635 9.88418 10.2014Z" fill="#DA840D"/>
<path d="M12.0344 10.4882C12.0344 10.5637 11.9445 10.6251 11.8334 10.6251C11.7222 10.6251 11.6323 10.5637 11.6323 10.4882C11.6323 10.4127 11.7222 10.3525 11.8334 10.3525C11.9445 10.3525 12.0344 10.4127 12.0344 10.4882Z" fill="#DA840D"/>
<path d="M12.0344 11.1947C12.0344 11.2395 11.9445 11.2761 11.8334 11.2761C11.7222 11.2761 11.6323 11.2395 11.6323 11.1947C11.6323 11.1499 11.7222 11.1133 11.8334 11.1133C11.9445 11.1133 12.0344 11.1499 12.0344 11.1947Z" fill="#DA840D"/>
<path d="M13.3942 10.7359C13.3942 10.7961 13.313 10.8456 13.2118 10.8456C13.1107 10.8456 13.0308 10.7961 13.0308 10.7359C13.0308 10.6757 13.1119 10.625 13.2118 10.625C13.3117 10.625 13.3942 10.6746 13.3942 10.7359Z" fill="#DA840D"/>
<path d="M13.1769 11.5243C13.1854 11.5611 13.1817 11.5994 13.1662 11.6341C13.1506 11.6687 13.1241 11.698 13.0902 11.7178C13.0564 11.7376 13.0168 11.7469 12.9771 11.7446C12.9373 11.7422 12.8993 11.7283 12.8683 11.7047C12.8373 11.6811 12.8149 11.6489 12.804 11.6127C12.7932 11.5765 12.7945 11.538 12.8078 11.5025C12.8211 11.4671 12.8458 11.4364 12.8783 11.4147C12.9109 11.3931 12.9498 11.3815 12.9896 11.3816C13.0344 11.3776 13.079 11.3903 13.114 11.4169C13.149 11.4436 13.1716 11.4822 13.1769 11.5243Z" fill="#DA840D"/>
<path d="M14.6904 11.2953C14.6826 11.3304 14.6644 11.3628 14.638 11.3886C14.6115 11.4144 14.5778 11.4326 14.5408 11.441C14.5039 11.4494 14.4651 11.4478 14.4291 11.4362C14.3931 11.4247 14.3613 11.4038 14.3374 11.3758C14.3134 11.3479 14.2984 11.3141 14.294 11.2785C14.2895 11.2428 14.2959 11.2066 14.3124 11.1742C14.3288 11.1418 14.3546 11.1145 14.3868 11.0954C14.4191 11.0763 14.4563 11.0663 14.4944 11.0664C14.5523 11.0726 14.6053 11.1001 14.642 11.1429C14.6786 11.1858 14.696 11.2405 14.6904 11.2953Z" fill="#DA840D"/>
<path d="M14.5819 10.2639C14.5819 10.3111 14.5182 10.3489 14.4396 10.3489C14.3609 10.3489 14.2985 10.3111 14.2985 10.2639C14.2985 10.2167 14.3621 10.1802 14.4396 10.1802C14.517 10.1802 14.5819 10.2215 14.5819 10.2639Z" fill="#DA840D"/>
<path d="M15.7808 10.5151C15.7808 10.698 15.6947 10.8454 15.5898 10.8454C15.4849 10.8454 15.3975 10.698 15.3975 10.5151C15.3975 10.3322 15.4836 10.1836 15.5898 10.1836C15.6959 10.1836 15.7808 10.3322 15.7808 10.5151Z" fill="#DA840D"/>
<path d="M16.2614 10.1788C16.2614 10.2023 16.2515 10.2248 16.234 10.2414C16.2164 10.258 16.1926 10.2673 16.1678 10.2673C16.1429 10.2673 16.1191 10.258 16.1015 10.2414C16.084 10.2248 16.0741 10.2023 16.0741 10.1788C16.0741 10.1553 16.084 10.1328 16.1015 10.1162C16.1191 10.0997 16.1429 10.0903 16.1678 10.0903C16.1925 10.0906 16.2161 10.1001 16.2336 10.1166C16.2511 10.1331 16.2611 10.1554 16.2614 10.1788Z" fill="#DA840D"/>
<path d="M13.1121 9.89722C13.1121 9.98099 12.9947 10.0506 12.8511 10.0506C12.7075 10.0506 12.5901 9.98099 12.5901 9.89722C12.5901 9.81346 12.7062 9.74268 12.8511 9.74268C12.9959 9.74268 13.1121 9.81228 13.1121 9.89722Z" fill="#DA840D"/>
<path d="M8.21569 9.10171C8.21569 9.15362 8.12453 9.19609 8.01214 9.19609C7.89975 9.19609 7.80859 9.15362 7.80859 9.10171C7.80859 9.0498 7.89975 9.00732 8.01214 9.00732C8.12453 9.00732 8.21569 9.0498 8.21569 9.10171Z" fill="#DA840D"/>
<path d="M9.41446 8.91176C9.41446 8.96485 9.31082 9.00732 9.18344 9.00732C9.05607 9.00732 8.95117 8.96485 8.95117 8.91176C8.95117 8.85867 9.05482 8.81738 9.18344 8.81738C9.31206 8.81738 9.41446 8.85985 9.41446 8.91176Z" fill="#DA840D"/>
<path d="M10.9229 9.14418C10.9229 9.2185 10.783 9.27985 10.6095 9.27985C10.4359 9.27985 10.296 9.2185 10.296 9.14418C10.296 9.06985 10.4371 9.00732 10.6095 9.00732C10.7818 9.00732 10.9229 9.06867 10.9229 9.14418Z" fill="#DA840D"/>
<path d="M12.0343 8.91177C12.0346 8.93077 12.0288 8.94941 12.0178 8.9653C12.0068 8.9812 11.991 8.99363 11.9725 9.001C11.9539 9.00838 11.9335 9.01037 11.9138 9.00673C11.894 9.00308 11.8759 8.99395 11.8617 8.98052C11.8474 8.96708 11.8378 8.94995 11.8339 8.9313C11.8301 8.91265 11.8322 8.89334 11.84 8.87583C11.8478 8.85832 11.8609 8.84341 11.8778 8.833C11.8946 8.82259 11.9143 8.81716 11.9344 8.81739C11.9609 8.81739 11.9863 8.82733 12.0051 8.84503C12.0238 8.86273 12.0343 8.88674 12.0343 8.91177Z" fill="#DA840D"/>
<path d="M11.8333 9.65847C11.8333 9.70448 11.7384 9.74223 11.6198 9.74223C11.5011 9.74223 11.4075 9.70448 11.4075 9.65847C11.4075 9.61246 11.5024 9.57471 11.6198 9.57471C11.7371 9.57471 11.8333 9.61246 11.8333 9.65847Z" fill="#DA840D"/>
<path d="M13.5028 8.87045C13.5022 8.89785 13.4931 8.92448 13.4765 8.94695C13.46 8.96943 13.4367 8.98673 13.4096 8.99666C13.3826 9.00659 13.3531 9.0087 13.3248 9.00272C13.2965 8.99673 13.2707 8.98293 13.2507 8.96306C13.2308 8.9432 13.2175 8.91817 13.2126 8.89116C13.2078 8.86415 13.2115 8.83638 13.2234 8.8114C13.2353 8.78641 13.2548 8.76533 13.2794 8.75085C13.304 8.73636 13.3327 8.72913 13.3616 8.73006C13.3807 8.73052 13.3994 8.73452 13.4168 8.74182C13.4342 8.74913 13.4499 8.7596 13.463 8.77263C13.4761 8.78567 13.4864 8.80102 13.4932 8.81781C13.5 8.83459 13.5033 8.85248 13.5028 8.87045Z" fill="#DA840D"/>
<path d="M14.2982 9.42772C14.2982 9.45132 14.2245 9.47019 14.1321 9.47019C14.0397 9.47019 13.9673 9.45132 13.9673 9.42772C13.9673 9.40413 14.041 9.38525 14.1321 9.38525C14.2233 9.38525 14.2982 9.40413 14.2982 9.42772Z" fill="#DA840D"/>
<path d="M14.8166 9.149C14.8197 9.16143 14.8187 9.17446 14.8136 9.18629C14.8085 9.19812 14.7996 9.20815 14.7881 9.21499C14.7767 9.22182 14.7633 9.22511 14.7498 9.22441C14.7363 9.2237 14.7234 9.21904 14.7128 9.21106C14.7023 9.20308 14.6946 9.19218 14.6909 9.1799C14.6873 9.16761 14.6877 9.15454 14.6923 9.14251C14.6968 9.13048 14.7052 9.1201 14.7163 9.1128C14.7274 9.1055 14.7406 9.10166 14.7542 9.10181C14.769 9.10047 14.7838 9.10465 14.7955 9.11345C14.8071 9.12226 14.8147 9.13501 14.8166 9.149Z" fill="#DA840D"/>
<path d="M14.2983 9.42726C14.2954 9.45284 14.2847 9.47709 14.2676 9.49707C14.2504 9.51706 14.2275 9.53192 14.2016 9.53988C14.1757 9.54783 14.1479 9.54854 14.1216 9.5419C14.0953 9.53527 14.0715 9.52158 14.0533 9.5025C14.035 9.48341 14.023 9.45974 14.0186 9.43433C14.0143 9.40893 14.0178 9.38288 14.0288 9.35934C14.0398 9.33579 14.0578 9.31575 14.0805 9.30163C14.1033 9.28752 14.1299 9.27993 14.1572 9.27979C14.1767 9.28069 14.1958 9.28523 14.2135 9.29313C14.2312 9.30104 14.247 9.31216 14.2601 9.32586C14.2732 9.33956 14.2833 9.35557 14.2899 9.37297C14.2964 9.39036 14.2993 9.40881 14.2983 9.42726Z" fill="#DA840D"/>
<path d="M15.0999 9.19123C15.0999 9.2396 15.0225 9.27971 14.9264 9.27971C14.8302 9.27971 14.754 9.2396 14.754 9.19123C14.754 9.14286 14.8315 9.10156 14.9264 9.10156C15.0213 9.10156 15.0999 9.14168 15.0999 9.19123Z" fill="#DA840D"/>
<path d="M19.1959 9.51366C19.1959 11.0367 15.7705 12.4548 11.6459 12.4548C7.52119 12.4548 4.06836 10.9317 4.06836 9.40866C4.06836 7.88558 7.52119 6.93115 11.6459 6.93115C15.7705 6.93115 19.1959 7.9894 19.1959 9.51366Z" fill="#E3AC8A"/>
<path d="M19.1136 9.21895C19.1136 10.7432 15.7707 11.9784 11.646 11.9784C7.52131 11.9784 4.17712 10.7432 4.17712 9.21895C4.17712 7.69469 7.52131 6.45947 11.646 6.45947C15.7707 6.45947 19.1136 7.69469 19.1136 9.21895Z" fill="#DA840D"/>
<path d="M11.5373 11.0049C14.5974 11.0049 17.0781 10.0885 17.0781 8.95803C17.0781 7.82756 14.5974 6.91113 11.5373 6.91113C8.47727 6.91113 5.99658 7.82756 5.99658 8.95803C5.99658 10.0885 8.47727 11.0049 11.5373 11.0049Z" fill="#F0A508"/>
<path d="M7.80849 9.71329C7.80849 9.83127 7.66738 9.93391 7.49255 9.93391C7.31772 9.93391 7.17786 9.83481 7.17786 9.71329C7.17786 9.59178 7.31897 9.49268 7.49255 9.49268C7.66613 9.49268 7.80849 9.5906 7.80849 9.71329Z" fill="#DA840D"/>
<path d="M7.17801 8.78337C7.17702 8.81606 7.16587 8.84774 7.14594 8.87447C7.126 8.9012 7.09817 8.92178 7.06592 8.93365C7.03368 8.94552 6.99844 8.94815 6.96462 8.94121C6.9308 8.93427 6.8999 8.91806 6.87577 8.89462C6.85164 8.87118 6.83536 8.84154 6.82896 8.80941C6.82256 8.77728 6.82633 8.74407 6.83979 8.71395C6.85325 8.68383 6.87581 8.65812 6.90465 8.64004C6.93349 8.62197 6.96732 8.61232 7.00193 8.6123C7.04919 8.61323 7.09416 8.6317 7.12711 8.66372C7.16006 8.69573 7.17834 8.73872 7.17801 8.78337Z" fill="#DA840D"/>
<path d="M9.36589 9.98083C9.36989 10.0382 9.35556 10.0953 9.32474 10.1449C9.29392 10.1945 9.24805 10.2341 9.19307 10.2588C9.1381 10.2834 9.07656 10.2918 9.01644 10.283C8.95632 10.2741 8.90041 10.2484 8.85595 10.2092C8.81149 10.17 8.78054 10.119 8.76712 10.0629C8.7537 10.0069 8.75842 9.9483 8.78069 9.8948C8.80295 9.84131 8.84172 9.79538 8.89196 9.76296C8.9422 9.73054 9.00159 9.71314 9.06244 9.71302C9.14019 9.71079 9.21572 9.73769 9.27257 9.78786C9.32941 9.83802 9.36295 9.90739 9.36589 9.98083Z" fill="#DA840D"/>
<path d="M8.70625 8.9177C8.70625 8.99084 8.62008 9.05101 8.51519 9.05101C8.41029 9.05101 8.32288 8.99084 8.32288 8.9177C8.32288 8.84455 8.40904 8.7832 8.51519 8.7832C8.62133 8.7832 8.70625 8.84809 8.70625 8.9177Z" fill="#DA840D"/>
<path d="M10.6371 9.55609C10.6416 9.59315 10.6342 9.63064 10.6157 9.66359C10.5972 9.69654 10.5685 9.72341 10.5335 9.74062C10.4984 9.75783 10.4587 9.76457 10.4195 9.75996C10.3803 9.75535 10.3435 9.73959 10.314 9.71479C10.2846 9.68998 10.2637 9.65729 10.2544 9.62105C10.245 9.58482 10.2475 9.54674 10.2615 9.51187C10.2756 9.47701 10.3005 9.447 10.333 9.42582C10.3655 9.40464 10.404 9.39329 10.4435 9.39328C10.4919 9.39101 10.5394 9.40681 10.5756 9.43726C10.6118 9.46772 10.6339 9.51039 10.6371 9.55609Z" fill="#DA840D"/>
<path d="M10.7106 10.5317C10.7106 10.6072 10.6182 10.6685 10.5033 10.6685C10.3884 10.6685 10.296 10.6072 10.296 10.5317C10.296 10.4562 10.3897 10.396 10.5033 10.396C10.617 10.396 10.7106 10.4562 10.7106 10.5317Z" fill="#DA840D"/>
<path d="M9.8839 9.06738C9.88193 9.09487 9.87143 9.1212 9.85373 9.14309C9.83604 9.16498 9.81191 9.18147 9.78436 9.19051C9.75681 9.19954 9.72706 9.20071 9.69881 9.19389C9.67056 9.18706 9.64506 9.17253 9.62549 9.15211C9.60591 9.13169 9.59313 9.10628 9.58874 9.07904C9.58434 9.05181 9.58852 9.02395 9.60076 8.99895C9.613 8.97394 9.63275 8.95289 9.65757 8.93842C9.68238 8.92394 9.71115 8.91669 9.74029 8.91755C9.78015 8.91998 9.81744 8.93699 9.84425 8.96496C9.87106 8.99293 9.88528 9.02967 9.8839 9.06738Z" fill="#DA840D"/>
<path d="M12.0344 9.3556C12.0344 9.43111 11.9445 9.49246 11.8334 9.49246C11.7222 9.49246 11.6323 9.43111 11.6323 9.3556C11.6323 9.2801 11.7222 9.21875 11.8334 9.21875C11.9445 9.21875 12.0344 9.2801 12.0344 9.3556Z" fill="#DA840D"/>
<path d="M12.0344 10.0624C12.0344 10.1072 11.9445 10.1438 11.8334 10.1438C11.7222 10.1438 11.6323 10.1072 11.6323 10.0624C11.6323 10.0175 11.7222 9.98096 11.8334 9.98096C11.9445 9.98096 12.0344 10.0175 12.0344 10.0624Z" fill="#DA840D"/>
<path d="M13.3942 9.60239C13.3942 9.66374 13.313 9.71329 13.2118 9.71329C13.1107 9.71329 13.0308 9.66374 13.0308 9.60239C13.0308 9.54105 13.1119 9.49268 13.2118 9.49268C13.3117 9.49268 13.3942 9.54223 13.3942 9.60239Z" fill="#DA840D"/>
<path d="M13.1769 10.39C13.1857 10.4267 13.1822 10.4651 13.1669 10.4999C13.1515 10.5347 13.1251 10.5641 13.0914 10.5841C13.0576 10.6041 13.018 10.6136 12.9782 10.6115C12.9384 10.6093 12.9003 10.5955 12.8692 10.572C12.838 10.5484 12.8154 10.5163 12.8044 10.4801C12.7935 10.4439 12.7947 10.4054 12.8079 10.3698C12.8211 10.3343 12.8457 10.3035 12.8782 10.2818C12.9108 10.26 12.9497 10.2484 12.9896 10.2484C13.0342 10.2441 13.0788 10.2565 13.1139 10.283C13.1489 10.3095 13.1715 10.3479 13.1769 10.39Z" fill="#DA840D"/>
<path d="M14.6905 10.1613C14.6827 10.1962 14.6646 10.2282 14.6384 10.2538C14.6121 10.2794 14.5787 10.2974 14.542 10.3058C14.5053 10.3142 14.4669 10.3126 14.4311 10.3012C14.3954 10.2898 14.3638 10.2691 14.34 10.2415C14.3162 10.2138 14.3011 10.1804 14.2966 10.145C14.2921 10.1096 14.2983 10.0737 14.3144 10.0415C14.3306 10.0093 14.3561 9.98208 14.3879 9.96298C14.4198 9.94388 14.4567 9.93369 14.4944 9.93359C14.5521 9.93984 14.6049 9.96716 14.6416 10.0097C14.6782 10.0523 14.6958 10.1067 14.6905 10.1613Z" fill="#DA840D"/>
<path d="M14.5819 9.13503C14.5819 9.18104 14.5182 9.21879 14.4396 9.21879C14.3609 9.21879 14.2985 9.18104 14.2985 9.13503C14.2985 9.08902 14.3621 9.05127 14.4396 9.05127C14.517 9.05127 14.5819 9.0843 14.5819 9.13503Z" fill="#DA840D"/>
<path d="M15.7808 9.3816C15.7808 9.56447 15.6947 9.71312 15.5898 9.71312C15.4849 9.71312 15.3975 9.56447 15.3975 9.3816C15.3975 9.19874 15.4836 9.05127 15.5898 9.05127C15.6959 9.05127 15.7808 9.20228 15.7808 9.3816Z" fill="#DA840D"/>
<path d="M16.2614 9.046C16.2611 9.06938 16.2511 9.0917 16.2336 9.10823C16.2161 9.12476 16.1925 9.13418 16.1678 9.13449C16.1492 9.13449 16.1311 9.1293 16.1157 9.11957C16.1003 9.10985 16.0883 9.09603 16.0812 9.07986C16.0741 9.0637 16.0723 9.0459 16.0759 9.02874C16.0795 9.01158 16.0884 8.99581 16.1015 8.98344C16.1146 8.97106 16.1313 8.96263 16.1495 8.95922C16.1677 8.95581 16.1865 8.95756 16.2036 8.96425C16.2207 8.97095 16.2353 8.98229 16.2456 8.99684C16.2559 9.01139 16.2614 9.0285 16.2614 9.046Z" fill="#DA840D"/>
<path d="M13.1121 8.76323C13.1121 8.84818 12.9947 8.91778 12.8511 8.91778C12.7075 8.91778 12.5901 8.84818 12.5901 8.76323C12.5901 8.67829 12.7062 8.60986 12.8511 8.60986C12.9959 8.60986 13.1121 8.67829 13.1121 8.76323Z" fill="#DA840D"/>
<path d="M8.21569 7.96792C8.21569 8.02101 8.12453 8.06348 8.01214 8.06348C7.89975 8.06348 7.80859 8.02101 7.80859 7.96792C7.80859 7.91483 7.89975 7.87354 8.01214 7.87354C8.12453 7.87354 8.21569 7.91601 8.21569 7.96792Z" fill="#DA840D"/>
<path d="M9.41446 7.77895C9.41446 7.83086 9.31082 7.87333 9.18344 7.87333C9.05607 7.87333 8.95117 7.83086 8.95117 7.77895C8.95117 7.72704 9.05482 7.68457 9.18344 7.68457C9.31206 7.68457 9.41446 7.72704 9.41446 7.77895Z" fill="#DA840D"/>
<path d="M10.9229 8.01039C10.9229 8.0859 10.783 8.14725 10.6095 8.14725C10.4359 8.14725 10.296 8.0859 10.296 8.01039C10.296 7.93488 10.4371 7.87354 10.6095 7.87354C10.7818 7.87354 10.9229 7.93488 10.9229 8.01039Z" fill="#DA840D"/>
<path d="M12.0343 7.77896C12.0346 7.79796 12.0288 7.81659 12.0178 7.83249C12.0068 7.84838 11.991 7.86081 11.9725 7.86819C11.9539 7.87557 11.9335 7.87756 11.9138 7.87391C11.894 7.87026 11.8759 7.86114 11.8617 7.8477C11.8474 7.83427 11.8378 7.81713 11.8339 7.79849C11.8301 7.77984 11.8322 7.76053 11.84 7.74302C11.8478 7.72551 11.8609 7.7106 11.8778 7.70019C11.8946 7.68978 11.9143 7.68434 11.9344 7.68458C11.9609 7.68458 11.9863 7.69452 12.0051 7.71222C12.0238 7.72992 12.0343 7.75393 12.0343 7.77896Z" fill="#DA840D"/>
<path d="M11.8333 8.52635C11.8333 8.57236 11.7384 8.61011 11.6198 8.61011C11.5011 8.61011 11.4075 8.57236 11.4075 8.52635C11.4075 8.48034 11.5024 8.44141 11.6198 8.44141C11.7371 8.44141 11.8333 8.47916 11.8333 8.52635Z" fill="#DA840D"/>
<path d="M13.5028 7.73801C13.503 7.76556 13.4945 7.79254 13.4784 7.81549C13.4622 7.83843 13.4392 7.85629 13.4122 7.86677C13.3853 7.87725 13.3556 7.87986 13.3271 7.87427C13.2985 7.86869 13.2724 7.85516 13.252 7.83543C13.2317 7.81569 13.218 7.79066 13.2129 7.76355C13.2077 7.73643 13.2113 7.70848 13.2231 7.68329C13.2348 7.65809 13.2543 7.63681 13.279 7.62217C13.3038 7.60753 13.3325 7.60021 13.3617 7.60115C13.3995 7.60178 13.4356 7.61651 13.462 7.64214C13.4885 7.66777 13.5031 7.70223 13.5028 7.73801Z" fill="#DA840D"/>
<path d="M14.2982 8.29491C14.2982 8.31733 14.2245 8.33621 14.1321 8.33621C14.0397 8.33621 13.9673 8.31733 13.9673 8.29491C13.9673 8.2725 14.041 8.25244 14.1321 8.25244C14.2233 8.25244 14.2982 8.27132 14.2982 8.29491Z" fill="#DA840D"/>
<path d="M14.8168 8.02224C14.8196 8.03468 14.8183 8.04765 14.813 8.05936C14.8077 8.07106 14.7986 8.08092 14.7871 8.08756C14.7756 8.09419 14.7622 8.09729 14.7488 8.09641C14.7354 8.09553 14.7225 8.09072 14.7121 8.08265C14.7017 8.07457 14.6942 8.06364 14.6906 8.05135C14.6871 8.03907 14.6877 8.02605 14.6923 8.01409C14.697 8.00214 14.7054 7.99184 14.7165 7.98464C14.7276 7.97743 14.7408 7.97366 14.7543 7.97387C14.7694 7.97255 14.7844 7.97688 14.796 7.98594C14.8077 7.99499 14.8152 8.00803 14.8168 8.02224Z" fill="#DA840D"/>
<path d="M14.2983 8.29493C14.2954 8.32052 14.2847 8.34477 14.2676 8.36475C14.2504 8.38473 14.2275 8.3996 14.2016 8.40756C14.1757 8.41551 14.1479 8.41621 14.1216 8.40958C14.0953 8.40295 14.0715 8.38926 14.0533 8.37017C14.035 8.35109 14.023 8.32741 14.0186 8.30201C14.0143 8.27661 14.0178 8.25056 14.0288 8.22701C14.0398 8.20347 14.0578 8.18343 14.0805 8.16931C14.1033 8.1552 14.1299 8.14761 14.1572 8.14746C14.1767 8.14837 14.1958 8.1529 14.2135 8.16081C14.2312 8.16872 14.247 8.17984 14.2601 8.19354C14.2732 8.20724 14.2833 8.22324 14.2899 8.24064C14.2964 8.25804 14.2993 8.27649 14.2983 8.29493Z" fill="#DA840D"/>
<path d="M15.0999 8.05743C15.0999 8.10698 15.0225 8.1471 14.9264 8.1471C14.8302 8.1471 14.754 8.10698 14.754 8.05743C14.754 8.00789 14.8315 7.96777 14.9264 7.96777C15.0213 7.96777 15.0999 8.00789 15.0999 8.05743Z" fill="#DA840D"/>
<path d="M19.3145 7.48892C19.3145 9.012 15.8879 10.4301 11.7633 10.4301C7.6386 10.4301 4.18701 8.907 4.18701 7.38274C4.18701 5.85849 7.6386 4.91113 11.7633 4.91113C15.8879 4.91113 19.3145 5.96466 19.3145 7.48892Z" fill="#E3AC8A"/>
<path d="M19.231 7.19641C19.231 8.72067 15.8868 9.95588 11.7621 9.95588C7.63747 9.95588 4.29578 8.71831 4.29578 7.19641C4.29578 5.67451 7.63872 4.43457 11.7634 4.43457C15.888 4.43457 19.231 5.66979 19.231 7.19641Z" fill="#DA840D"/>
<path d="M17.1967 6.93333C17.1967 8.06354 14.7154 8.98022 11.6559 8.98022C8.59644 8.98022 6.1189 8.06354 6.1189 6.93333C6.1189 5.80311 8.59644 4.88525 11.6559 4.88525C14.7154 4.88525 17.1967 5.80193 17.1967 6.93333Z" fill="#F0A508"/>
<path d="M7.92589 7.68839C7.92589 7.80637 7.78602 7.90901 7.6112 7.90901C7.43637 7.90901 7.29651 7.80991 7.29651 7.68839C7.29651 7.56687 7.43762 7.46777 7.61744 7.46777C7.79726 7.46777 7.92589 7.56569 7.92589 7.68839Z" fill="#DA840D"/>
<path d="M7.29633 6.75887C7.29486 6.79133 7.28336 6.82268 7.26325 6.84904C7.24314 6.8754 7.21531 6.89561 7.18317 6.90719C7.15104 6.91878 7.11602 6.92121 7.08244 6.91421C7.04886 6.9072 7.01818 6.89106 6.9942 6.86777C6.97022 6.84448 6.95399 6.81506 6.9475 6.78316C6.94101 6.75125 6.94455 6.71824 6.95769 6.68822C6.97084 6.65819 6.993 6.63246 7.02144 6.6142C7.04988 6.59593 7.08337 6.58594 7.11775 6.58545C7.14158 6.5856 7.16514 6.59022 7.18706 6.59905C7.20898 6.60788 7.22882 6.62074 7.24544 6.63687C7.26205 6.65301 7.27511 6.6721 7.28384 6.69305C7.29258 6.71399 7.29682 6.73637 7.29633 6.75887Z" fill="#DA840D"/>
<path d="M9.49066 7.95641C9.49441 8.0135 9.47993 8.07034 9.44908 8.11956C9.41824 8.16878 9.37246 8.20811 9.31767 8.23246C9.26289 8.2568 9.20163 8.26504 9.14183 8.25611C9.08203 8.24717 9.02645 8.22147 8.98229 8.18234C8.93814 8.14321 8.90744 8.09245 8.89418 8.03664C8.88092 7.98083 8.88571 7.92254 8.90792 7.86934C8.93014 7.81613 8.96876 7.77045 9.01878 7.73823C9.0688 7.706 9.12792 7.68871 9.18846 7.6886C9.26609 7.68638 9.34149 7.71331 9.39813 7.76351C9.45478 7.81371 9.48805 7.88308 9.49066 7.95641Z" fill="#DA840D"/>
<path d="M8.82502 6.8921C8.82502 6.96643 8.73886 7.0266 8.63271 7.0266C8.52657 7.0266 8.44165 6.96643 8.44165 6.8921C8.44165 6.81778 8.52782 6.75879 8.63271 6.75879C8.73761 6.75879 8.82502 6.81896 8.82502 6.8921Z" fill="#DA840D"/>
<path d="M10.7555 7.52581C10.7601 7.56287 10.7526 7.60036 10.7341 7.63331C10.7156 7.66627 10.6869 7.69313 10.6519 7.71034C10.6168 7.72755 10.5771 7.73429 10.5379 7.72968C10.4987 7.72507 10.4619 7.70932 10.4325 7.68451C10.403 7.6597 10.3821 7.62701 10.3728 7.59078C10.3634 7.55454 10.3659 7.51647 10.3799 7.4816C10.394 7.44673 10.4189 7.41672 10.4514 7.39554C10.4839 7.37436 10.5225 7.36302 10.5619 7.36301C10.6104 7.36074 10.6578 7.37654 10.694 7.40699C10.7302 7.43744 10.7523 7.48012 10.7555 7.52581Z" fill="#DA840D"/>
<path d="M10.8293 8.50742C10.8293 8.58292 10.7369 8.64427 10.622 8.64427C10.5071 8.64427 10.4147 8.58292 10.4147 8.50742C10.4147 8.43191 10.5071 8.37646 10.622 8.37646C10.7369 8.37646 10.8293 8.43309 10.8293 8.50742Z" fill="#DA840D"/>
<path d="M10.0026 7.04322C10.0026 7.08046 9.98699 7.11617 9.95912 7.1425C9.93126 7.16883 9.89346 7.18362 9.85405 7.18362C9.81464 7.18362 9.77684 7.16883 9.74897 7.1425C9.7211 7.11617 9.70544 7.08046 9.70544 7.04322C9.70544 7.00599 9.7211 6.97028 9.74897 6.94395C9.77684 6.91762 9.81464 6.90283 9.85405 6.90283C9.89346 6.90283 9.93126 6.91762 9.95912 6.94395C9.98699 6.97028 10.0026 7.00599 10.0026 7.04322Z" fill="#DA840D"/>
<path d="M12.1528 7.33078C12.1528 7.40629 12.0629 7.46763 11.9518 7.46763C11.8406 7.46763 11.7507 7.40629 11.7507 7.33078C11.7507 7.25528 11.8406 7.19629 11.9518 7.19629C12.0629 7.19629 12.1528 7.25528 12.1528 7.33078Z" fill="#DA840D"/>
<path d="M12.1528 8.03746C12.1528 8.08229 12.0629 8.11886 11.9518 8.11886C11.8406 8.11886 11.7507 8.08229 11.7507 8.03746C11.7507 7.99263 11.8406 7.95605 11.9518 7.95605C12.0629 7.95605 12.1528 7.99263 12.1528 8.03746Z" fill="#DA840D"/>
<path d="M13.513 7.57749C13.513 7.63884 13.4318 7.68839 13.3306 7.68839C13.2295 7.68839 13.1483 7.63884 13.1483 7.57749C13.1483 7.51614 13.2307 7.46777 13.3306 7.46777C13.4305 7.46777 13.513 7.51732 13.513 7.57749Z" fill="#DA840D"/>
<path d="M13.2954 8.36569C13.3045 8.40265 13.3012 8.44136 13.2859 8.47646C13.2707 8.51155 13.2442 8.5413 13.2103 8.56157C13.1763 8.58183 13.1365 8.59162 13.0964 8.58958C13.0563 8.58753 13.0179 8.57375 12.9865 8.55014C12.955 8.52653 12.9321 8.49427 12.921 8.45782C12.9098 8.42138 12.9109 8.38255 12.9241 8.34673C12.9374 8.3109 12.9621 8.27986 12.9948 8.25789C13.0276 8.23592 13.0667 8.22411 13.1069 8.22411C13.1517 8.21946 13.1967 8.23172 13.232 8.25824C13.2673 8.28475 13.2901 8.32337 13.2954 8.36569Z" fill="#DA840D"/>
<path d="M14.8092 8.14025C14.8001 8.17464 14.781 8.20594 14.7541 8.23061C14.7271 8.25528 14.6934 8.27233 14.6567 8.27984C14.6201 8.28735 14.5819 8.28501 14.5466 8.27309C14.5112 8.26118 14.4801 8.24016 14.4568 8.21241C14.4334 8.18466 14.4187 8.15129 14.4144 8.11608C14.4101 8.08087 14.4163 8.04522 14.4323 8.01316C14.4483 7.9811 14.4735 7.95391 14.505 7.93467C14.5365 7.91544 14.5731 7.90491 14.6106 7.9043C14.6403 7.90706 14.669 7.91542 14.6951 7.92887C14.7212 7.94232 14.7442 7.96059 14.7628 7.98259C14.7813 8.0046 14.7949 8.02989 14.8029 8.05697C14.8109 8.08405 14.813 8.11237 14.8092 8.14025Z" fill="#DA840D"/>
<path d="M14.7003 7.11013C14.7003 7.15614 14.6367 7.19389 14.558 7.19389C14.4793 7.19389 14.4169 7.15614 14.4169 7.11013C14.4169 7.06412 14.4793 7.02637 14.558 7.02637C14.6367 7.02637 14.7003 7.06412 14.7003 7.11013Z" fill="#DA840D"/>
<path d="M15.8991 7.3567C15.8991 7.53957 15.8129 7.68822 15.7068 7.68822C15.6007 7.68822 15.5157 7.53957 15.5157 7.3567C15.5157 7.17384 15.6019 7.02637 15.7068 7.02637C15.8117 7.02637 15.8991 7.17384 15.8991 7.3567Z" fill="#DA840D"/>
<path d="M16.3787 7.02207C16.3784 7.03929 16.3728 7.05605 16.3625 7.07025C16.3522 7.08445 16.3377 7.09546 16.3208 7.10188C16.3038 7.10831 16.2853 7.10987 16.2675 7.10637C16.2496 7.10287 16.2333 7.09447 16.2205 7.08221C16.2077 7.06996 16.199 7.0544 16.1955 7.0375C16.1921 7.0206 16.194 7.0031 16.201 6.98722C16.208 6.97134 16.2199 6.95777 16.235 6.94823C16.2502 6.93869 16.268 6.9336 16.2862 6.93359C16.3109 6.9339 16.3344 6.94336 16.3517 6.95992C16.369 6.97648 16.3787 6.99881 16.3787 7.02207Z" fill="#DA840D"/>
<path d="M13.2295 6.73882C13.2295 6.82376 13.1133 6.89219 12.9697 6.89219C12.8261 6.89219 12.7087 6.82376 12.7087 6.73882C12.7087 6.65388 12.8249 6.58545 12.9697 6.58545C13.1146 6.58545 13.2295 6.65388 13.2295 6.73882Z" fill="#DA840D"/>
<path d="M8.33437 5.94468C8.33437 5.99659 8.24321 6.03906 8.13082 6.03906C8.01843 6.03906 7.92603 5.99659 7.92603 5.94468C7.92603 5.89277 8.01718 5.84912 8.13082 5.84912C8.24446 5.84912 8.33437 5.89159 8.33437 5.94468Z" fill="#DA840D"/>
<path d="M9.53299 5.75503C9.53299 5.80812 9.42935 5.84941 9.30072 5.84941C9.1721 5.84941 9.0697 5.80812 9.0697 5.75503C9.0697 5.70194 9.17335 5.66064 9.30072 5.66064C9.4281 5.66064 9.53299 5.70312 9.53299 5.75503Z" fill="#DA840D"/>
<path d="M11.0416 5.98597C11.0416 6.06148 10.9017 6.12283 10.7281 6.12283C10.5545 6.12283 10.4147 6.06148 10.4147 5.98597C10.4147 5.91047 10.5558 5.84912 10.7281 5.84912C10.9004 5.84912 11.0416 5.91047 11.0416 5.98597Z" fill="#DA840D"/>
<path d="M12.1531 5.75488C12.1503 5.77824 12.1385 5.79983 12.12 5.8155C12.1014 5.83118 12.0774 5.83984 12.0526 5.83984C12.0277 5.83984 12.0037 5.83118 11.9851 5.8155C11.9666 5.79983 11.9548 5.77824 11.952 5.75488C11.9548 5.73152 11.9666 5.70994 11.9851 5.69426C12.0037 5.67859 12.0277 5.66992 12.0526 5.66992C12.0774 5.66992 12.1014 5.67859 12.12 5.69426C12.1385 5.70994 12.1503 5.73152 12.1531 5.75488Z" fill="#DA840D"/>
<path d="M11.9517 6.50027C11.9517 6.54746 11.8568 6.58521 11.7382 6.58521C11.6196 6.58521 11.5247 6.54746 11.5247 6.50027C11.5247 6.45308 11.6208 6.4165 11.7382 6.4165C11.8556 6.4165 11.9517 6.45426 11.9517 6.50027Z" fill="#DA840D"/>
<path d="M13.6215 5.71353C13.6218 5.74088 13.6134 5.76768 13.5975 5.79054C13.5816 5.81339 13.5589 5.83127 13.5322 5.84189C13.5056 5.85252 13.4761 5.85543 13.4477 5.85023C13.4193 5.84504 13.3931 5.83199 13.3726 5.81273C13.352 5.79348 13.338 5.76888 13.3322 5.74208C13.3265 5.71527 13.3293 5.68746 13.3403 5.66217C13.3514 5.63688 13.3701 5.61525 13.3941 5.60003C13.4182 5.58481 13.4465 5.57668 13.4754 5.57668C13.4946 5.57636 13.5137 5.57968 13.5315 5.58643C13.5493 5.59318 13.5654 5.60323 13.5791 5.61599C13.5927 5.62874 13.6034 5.64394 13.6107 5.6607C13.618 5.67745 13.6217 5.69542 13.6215 5.71353Z" fill="#DA840D"/>
<path d="M14.4169 6.2705C14.4169 6.29291 14.3419 6.31179 14.2508 6.31179C14.1596 6.31179 14.0859 6.29291 14.0859 6.2705C14.0859 6.24808 14.1596 6.22803 14.2508 6.22803C14.3419 6.22803 14.4169 6.2528 14.4169 6.2705Z" fill="#DA840D"/>
<path d="M14.9351 5.99225C14.9312 6.00507 14.923 6.01635 14.9117 6.02438C14.9005 6.03241 14.8867 6.03675 14.8726 6.03675C14.8585 6.03675 14.8448 6.03241 14.8335 6.02438C14.8222 6.01635 14.8141 6.00507 14.8102 5.99225C14.8141 5.97943 14.8222 5.96815 14.8335 5.96013C14.8448 5.9521 14.8585 5.94775 14.8726 5.94775C14.8867 5.94775 14.9005 5.9521 14.9117 5.96013C14.923 5.96815 14.9312 5.97943 14.9351 5.99225Z" fill="#DA840D"/>
<path d="M14.4169 6.27052C14.414 6.2961 14.4034 6.32035 14.3862 6.34034C14.3691 6.36032 14.3461 6.37519 14.3202 6.38314C14.2943 6.3911 14.2665 6.3918 14.2402 6.38517C14.2139 6.37853 14.1902 6.36485 14.1719 6.34576C14.1537 6.32667 14.1416 6.303 14.1373 6.2776C14.133 6.25219 14.1365 6.22615 14.1475 6.2026C14.1585 6.17905 14.1764 6.15901 14.1992 6.1449C14.222 6.13078 14.2486 6.12319 14.2758 6.12305C14.2953 6.12395 14.3145 6.12849 14.3321 6.1364C14.3498 6.1443 14.3656 6.15542 14.3788 6.16912C14.3919 6.18282 14.402 6.19883 14.4085 6.21623C14.4151 6.23363 14.4179 6.25208 14.4169 6.27052Z" fill="#DA840D"/>
<path d="M15.2185 6.03331C15.2185 6.08286 15.1411 6.12297 15.0449 6.12297C14.9488 6.12297 14.8713 6.08286 14.8713 6.03331C14.8713 5.98376 14.9488 5.94482 15.0449 5.94482C15.1411 5.94482 15.2185 5.98376 15.2185 6.03331Z" fill="#DA840D"/>
<path d="M19.3145 6.18798C19.3145 7.71224 15.8879 9.12914 11.7633 9.12914C7.6386 9.12914 4.18701 7.60724 4.18701 6.08298C4.18701 4.55872 7.6386 3.60547 11.7633 3.60547C15.8879 3.60547 19.3145 4.66372 19.3145 6.18798Z" fill="#E3AC8A"/>
<path d="M19.231 5.89884C19.231 7.42192 15.8868 8.65831 11.7621 8.65831C7.63747 8.65831 4.29578 7.4172 4.29578 5.89884C4.29578 4.38048 7.63872 3.13818 11.7634 3.13818C15.888 3.13818 19.231 4.36514 19.231 5.89884Z" fill="#DA840D"/>
<path d="M17.1967 5.63206C17.1967 6.76228 14.7154 7.67895 11.6559 7.67895C8.59644 7.67895 6.1189 6.76228 6.1189 5.63206C6.1189 4.50184 8.59644 3.58398 11.6559 3.58398C14.7154 3.58398 17.1967 4.50066 17.1967 5.63206Z" fill="#F0A508"/>
<path d="M7.92589 6.38712C7.92589 6.5051 7.78602 6.60774 7.6112 6.60774C7.43637 6.60774 7.29651 6.50864 7.29651 6.38712C7.29651 6.2656 7.43762 6.1665 7.6112 6.1665C7.78478 6.1665 7.92589 6.2656 7.92589 6.38712Z" fill="#DA840D"/>
<path d="M7.29633 5.4576C7.29486 5.49007 7.28336 5.52141 7.26325 5.54777C7.24314 5.57413 7.21531 5.59435 7.18317 5.60593C7.15104 5.61751 7.11602 5.61995 7.08244 5.61294C7.04886 5.60593 7.01818 5.58979 6.9942 5.5665C6.97022 5.54321 6.95399 5.51379 6.9475 5.48189C6.94101 5.44998 6.94455 5.41698 6.95769 5.38695C6.97084 5.35692 6.993 5.33119 7.02144 5.31293C7.04988 5.29466 7.08337 5.28467 7.11775 5.28418C7.14158 5.28433 7.16514 5.28895 7.18706 5.29778C7.20898 5.30661 7.22882 5.31947 7.24544 5.3356C7.26205 5.35174 7.27511 5.37083 7.28384 5.39178C7.29258 5.41272 7.29682 5.4351 7.29633 5.4576Z" fill="#DA840D"/>
<path d="M9.18477 6.92282C9.35167 6.92282 9.48697 6.80292 9.48697 6.65501C9.48697 6.50711 9.35167 6.38721 9.18477 6.38721C9.01787 6.38721 8.88257 6.50711 8.88257 6.65501C8.88257 6.80292 9.01787 6.92282 9.18477 6.92282Z" fill="#DA840D"/>
<path d="M8.82502 5.59201C8.82502 5.66516 8.73886 5.72533 8.63271 5.72533C8.52657 5.72533 8.44165 5.6628 8.44165 5.59201C8.44165 5.52123 8.52782 5.45752 8.63271 5.45752C8.73761 5.45752 8.82502 5.51769 8.82502 5.59201Z" fill="#DA840D"/>
<path d="M10.7555 6.22455C10.7601 6.2616 10.7526 6.29909 10.7341 6.33204C10.7156 6.365 10.6869 6.39186 10.6519 6.40907C10.6168 6.42628 10.5771 6.43303 10.5379 6.42841C10.4987 6.4238 10.4619 6.40805 10.4325 6.38324C10.403 6.35843 10.3821 6.32574 10.3728 6.28951C10.3634 6.25327 10.3659 6.2152 10.3799 6.18033C10.394 6.14546 10.4189 6.11545 10.4514 6.09427C10.4839 6.07309 10.5225 6.06175 10.5619 6.06174C10.6104 6.05947 10.6578 6.07527 10.694 6.10572C10.7302 6.13617 10.7523 6.17885 10.7555 6.22455Z" fill="#DA840D"/>
<path d="M10.8293 7.20599C10.8293 7.28149 10.7369 7.34284 10.622 7.34284C10.5071 7.34284 10.4147 7.28149 10.4147 7.20599C10.4147 7.13048 10.5071 7.07031 10.622 7.07031C10.7369 7.07031 10.8293 7.13166 10.8293 7.20599Z" fill="#DA840D"/>
<path d="M10.0025 5.74281C10.0003 5.77002 9.98975 5.79605 9.97215 5.8177C9.95455 5.83935 9.93065 5.85568 9.90338 5.8647C9.8761 5.87372 9.84664 5.87503 9.81859 5.86847C9.79055 5.86191 9.76513 5.84777 9.74546 5.82778C9.72578 5.80779 9.71271 5.78281 9.70782 5.7559C9.70294 5.729 9.70647 5.70133 9.71797 5.67629C9.72948 5.65125 9.74846 5.62992 9.77259 5.61492C9.79673 5.59991 9.82497 5.59188 9.85387 5.5918C9.89472 5.59333 9.93327 5.61007 9.96111 5.63836C9.98895 5.66665 10.0038 5.7042 10.0025 5.74281Z" fill="#DA840D"/>
<path d="M12.1528 6.02988C12.1528 6.10538 12.0629 6.16673 11.9518 6.16673C11.8406 6.16673 11.7507 6.10538 11.7507 6.02988C11.7507 5.95437 11.8406 5.89893 11.9518 5.89893C12.0629 5.89893 12.1528 5.95437 12.1528 6.02988Z" fill="#DA840D"/>
<path d="M12.1528 6.73619C12.1528 6.78102 12.0629 6.81759 11.9518 6.81759C11.8406 6.81759 11.7507 6.78102 11.7507 6.73619C11.7507 6.69136 11.8406 6.65479 11.9518 6.65479C12.0629 6.65479 12.1528 6.69136 12.1528 6.73619Z" fill="#DA840D"/>
<path d="M13.513 6.27622C13.513 6.33757 13.4318 6.38712 13.3306 6.38712C13.2295 6.38712 13.1483 6.33757 13.1483 6.27622C13.1483 6.21487 13.2307 6.1665 13.3306 6.1665C13.4305 6.1665 13.513 6.21605 13.513 6.27622Z" fill="#DA840D"/>
<path d="M13.2954 7.06441C13.3045 7.10138 13.3012 7.14009 13.2859 7.17518C13.2707 7.21028 13.2442 7.24002 13.2103 7.26029C13.1763 7.28056 13.1365 7.29035 13.0964 7.2883C13.0563 7.28625 13.0179 7.27247 12.9865 7.24887C12.955 7.22526 12.9321 7.193 12.921 7.15655C12.9098 7.12011 12.9109 7.08128 12.9241 7.04546C12.9374 7.00963 12.9621 6.97859 12.9948 6.95662C13.0276 6.93465 13.0667 6.92284 13.1069 6.92284C13.1517 6.91819 13.1967 6.93045 13.232 6.95697C13.2673 6.98348 13.2901 7.0221 13.2954 7.06441Z" fill="#DA840D"/>
<path d="M14.8092 6.8424C14.8001 6.87679 14.781 6.90809 14.754 6.93276C14.7271 6.95743 14.6934 6.97449 14.6567 6.982C14.62 6.9895 14.5819 6.98717 14.5465 6.97525C14.5112 6.96334 14.4801 6.94231 14.4568 6.91456C14.4334 6.88682 14.4187 6.85345 14.4144 6.81824C14.4101 6.78302 14.4163 6.74737 14.4323 6.71531C14.4483 6.68325 14.4735 6.65606 14.505 6.63682C14.5365 6.61758 14.5731 6.60706 14.6106 6.60645C14.6403 6.60905 14.6691 6.61731 14.6953 6.63071C14.7216 6.64411 14.7446 6.66238 14.7632 6.68442C14.7817 6.70646 14.7954 6.73182 14.8033 6.75897C14.8112 6.78612 14.8132 6.8145 14.8092 6.8424Z" fill="#DA840D"/>
<path d="M14.7003 5.80935C14.7003 5.85654 14.6367 5.89429 14.558 5.89429C14.4793 5.89429 14.4169 5.85654 14.4169 5.80935C14.4169 5.76216 14.4793 5.72559 14.558 5.72559C14.6367 5.72559 14.7003 5.76334 14.7003 5.80935Z" fill="#DA840D"/>
<path d="M15.8991 6.05592C15.8991 6.23879 15.8129 6.38744 15.7068 6.38744C15.6007 6.38744 15.5157 6.23879 15.5157 6.05592C15.5157 5.87306 15.6019 5.72559 15.7068 5.72559C15.8117 5.72559 15.8991 5.87424 15.8991 6.05592Z" fill="#DA840D"/>
<path d="M16.3787 5.72081C16.3784 5.73803 16.3728 5.75479 16.3625 5.76899C16.3522 5.78319 16.3377 5.7942 16.3208 5.80062C16.3039 5.80705 16.2853 5.80861 16.2675 5.80511C16.2496 5.80161 16.2333 5.7932 16.2205 5.78095C16.2077 5.76869 16.199 5.75314 16.1955 5.73623C16.1921 5.71933 16.194 5.70184 16.201 5.68595C16.208 5.67007 16.2199 5.6565 16.235 5.64696C16.2502 5.63742 16.268 5.63233 16.2863 5.63232C16.2985 5.63232 16.3106 5.63462 16.3219 5.63908C16.3332 5.64354 16.3434 5.65008 16.352 5.65831C16.3606 5.66654 16.3674 5.67631 16.372 5.68704C16.3766 5.69777 16.3788 5.70925 16.3787 5.72081Z" fill="#DA840D"/>
<path d="M13.2295 5.43755C13.2295 5.52249 13.1133 5.5921 12.9697 5.5921C12.8261 5.5921 12.7087 5.52249 12.7087 5.43755C12.7087 5.35261 12.8249 5.28418 12.9697 5.28418C13.1146 5.28418 13.2295 5.35261 13.2295 5.43755Z" fill="#DA840D"/>
<path d="M8.33437 4.6437C8.33437 4.69561 8.24321 4.73808 8.13082 4.73808C8.01843 4.73808 7.92603 4.69561 7.92603 4.6437C7.92603 4.59179 8.01718 4.54932 8.13082 4.54932C8.24446 4.54932 8.33437 4.59179 8.33437 4.6437Z" fill="#DA840D"/>
<path d="M9.53299 4.45327C9.53299 4.50636 9.42935 4.54883 9.30072 4.54883C9.1721 4.54883 9.0697 4.50636 9.0697 4.45327C9.0697 4.40018 9.17335 4.35889 9.30072 4.35889C9.4281 4.35889 9.53299 4.40136 9.53299 4.45327Z" fill="#DA840D"/>
<path d="M11.0416 4.68499C11.0416 4.76049 10.9017 4.82184 10.7281 4.82184C10.5545 4.82184 10.4147 4.76049 10.4147 4.68499C10.4147 4.60948 10.5558 4.54932 10.7281 4.54932C10.9004 4.54932 11.0416 4.60948 11.0416 4.68499Z" fill="#DA840D"/>
<path d="M12.153 4.45376C12.1532 4.47276 12.1475 4.4914 12.1364 4.50729C12.1254 4.52319 12.1096 4.53562 12.0911 4.543C12.0726 4.55038 12.0521 4.55237 12.0324 4.54872C12.0127 4.54507 11.9945 4.53594 11.9803 4.52251C11.9661 4.50907 11.9564 4.49194 11.9526 4.47329C11.9487 4.45465 11.9508 4.43533 11.9586 4.41783C11.9664 4.40032 11.9796 4.3854 11.9964 4.37499C12.0132 4.36458 12.033 4.35915 12.0531 4.35938C12.0796 4.35938 12.105 4.36933 12.1237 4.38703C12.1424 4.40473 12.153 4.42873 12.153 4.45376Z" fill="#DA840D"/>
<path d="M11.9517 5.20018C11.9517 5.24619 11.8568 5.28394 11.7382 5.28394C11.6196 5.28394 11.5247 5.24619 11.5247 5.20018C11.5247 5.15417 11.6208 5.11523 11.7382 5.11523C11.8556 5.11523 11.9517 5.15299 11.9517 5.20018Z" fill="#DA840D"/>
<path d="M13.6215 4.41225C13.6218 4.4396 13.6134 4.4664 13.5975 4.48926C13.5816 4.51211 13.5589 4.52999 13.5322 4.54061C13.5056 4.55124 13.4761 4.55415 13.4477 4.54895C13.4193 4.54376 13.3931 4.53071 13.3726 4.51145C13.352 4.4922 13.338 4.4676 13.3322 4.4408C13.3265 4.41399 13.3293 4.38617 13.3403 4.36088C13.3514 4.33559 13.3701 4.31396 13.3941 4.29874C13.4182 4.28352 13.4465 4.2754 13.4754 4.2754C13.4946 4.27524 13.5135 4.27866 13.5313 4.28547C13.549 4.29228 13.5651 4.30234 13.5787 4.31506C13.5923 4.32778 13.603 4.34292 13.6104 4.3596C13.6178 4.37629 13.6215 4.39418 13.6215 4.41225Z" fill="#DA840D"/>
<path d="M14.4169 4.96923C14.4169 4.99165 14.3419 5.01052 14.2508 5.01052C14.1596 5.01052 14.0859 4.99165 14.0859 4.96923C14.0859 4.94681 14.1596 4.92676 14.2508 4.92676C14.3419 4.92676 14.4169 4.94563 14.4169 4.96923Z" fill="#DA840D"/>
<path d="M14.9354 4.69051C14.9385 4.70289 14.9374 4.71588 14.9324 4.72767C14.9273 4.73947 14.9185 4.74949 14.9072 4.75634C14.8958 4.7632 14.8825 4.76656 14.8691 4.76595C14.8556 4.76534 14.8427 4.76079 14.8321 4.75294C14.8215 4.74509 14.8138 4.73432 14.8099 4.72212C14.8061 4.70993 14.8064 4.69691 14.8107 4.68487C14.8151 4.67282 14.8233 4.66236 14.8342 4.65491C14.8451 4.64747 14.8582 4.64342 14.8717 4.64332C14.8867 4.64196 14.9017 4.6461 14.9135 4.65489C14.9254 4.66367 14.9332 4.67643 14.9354 4.69051Z" fill="#DA840D"/>
<path d="M14.4169 4.96925C14.414 4.99483 14.4034 5.01908 14.3862 5.03906C14.3691 5.05905 14.3461 5.07391 14.3202 5.08187C14.2943 5.08982 14.2665 5.09053 14.2402 5.08389C14.2139 5.07726 14.1902 5.06357 14.1719 5.04449C14.1537 5.0254 14.1416 5.00173 14.1373 4.97632C14.133 4.95092 14.1365 4.92488 14.1475 4.90133C14.1585 4.87778 14.1764 4.85774 14.1992 4.84363C14.222 4.82951 14.2486 4.82192 14.2758 4.82178C14.2953 4.82268 14.3145 4.82722 14.3321 4.83513C14.3498 4.84303 14.3656 4.85415 14.3788 4.86785C14.3919 4.88155 14.402 4.89756 14.4085 4.91496C14.4151 4.93236 14.4179 4.9508 14.4169 4.96925Z" fill="#DA840D"/>
<path d="M15.2185 4.73204C15.2185 4.78159 15.1411 4.8217 15.0449 4.8217C14.9488 4.8217 14.8713 4.78159 14.8713 4.73204C14.8713 4.68249 14.9488 4.64355 15.0449 4.64355C15.1411 4.64355 15.2185 4.68367 15.2185 4.73204Z" fill="#DA840D"/>
<path d="M19.0262 4.84768C18.8514 3.38241 15.7195 2.2168 11.8808 2.2168C8.28935 2.2168 5.31729 3.2373 4.8053 4.56689C4.68703 4.74659 4.62311 4.95345 4.62048 5.16503C4.62048 6.68929 7.92971 8.21237 11.8808 8.21237C15.8319 8.21237 19.1136 6.79665 19.1136 5.27003C19.1134 5.12526 19.0837 4.98188 19.0262 4.84768Z" fill="#C66720"/>
<path d="M19.4669 4.58365C19.4669 6.10791 16.0403 7.52599 11.9156 7.52599C7.79094 7.52599 4.33936 6.00291 4.33936 4.48337C4.33936 2.96383 7.79094 2.00586 11.9156 2.00586C16.0403 2.00586 19.4669 3.05939 19.4669 4.58365Z" fill="#E3AC8A"/>
<path d="M19.4006 4.28953C19.4006 5.81379 16.1538 6.96524 12.0329 6.96524C7.912 6.96524 4.56531 5.73002 4.56531 4.20576C4.56531 2.68151 7.90825 1.44629 12.0329 1.44629C16.1576 1.44629 19.4006 2.76527 19.4006 4.28953Z" fill="#DA840D"/>
<path d="M11.8085 6.07475C14.8686 6.07475 17.3492 5.15832 17.3492 4.02785C17.3492 2.89738 14.8686 1.98096 11.8085 1.98096C8.74839 1.98096 6.2677 2.89738 6.2677 4.02785C6.2677 5.15832 8.74839 6.07475 11.8085 6.07475Z" fill="#F0A508"/>
<path d="M8.07823 4.78263C8.07823 4.90061 7.93712 5.00443 7.76354 5.00443C7.58996 5.00443 7.44885 4.90532 7.44885 4.78263C7.44885 4.65993 7.58996 4.56201 7.76354 4.56201C7.93712 4.56201 8.07823 4.66111 8.07823 4.78263Z" fill="#DA840D"/>
<path d="M7.44874 3.85429C7.44703 3.88679 7.43527 3.91811 7.41491 3.94436C7.39456 3.9706 7.3665 3.99063 7.33421 4.00197C7.30192 4.0133 7.26683 4.01544 7.23327 4.00812C7.19971 4.0008 7.16915 3.98434 7.1454 3.96078C7.12164 3.93722 7.10571 3.90759 7.0996 3.87557C7.09348 3.84355 7.09744 3.81053 7.11099 3.78062C7.12454 3.7507 7.14707 3.72519 7.17581 3.70725C7.20455 3.68931 7.23822 3.67973 7.27266 3.67969C7.29639 3.68015 7.31978 3.68504 7.3415 3.69407C7.36321 3.70311 7.38282 3.71612 7.39919 3.73235C7.41555 3.74859 7.42836 3.76772 7.43687 3.78865C7.44537 3.80957 7.44941 3.83189 7.44874 3.85429Z" fill="#DA840D"/>
<path d="M9.63917 5.05134C9.64267 5.1084 9.62796 5.16513 9.59696 5.2142C9.56595 5.26327 9.52007 5.30243 9.46525 5.32659C9.41043 5.35075 9.34919 5.35882 9.28947 5.34974C9.22974 5.34066 9.17428 5.31485 9.13025 5.27566C9.08622 5.23647 9.05565 5.1857 9.0425 5.12991C9.02935 5.07413 9.03423 5.0159 9.0565 4.96276C9.07877 4.90962 9.1174 4.86402 9.1674 4.83186C9.21741 4.79969 9.27648 4.78245 9.33697 4.78235C9.37551 4.78125 9.41391 4.78734 9.44996 4.80026C9.48601 4.81319 9.51901 4.8327 9.54707 4.85768C9.57514 4.88266 9.59772 4.91262 9.61352 4.94585C9.62932 4.97908 9.63804 5.01493 9.63917 5.05134Z" fill="#DA840D"/>
<path d="M8.97736 3.98732C8.97736 4.06164 8.8912 4.12063 8.78505 4.12063C8.67891 4.12063 8.59399 4.06164 8.59399 3.98732C8.59399 3.91299 8.68016 3.854 8.78505 3.854C8.88995 3.854 8.97736 3.91417 8.97736 3.98732Z" fill="#DA840D"/>
<path d="M10.9081 4.61963C10.9126 4.65668 10.9052 4.69417 10.8867 4.72713C10.8682 4.76008 10.8395 4.78694 10.8045 4.80415C10.7694 4.82136 10.7297 4.82811 10.6905 4.8235C10.6513 4.81888 10.6145 4.80313 10.585 4.77832C10.5556 4.75352 10.5347 4.72083 10.5254 4.68459C10.516 4.64835 10.5185 4.61028 10.5325 4.57541C10.5466 4.54054 10.5715 4.51053 10.604 4.48935C10.6365 4.46817 10.675 4.45683 10.7145 4.45682C10.763 4.45424 10.8106 4.46992 10.8469 4.50044C10.8832 4.53096 10.9052 4.57382 10.9081 4.61963Z" fill="#DA840D"/>
<path d="M10.9816 5.60267C10.9816 5.67818 10.8892 5.73953 10.7743 5.73953C10.6594 5.73953 10.567 5.67818 10.567 5.60267C10.567 5.52717 10.6594 5.46582 10.7743 5.46582C10.8892 5.46582 10.9816 5.52717 10.9816 5.60267Z" fill="#DA840D"/>
<path d="M10.1549 4.13832C10.1527 4.16554 10.1422 4.19156 10.1246 4.21321C10.107 4.23486 10.0831 4.25119 10.0558 4.26021C10.0286 4.26923 9.99911 4.27054 9.97106 4.26398C9.94301 4.25742 9.9176 4.24328 9.89792 4.22329C9.87825 4.2033 9.86517 4.17832 9.86029 4.15141C9.85541 4.12451 9.85894 4.09684 9.87044 4.0718C9.88194 4.04676 9.90092 4.02543 9.92506 4.01043C9.94919 3.99542 9.97744 3.98738 10.0063 3.9873C10.0266 3.98791 10.0466 3.99231 10.065 4.00025C10.0835 4.00818 10.1001 4.0195 10.114 4.03354C10.1278 4.04758 10.1385 4.06407 10.1455 4.08205C10.1526 4.10004 10.1558 4.11916 10.1549 4.13832Z" fill="#DA840D"/>
<path d="M12.3056 4.4264C12.3056 4.50191 12.2156 4.56208 12.1045 4.56208C11.9934 4.56208 11.9034 4.50191 11.9034 4.4264C11.9034 4.3509 11.9934 4.28955 12.1045 4.28955C12.2156 4.28955 12.3056 4.3509 12.3056 4.4264Z" fill="#DA840D"/>
<path d="M12.3056 5.13316C12.3056 5.17799 12.2156 5.21457 12.1045 5.21457C11.9934 5.21457 11.9034 5.17799 11.9034 5.13316C11.9034 5.08833 11.9934 5.05176 12.1045 5.05176C12.2156 5.05176 12.3056 5.08833 12.3056 5.13316Z" fill="#DA840D"/>
<path d="M13.6653 4.67291C13.6653 4.73426 13.5829 4.78263 13.483 4.78263C13.3831 4.78263 13.3007 4.73426 13.3007 4.67291C13.3007 4.61156 13.3831 4.56201 13.483 4.56201C13.5829 4.56201 13.6653 4.61156 13.6653 4.67291Z" fill="#DA840D"/>
<path d="M13.4479 5.46127C13.457 5.49823 13.4537 5.53695 13.4384 5.57204C13.4231 5.60714 13.3967 5.63689 13.3627 5.65715C13.3288 5.67742 13.289 5.68721 13.2489 5.68516C13.2088 5.68312 13.1704 5.66933 13.1389 5.64573C13.1075 5.62212 13.0846 5.58986 13.0734 5.55341C13.0623 5.51697 13.0634 5.47814 13.0766 5.44232C13.0898 5.40649 13.1145 5.37544 13.1473 5.35347C13.18 5.3315 13.2192 5.3197 13.2594 5.3197C13.3041 5.31536 13.3489 5.32774 13.3842 5.3542C13.4194 5.38065 13.4423 5.41908 13.4479 5.46127Z" fill="#DA840D"/>
<path d="M14.9616 5.23209C14.9538 5.26697 14.9357 5.29905 14.9095 5.32463C14.8832 5.3502 14.8498 5.36823 14.8131 5.37662C14.7764 5.385 14.738 5.38341 14.7023 5.37203C14.6665 5.36064 14.6349 5.33992 14.6111 5.31227C14.5873 5.28462 14.5722 5.25117 14.5677 5.21578C14.5632 5.1804 14.5694 5.14452 14.5855 5.11232C14.6017 5.08011 14.6272 5.05288 14.659 5.03378C14.6909 5.01468 14.7278 5.00449 14.7655 5.00439C14.8232 5.01064 14.876 5.03796 14.9127 5.08051C14.9493 5.12306 14.9669 5.17746 14.9616 5.23209Z" fill="#DA840D"/>
<path d="M14.8517 4.20555C14.8517 4.25156 14.7892 4.28931 14.7106 4.28931C14.6319 4.28931 14.5695 4.25156 14.5695 4.20555C14.5695 4.15954 14.6319 4.12061 14.7106 4.12061C14.7892 4.12061 14.8517 4.15836 14.8517 4.20555Z" fill="#DA840D"/>
<path d="M16.0516 4.45212C16.0516 4.63498 15.9654 4.78245 15.8593 4.78245C15.7531 4.78245 15.6682 4.63498 15.6682 4.45212C15.6682 4.26926 15.7544 4.12061 15.8593 4.12061C15.9642 4.12061 16.0516 4.26926 16.0516 4.45212Z" fill="#DA840D"/>
<path d="M16.531 4.1175C16.5305 4.13465 16.5247 4.1513 16.5142 4.16534C16.5038 4.17938 16.4892 4.1902 16.4722 4.19645C16.4553 4.2027 16.4368 4.20409 16.4191 4.20046C16.4013 4.19683 16.3851 4.18834 16.3724 4.17604C16.3597 4.16374 16.3512 4.14819 16.3478 4.13132C16.3444 4.11445 16.3464 4.09702 16.3535 4.0812C16.3605 4.06539 16.3724 4.05189 16.3875 4.0424C16.4026 4.0329 16.4204 4.02784 16.4386 4.02783C16.4509 4.02799 16.463 4.03043 16.4743 4.03502C16.4856 4.03961 16.4958 4.04625 16.5044 4.05458C16.513 4.06291 16.5198 4.07275 16.5243 4.08354C16.5289 4.09434 16.5311 4.10588 16.531 4.1175Z" fill="#DA840D"/>
<path d="M13.3818 3.83424C13.3818 3.91918 13.2656 3.9876 13.122 3.9876C12.9784 3.9876 12.8623 3.91918 12.8623 3.83424C12.8623 3.74929 12.9784 3.67969 13.1233 3.67969C13.2681 3.67969 13.3818 3.74929 13.3818 3.83424Z" fill="#DA840D"/>
<path d="M8.49172 3.0392C8.49172 3.09111 8.40056 3.13359 8.28817 3.13359C8.17578 3.13359 8.08337 3.09111 8.08337 3.0392C8.08337 2.9873 8.17453 2.94482 8.28817 2.94482C8.40181 2.94482 8.49172 2.9873 8.49172 3.0392Z" fill="#DA840D"/>
<path d="M9.68558 2.85024C9.68558 2.90215 9.58193 2.94462 9.45331 2.94462C9.32469 2.94462 9.22229 2.90215 9.22229 2.85024C9.22229 2.79833 9.32594 2.75586 9.45331 2.75586C9.58068 2.75586 9.68558 2.79833 9.68558 2.85024Z" fill="#DA840D"/>
<path d="M11.1939 3.08135C11.1939 3.15686 11.054 3.21821 10.8805 3.21821C10.7069 3.21821 10.567 3.15686 10.567 3.08135C10.567 3.00585 10.7069 2.94922 10.8805 2.94922C11.054 2.94922 11.1939 3.00585 11.1939 3.08135Z" fill="#DA840D"/>
<path d="M12.3053 2.85025C12.3056 2.8692 12.2998 2.88779 12.2889 2.90366C12.2779 2.91953 12.2622 2.93196 12.2438 2.93937C12.2253 2.94679 12.2049 2.94885 12.1852 2.94529C12.1655 2.94174 12.1474 2.93273 12.1331 2.91942C12.1188 2.9061 12.1091 2.88908 12.1051 2.87051C12.1011 2.85194 12.103 2.83267 12.1106 2.81514C12.1182 2.79761 12.1312 2.78261 12.1478 2.77206C12.1645 2.7615 12.1841 2.75587 12.2042 2.75587C12.2174 2.75571 12.2305 2.75804 12.2428 2.76271C12.255 2.76738 12.2662 2.77431 12.2756 2.78309C12.285 2.79187 12.2925 2.80233 12.2976 2.81386C12.3027 2.82538 12.3053 2.83775 12.3053 2.85025Z" fill="#DA840D"/>
<path d="M12.1042 3.59597C12.1042 3.64316 12.0093 3.67973 11.8907 3.67973C11.772 3.67973 11.6771 3.64316 11.6771 3.59597C11.6771 3.54878 11.7733 3.51221 11.8907 3.51221C12.008 3.51221 12.1042 3.54996 12.1042 3.59597Z" fill="#DA840D"/>
<path d="M13.7737 2.80755C13.7742 2.83495 13.7661 2.86187 13.7503 2.88487C13.7346 2.90788 13.712 2.92594 13.6853 2.93675C13.6587 2.94756 13.6292 2.95063 13.6007 2.94558C13.5722 2.94052 13.5459 2.92756 13.5253 2.90836C13.5046 2.88915 13.4904 2.86456 13.4846 2.83772C13.4787 2.81088 13.4815 2.78301 13.4924 2.75765C13.5034 2.73229 13.5221 2.71059 13.5462 2.69532C13.5703 2.68004 13.5986 2.67188 13.6276 2.67188C13.6467 2.67172 13.6655 2.67511 13.6832 2.68184C13.7008 2.68858 13.7169 2.69853 13.7304 2.71113C13.744 2.72373 13.7548 2.73873 13.7622 2.75527C13.7697 2.77182 13.7736 2.78958 13.7737 2.80755Z" fill="#DA840D"/>
<path d="M14.5692 3.36453C14.5692 3.38813 14.4943 3.40701 14.4031 3.40701C14.312 3.40701 14.2383 3.38813 14.2383 3.36453C14.2383 3.34094 14.312 3.32324 14.4031 3.32324C14.4943 3.32324 14.5692 3.34212 14.5692 3.36453Z" fill="#DA840D"/>
<path d="M15.0875 3.08651C15.0906 3.09889 15.0895 3.11187 15.0845 3.12367C15.0794 3.13546 15.0706 3.14548 15.0593 3.15234C15.0479 3.1592 15.0346 3.16255 15.0212 3.16194C15.0077 3.16133 14.9948 3.15679 14.9842 3.14894C14.9736 3.14108 14.9659 3.13032 14.962 3.11812C14.9582 3.10592 14.9585 3.0929 14.9628 3.08086C14.9672 3.06882 14.9754 3.05835 14.9863 3.05091C14.9972 3.04347 15.0103 3.03942 15.0238 3.03932C15.0388 3.03796 15.0538 3.0421 15.0656 3.05088C15.0775 3.05967 15.0853 3.07242 15.0875 3.08651Z" fill="#DA840D"/>
<path d="M14.5693 3.36459C14.5712 3.38307 14.5689 3.40171 14.5627 3.41932C14.5565 3.43693 14.5464 3.45312 14.5332 3.46685C14.52 3.48058 14.5039 3.49154 14.4859 3.49905C14.4679 3.50655 14.4485 3.51043 14.4288 3.51043C14.4092 3.51043 14.3898 3.50655 14.3718 3.49905C14.3538 3.49154 14.3377 3.48058 14.3245 3.46685C14.3112 3.45312 14.3012 3.43693 14.295 3.41932C14.2888 3.40171 14.2865 3.38307 14.2883 3.36459C14.2865 3.34611 14.2888 3.32747 14.295 3.30986C14.3012 3.29225 14.3112 3.27606 14.3245 3.26234C14.3377 3.24861 14.3538 3.23764 14.3718 3.23013C14.3898 3.22263 14.4092 3.21875 14.4288 3.21875C14.4485 3.21875 14.4679 3.22263 14.4859 3.23013C14.5039 3.23764 14.52 3.24861 14.5332 3.26234C14.5464 3.27606 14.5565 3.29225 14.5627 3.30986C14.5689 3.32747 14.5712 3.34611 14.5693 3.36459Z" fill="#DA840D"/>
<path d="M15.37 3.12872C15.37 3.17828 15.2938 3.21839 15.1976 3.21839C15.1015 3.21839 15.024 3.17828 15.024 3.12872C15.024 3.07917 15.1015 3.03906 15.1976 3.03906C15.2938 3.03906 15.37 3.07917 15.37 3.12872Z" fill="#DA840D"/>
<path d="M19.4344 3.11376C19.4344 4.04342 18.1607 4.93296 16.2313 5.48509C14.8187 5.87235 13.3541 6.06429 11.8831 6.05492C10.3509 6.05492 9.09215 5.67385 7.82091 5.58301C5.70051 5.42728 4.30688 3.96673 4.30688 3.00876C4.30688 1.4845 7.75972 0.53125 11.8831 0.53125C16.0066 0.53125 19.4344 1.5895 19.4344 3.11376Z" fill="#E3AC8A"/>
<path d="M19.3395 2.91182C19.3395 4.43608 15.9954 5.67129 11.8707 5.67129C7.74602 5.67129 4.40308 4.43608 4.40308 2.91182C4.40308 1.38756 7.74227 0.152344 11.8707 0.152344C15.9991 0.152344 19.3395 1.38756 19.3395 2.91182Z" fill="#DA840D"/>
<path d="M17.3042 2.65061C17.3042 3.78083 14.8229 4.69751 11.7634 4.69751C8.70395 4.69751 6.22266 3.78083 6.22266 2.65061C6.22266 1.5204 8.7027 0.602539 11.7634 0.602539C14.8241 0.602539 17.3042 1.51922 17.3042 2.65061Z" fill="#F0A508"/>
<path d="M8.03319 3.40616C8.03319 3.52414 7.89208 3.62678 7.7185 3.62678C7.54492 3.62678 7.40381 3.52768 7.40381 3.40616C7.40381 3.28465 7.54492 3.18555 7.7185 3.18555C7.89208 3.18555 8.03319 3.28347 8.03319 3.40616Z" fill="#DA840D"/>
<path d="M7.404 2.47762C7.40253 2.51019 7.39097 2.54162 7.37075 2.56803C7.35054 2.59444 7.32255 2.61466 7.29027 2.62617C7.258 2.63768 7.22285 2.63998 7.18921 2.63279C7.15556 2.62559 7.12489 2.60922 7.10101 2.58569C7.07713 2.56217 7.06109 2.53254 7.05488 2.50048C7.04867 2.46842 7.05257 2.43534 7.06608 2.40536C7.0796 2.37537 7.10215 2.3498 7.13092 2.33182C7.15969 2.31383 7.19342 2.30423 7.22792 2.3042C7.25154 2.30466 7.27483 2.30951 7.29646 2.31848C7.31809 2.32744 7.33764 2.34034 7.35399 2.35645C7.37034 2.37255 7.38318 2.39155 7.39176 2.41234C7.40034 2.43313 7.4045 2.45531 7.404 2.47762Z" fill="#DA840D"/>
<path d="M9.59442 3.6737C9.59818 3.73079 9.58369 3.78762 9.55285 3.83684C9.52201 3.88606 9.47623 3.92539 9.42144 3.94974C9.36666 3.97409 9.30539 3.98233 9.24559 3.97339C9.18579 3.96446 9.13021 3.93876 9.08605 3.89963C9.0419 3.86049 9.0112 3.80973 8.99794 3.75392C8.98468 3.69811 8.98947 3.63983 9.01168 3.58662C9.0339 3.53341 9.07252 3.48774 9.12255 3.45551C9.17257 3.42329 9.23168 3.406 9.29222 3.40589C9.36985 3.40366 9.44525 3.4306 9.5019 3.4808C9.55854 3.531 9.59182 3.60036 9.59442 3.6737Z" fill="#DA840D"/>
<path d="M8.93232 2.61085C8.93232 2.684 8.84616 2.74417 8.74001 2.74417C8.63387 2.74417 8.54895 2.684 8.54895 2.61085C8.54895 2.53771 8.63512 2.47754 8.74126 2.47754C8.84741 2.47754 8.93232 2.53653 8.93232 2.61085Z" fill="#DA840D"/>
<path d="M10.8642 3.2431C10.8685 3.2799 10.8609 3.31707 10.8423 3.34969C10.8238 3.38231 10.7952 3.40884 10.7604 3.42577C10.7255 3.44271 10.686 3.44925 10.6472 3.44453C10.6083 3.43981 10.5718 3.42405 10.5427 3.39934C10.5135 3.37463 10.4929 3.34213 10.4837 3.30614C10.4745 3.27015 10.4771 3.23237 10.4911 3.19779C10.5051 3.16321 10.5299 3.13346 10.5622 3.11248C10.5944 3.0915 10.6327 3.08027 10.6719 3.08029C10.7202 3.07803 10.7675 3.09386 10.8035 3.12435C10.8395 3.15483 10.8613 3.1975 10.8642 3.2431Z" fill="#DA840D"/>
<path d="M10.9366 4.22454C10.9366 4.30004 10.8442 4.36139 10.7293 4.36139C10.6144 4.36139 10.522 4.30004 10.522 4.22454C10.522 4.14903 10.6144 4.08887 10.7293 4.08887C10.8442 4.08887 10.9366 4.15021 10.9366 4.22454Z" fill="#DA840D"/>
<path d="M10.1149 2.76067C10.1129 2.78796 10.1026 2.81412 10.0851 2.83593C10.0676 2.85775 10.0438 2.87426 10.0165 2.88346C9.98928 2.89265 9.95976 2.89412 9.93163 2.88768C9.90349 2.88125 9.87795 2.86718 9.85816 2.84723C9.83836 2.82727 9.82517 2.80228 9.8202 2.77533C9.81523 2.74839 9.8187 2.72066 9.83018 2.69555C9.84166 2.67044 9.86066 2.64905 9.88483 2.634C9.90901 2.61895 9.93731 2.6109 9.96626 2.61084C9.98643 2.61145 10.0063 2.61581 10.0247 2.62367C10.0431 2.63153 10.0596 2.64274 10.0734 2.65666C10.0872 2.67057 10.098 2.68692 10.1051 2.70477C10.1122 2.72262 10.1155 2.74161 10.1149 2.76067Z" fill="#DA840D"/>
<path d="M12.2605 3.04847C12.2605 3.12398 12.1706 3.18533 12.0595 3.18533C11.9483 3.18533 11.8634 3.12398 11.8634 3.04847C11.8634 2.97297 11.9533 2.91162 12.0645 2.91162C12.1756 2.91162 12.2605 2.97297 12.2605 3.04847Z" fill="#DA840D"/>
<path d="M12.2605 3.75523C12.2605 3.80006 12.1706 3.83664 12.0595 3.83664C11.9483 3.83664 11.8634 3.80006 11.8634 3.75523C11.8634 3.7104 11.9533 3.67383 12.0645 3.67383C12.1756 3.67383 12.2605 3.7104 12.2605 3.75523Z" fill="#DA840D"/>
<path d="M13.6203 3.29527C13.6203 3.35661 13.5378 3.40616 13.4379 3.40616C13.338 3.40616 13.2556 3.35661 13.2556 3.29527C13.2556 3.23392 13.338 3.18555 13.4379 3.18555C13.5378 3.18555 13.6203 3.2351 13.6203 3.29527Z" fill="#DA840D"/>
<path d="M13.4032 4.08308C13.3924 4.12225 13.3682 4.15693 13.3343 4.18169C13.3004 4.20644 13.2587 4.21987 13.2159 4.21987C13.173 4.21987 13.1314 4.20644 13.0975 4.18169C13.0636 4.15693 13.0394 4.12225 13.0286 4.08308C13.0394 4.04391 13.0636 4.00923 13.0975 3.98447C13.1314 3.95972 13.173 3.94629 13.2159 3.94629C13.2587 3.94629 13.3004 3.95972 13.3343 3.98447C13.3682 4.00923 13.3924 4.04391 13.4032 4.08308Z" fill="#DA840D"/>
<path d="M14.9165 3.85555C14.9222 3.8829 14.9214 3.91111 14.9142 3.93813C14.907 3.96516 14.8935 3.99034 14.8748 4.01186C14.856 4.03339 14.8325 4.05072 14.8058 4.06262C14.7791 4.07453 14.75 4.0807 14.7205 4.0807C14.691 4.0807 14.6618 4.07453 14.6351 4.06262C14.6085 4.05072 14.5849 4.03339 14.5662 4.01186C14.5474 3.99034 14.534 3.96516 14.5267 3.93813C14.5195 3.91111 14.5187 3.8829 14.5244 3.85555C14.5177 3.82774 14.5177 3.79887 14.5245 3.77107C14.5312 3.74327 14.5445 3.71726 14.5633 3.69497C14.5822 3.67269 14.6061 3.65469 14.6333 3.64232C14.6605 3.62996 14.6903 3.62354 14.7205 3.62354C14.7506 3.62354 14.7804 3.62996 14.8076 3.64232C14.8348 3.65469 14.8588 3.67269 14.8776 3.69497C14.8964 3.71726 14.9097 3.74327 14.9164 3.77107C14.9232 3.79887 14.9232 3.82774 14.9165 3.85555Z" fill="#DA840D"/>
<path d="M14.8066 2.83132C14.8066 2.87733 14.7442 2.91509 14.6655 2.91509C14.5869 2.91509 14.5244 2.87733 14.5244 2.83132C14.5244 2.78531 14.5869 2.74756 14.6655 2.74756C14.7442 2.74756 14.8066 2.78177 14.8066 2.83132Z" fill="#DA840D"/>
<path d="M16.0068 3.07448C16.0068 3.25734 15.9206 3.40599 15.8145 3.40599C15.7083 3.40599 15.6234 3.25734 15.6234 3.07448C15.6234 2.89161 15.7083 2.74414 15.8145 2.74414C15.9206 2.74414 16.0068 2.89161 16.0068 3.07448Z" fill="#DA840D"/>
<path d="M16.4838 2.73936C16.4835 2.75658 16.4779 2.77334 16.4676 2.78754C16.4573 2.80174 16.4428 2.81275 16.4259 2.81917C16.409 2.8256 16.3904 2.82716 16.3726 2.82366C16.3547 2.82016 16.3384 2.81175 16.3256 2.7995C16.3128 2.78724 16.3041 2.77169 16.3006 2.75478C16.2972 2.73788 16.2991 2.72039 16.3061 2.70451C16.3131 2.68862 16.325 2.67506 16.3401 2.66551C16.3553 2.65597 16.3731 2.65088 16.3914 2.65088C16.416 2.65119 16.4395 2.66065 16.4568 2.67721C16.4741 2.69377 16.4838 2.7161 16.4838 2.73936Z" fill="#DA840D"/>
<path d="M13.3368 2.45611C13.3368 2.54105 13.2206 2.61066 13.0758 2.61066C12.9309 2.61066 12.816 2.54105 12.816 2.45611C12.816 2.37116 12.9322 2.30273 13.0758 2.30273C13.2194 2.30273 13.3368 2.37116 13.3368 2.45611Z" fill="#DA840D"/>
<path d="M8.44167 1.66246C8.44167 1.71437 8.35051 1.75684 8.23687 1.75684C8.12324 1.75684 8.03333 1.71437 8.03333 1.66246C8.03333 1.61055 8.12448 1.56689 8.23687 1.56689C8.34926 1.56689 8.44167 1.60937 8.44167 1.66246Z" fill="#DA840D"/>
<path d="M9.64044 1.47231C9.64044 1.5254 9.53679 1.56669 9.40817 1.56669C9.27955 1.56669 9.1759 1.5254 9.1759 1.47231C9.1759 1.41922 9.2808 1.37793 9.40817 1.37793C9.53555 1.37793 9.64044 1.41568 9.64044 1.47231Z" fill="#DA840D"/>
<path d="M11.1489 1.70375C11.1489 1.77925 11.009 1.8406 10.8354 1.8406C10.6618 1.8406 10.522 1.77925 10.522 1.70375C10.522 1.62824 10.6618 1.56689 10.8354 1.56689C11.009 1.56689 11.1489 1.62824 11.1489 1.70375Z" fill="#DA840D"/>
<path d="M12.2603 1.47232C12.2605 1.49127 12.2548 1.50986 12.2438 1.52573C12.2329 1.5416 12.2172 1.55403 12.1987 1.56144C12.1802 1.56886 12.1599 1.57092 12.1402 1.56736C12.1205 1.56381 12.1023 1.5548 12.0881 1.54149C12.0738 1.52817 12.064 1.51115 12.06 1.49258C12.056 1.47401 12.0579 1.45474 12.0656 1.43721C12.0732 1.41968 12.0861 1.40468 12.1028 1.39413C12.1195 1.38357 12.1391 1.37794 12.1591 1.37794C12.1724 1.37778 12.1855 1.38011 12.1977 1.38478C12.21 1.38945 12.2212 1.39638 12.2306 1.40516C12.24 1.41394 12.2475 1.4244 12.2526 1.43593C12.2577 1.44745 12.2603 1.45982 12.2603 1.47232Z" fill="#DA840D"/>
<path d="M12.0594 2.21922C12.0594 2.26523 11.9632 2.30298 11.8459 2.30298C11.7285 2.30298 11.6323 2.26523 11.6323 2.21922C11.6323 2.17321 11.7285 2.13428 11.8459 2.13428C11.9632 2.13428 12.0594 2.17203 12.0594 2.21922Z" fill="#DA840D"/>
<path d="M13.7277 1.43117C13.7284 1.45838 13.7205 1.48518 13.7051 1.50814C13.6896 1.53111 13.6673 1.5492 13.6409 1.5601C13.6145 1.571 13.5852 1.57422 13.5569 1.56935C13.5286 1.56448 13.5024 1.55173 13.4818 1.53274C13.4611 1.51375 13.447 1.48938 13.4411 1.46274C13.4352 1.4361 13.4378 1.4084 13.4486 1.38319C13.4595 1.35798 13.478 1.33639 13.5019 1.32119C13.5258 1.30599 13.554 1.29787 13.5828 1.29786C13.6207 1.29754 13.6571 1.31137 13.6843 1.33634C13.7114 1.36131 13.727 1.39539 13.7277 1.43117Z" fill="#DA840D"/>
<path d="M14.5244 1.98778C14.5244 2.0102 14.4495 2.02908 14.3583 2.02908C14.2672 2.02908 14.1923 2.0102 14.1923 1.98778C14.1923 1.96537 14.2672 1.94531 14.3583 1.94531C14.4495 1.94531 14.5244 1.96419 14.5244 1.98778Z" fill="#DA840D"/>
<path d="M15.0427 1.70955C15.0458 1.72193 15.0447 1.73492 15.0397 1.74671C15.0346 1.75851 15.0258 1.76852 15.0145 1.77538C15.0031 1.78224 14.9898 1.7856 14.9764 1.78499C14.9629 1.78438 14.95 1.77983 14.9394 1.77198C14.9288 1.76413 14.9211 1.75336 14.9172 1.74116C14.9134 1.72897 14.9137 1.71595 14.918 1.70391C14.9224 1.69187 14.9306 1.6814 14.9415 1.67396C14.9524 1.66651 14.9655 1.66246 14.979 1.66236C14.994 1.661 15.009 1.66514 15.0208 1.67393C15.0327 1.68271 15.0405 1.69547 15.0427 1.70955Z" fill="#DA840D"/>
<path d="M14.5245 1.9878C14.5216 2.01339 14.5109 2.03764 14.4937 2.05762C14.4766 2.07761 14.4537 2.09247 14.4278 2.10043C14.4019 2.10838 14.3741 2.10909 14.3478 2.10245C14.3215 2.09582 14.2977 2.08213 14.2795 2.06304C14.2612 2.04396 14.2492 2.02028 14.2448 1.99488C14.2405 1.96948 14.244 1.94343 14.255 1.91989C14.266 1.89634 14.284 1.8763 14.3067 1.86218C14.3295 1.84807 14.3561 1.84048 14.3834 1.84033C14.4029 1.84124 14.422 1.84577 14.4397 1.85368C14.4573 1.86159 14.4732 1.87271 14.4863 1.88641C14.4994 1.90011 14.5095 1.91611 14.5161 1.93351C14.5226 1.95091 14.5255 1.96936 14.5245 1.9878Z" fill="#DA840D"/>
<path d="M15.3249 1.75059C15.3249 1.80014 15.2475 1.84025 15.1526 1.84025C15.0577 1.84025 14.979 1.80014 14.979 1.75059C14.979 1.70104 15.0564 1.66211 15.1526 1.66211C15.2487 1.66211 15.3249 1.70104 15.3249 1.75059Z" fill="#DA840D"/>
<path d="M13.0044 9.12313C12.9762 9.02123 12.9103 8.93221 12.8187 8.87209C12.7272 8.81197 12.6159 8.78469 12.5049 8.79516C11.7557 8.84589 11.6932 10.0316 11.9567 10.5495C12.0352 10.6068 12.1338 10.6336 12.2325 10.6244C12.3312 10.6152 12.4224 10.5706 12.4875 10.4999C12.7272 10.2463 12.8034 9.87936 12.8883 9.55611C12.9299 9.41296 12.9686 9.26864 13.0044 9.12313Z" fill="#EEBE30"/>
<path d="M18.5666 2.96232C18.306 2.8672 18.0658 2.72852 17.8573 2.55295C17.6081 2.32467 17.3784 2.07811 17.1704 1.81559C16.8595 1.45458 16.4074 1.31301 15.9329 1.25992C15.4047 1.19975 14.859 1.31065 14.327 1.2847C14.0417 1.27736 13.7621 1.20749 13.5103 1.0806C13.2606 0.946103 13.0645 0.726666 12.851 0.536723C12.4326 0.182793 11.9019 0.182793 11.3737 0.102569C11.0238 0.0442166 10.6699 0.00991342 10.3147 -7.04827e-05C9.95134 -0.00832885 9.31571 -0.0130479 9.07221 0.313748C8.80247 0.431724 8.70757 0.745542 8.64638 1.00981C8.61191 1.22787 8.55717 1.44263 8.48279 1.6516C8.37184 1.88927 8.20021 2.09722 7.98328 2.25682C7.5075 2.63081 6.91934 2.83137 6.38112 3.0921C5.94405 3.30328 5.40833 3.60294 5.17356 4.02647C5.03245 4.28012 5.04869 4.71428 5.29844 4.90186C5.60688 5.12602 5.84165 4.70366 5.90784 4.49012C5.96903 4.29664 5.9915 4.09962 6.15759 3.95451C6.38133 3.771 6.64728 3.63931 6.93432 3.5699C7.17533 3.5062 7.43383 3.5062 7.67109 3.43659C7.95589 3.33531 8.22379 3.19585 8.46656 3.02249C8.75127 2.84317 9.0285 2.66856 9.36691 2.5907C9.64789 2.52935 10.0825 2.53879 10.3035 2.74171C10.4247 2.88043 10.529 3.0316 10.6144 3.19238C10.7283 3.34234 10.8792 3.46382 11.054 3.54631C11.4061 3.73625 11.8095 3.82001 12.1779 3.99226C12.3011 4.05276 12.4072 4.14012 12.4876 4.24709C12.5001 4.26479 12.5113 4.28248 12.5225 4.30136C12.5316 4.31472 12.5399 4.3285 12.5475 4.34265C12.9496 5.04343 12.4439 5.78551 12.4576 6.52522C12.4576 6.92398 12.7636 7.57639 13.2805 7.25668C13.3155 7.23544 13.348 7.21184 13.3804 7.18825C13.4391 6.67151 13.4866 6.1418 13.6764 5.65455C13.855 5.20152 14.0985 4.7827 14.0723 4.28366C14.0573 4.00878 13.9187 3.75631 13.8849 3.48496C13.8375 3.10744 14.1971 2.93637 14.5206 2.86204C14.982 2.74603 15.4712 2.77755 15.9117 2.95171C16.7409 3.27378 17.4102 3.93799 18.3318 4.04771C18.6964 4.09136 19.2247 4.03709 19.3695 3.66075C19.5144 3.2844 18.8263 3.06732 18.5666 2.96232Z" fill="#EEBE30"/>
<path opacity="0.5" d="M13.4928 3.45447C13.455 3.32729 13.3852 3.21065 13.2893 3.11451C13.1934 3.01836 13.0743 2.94557 12.9421 2.90233C12.7523 2.85514 12.4526 2.9743 12.4763 3.19138C12.4767 3.19572 12.478 3.19995 12.4801 3.20381C12.4823 3.20766 12.4852 3.21106 12.4888 3.21379C12.3639 3.46508 12.7261 3.89806 12.851 4.0821C12.9424 4.19994 13.0001 4.33812 13.0183 4.48322C13.0395 4.67081 12.9758 4.85603 12.9946 5.04125C13.0021 5.12384 13.0683 5.47659 13.2443 5.33502C13.4454 5.17457 13.4666 4.8112 13.5078 4.58232C13.5909 4.20992 13.5858 3.82478 13.4928 3.45447Z" fill="white"/>
<path opacity="0.5" d="M17.1244 2.233C16.9203 1.91299 16.5947 1.67844 16.2141 1.57705C15.8295 1.47205 14.9066 1.35879 14.8092 1.89087C14.8084 1.90161 14.8112 1.91231 14.8173 1.92143C14.8234 1.93055 14.8323 1.93762 14.8429 1.9416C14.8676 1.95856 14.8894 1.97883 14.9079 2.00176C14.9131 2.01139 14.9214 2.01923 14.9316 2.02418C14.9417 2.0276 14.9527 2.0276 14.9628 2.02418C15.0341 2.0859 15.1196 2.13114 15.2126 2.15631C15.4415 2.20421 15.6749 2.2303 15.9094 2.23418C16.2341 2.26367 16.4151 2.39581 16.6412 2.60109C16.766 2.71906 17.1082 2.96682 17.2843 2.77923C17.4191 2.6471 17.1981 2.34154 17.1244 2.233Z" fill="white"/>
<path opacity="0.5" d="M6.02646 3.71495C5.97172 3.70849 5.91635 3.70849 5.86162 3.71495C5.86184 3.71263 5.8615 3.71028 5.86061 3.7081C5.85973 3.70592 5.85833 3.70396 5.85653 3.70237C5.85472 3.70077 5.85255 3.69959 5.85019 3.69891C5.84783 3.69823 5.84533 3.69807 5.84289 3.69843C5.75161 3.71218 5.66497 3.74576 5.58977 3.79653C5.51458 3.84731 5.45289 3.91388 5.40957 3.99102C5.3796 4.05 5.32091 4.25646 5.44953 4.26708C5.57815 4.2777 5.6793 4.1491 5.75173 4.08186C5.8567 3.97949 5.95591 3.87199 6.04893 3.75978C6.05169 3.75559 6.0533 3.75081 6.0536 3.74588C6.05389 3.74095 6.05288 3.73603 6.05064 3.73157C6.0484 3.72711 6.04502 3.72325 6.04079 3.72035C6.03657 3.71744 6.03164 3.71559 6.02646 3.71495Z" fill="white"/>
<path opacity="0.5" d="M21.0892 10.5175C20.9785 10.4952 20.8643 10.4942 20.7532 10.5144C20.6421 10.5347 20.5364 10.5758 20.4424 10.6353C20.3485 10.6948 20.2681 10.7715 20.2061 10.8609C20.1441 10.9503 20.1017 11.0506 20.0814 11.1557C20.0807 11.1595 20.0809 11.1634 20.0819 11.1671C20.0829 11.1709 20.0848 11.1743 20.0875 11.1772C20.0901 11.1802 20.0934 11.1825 20.0971 11.1841C20.1008 11.1857 20.1048 11.1865 20.1089 11.1864C20.1095 11.1943 20.1095 11.2022 20.1089 11.21C20.0652 11.3941 19.8342 11.479 19.6881 11.5569C19.5794 11.6135 19.467 11.6642 19.3547 11.7161C18.98 11.8955 18.3906 12.1267 18.2745 12.6021C18.2726 12.6073 18.2725 12.6129 18.274 12.6182C18.2756 12.6234 18.2788 12.6281 18.2832 12.6316C18.508 12.7779 18.7665 12.5597 18.9426 12.4228C19.2979 12.1568 19.7146 11.9737 20.1589 11.8884C20.6509 11.7869 21.5687 11.8176 21.746 11.1805C21.8534 10.7853 21.3777 10.5659 21.0892 10.5175Z" fill="white"/>
<path d="M13.0408 1.36731C12.9971 1.3095 12.886 1.18562 12.8111 1.17736C12.7686 1.17736 12.7524 1.09714 12.7124 1.10894C12.6725 1.12074 12.6113 1.15023 12.5563 1.10894C12.5379 1.09272 12.5183 1.07774 12.4976 1.06411C12.4861 1.0565 12.473 1.05139 12.4592 1.04915C12.4454 1.0469 12.4312 1.04758 12.4177 1.05113C12.3827 1.06411 12.369 1.11366 12.3265 1.0818C12.2841 1.04995 12.1829 1.09832 12.158 1.14551C12.1495 1.15845 12.1428 1.17232 12.138 1.1868C11.9894 1.20686 11.8395 1.42276 11.7833 1.52304C11.7308 1.61954 11.7062 1.72746 11.7122 1.83584C11.7181 1.94421 11.7543 2.04917 11.817 2.14005C11.9532 2.35949 12.2304 2.38899 12.4752 2.39606C12.5716 2.40662 12.6693 2.3986 12.7624 2.37247C12.8485 2.3368 12.923 2.28022 12.9784 2.20848C13.2257 1.92062 13.2731 1.67051 13.0408 1.36731Z" fill="#48264C"/>
<path d="M13.041 1.36752C12.9984 1.31076 12.948 1.25959 12.8912 1.21533C12.8964 1.41028 12.8297 1.60089 12.7026 1.75454C12.5755 1.9082 12.3958 2.01535 12.1943 2.05769C12.0522 2.0872 11.9046 2.08274 11.7648 2.04471C11.7797 2.07888 11.7973 2.112 11.8172 2.14381C11.9533 2.36325 12.2306 2.39274 12.4753 2.39982C12.5718 2.41038 12.6695 2.40235 12.7625 2.37622C12.8486 2.34055 12.9232 2.28397 12.9786 2.21224C13.2258 1.92083 13.2733 1.67072 13.041 1.36752Z" fill="#300D33"/>
<path d="M13.2605 13.1105C13.2203 13.0131 13.1556 12.9264 13.0719 12.858C13.0582 12.7848 13.0407 12.7129 13.0245 12.6397C13.0232 12.6326 13.0202 12.6258 13.0158 12.6199C13.0113 12.614 13.0055 12.6091 12.9988 12.6056C12.9921 12.6021 12.9846 12.6 12.977 12.5996C12.9693 12.5992 12.9617 12.6004 12.9546 12.6032C12.8422 12.6527 12.8172 12.589 12.7398 12.5312C12.7274 12.524 12.7131 12.5202 12.6986 12.5202C12.684 12.5202 12.6697 12.524 12.6573 12.5312C12.5325 12.6114 12.4001 12.4215 12.3027 12.5312C12.2457 12.6139 12.1827 12.6927 12.1141 12.7671C12.0331 12.8156 11.9584 12.873 11.8919 12.9382C11.844 12.9784 11.802 13.0244 11.767 13.0751C11.7529 13.0964 11.7399 13.1185 11.7283 13.1411C11.7183 13.1624 11.7095 13.1848 11.702 13.206C11.7015 13.2084 11.7015 13.2108 11.702 13.2131C11.6515 13.3672 11.6546 13.5326 11.7108 13.685C11.8057 13.9575 12.1054 14.0543 12.3739 14.1168C12.4777 14.1506 12.5877 14.1642 12.6973 14.1569C12.8021 14.1366 12.8994 14.0906 12.9795 14.0236C13.3242 13.7641 13.4391 13.4986 13.2605 13.1105Z" fill="#48264C"/>
<path d="M13.2607 13.1104C13.2288 13.0382 13.1868 12.9704 13.1358 12.9087C13.0918 13.1255 12.9692 13.3211 12.7892 13.4618C12.6092 13.6026 12.383 13.6798 12.1493 13.6803C11.984 13.6806 11.8212 13.6416 11.676 13.567C11.6839 13.607 11.6948 13.6464 11.7085 13.685C11.8034 13.9575 12.1031 14.0542 12.3716 14.1168C12.4754 14.1505 12.5854 14.1642 12.695 14.1569C12.7998 14.1366 12.8971 14.0906 12.9772 14.0236C13.3244 13.764 13.4393 13.4986 13.2607 13.1104Z" fill="#300D33"/>
<path d="M11.0028 1.1618C10.9641 1.08984 10.8642 0.932929 10.7818 0.910513C10.7393 0.899895 10.7393 0.82557 10.6981 0.818491C10.6856 0.712312 10.6344 0.601414 10.5033 0.623829C10.4733 0.623829 10.3934 0.702874 10.3622 0.658043C10.3469 0.631555 10.3221 0.611069 10.2923 0.600234C10.2311 0.577819 10.1774 0.628549 10.1424 0.667481C10.0837 0.732368 10.0088 0.636807 9.93262 0.667481C9.89616 0.687813 9.86643 0.717363 9.8468 0.752799C9.82716 0.788235 9.81839 0.828149 9.82148 0.868041C9.82148 0.87512 9.82148 0.879839 9.82148 0.886918C9.72723 0.954446 9.6432 1.03383 9.57172 1.12287C9.49442 1.22112 9.44607 1.33697 9.43159 1.45863C9.41711 1.58028 9.43703 1.70338 9.4893 1.81539C9.5992 2.0832 9.90389 2.16933 10.1749 2.21534C10.2771 2.24253 10.3839 2.25134 10.4896 2.24129C10.5926 2.21565 10.6868 2.16525 10.763 2.095C11.1015 1.81068 11.2014 1.54051 11.0028 1.1618Z" fill="#48264C"/>
<path d="M11.0029 1.16166C10.9654 1.09124 10.9189 1.02546 10.8643 0.96582C10.8331 1.18548 10.7219 1.38803 10.5499 1.53872C10.3779 1.68941 10.1557 1.77883 9.92148 1.79166C9.75706 1.7997 9.5931 1.76888 9.44446 1.70199C9.45437 1.74214 9.46731 1.78157 9.48317 1.81997C9.59306 2.08778 9.89776 2.1739 10.1687 2.21991C10.2733 2.24627 10.3822 2.25348 10.4897 2.24115C10.5927 2.21551 10.6869 2.16511 10.7631 2.09486C11.1016 1.81053 11.2015 1.54037 11.0029 1.16166Z" fill="#300D33"/>
<path d="M15.8594 2.11541C15.8207 2.02457 15.7145 1.82519 15.6196 1.79216C15.5659 1.77446 15.5684 1.6671 15.5135 1.67418C15.4385 1.68126 15.3674 1.70013 15.3087 1.63289C15.2901 1.60608 15.2696 1.58046 15.2475 1.5562C15.2353 1.54242 15.22 1.53142 15.2027 1.52406C15.1854 1.51671 15.1665 1.51317 15.1476 1.51373C15.0976 1.52199 15.0639 1.5857 15.0227 1.52907C14.964 1.45356 14.8304 1.51019 14.7829 1.56682C14.7683 1.58203 14.7553 1.59864 14.7442 1.61637C14.5444 1.60103 14.2809 1.85232 14.1773 1.9703C14.0785 2.08727 14.0128 2.22611 13.9866 2.37371C13.9604 2.52131 13.9744 2.67279 14.0274 2.81383C14.1348 3.15007 14.4882 3.27158 14.8029 3.35299C14.9229 3.39355 15.0503 3.41081 15.1775 3.40372C15.3021 3.3799 15.4174 3.32442 15.511 3.24327C15.9305 2.91765 16.0704 2.59558 15.8594 2.11541Z" fill="#48264C"/>
<path d="M15.8592 2.11514C15.8214 2.02661 15.7719 1.94296 15.7118 1.86621C15.6631 2.12701 15.5193 2.36348 15.3054 2.53459C15.0914 2.70569 14.8208 2.80063 14.5405 2.80295C14.3463 2.80171 14.1557 2.75294 13.9873 2.66137C13.9957 2.71128 14.0078 2.76056 14.0235 2.80884C14.1309 3.14508 14.4843 3.26659 14.799 3.348C14.919 3.38856 15.0464 3.40582 15.1736 3.39873C15.2982 3.37491 15.4134 3.31943 15.507 3.23828C15.9304 2.91738 16.0702 2.59531 15.8592 2.11514Z" fill="#300D33"/>
<path d="M15.6757 12.1019C15.627 11.9969 15.4984 11.768 15.3848 11.7314C15.3198 11.7114 15.3198 11.5863 15.2599 11.5934C15.1712 11.6028 15.0863 11.6252 15.0102 11.5486C14.9877 11.5173 14.9626 11.4877 14.9352 11.4601C14.9195 11.4438 14.9001 11.4312 14.8785 11.423C14.8569 11.4148 14.8336 11.4114 14.8104 11.4129C14.7504 11.4223 14.7104 11.4955 14.6568 11.4318C14.5843 11.3445 14.4257 11.4117 14.3683 11.4766C14.3511 11.4949 14.3357 11.5147 14.3221 11.5356C14.0823 11.5191 13.7689 11.814 13.6453 11.9461C13.5286 12.08 13.4514 12.2407 13.4216 12.4118C13.3917 12.5829 13.4103 12.7585 13.4754 12.9206C13.609 13.3076 14.0349 13.4433 14.4132 13.5329C14.5609 13.5805 14.7172 13.5994 14.8728 13.5884C15.0208 13.5603 15.1583 13.4955 15.2711 13.4008C15.7657 13.0256 15.928 12.6505 15.6757 12.1019Z" fill="#48264C"/>
<path d="M15.6758 12.1021C15.6295 11.9995 15.569 11.9031 15.4959 11.8154C15.4332 12.1222 15.2597 12.399 15.0051 12.5984C14.7505 12.7978 14.4306 12.9076 14.0998 12.9091C13.867 12.9094 13.6377 12.8547 13.433 12.7498C13.4429 12.8079 13.458 12.8651 13.4779 12.9209C13.6116 13.3078 14.0374 13.4435 14.4158 13.5332C14.5634 13.5808 14.7197 13.5996 14.8753 13.5886C15.0233 13.5605 15.1608 13.4958 15.2737 13.401C15.7657 13.0259 15.928 12.6507 15.6758 12.1021Z" fill="#300D33"/>
<path d="M10.0288 11.2525C10.0288 11.2525 10.3622 11.1345 10.5557 11.551C10.7493 11.9674 10.8192 12.3768 11.0128 12.5715C11.066 12.6152 11.1079 12.6698 11.1354 12.7311C11.1629 12.7924 11.1752 12.8589 11.1714 12.9254C11.1714 12.9254 10.6257 12.6434 10.4858 12.4936C10.2783 12.29 10.1006 12.0611 9.95757 11.8129C9.80023 11.5132 9.68909 11.2324 9.68909 11.2324L10.0288 11.2525Z" fill="#5F825C"/>
<path d="M9.89777 11.1791C9.89777 11.1791 9.98143 10.8523 9.52314 10.719C9.06484 10.5857 8.62403 10.5656 8.39925 10.4063C8.34663 10.361 8.28366 10.3277 8.21522 10.3091C8.14678 10.2905 8.07472 10.287 8.00464 10.299C8.00464 10.299 8.36303 10.7791 8.53661 10.8889C8.77483 11.0596 9.03603 11.1996 9.31334 11.3053C9.64552 11.4233 9.95396 11.4917 9.95396 11.4917L9.89777 11.1791Z" fill="#5F825C"/>
<path d="M9.83277 11.3388C9.83277 11.3388 10.4484 11.7541 10.4309 12.3192C10.4135 12.8843 10.4135 13.1663 10.0563 13.4813C9.69916 13.7963 9.01983 13.8139 8.66768 13.9626C8.31552 14.1112 7.89469 14.2457 7.79354 14.3283C7.69239 14.4109 7.4776 14.4947 7.16166 14.3283C6.84573 14.162 6.66216 14.1797 6.7221 13.7137C6.81171 13.114 6.96483 12.5243 7.17915 11.9535C7.35397 11.5217 7.50882 11.189 8.00333 11.0568C8.47738 10.9417 8.9783 10.9765 9.42942 11.1559C9.74037 11.3058 9.83277 11.3388 9.83277 11.3388Z" fill="#ED6366"/>
<path d="M6.79564 13.2643C7.07511 13.3634 7.37123 13.4142 7.66978 13.4141C8.89356 13.4141 9.88508 12.6012 9.88508 11.5996C9.8854 11.517 9.87872 11.4346 9.8651 11.353C9.99747 11.4533 10.4408 11.8249 10.4258 12.3063C10.4083 12.8702 10.4083 13.1534 10.0512 13.4684C9.69402 13.7834 9.01469 13.801 8.66254 13.9497C8.31039 14.0983 7.88956 14.2328 7.78841 14.3154C7.68726 14.398 7.47247 14.4818 7.15654 14.3154C6.8406 14.1491 6.65703 14.1656 6.71697 13.7008C6.7357 13.5781 6.76193 13.4282 6.79564 13.2643Z" fill="#C73A54"/>
<path d="M10.1064 12.5776C10.19 12.5883 10.21 12.4526 10.2162 12.3535C10.2226 12.3287 10.2226 12.3028 10.2162 12.278V12.2697C10.2162 12.2603 10.2025 12.2579 10.2013 12.2697C10.1984 12.2699 10.1957 12.2708 10.1933 12.2722C10.1909 12.2737 10.1889 12.2756 10.1875 12.278C10.1725 12.3098 9.99022 12.5635 10.1064 12.5776Z" fill="#E7D8C8"/>
<path d="M9.93161 12.0657C9.93277 12.0672 9.93428 12.0683 9.93601 12.0692C9.93775 12.07 9.93966 12.0704 9.9416 12.0704C9.94354 12.0704 9.94545 12.07 9.94718 12.0692C9.94892 12.0683 9.95043 12.0672 9.95159 12.0657C9.97611 12.0468 9.99597 12.0231 10.0098 11.9962C10.0236 11.9693 10.031 11.9398 10.0315 11.91C10.0382 11.8938 10.042 11.8766 10.0427 11.8592C10.043 11.8567 10.0425 11.8542 10.0414 11.852C10.0403 11.8497 10.0386 11.8478 10.0365 11.8463C10.0343 11.8449 10.0318 11.844 10.0292 11.8438C10.0266 11.8436 10.0239 11.844 10.0215 11.8451C10.0215 11.8451 10.0065 11.8451 10.0078 11.8451C9.97201 11.8695 9.94536 11.904 9.93167 11.9437C9.91798 11.9833 9.91796 12.026 9.93161 12.0657Z" fill="#E7D8C8"/>
<path d="M9.57064 11.7974C9.64307 11.8516 9.67678 11.7278 9.69551 11.6464C9.7062 11.6217 9.71375 11.596 9.71799 11.5697C9.71829 11.5667 9.71757 11.5637 9.71595 11.5611C9.71433 11.5585 9.71189 11.5565 9.70897 11.5553C9.70606 11.5542 9.70282 11.5539 9.69973 11.5546C9.69664 11.5552 9.69385 11.5568 9.69177 11.5591C9.6568 11.598 9.49946 11.7478 9.57064 11.7974Z" fill="#E7D8C8"/>
<path d="M9.52431 12.3238C9.52536 12.325 9.52669 12.326 9.5282 12.3267C9.52972 12.3274 9.53137 12.3277 9.53305 12.3277C9.53472 12.3277 9.53638 12.3274 9.53789 12.3267C9.5394 12.326 9.54074 12.325 9.54179 12.3238C9.56564 12.3019 9.5866 12.2773 9.60422 12.2506C9.64768 12.2046 9.67476 12.1468 9.68164 12.0855C9.68164 12.076 9.67165 12.0642 9.66042 12.0689L9.63794 12.0831C9.55802 12.1385 9.46312 12.2459 9.52431 12.3238Z" fill="#E7D8C8"/>
<path d="M9.64926 12.8512C9.69546 12.8784 9.72293 12.8159 9.73792 12.751C9.75834 12.7178 9.77032 12.6807 9.77288 12.6424C9.77313 12.6399 9.77268 12.6375 9.77157 12.6352C9.77047 12.6329 9.76876 12.631 9.7666 12.6295C9.76445 12.6281 9.76194 12.6272 9.75931 12.627C9.75669 12.6268 9.75404 12.6272 9.75165 12.6283H9.73667C9.73667 12.6283 9.73667 12.6283 9.73667 12.6365C9.70381 12.6684 9.67793 12.7061 9.6605 12.7474C9.64801 12.7746 9.61554 12.8335 9.64926 12.8512Z" fill="#E7D8C8"/>
<path d="M9.88521 13.1434C9.93516 13.1741 9.98761 13.1304 10.0101 13.088C10.0224 13.059 10.0316 13.029 10.0376 12.9983C10.0524 12.9746 10.0614 12.9479 10.0638 12.9204C10.0668 12.9174 10.0684 12.9134 10.0684 12.9092C10.0684 12.9051 10.0668 12.9011 10.0638 12.898V12.8898C10.0638 12.8803 10.0476 12.8709 10.0376 12.8791C9.99635 12.9075 9.80904 13.095 9.88521 13.1434Z" fill="#E7D8C8"/>
<path d="M9.40067 13.3065C9.44313 13.362 9.48434 13.3065 9.51307 13.2522C9.53067 13.2375 9.5447 13.2193 9.55418 13.1989C9.56366 13.1786 9.56838 13.1565 9.56801 13.1343C9.56796 13.1322 9.56738 13.1301 9.56632 13.1283C9.56525 13.1265 9.56374 13.1249 9.5619 13.1238C9.56006 13.1226 9.55795 13.1219 9.55576 13.1217C9.55356 13.1214 9.55134 13.1217 9.54928 13.1225C9.49059 13.1437 9.34823 13.2381 9.40067 13.3065Z" fill="#E7D8C8"/>
<path d="M9.16588 12.6236C9.20208 12.5823 9.2441 12.5457 9.29076 12.5151C9.2933 12.5132 9.29639 12.512 9.29964 12.5118C9.30289 12.5115 9.30614 12.5122 9.30897 12.5137C9.31179 12.5153 9.31407 12.5176 9.3155 12.5203C9.31693 12.5231 9.31744 12.5262 9.31698 12.5292C9.31567 12.5468 9.31101 12.564 9.30324 12.58V12.5977C9.2969 12.647 9.27517 12.6934 9.24081 12.731C9.21458 12.7593 9.15339 12.7735 9.12842 12.731C9.10344 12.6885 9.1434 12.6437 9.16588 12.6236Z" fill="#E7D8C8"/>
<path d="M9.09614 12.2072C9.10613 12.2438 9.15608 12.2403 9.18105 12.2214C9.19776 12.2071 9.21133 12.1899 9.22101 12.1707C9.24422 12.1438 9.25816 12.1109 9.26097 12.0763C9.26109 12.0737 9.26054 12.071 9.25937 12.0687C9.2582 12.0663 9.25644 12.0642 9.25424 12.0626C9.25204 12.0609 9.24946 12.0598 9.24673 12.0594C9.24399 12.0589 9.24117 12.059 9.2385 12.0598C9.20296 12.073 9.17128 12.094 9.14609 12.1211C9.12361 12.1412 9.08615 12.1742 9.09614 12.2072Z" fill="#E7D8C8"/>
<path d="M9.311 11.3259C9.31515 11.3247 9.31962 11.325 9.32354 11.3268C9.32746 11.3285 9.33056 11.3316 9.33223 11.3354C9.34163 11.3705 9.34003 11.4075 9.32762 11.4419C9.3152 11.4762 9.29251 11.5064 9.2623 11.5288C9.25995 11.5305 9.25723 11.5316 9.25436 11.532C9.25148 11.5325 9.24853 11.5323 9.24574 11.5315C9.24296 11.5307 9.2404 11.5293 9.23829 11.5274C9.23618 11.5255 9.23456 11.5232 9.23357 11.5206C9.22976 11.5123 9.22724 11.5036 9.22608 11.4946C9.21467 11.4616 9.21711 11.4257 9.23291 11.3943C9.24871 11.3629 9.27666 11.3384 9.311 11.3259Z" fill="#E7D8C8"/>
<path d="M8.87993 11.9746C8.91739 12.0041 8.94861 11.9746 8.97109 11.9275C8.99963 11.9006 9.02062 11.8674 9.03218 11.831C9.04374 11.7945 9.04549 11.7559 9.03727 11.7186C9.03558 11.7153 9.0329 11.7126 9.02958 11.7107C9.02625 11.7088 9.02242 11.7079 9.01854 11.708C8.96234 11.7151 8.91489 11.7894 8.89366 11.826C8.87243 11.8626 8.83247 11.9393 8.87993 11.9746Z" fill="#E7D8C8"/>
<path d="M8.86619 11.297C8.87344 11.2886 8.88138 11.2807 8.88991 11.2734C8.89272 11.2716 8.89599 11.2704 8.8994 11.2701C8.90281 11.2698 8.90624 11.2703 8.90938 11.2716C8.91251 11.2729 8.91524 11.275 8.9173 11.2775C8.91936 11.2801 8.92068 11.2832 8.92113 11.2864C8.92465 11.3137 8.92153 11.3413 8.91201 11.3673C8.90248 11.3933 8.88681 11.4168 8.86619 11.4362C8.86641 11.4394 8.86641 11.4425 8.86619 11.4457C8.86238 11.4529 8.85667 11.4591 8.84961 11.4637C8.84254 11.4682 8.83435 11.471 8.82583 11.4717C8.8173 11.4724 8.80873 11.471 8.80093 11.4677C8.79312 11.4644 8.78635 11.4592 8.78127 11.4527C8.72757 11.4008 8.80375 11.3253 8.86619 11.297Z" fill="#E7D8C8"/>
<path d="M8.44179 11.7291C8.46674 11.6802 8.50623 11.6392 8.55543 11.6111C8.55826 11.6091 8.56166 11.608 8.56518 11.6079C8.56869 11.6078 8.57216 11.6087 8.57513 11.6105C8.5781 11.6123 8.58042 11.6149 8.58181 11.6179C8.5832 11.621 8.58358 11.6243 8.5829 11.6276C8.58136 11.6496 8.57587 11.6711 8.56666 11.6913C8.56666 11.6984 8.56666 11.7055 8.56666 11.7114C8.56397 11.7375 8.5581 11.7632 8.54918 11.7881C8.54116 11.8121 8.52375 11.8323 8.50048 11.8447C8.49875 11.8476 8.49622 11.8501 8.49315 11.8518C8.49007 11.8535 8.48657 11.8544 8.483 11.8544C8.47943 11.8544 8.47593 11.8535 8.47285 11.8518C8.46978 11.8501 8.46724 11.8476 8.46552 11.8447C8.41682 11.8199 8.4318 11.7586 8.44179 11.7291Z" fill="#E7D8C8"/>
<path d="M8.35302 11.4437C8.35506 11.445 8.35745 11.4457 8.35989 11.4457C8.36233 11.4457 8.36472 11.445 8.36676 11.4437C8.38341 11.4287 8.39886 11.4125 8.41296 11.3953C8.44449 11.3705 8.47112 11.3405 8.49164 11.3069C8.50018 11.2921 8.50367 11.2752 8.50163 11.2585V11.2502C8.50163 11.242 8.50163 11.2361 8.48914 11.2396C8.48449 11.2343 8.47854 11.2301 8.47179 11.2274C8.46505 11.2248 8.45771 11.2237 8.45043 11.2243C8.36676 11.2255 8.27934 11.3859 8.35302 11.4437Z" fill="#E7D8C8"/>
<path d="M7.84842 11.5913C7.8734 11.6361 7.93209 11.5913 7.95332 11.5665C7.98734 11.5294 8.01095 11.4848 8.022 11.4368C8.03073 11.4207 8.03543 11.4029 8.03574 11.3849C8.03612 11.3822 8.03588 11.3796 8.03503 11.3771C8.03418 11.3745 8.03274 11.3722 8.03082 11.3703C8.02891 11.3684 8.02656 11.3669 8.02395 11.3659C8.02135 11.365 8.01855 11.3646 8.01576 11.3648C7.98659 11.3687 7.9589 11.3794 7.93515 11.3958C7.9114 11.4123 7.89233 11.4341 7.87964 11.4592C7.85841 11.4934 7.82595 11.5512 7.84842 11.5913Z" fill="#E7D8C8"/>
<path d="M7.9722 12.0657C7.98719 12.1022 8.02715 12.0845 8.04213 12.0657C8.05712 12.0468 8.05587 12.0409 8.06211 12.0291C8.08683 12.0036 8.10436 11.9726 8.11308 11.939C8.12181 11.9054 8.12146 11.8702 8.11207 11.8368C8.1112 11.8345 8.1098 11.8325 8.10796 11.8309C8.10611 11.8292 8.10389 11.828 8.10146 11.8273C8.09904 11.8266 8.09647 11.8265 8.09398 11.8269C8.09148 11.8273 8.08912 11.8283 8.08709 11.8297C8.0521 11.8597 8.02477 11.8968 8.00717 11.9382C7.99218 11.9689 7.95472 12.0232 7.9722 12.0657Z" fill="#E7D8C8"/>
<path d="M8.48017 12.2693C8.49352 12.21 8.52843 12.157 8.57882 12.1195C8.58103 12.1173 8.58385 12.1157 8.58697 12.1148C8.5901 12.114 8.59339 12.1141 8.5965 12.1149C8.59961 12.1158 8.6024 12.1174 8.60457 12.1197C8.60674 12.122 8.60821 12.1248 8.6088 12.1278C8.61089 12.1497 8.60791 12.1719 8.60005 12.1927C8.59693 12.2187 8.58633 12.2435 8.56938 12.2643C8.55243 12.2851 8.52979 12.3011 8.5039 12.3106H8.49141C8.48836 12.311 8.48526 12.3107 8.48234 12.3098C8.47943 12.3089 8.47678 12.3073 8.4746 12.3053C8.47243 12.3032 8.47078 12.3007 8.4698 12.298C8.46882 12.2952 8.46852 12.2923 8.46893 12.2894L8.48017 12.2693Z" fill="#E7D8C8"/>
<path d="M8.84496 12.4087C8.84756 12.407 8.85054 12.4061 8.85364 12.4058C8.85673 12.4056 8.85984 12.4061 8.86269 12.4072C8.86554 12.4084 8.86804 12.4102 8.86995 12.4125C8.87187 12.4148 8.87315 12.4176 8.87368 12.4205C8.87368 12.4205 8.87368 12.4205 8.87368 12.4287C8.87368 12.4948 8.82498 12.601 8.74881 12.6069C8.74674 12.6072 8.74463 12.6071 8.74259 12.6066C8.74056 12.6061 8.73866 12.6053 8.73701 12.604C8.73537 12.6028 8.73401 12.6013 8.73303 12.5995C8.73205 12.5978 8.73147 12.5959 8.73132 12.5939C8.73347 12.5567 8.74488 12.5206 8.76463 12.4884C8.78438 12.4562 8.8119 12.4289 8.84496 12.4087Z" fill="#E7D8C8"/>
<path d="M8.41654 12.6232C8.43218 12.6085 8.44982 12.5958 8.46899 12.5854C8.47898 12.5854 8.49646 12.5854 8.49646 12.5961C8.49397 12.6433 8.47358 12.6881 8.43902 12.7223C8.42471 12.7441 8.40384 12.7613 8.37908 12.7718C8.37576 12.773 8.37209 12.7729 8.36883 12.7716C8.36557 12.7703 8.36298 12.7678 8.36159 12.7648C8.36159 12.7648 8.36159 12.7565 8.36159 12.7518C8.36089 12.7487 8.36089 12.7455 8.36159 12.7424C8.3574 12.7196 8.36037 12.6962 8.37013 12.675C8.3799 12.6538 8.39604 12.6358 8.41654 12.6232Z" fill="#E7D8C8"/>
<path d="M8.08839 12.292C8.0935 12.2917 8.09854 12.2932 8.10249 12.2963C8.10644 12.2994 8.109 12.3038 8.10962 12.3086C8.11149 12.3187 8.11149 12.3291 8.10962 12.3392C8.11198 12.3564 8.11029 12.3739 8.10468 12.3904C8.09907 12.4069 8.08967 12.4221 8.07715 12.4348C8.0605 12.4635 8.03473 12.4866 8.00347 12.5009C7.99598 12.5009 7.98724 12.5009 7.98349 12.4926C7.95602 12.4312 7.99848 12.2909 8.08839 12.292Z" fill="#E7D8C8"/>
<path d="M7.52519 12.2177C7.52603 12.2202 7.52739 12.2224 7.52918 12.2244C7.53097 12.2263 7.53316 12.2279 7.53562 12.229C7.53807 12.2301 7.54074 12.2307 7.54346 12.2308C7.54617 12.2309 7.54888 12.2304 7.55142 12.2295C7.59011 12.2124 7.62141 12.1833 7.64006 12.147C7.6587 12.1107 7.66356 12.0694 7.65381 12.0301C7.65264 12.0277 7.65093 12.0255 7.64879 12.0237C7.64666 12.022 7.64415 12.0206 7.64143 12.0199C7.63871 12.0191 7.63585 12.0189 7.63303 12.0192C7.63021 12.0195 7.62751 12.0205 7.62509 12.0219C7.59685 12.0406 7.57304 12.0648 7.55516 12.0927C7.54019 12.1099 7.52969 12.1301 7.52448 12.1518C7.51928 12.1735 7.51952 12.1961 7.52519 12.2177Z" fill="#E7D8C8"/>
<path d="M7.57984 12.6732C7.57965 12.6489 7.58655 12.6251 7.59976 12.6042C7.61298 12.5834 7.63201 12.5665 7.65476 12.5552C7.65754 12.554 7.66057 12.5536 7.6636 12.5538C7.66663 12.554 7.66956 12.5549 7.67214 12.5564C7.67472 12.5579 7.67687 12.5599 7.67841 12.5624C7.67995 12.5649 7.68084 12.5677 7.68099 12.5705C7.68439 12.594 7.68187 12.6179 7.67362 12.6402C7.66537 12.6626 7.65163 12.6828 7.63353 12.6991C7.62815 12.7062 7.62136 12.7122 7.61355 12.7168C7.61119 12.718 7.60859 12.7188 7.60591 12.719C7.60323 12.7193 7.60052 12.719 7.59795 12.7182C7.59539 12.7175 7.59301 12.7162 7.59097 12.7145C7.58893 12.7129 7.58727 12.7108 7.58608 12.7086C7.5855 12.7073 7.5852 12.7059 7.5852 12.7044C7.5852 12.703 7.5855 12.7016 7.58608 12.7003C7.58269 12.6916 7.58059 12.6824 7.57984 12.6732Z" fill="#E7D8C8"/>
<path d="M8.72387 12.8443C8.7261 12.8441 8.72835 12.8444 8.73047 12.8451C8.73258 12.8458 8.73452 12.8469 8.73616 12.8483C8.73781 12.8498 8.73912 12.8515 8.74001 12.8535C8.7409 12.8554 8.74136 12.8575 8.74135 12.8596C8.74121 12.8911 8.73163 12.9218 8.71373 12.9484C8.69583 12.9749 8.67033 12.9961 8.6402 13.0095C8.63613 13.0106 8.63178 13.0106 8.62771 13.0095H8.61023C8.60823 13.0098 8.60617 13.0097 8.6042 13.0092C8.60224 13.0087 8.60041 13.0078 8.59886 13.0066C8.5973 13.0054 8.59606 13.0038 8.59522 13.0021C8.59438 13.0003 8.59396 12.9984 8.594 12.9965C8.60086 12.963 8.61628 12.9317 8.63892 12.9051C8.66155 12.8786 8.69072 12.8577 8.72387 12.8443Z" fill="#E7D8C8"/>
<path d="M8.85621 13.1733C8.85582 13.1765 8.85629 13.1797 8.85756 13.1826C8.85883 13.1856 8.86087 13.1882 8.86349 13.1902C8.8661 13.1922 8.86921 13.1935 8.87253 13.1941C8.87584 13.1946 8.87925 13.1944 8.88244 13.1934H8.89118C8.89303 13.1945 8.8952 13.1952 8.89742 13.1952C8.89964 13.1952 8.90182 13.1945 8.90367 13.1934L8.91241 13.1851C8.93666 13.1691 8.95723 13.1486 8.97289 13.1249C8.98856 13.1012 8.99899 13.0747 9.00357 13.0471C9.00403 13.0444 9.00371 13.0416 9.00265 13.039C9.00158 13.0365 8.99981 13.0342 8.99751 13.0325C8.99521 13.0308 8.99247 13.0298 8.98958 13.0294C8.9867 13.0291 8.98376 13.0295 8.98109 13.0306C8.94115 13.0481 8.90798 13.077 8.88618 13.1131C8.87198 13.1311 8.86178 13.1515 8.85621 13.1733Z" fill="#E7D8C8"/>
<path d="M8.78249 13.5887C8.79833 13.5572 8.82136 13.5294 8.84993 13.5073C8.86206 13.4947 8.87544 13.4833 8.88989 13.4731C8.89395 13.4718 8.89832 13.4718 8.90238 13.4731C8.90492 13.4712 8.90801 13.47 8.91126 13.4698C8.91451 13.4695 8.91776 13.4702 8.92059 13.4717C8.92342 13.4733 8.92569 13.4756 8.92712 13.4783C8.92855 13.4811 8.92907 13.4842 8.9286 13.4873C8.92378 13.5152 8.91047 13.5412 8.8903 13.5622C8.87013 13.5831 8.84396 13.5981 8.81496 13.6052H8.80497C8.80235 13.6069 8.79924 13.6077 8.79609 13.6076C8.79293 13.6075 8.78989 13.6065 8.7874 13.6047C8.78491 13.6028 8.78309 13.6003 8.78221 13.5974C8.78133 13.5946 8.78143 13.5915 8.78249 13.5887Z" fill="#E7D8C8"/>
<path d="M8.37789 13.3857C8.379 13.3686 8.38405 13.3519 8.39267 13.3369C8.4013 13.3218 8.4133 13.3087 8.42784 13.2984C8.44714 13.2796 8.47122 13.2658 8.49777 13.2583C8.50901 13.2583 8.52399 13.2583 8.52399 13.2725C8.52203 13.306 8.5089 13.3381 8.48647 13.3642C8.46404 13.3902 8.43347 13.4089 8.39912 13.4176C8.39649 13.4179 8.39382 13.4177 8.39126 13.4171C8.3887 13.4164 8.38631 13.4153 8.38422 13.4138C8.38213 13.4122 8.38038 13.4103 8.37908 13.4081C8.37778 13.4059 8.37695 13.4035 8.37664 13.4011C8.37542 13.4001 8.37445 13.3989 8.37383 13.3975C8.37321 13.3961 8.37295 13.3946 8.37308 13.3931C8.3732 13.3916 8.3737 13.3901 8.37454 13.3889C8.37537 13.3876 8.37652 13.3865 8.37789 13.3857Z" fill="#E7D8C8"/>
<path d="M8.0896 12.9022H8.09959C8.10361 12.9007 8.10795 12.9001 8.11225 12.9005C8.11655 12.9009 8.12069 12.9022 8.12434 12.9044C8.12799 12.9066 8.13104 12.9096 8.13325 12.9131C8.13546 12.9166 8.13676 12.9205 8.13705 12.9246C8.12956 12.9848 8.07587 13.0626 8.01218 13.0662C8.00219 13.0662 7.98845 13.0591 7.9897 13.0485C7.98921 13.0175 7.99843 12.9871 8.01621 12.961C8.03399 12.935 8.05952 12.9145 8.0896 12.9022Z" fill="#E7D8C8"/>
<path d="M7.88718 13.4492C7.9125 13.4142 7.94871 13.3874 7.99083 13.3725C7.99408 13.3713 7.99764 13.3708 8.00113 13.3713C8.00463 13.3717 8.00794 13.373 8.01073 13.375C8.01352 13.3771 8.01569 13.3798 8.01702 13.3829C8.01835 13.3859 8.01879 13.3893 8.0183 13.3926C7.99517 13.4613 7.94515 13.5191 7.87844 13.5542C7.87562 13.5564 7.87224 13.5578 7.86866 13.5582C7.86507 13.5587 7.86142 13.5583 7.85808 13.5569C7.85475 13.5556 7.85186 13.5534 7.84972 13.5507C7.84759 13.5479 7.84629 13.5447 7.84597 13.5412C7.84474 13.5239 7.84782 13.5066 7.85498 13.4906C7.86214 13.4746 7.87317 13.4605 7.88718 13.4492Z" fill="#E7D8C8"/>
<path d="M7.55741 13.0716C7.55833 13.0478 7.56541 13.0246 7.57804 13.0041C7.59067 12.9835 7.60846 12.9662 7.62984 12.9536C7.63983 12.9536 7.65856 12.9536 7.66231 12.9619C7.66689 12.9931 7.66191 13.0249 7.64797 13.0535C7.63403 13.0822 7.61171 13.1065 7.58364 13.1235C7.58008 13.1262 7.57575 13.1278 7.57122 13.1281C7.56668 13.1284 7.56215 13.1274 7.55823 13.1252C7.55431 13.1231 7.55117 13.1198 7.54924 13.1159C7.54731 13.112 7.54668 13.1077 7.54742 13.1034C7.55006 13.0926 7.55339 13.082 7.55741 13.0716Z" fill="#E7D8C8"/>
<path d="M7.24293 12.705C7.24698 12.691 7.25574 12.6786 7.2679 12.6696L7.27539 12.6614C7.28413 12.6508 7.30786 12.6543 7.30786 12.6696C7.307 12.6954 7.29834 12.7204 7.28289 12.7416C7.28204 12.7571 7.2777 12.7723 7.27017 12.7862C7.26263 12.8 7.25207 12.8121 7.23918 12.8218C7.23681 12.8233 7.23409 12.8241 7.23127 12.8242C7.22846 12.8244 7.22566 12.8238 7.22314 12.8226C7.22062 12.8215 7.21847 12.8197 7.2169 12.8174C7.21534 12.8152 7.21441 12.8127 7.21421 12.81C7.211 12.773 7.22112 12.736 7.24293 12.705Z" fill="#E7D8C8"/>
<path d="M7.55388 11.6856L7.57011 11.6655C7.57885 11.6573 7.59883 11.6655 7.59883 11.6738C7.60117 11.6973 7.59778 11.721 7.5889 11.7431C7.58003 11.7652 7.56591 11.7851 7.54763 11.8012V11.8083C7.54572 11.81 7.54335 11.8112 7.54077 11.8118C7.5382 11.8124 7.5355 11.8123 7.53296 11.8116C7.53042 11.8109 7.52813 11.8096 7.52632 11.8077C7.52451 11.8059 7.52325 11.8036 7.52266 11.8012C7.52142 11.7938 7.52142 11.7862 7.52266 11.7788C7.51759 11.7621 7.51786 11.7443 7.52341 11.7277C7.52896 11.7112 7.53956 11.6965 7.55388 11.6856Z" fill="#E7D8C8"/>
<path d="M7.40391 13.63C7.40521 13.6322 7.40711 13.634 7.40941 13.6353C7.41172 13.6366 7.41435 13.6373 7.41702 13.6373C7.4197 13.6373 7.42233 13.6366 7.42463 13.6353C7.42694 13.634 7.42884 13.6322 7.43013 13.63L7.44012 13.6194C7.46542 13.6007 7.4862 13.5772 7.50106 13.5503C7.51592 13.5234 7.52452 13.4939 7.52629 13.4636C7.52661 13.4603 7.52594 13.457 7.52436 13.4541C7.52279 13.4511 7.52036 13.4486 7.51737 13.4469C7.51438 13.4452 7.51094 13.4443 7.50744 13.4443C7.50394 13.4444 7.50052 13.4453 7.49757 13.4471C7.44387 13.4837 7.38018 13.5674 7.40391 13.63Z" fill="#E7D8C8"/>
<path d="M7.10555 13.3822C7.10861 13.3667 7.11694 13.3527 7.12928 13.3421C7.13408 13.3343 7.13996 13.3272 7.14676 13.3209C7.14861 13.3184 7.15105 13.3164 7.15387 13.3151C7.15669 13.3137 7.15982 13.313 7.16299 13.313C7.16617 13.313 7.16929 13.3137 7.17212 13.3151C7.17494 13.3164 7.17738 13.3184 7.17922 13.3209C7.18914 13.3468 7.18914 13.3752 7.17922 13.4011C7.17262 13.4277 7.15785 13.4519 7.13677 13.4707C7.13474 13.4721 7.13238 13.4731 7.12989 13.4735C7.12739 13.4739 7.12483 13.4738 7.1224 13.4731C7.11997 13.4724 7.11775 13.4712 7.11591 13.4695C7.11407 13.4679 7.11266 13.4659 7.1118 13.4636C7.10454 13.4513 7.10022 13.4376 7.09914 13.4236C7.09807 13.4095 7.10025 13.3954 7.10555 13.3822Z" fill="#E7D8C8"/>
<path d="M7.15673 13.7843C7.15942 13.7824 7.16262 13.7812 7.16598 13.7809C7.16934 13.7805 7.17274 13.781 7.17581 13.7824C7.17888 13.7837 7.18151 13.7858 7.18343 13.7884C7.18535 13.7911 7.18648 13.7941 7.1867 13.7973C7.18986 13.8257 7.18648 13.8545 7.17678 13.8816C7.16708 13.9087 7.15129 13.9334 7.1305 13.9542C7.1305 13.9542 7.1305 13.9613 7.1305 13.9637C7.12927 13.9664 7.12719 13.9688 7.12452 13.9705C7.12186 13.9722 7.11872 13.9731 7.11552 13.9731C7.11231 13.9731 7.10918 13.9722 7.10651 13.9705C7.10385 13.9688 7.10176 13.9664 7.10053 13.9637C7.09222 13.9317 7.09304 13.8983 7.10291 13.8668C7.11279 13.8353 7.13136 13.8068 7.15673 13.7843Z" fill="#E7D8C8"/>
<path d="M7.61739 13.9578C7.62158 13.9566 7.62604 13.9568 7.6301 13.9583C7.63416 13.9598 7.63759 13.9625 7.63987 13.966C7.64121 13.9679 7.64193 13.9702 7.64193 13.9725C7.64193 13.9748 7.64121 13.9771 7.63987 13.979C7.64028 13.9817 7.64028 13.9845 7.63987 13.9872C7.63973 14.0102 7.63389 14.0329 7.62283 14.0534C7.61178 14.0739 7.5958 14.0916 7.57618 14.1052C7.57392 14.1069 7.57128 14.108 7.56847 14.1086C7.56566 14.1091 7.56275 14.109 7.55998 14.1084C7.5572 14.1077 7.55463 14.1064 7.55246 14.1046C7.55029 14.1029 7.54858 14.1006 7.54746 14.0981C7.54688 14.0958 7.54688 14.0934 7.54746 14.0911C7.54516 14.0913 7.54284 14.091 7.54068 14.0902C7.53852 14.0894 7.53658 14.0882 7.53501 14.0866C7.53344 14.085 7.53228 14.0831 7.53162 14.081C7.53097 14.0789 7.53083 14.0767 7.53123 14.0745C7.53442 14.0499 7.54394 14.0264 7.55896 14.006C7.57398 13.9857 7.59404 13.9691 7.61739 13.9578Z" fill="#E7D8C8"/>
<path d="M8.21193 13.6733C8.21452 13.6717 8.2175 13.6707 8.2206 13.6705C8.2237 13.6702 8.22681 13.6707 8.22966 13.6719C8.23251 13.673 8.235 13.6749 8.23692 13.6772C8.23884 13.6795 8.24012 13.6822 8.24065 13.6851C8.24188 13.7209 8.23202 13.7563 8.21228 13.7869C8.19254 13.8175 8.16377 13.842 8.1295 13.8574C8.12347 13.8595 8.1168 13.8595 8.11077 13.8574L8.09579 13.8668C8.09356 13.8675 8.09117 13.8678 8.08883 13.8675C8.08648 13.8672 8.08425 13.8664 8.0823 13.8651C8.08035 13.8638 8.07874 13.8622 8.07762 13.8602C8.07649 13.8582 8.07587 13.856 8.07581 13.8538C8.08111 13.8155 8.0963 13.779 8.12004 13.7475C8.14377 13.716 8.17532 13.6906 8.21193 13.6733Z" fill="#E7D8C8"/>
<path d="M9.22571 13.5918C9.2283 13.5863 9.23166 13.5811 9.2357 13.5764C9.2337 13.5679 9.2337 13.559 9.2357 13.5505C9.24978 13.5248 9.27268 13.5044 9.30064 13.4927C9.31063 13.4927 9.32436 13.4927 9.32811 13.4998C9.33308 13.5163 9.33308 13.5339 9.32811 13.5505C9.32416 13.5697 9.31272 13.5867 9.29607 13.5983C9.27941 13.6099 9.25876 13.6151 9.2382 13.613C9.2338 13.6114 9.23014 13.6084 9.22786 13.6045C9.22557 13.6007 9.22481 13.5961 9.22571 13.5918Z" fill="#E7D8C8"/>
</g>
<defs>
<clipPath id="clip0_414_9176">
<rect width="24" height="16" fill="white"/>
</clipPath>
</defs>
</svg>
