<svg width="27" height="17" viewBox="0 0 27 17" fill="none" xmlns="http://www.w3.org/2000/svg">
<path fill-rule="evenodd" clip-rule="evenodd" d="M24.9834 13.8975C24.9834 15.0191 19.8854 16.2487 14.4781 16.2487C9.07081 16.2487 4.64966 14.2996 4.64966 13.178C4.64966 12.0564 9.78765 11.8677 15.1936 11.8677C20.5995 11.8677 24.9834 12.7759 24.9834 13.8975Z" fill="#E2CAB3"/>
<path fill-rule="evenodd" clip-rule="evenodd" d="M25.8202 15.0427C25.8354 15.6418 24.5329 16.1615 22.91 16.2026C21.2871 16.2436 19.9584 15.7922 19.9432 15.1918C19.9281 14.5913 21.2305 14.0729 22.8534 14.0319C24.4763 13.9909 25.805 14.4422 25.8202 15.0427Z" fill="#E2CAB3"/>
<path fill-rule="evenodd" clip-rule="evenodd" d="M2.19108 10.7791C1.32646 12.8089 2.37892 13.8717 3.78082 14.0468C4.33329 14.1151 5.16199 13.7363 5.77524 13.4996C6.2742 13.2802 6.7479 13.0082 7.18818 12.6885C7.39674 12.4765 7.64259 12.1879 7.69232 11.8679C7.699 11.7442 7.6723 11.621 7.61497 11.5109C7.63056 11.4647 7.6534 11.4214 7.68265 11.3823C7.75723 11.2455 7.55558 11.1402 7.6564 10.987C7.81662 10.7422 7.6053 10.4782 7.50171 10.2607C7.46718 10.1909 6.57632 9.40719 6.53489 9.33196C5.79181 8.55369 5.59154 8.18712 4.56947 8.02708C3.28635 7.82465 2.04191 8.28833 2.19108 10.7791Z" fill="#5F825C"/>
<g style="mix-blend-mode:multiply" opacity="0.4">
<path fill-rule="evenodd" clip-rule="evenodd" d="M2.6552 10.0295C2.8016 10.0473 2.87342 10.4399 2.81265 10.9104C2.75188 11.3809 2.58614 11.742 2.43835 11.7242C2.29057 11.7065 2.22151 11.3139 2.2809 10.8434C2.34029 10.3729 2.50051 10.0104 2.6552 10.0295Z" fill="#5F825C"/>
</g>
<path fill-rule="evenodd" clip-rule="evenodd" d="M2.79322 12.2303C2.47969 12.3671 2.50869 12.7679 2.63576 13.0278C2.63888 13.0319 2.64122 13.0365 2.64267 13.0414C2.67251 13.1013 2.70961 13.1573 2.75316 13.2083C2.90708 13.4024 3.11949 13.5428 3.3595 13.6091C3.6606 13.6843 4.00589 13.6337 4.17992 13.3971C4.18418 13.3898 4.1911 13.3844 4.19926 13.382V13.3519C4.16058 13.1987 3.92302 13.1686 3.79595 13.1495C3.51972 13.1071 3.43823 12.8664 3.35398 12.6434C3.26972 12.4205 3.06945 12.1045 2.79322 12.2303Z" fill="#8DB54F"/>
<g style="mix-blend-mode:multiply" opacity="0.4">
<path fill-rule="evenodd" clip-rule="evenodd" d="M5.63011 9.21556C5.37459 9.35234 5.61215 9.66146 5.73508 9.80782C6.01131 10.147 6.38975 10.3905 6.62041 10.7762C6.85107 11.1619 6.54997 11.7597 6.91875 12.0852C6.93652 12.1009 6.95728 12.113 6.97981 12.1207C7.00234 12.1284 7.0262 12.1315 7.04998 12.13C7.07376 12.1285 7.097 12.1223 7.11834 12.1118C7.13968 12.1013 7.15869 12.0866 7.17427 12.0688C7.19042 12.0429 7.20253 12.0148 7.21018 11.9853C7.25506 11.9286 7.29007 11.8648 7.31376 11.7966C7.3759 11.5826 7.36768 11.3546 7.29028 11.1455C7.23227 10.9581 7.36211 10.7762 7.30548 10.5888C7.27953 10.519 7.23798 10.4559 7.18393 10.4042C7.12728 10.3391 7.06227 10.2816 6.99057 10.2332C6.85688 10.1231 6.73346 10.0013 6.62179 9.86937C6.48803 9.71238 6.34111 9.56687 6.18258 9.43441C6.01546 9.27711 5.79861 9.12392 5.63011 9.21556Z" fill="#5F825C"/>
</g>
<path fill-rule="evenodd" clip-rule="evenodd" d="M2.4259 10.9049C2.28778 10.8816 2.20076 10.8269 1.75464 10.7175C1.30852 10.6081 1.08201 10.5834 1.01295 10.5424C0.94389 10.5014 1.13726 10.2866 1.13726 10.2866C1.13726 10.2866 1.4715 10.4138 1.74636 10.515C2.02121 10.6163 2.52396 10.7503 2.52396 10.7503C2.52396 10.7503 2.60269 10.7941 2.57092 10.8652C2.53915 10.9363 2.4259 10.9049 2.4259 10.9049Z" fill="#300D33"/>
<path fill-rule="evenodd" clip-rule="evenodd" d="M25.8591 6.95083C25.4848 7.037 25.1685 7.26132 24.779 7.28047C24.3646 7.30099 23.9503 7.13001 23.5456 7.05205C22.6658 6.88244 21.7653 6.78806 20.8758 6.69095C19.0803 6.49399 17.2612 6.40919 15.4588 6.20402C13.6564 5.99885 11.8677 5.76495 10.0639 5.77316C9.19491 5.77532 8.32766 5.85036 7.47144 5.99748C6.76566 6.11921 6.04745 6.26146 5.4563 6.68138C5.00133 7.01281 4.65846 7.47301 4.4729 8.0013C4.23258 8.64417 5.50188 12.5807 5.69387 12.8392C7.36233 15.0277 10.1634 15.5064 14.7724 15.4148C19.6976 15.3163 21.6009 14.7733 22.9959 13.5532C23.7459 12.898 24.3771 11.2129 24.4903 10.8832C24.6823 10.3019 24.895 9.72883 25.0939 9.15025C25.2196 8.78368 25.3508 8.42121 25.5083 8.06696C25.6749 7.73414 25.8135 7.38828 25.9226 7.0329C25.9258 7.02322 25.9265 7.01294 25.9247 7.00292C25.923 6.99291 25.9188 6.98346 25.9125 6.9754C25.9063 6.96733 25.8982 6.96088 25.8889 6.95661C25.8796 6.95233 25.8693 6.95035 25.8591 6.95083Z" fill="#DA840D"/>
<path fill-rule="evenodd" clip-rule="evenodd" d="M25.1131 7.22012C24.4847 7.65782 23.58 7.6756 22.8438 7.81922C21.0262 8.17485 19.2141 8.41968 17.3592 8.37591C15.5443 8.33488 13.7281 8.12287 11.9201 7.97515C10.0721 7.82469 8.21992 7.71663 6.36638 7.80007C5.95691 7.8149 5.55071 7.87827 5.15646 7.98883C4.95481 8.04627 4.65371 8.12561 4.55289 8.33078C4.52802 8.38402 4.51439 8.44174 4.51283 8.50038V8.50996C4.42168 8.81361 4.52803 9.06802 4.633 9.33747C4.65786 9.451 4.68548 9.56453 4.71172 9.67806C4.66476 9.67806 4.65786 9.74918 4.71172 9.75055H4.72692C4.73262 9.75695 4.73963 9.76208 4.74749 9.76559C4.75535 9.76911 4.76387 9.77092 4.7725 9.77092C4.78112 9.77092 4.78964 9.76911 4.7975 9.76559C4.80536 9.76208 4.81237 9.75695 4.81807 9.75055C5.14403 9.75055 5.46723 9.69037 5.79457 9.68216C6.28627 9.66848 6.70338 9.91742 7.13293 10.1226C7.90363 10.4864 8.63151 10.9118 9.41188 11.2346C9.76005 11.3789 10.1182 11.4982 10.4837 11.5916C10.848 11.6692 11.2171 11.7231 11.5886 11.753C11.9836 11.8036 12.3745 11.8898 12.7681 11.9431C13.209 11.9949 13.6535 12.009 14.0968 11.9855C15.8574 11.9548 17.6126 11.7833 19.3453 11.4726C20.9199 11.1799 22.4944 10.7395 23.8659 9.89827C24.4082 9.57177 24.8675 9.12627 25.2084 8.59613C25.3659 8.35129 25.4999 8.08731 25.6463 7.83563C25.754 7.64824 25.8838 7.42529 25.8645 7.20781C25.8327 6.73456 25.3065 7.08745 25.1131 7.22012Z" fill="#C66720"/>
<path opacity="0.4" fill-rule="evenodd" clip-rule="evenodd" d="M14.5223 14.4957C7.68546 15.4531 5.63855 12.7271 5.70071 12.8078C7.36917 14.9963 10.1716 15.475 14.7792 15.3834C19.7045 15.2863 21.7058 14.7104 23.1022 13.4904C23.8094 12.8707 24.5925 10.5852 24.7486 10.1406C21.3274 12.9282 20.3509 13.675 14.5223 14.4957Z" fill="#C66720"/>
<path fill-rule="evenodd" clip-rule="evenodd" d="M26.9943 4.72117C26.9156 4.24108 26.1656 4.17406 25.7954 4.03728C25.4681 3.91691 25.243 3.62694 24.9764 3.40946C24.6887 3.17396 24.3688 2.98008 24.0261 2.83361C23.2458 2.49987 22.464 2.23315 21.7527 1.76126C21.098 1.32493 20.2942 1.26885 19.5428 1.14712C19.0784 1.07531 18.6237 0.950937 18.1879 0.776448C17.8007 0.59626 17.3918 0.466163 16.9711 0.389361C16.5374 0.331914 16.0913 0.430395 15.6576 0.448176C15.1769 0.467326 14.7349 0.311397 14.2833 0.174617C13.9146 0.0423829 13.523 -0.0157412 13.1314 0.00364233C12.7668 0.0337339 12.4408 0.225225 12.1342 0.413982C12.1265 0.418214 12.12 0.424342 12.1154 0.43177C12.1108 0.439198 12.1083 0.447676 12.1079 0.456383C11.7613 0.635565 11.4284 0.835263 11.0803 1.01581C10.7899 1.17445 10.4784 1.29186 10.155 1.3646C9.75856 1.44667 9.38564 1.38101 8.992 1.33041C8.30141 1.2415 7.64811 1.22509 6.99344 1.47539C6.21445 1.77357 5.5943 2.38087 4.82222 2.70641C4.15787 2.97997 3.57916 3.30414 3.16481 3.91007C2.99234 4.16438 2.87479 4.45123 2.81951 4.75263C2.76841 5.0768 2.84713 5.37088 2.91619 5.68821C3.00735 6.09855 2.92586 6.42682 2.80708 6.82211C2.70586 7.08276 2.71331 7.37254 2.8278 7.62774C2.93553 7.83565 3.16481 7.96969 3.36508 8.07638C3.56535 8.18307 4.07638 8.29796 4.1192 8.5469C4.30152 9.60284 5.50038 9.1077 6.20616 9.36758C6.55284 9.49752 6.87327 9.69449 7.22547 9.82169C7.63016 9.96805 8.05418 10.0775 8.46853 10.1883C9.29724 10.4098 10.0956 10.7053 10.9008 11.0089C11.2558 11.1457 11.5914 11.3153 11.9712 11.3837C12.351 11.4521 12.7433 11.3906 13.119 11.3577C13.8993 11.288 16.3675 11.4945 16.6948 11.329C17.1189 11.1225 17.5125 11.1416 17.9711 11.1799C18.3288 11.21 18.6382 10.9474 18.9973 10.9187C19.4101 10.8784 19.8172 10.7935 20.2113 10.6656C20.5629 10.5311 20.9211 10.4142 21.2845 10.3155C21.6989 10.2238 22.0607 9.92701 22.4792 9.87093C23.2927 9.76014 23.8894 9.30877 24.5192 8.7849C25.091 8.31028 26.4432 6.67439 26.5606 6.35022C26.678 6.02605 26.765 5.66632 26.8603 5.33121C26.9128 5.14382 27.0274 4.92087 26.9943 4.72117Z" fill="#F0A508"/>
<g opacity="0.5">
<path opacity="0.5" fill-rule="evenodd" clip-rule="evenodd" d="M14.2335 2.3098C14.1189 2.45889 13.9808 2.49992 13.9932 3.42729C14.0056 4.35465 14.0954 4.70481 13.7349 5.40786C13.3744 6.1109 12.6755 6.79344 12.4283 7.54162C12.1811 8.2898 11.8689 9.51809 12.1852 9.99545C12.5015 10.4728 13.6534 10.7081 15.2238 10.7505C16.7942 10.7929 18.5165 10.5385 19.4848 10.2403C20.453 9.9421 21.0123 9.819 21.2319 9.55639C21.4516 9.29377 20.3563 7.05058 19.5897 6.17519C18.8232 5.2998 18.4558 5.00983 17.5912 4.2849C16.7265 3.55996 16.3481 3.27136 15.9213 2.68594C15.4945 2.10052 15.384 2.06906 14.9352 2.0759C14.6816 2.07519 14.435 2.15741 14.2335 2.3098Z" fill="#E2CAB3"/>
<path opacity="0.5" fill-rule="evenodd" clip-rule="evenodd" d="M5.50989 8.20369C6.11899 6.81264 6.92283 6.17935 7.14797 5.86475C7.76812 4.99894 8.13551 4.62006 8.95731 4.49696C9.77911 4.37385 9.32885 4.37796 10.2625 4.24802C11.1962 4.11808 11.9793 3.91701 12.6105 3.42734C13.2417 2.93767 13.5677 2.55605 13.9033 2.43705C14.2389 2.31806 14.7569 2.0527 14.3895 2.42748C14.0221 2.80226 14.5124 2.94451 13.8218 3.96078C13.1312 4.97705 12.8025 5.50229 12.5567 6.28603C12.3108 7.06978 12.0567 9.5154 11.4945 9.70826C10.9324 9.90112 9.59127 9.93532 8.34545 9.4771C7.37874 9.1013 6.43229 8.67626 5.50989 8.20369Z" fill="#E2CAB3"/>
<path opacity="0.5" fill-rule="evenodd" clip-rule="evenodd" d="M22.3465 8.82888C22.3465 8.82888 23.5012 8.47188 24.1642 7.90151C24.8271 7.33114 25.4901 6.79907 25.7 6.01532C25.91 5.23157 26.1475 5.03598 25.8906 4.80345C25.6337 4.57093 24.2595 3.33581 23.1283 2.72714C21.9971 2.11847 20.5593 1.73412 19.2803 1.4674C18.0013 1.20068 17.3232 1.35661 16.6561 1.33062C15.989 1.30463 14.9324 2.06649 14.9475 2.0747C15.3169 2.42646 15.7278 2.73279 16.1713 2.98702C16.7707 3.29888 18.1685 3.82685 18.8508 4.21804C19.5331 4.60923 20.0745 5.47367 20.2319 5.87854C20.3894 6.28341 20.6104 6.40925 20.8355 7.18479C21.0607 7.96033 21.6849 9.20913 21.6849 9.20913L22.3465 8.82888Z" fill="#E2CAB3"/>
<path opacity="0.5" fill-rule="evenodd" clip-rule="evenodd" d="M3.62879 4.11662C3.62879 4.11662 3.09565 5.53502 3.37189 6.21755C3.56346 6.66525 3.82442 7.08059 4.14535 7.44857C4.14535 7.44857 4.83594 8.10238 5.30692 7.42532C5.77791 6.74826 6.7986 5.16709 7.60935 4.55705C8.4201 3.94701 9.42974 3.8157 10.1783 3.7268C10.9269 3.63789 12.6852 3.33834 13.1714 2.94578C13.6575 2.55323 14.9476 2.0745 14.9476 2.0745C14.3895 1.82076 13.8081 1.6206 13.2114 1.47677C12.3081 1.2716 10.8634 1.82009 9.69079 1.54653C8.51817 1.27297 7.37455 1.88985 6.07624 2.54639C5.2141 2.99533 4.39491 3.5209 3.62879 4.11662Z" fill="#E2CAB3"/>
<path opacity="0.5" fill-rule="evenodd" clip-rule="evenodd" d="M11.3634 1.21278C11.3634 1.21278 12.5775 0.0788792 13.402 0.0993962C14.4448 0.126752 14.7832 0.353806 15.2818 0.509735C15.8495 0.684813 16.076 0.754571 15.9296 0.980258C15.7832 1.20594 15.0926 2.21128 15.0926 2.21128C15.0926 2.21128 13.4352 1.40564 12.8275 1.31263C12.3427 1.2426 11.8533 1.20922 11.3634 1.21278Z" fill="#E2CAB3"/>
</g>
<path opacity="0.4" fill-rule="evenodd" clip-rule="evenodd" d="M23.3038 2.46842C22.9765 2.33164 22.6477 2.21812 22.3259 2.06629C21.949 1.87465 21.5617 1.70387 21.1657 1.55473C20.8085 1.44618 20.4418 1.37063 20.0705 1.32905C19.2307 1.19227 18.46 0.848951 17.6548 0.602747C17.1931 0.462084 16.7107 0.400108 16.228 0.419462C15.8081 0.446818 15.3869 0.446818 14.967 0.419462C14.5526 0.375693 14.188 0.185569 13.7847 0.0802487C13.2944 -0.0483242 12.8869 0.0802487 12.4519 0.311406C11.8096 0.641046 11.1688 1.04318 10.4726 1.25382C10.1009 1.3739 9.71177 1.43304 9.32074 1.4289C8.90639 1.41522 8.51137 1.33315 8.10392 1.3058C7.65506 1.25833 7.2019 1.34002 6.79871 1.54106C6.4927 1.70167 6.20433 1.89327 5.93823 2.1128C5.93685 2.13694 5.93685 2.16114 5.93823 2.18529C5.85791 2.41767 5.82917 2.66447 5.85398 2.90885C5.86613 3.15822 5.93208 3.40212 6.04739 3.62414C6.1627 3.84615 6.3247 4.04113 6.52247 4.19595C6.80976 4.43668 7.11085 4.62134 7.35118 4.90994C7.5915 5.19855 7.76553 5.49946 8.04177 5.73062C8.49203 6.11087 9.09008 6.14096 9.65637 6.14096C9.9547 6.14096 10.2517 6.12591 10.5486 6.14096C10.9562 6.18346 11.357 6.27533 11.7419 6.41452C12.5375 6.66072 13.3179 7.0013 14.1397 7.16134C14.9615 7.32137 15.7764 7.12851 16.5747 6.9165C17.373 6.70449 18.1603 6.56224 18.942 6.35707C19.6488 6.185 20.3197 5.8915 20.924 5.48989C21.569 5.02586 22.1523 4.48312 22.6602 3.87452C22.8549 3.6502 23.04 3.41767 23.232 3.19062C23.4027 3.01952 23.5169 2.80103 23.5593 2.56417C23.4726 2.53653 23.3873 2.50457 23.3038 2.46842Z" fill="#E2CAB3"/>
<path fill-rule="evenodd" clip-rule="evenodd" d="M12.2833 3.4082C12.2198 3.42188 12.1563 3.43282 12.0969 3.44103H12.0775C11.6439 3.52447 11.2143 3.62842 10.7682 3.59422C10.4671 3.57234 9.29033 3.6038 9.56656 4.14134C9.56982 4.15064 9.56982 4.16076 9.56656 4.17007C9.80965 4.32326 10.3497 4.26034 10.5334 4.24666C10.6891 4.23612 10.8438 4.21372 10.9961 4.17964C11.4293 4.0095 11.8413 3.79058 12.2239 3.5272C12.2487 3.49015 12.2686 3.45017 12.2833 3.4082Z" fill="#C66720"/>
<path fill-rule="evenodd" clip-rule="evenodd" d="M13.9961 4.51034C14.0247 4.22396 14.0144 3.93507 13.9657 3.65137C13.7812 4.08543 13.5447 4.49597 13.2613 4.87418C13.0956 5.08071 12.876 5.2599 12.742 5.48969C12.6702 5.61279 12.5707 5.79607 12.6232 5.94653C12.7061 6.18316 12.8525 6.18179 13.0086 6.15033C13.2765 5.9862 13.5224 5.60321 13.655 5.40625C13.7776 5.2238 13.8773 5.02721 13.9519 4.82083C13.9671 4.71825 13.9809 4.61566 13.9961 4.51034Z" fill="#C66720"/>
<path fill-rule="evenodd" clip-rule="evenodd" d="M18.4117 3.68989C18.0878 3.55928 17.7573 3.4456 17.4214 3.34931C17.2163 3.2965 17.0158 3.22743 16.8219 3.14278C16.6731 3.05428 16.5049 3.00267 16.3316 2.99232C16.3211 2.99163 16.3107 2.99365 16.3012 2.99816C16.2918 3.00267 16.2837 3.00953 16.2777 3.01807C16.2717 3.02661 16.2681 3.03654 16.2671 3.04689C16.2661 3.05723 16.2679 3.06765 16.2722 3.07712C16.2859 3.12065 16.313 3.15888 16.3496 3.18655C16.5555 3.47179 16.7837 3.7407 17.0319 3.99081C17.2542 4.23975 17.4462 4.50784 17.6948 4.739C18.0318 5.06043 18.6409 5.25602 18.9862 4.81286C19.3674 4.31908 18.8481 3.87181 18.4117 3.68989Z" fill="#C66720"/>
<path fill-rule="evenodd" clip-rule="evenodd" d="M17.0194 1.26592C16.902 1.01561 16.5208 1.02245 16.268 1.08127C16.2475 1.08392 16.2272 1.08803 16.2072 1.09358C15.8574 1.27178 15.5861 1.57119 15.4448 1.93477C15.8592 1.81304 16.1644 1.52443 16.6023 1.47382C16.6727 1.46562 17.0995 1.43416 17.0194 1.26592Z" fill="#C66720"/>
<path fill-rule="evenodd" clip-rule="evenodd" d="M11.1742 1.72033C11.2297 1.73784 11.2873 1.74796 11.3455 1.75042C11.4823 1.72723 11.6211 1.71806 11.7598 1.72306C11.8137 1.72038 11.8676 1.72038 11.9214 1.72306C12.1023 1.73024 12.2826 1.7476 12.4615 1.77504L12.5319 1.79419C12.6303 1.8045 12.7289 1.77763 12.8082 1.71896C12.4035 1.54251 11.2889 1.12397 11.1369 1.66425C11.1348 1.67653 11.1375 1.68915 11.1444 1.69956C11.1513 1.70996 11.162 1.71739 11.1742 1.72033Z" fill="#C66720"/>
<path fill-rule="evenodd" clip-rule="evenodd" d="M3.59862 7.64023C3.56628 7.71139 3.54307 7.7863 3.52956 7.86318C3.50889 7.9204 3.49679 7.9803 3.49365 8.04099C3.4943 8.04481 3.49586 8.04843 3.49818 8.05154C3.50051 8.05466 3.50355 8.05718 3.50705 8.05892C3.51055 8.06065 3.51441 8.06154 3.51832 8.06151C3.52223 8.06149 3.52609 8.06055 3.52956 8.05878C3.571 8.03552 3.57238 7.96577 3.57929 7.922C3.59181 7.82905 3.61308 7.73746 3.64282 7.64844C3.65387 7.62792 3.61105 7.61424 3.59862 7.64023Z" fill="#C66720"/>
<path fill-rule="evenodd" clip-rule="evenodd" d="M3.85809 7.85214C3.82282 7.91988 3.79726 7.99216 3.78213 8.06689C3.77108 8.10655 3.73931 8.16947 3.75174 8.20367C3.75252 8.2081 3.75467 8.21219 3.75788 8.21537C3.76109 8.21855 3.76522 8.22067 3.76969 8.22145C3.82218 8.22145 3.8277 8.15306 3.83599 8.11613C3.85533 8.03543 3.8719 7.95199 3.89953 7.87266C3.90919 7.84941 3.8719 7.82752 3.85809 7.85214Z" fill="#C66720"/>
<path fill-rule="evenodd" clip-rule="evenodd" d="M5.10679 8.785C5.09436 8.92178 5.05016 9.05855 5.05155 9.20354C5.05155 9.24457 5.11646 9.25141 5.11784 9.20354C5.13872 9.06254 5.15209 8.92055 5.1579 8.77816C5.15652 8.7508 5.10956 8.75764 5.10679 8.785Z" fill="#C66720"/>
<path fill-rule="evenodd" clip-rule="evenodd" d="M5.44936 8.85596C5.4042 8.96379 5.38255 9.07985 5.38582 9.19654C5.38582 9.24031 5.45626 9.24851 5.45764 9.19654C5.46172 9.08362 5.47418 8.97116 5.49493 8.86006C5.50046 8.83818 5.45902 8.83134 5.44936 8.85596Z" fill="#C66720"/>
<path fill-rule="evenodd" clip-rule="evenodd" d="M11.0308 10.7231C11.01 10.7746 10.9951 10.8283 10.9866 10.8831C10.9736 10.9322 10.968 10.9829 10.97 11.0335C10.9718 11.039 10.9753 11.0438 10.9801 11.0472C10.9848 11.0505 10.9904 11.0524 10.9962 11.0524C11.0021 11.0524 11.0077 11.0505 11.0124 11.0472C11.0172 11.0438 11.0207 11.039 11.0225 11.0335C11.0342 10.9889 11.0402 10.9429 11.0404 10.8968C11.0487 10.8393 11.0515 10.7819 11.0625 10.7244C11.0653 10.7121 11.0377 10.708 11.0308 10.7231Z" fill="#C66720"/>
<path fill-rule="evenodd" clip-rule="evenodd" d="M11.4229 10.771C11.4014 10.8401 11.3866 10.9111 11.3787 10.983C11.3633 11.0433 11.3586 11.1058 11.3649 11.1677C11.3671 11.173 11.3708 11.1776 11.3756 11.1808C11.3804 11.184 11.3861 11.1857 11.3919 11.1857C11.3977 11.1857 11.4033 11.184 11.4081 11.1808C11.4129 11.1776 11.4166 11.173 11.4188 11.1677C11.4336 11.1138 11.4401 11.058 11.4381 11.0022C11.4381 10.9256 11.4506 10.849 11.4575 10.7738C11.4567 10.7699 11.4548 10.7664 11.4518 10.7638C11.4489 10.7612 11.4452 10.7596 11.4413 10.7593C11.4373 10.759 11.4334 10.76 11.4301 10.7621C11.4268 10.7642 11.4243 10.7673 11.4229 10.771Z" fill="#C66720"/>
<path fill-rule="evenodd" clip-rule="evenodd" d="M12.9824 11.0049C12.9824 10.983 12.9561 10.9638 12.9451 10.9843C12.9095 11.052 12.8906 11.1269 12.8898 11.2032C12.8898 11.2415 12.8802 11.34 12.9285 11.3495C12.9316 11.3506 12.9349 11.3511 12.9381 11.3509C12.9414 11.3508 12.9446 11.3499 12.9475 11.3485C12.9505 11.3472 12.9531 11.3452 12.9553 11.3428C12.9575 11.3404 12.9592 11.3376 12.9603 11.3345C12.9625 11.2919 12.9593 11.2491 12.9506 11.2073C12.95 11.1386 12.9608 11.0702 12.9824 11.0049Z" fill="#C66720"/>
<path fill-rule="evenodd" clip-rule="evenodd" d="M13.3703 10.991C13.3693 10.988 13.3674 10.9853 13.3648 10.9834C13.3622 10.9815 13.3591 10.9805 13.3558 10.9805C13.3526 10.9805 13.3494 10.9815 13.3468 10.9834C13.3442 10.9853 13.3423 10.988 13.3413 10.991C13.3108 11.1079 13.2987 11.2288 13.3054 11.3494C13.3054 11.3863 13.3648 11.3904 13.3634 11.3494C13.3569 11.2299 13.3592 11.1102 13.3703 10.991Z" fill="#C66720"/>
<path fill-rule="evenodd" clip-rule="evenodd" d="M13.7957 11.0334C13.7957 11.0287 13.7938 11.0242 13.7905 11.0208C13.7871 11.0175 13.7825 11.0156 13.7778 11.0156C13.773 11.0156 13.7684 11.0175 13.7651 11.0208C13.7617 11.0242 13.7598 11.0287 13.7598 11.0334C13.7543 11.0881 13.7501 11.1428 13.7474 11.1975C13.7474 11.2372 13.7198 11.2892 13.7474 11.3234C13.7496 11.325 13.7522 11.3259 13.755 11.3259C13.7577 11.3259 13.7604 11.325 13.7626 11.3234C13.8095 11.3234 13.8068 11.2482 13.8095 11.2126C13.8121 11.1525 13.8074 11.0924 13.7957 11.0334Z" fill="#C66720"/>
<path fill-rule="evenodd" clip-rule="evenodd" d="M21.3618 10.1786C21.3618 10.1868 21.3618 10.1649 21.3618 10.1622C21.3534 10.1426 21.3465 10.1225 21.3411 10.102C21.3273 10.0487 21.3245 9.99121 21.3079 9.93786C21.3079 9.92282 21.2775 9.91461 21.2734 9.93786C21.2693 9.96112 21.2734 10.262 21.359 10.2114C21.362 10.21 21.3646 10.2078 21.3665 10.205C21.3684 10.2023 21.3696 10.1991 21.3698 10.1958C21.3701 10.1925 21.3695 10.1892 21.3681 10.1861C21.3667 10.1831 21.3645 10.1805 21.3618 10.1786Z" fill="#C66720"/>
<path fill-rule="evenodd" clip-rule="evenodd" d="M21.8536 10.0557C21.8262 9.97189 21.7929 9.89009 21.7541 9.81085C21.7523 9.80523 21.7483 9.80055 21.743 9.79786C21.7376 9.79517 21.7315 9.79467 21.7258 9.79649C21.7201 9.7983 21.7154 9.80227 21.7127 9.80753C21.71 9.81279 21.7095 9.8189 21.7113 9.82453C21.7319 9.91288 21.7587 9.99972 21.7914 10.0844C21.8066 10.1254 21.8701 10.0967 21.8536 10.0557Z" fill="#C66720"/>
<path fill-rule="evenodd" clip-rule="evenodd" d="M22.3259 9.81346C22.2779 9.74501 22.2454 9.66709 22.2306 9.58504C22.2294 9.58 22.2264 9.57552 22.2223 9.57232C22.2182 9.56912 22.2131 9.56738 22.2078 9.56738C22.2026 9.56738 22.1975 9.56912 22.1934 9.57232C22.1892 9.57552 22.1863 9.58 22.1851 9.58504C22.1787 9.68311 22.2081 9.78018 22.2679 9.8586C22.2942 9.90237 22.3536 9.85313 22.3259 9.81346Z" fill="#C66720"/>
<path fill-rule="evenodd" clip-rule="evenodd" d="M22.9144 9.74628C22.868 9.70767 22.8299 9.66011 22.8026 9.6065C22.7753 9.55289 22.7593 9.49435 22.7555 9.43442C22.7559 9.43113 22.7551 9.42783 22.7535 9.42494C22.7519 9.42205 22.7494 9.41971 22.7465 9.41824C22.7435 9.41676 22.7401 9.41621 22.7368 9.41666C22.7335 9.4171 22.7304 9.41853 22.7279 9.42075C22.6064 9.50555 22.7887 9.7244 22.8564 9.78868C22.8909 9.82698 22.9489 9.78048 22.9144 9.74628Z" fill="#C66720"/>
<path fill-rule="evenodd" clip-rule="evenodd" d="M23.5801 9.4347C23.507 9.31218 23.4263 9.19432 23.3384 9.08181C23.3287 9.0654 23.2969 9.07087 23.3038 9.09275C23.3466 9.22953 23.4682 9.32664 23.5276 9.45932C23.5428 9.49625 23.5953 9.47163 23.5801 9.4347Z" fill="#C66720"/>
<path fill-rule="evenodd" clip-rule="evenodd" d="M24.1297 9.01202C24.1172 8.98603 24.0841 8.97098 24.062 8.95457L23.9529 8.87524C23.9252 8.85472 23.8962 8.83557 23.8672 8.81643C23.8382 8.79728 23.8369 8.80822 23.8244 8.80138C23.812 8.79454 23.8134 8.80138 23.8175 8.80138C23.8217 8.80138 23.8244 8.82326 23.8341 8.83284C23.8585 8.85795 23.8843 8.88169 23.9114 8.90396C23.946 8.93406 23.9819 8.96141 24.0178 8.98877C24.0537 9.01612 24.073 9.03937 24.1048 9.03937C24.1083 9.0394 24.1118 9.03868 24.115 9.03728C24.1182 9.03587 24.1211 9.03381 24.1234 9.03122C24.1258 9.02864 24.1276 9.02559 24.1286 9.02228C24.1297 9.01897 24.1301 9.01547 24.1297 9.01202Z" fill="#C66720"/>
<path fill-rule="evenodd" clip-rule="evenodd" d="M24.598 8.66992C24.5954 8.66196 24.5907 8.65484 24.5844 8.64931C24.5781 8.64377 24.5704 8.64002 24.5621 8.63846C24.5363 8.62663 24.5126 8.61095 24.4916 8.59195C24.4429 8.54971 24.401 8.50036 24.3673 8.4456C24.3521 8.42235 24.3162 8.4456 24.3273 8.47159C24.3567 8.537 24.3995 8.59567 24.453 8.64393C24.4861 8.67402 24.5483 8.72463 24.5911 8.69591C24.5948 8.69281 24.5975 8.68865 24.5987 8.684C24.5999 8.67934 24.5997 8.67442 24.598 8.66992Z" fill="#C66720"/>
<path fill-rule="evenodd" clip-rule="evenodd" d="M26.1574 6.911C26.151 6.9036 26.1432 6.8976 26.1344 6.89336C26.1256 6.88912 26.116 6.88674 26.1063 6.88638C26.0756 6.88112 26.0464 6.86946 26.0206 6.85218C25.9657 6.81457 25.9245 6.76034 25.9032 6.69762C25.9032 6.6771 25.8673 6.68941 25.8687 6.70856C25.8773 6.78238 25.9144 6.85004 25.9723 6.89732C26.0123 6.93015 26.1104 6.98349 26.156 6.93562C26.1591 6.93233 26.1609 6.92806 26.1612 6.92356C26.1615 6.91905 26.1601 6.91461 26.1574 6.911Z" fill="#C66720"/>
<path fill-rule="evenodd" clip-rule="evenodd" d="M26.4625 6.5624C26.3459 6.50262 26.2476 6.41285 26.178 6.30251C26.1656 6.282 26.1297 6.30251 26.1421 6.3203C26.2057 6.44657 26.3096 6.54851 26.4377 6.61027C26.4653 6.62121 26.4902 6.57471 26.4625 6.5624Z" fill="#C66720"/>
<path fill-rule="evenodd" clip-rule="evenodd" d="M26.6517 6.07942C26.5988 6.04526 26.548 6.00779 26.4998 5.96727C26.4529 5.92486 26.4087 5.88246 26.3617 5.84416C26.3437 5.83049 26.3203 5.85647 26.3355 5.87426C26.4074 5.98497 26.5074 6.07506 26.6255 6.1355C26.6327 6.13729 26.6402 6.13653 26.6469 6.13338C26.6536 6.13022 26.6589 6.12486 26.6621 6.11822C26.6652 6.11157 26.6658 6.10406 26.6639 6.09698C26.6621 6.0899 26.6578 6.08369 26.6517 6.07942Z" fill="#C66720"/>
<path fill-rule="evenodd" clip-rule="evenodd" d="M3.25608 7.27904C3.1365 7.44133 3.05574 7.62842 3.0199 7.82616C3.0199 7.84257 3.04338 7.84394 3.04752 7.82616C3.09493 7.63835 3.17943 7.4617 3.29613 7.3064C3.31271 7.28041 3.27265 7.25305 3.25608 7.27904Z" fill="#C66720"/>
<path fill-rule="evenodd" clip-rule="evenodd" d="M3.04057 7.14348C3.01018 7.15716 2.99775 7.18315 2.97703 7.2105C2.95631 7.23786 2.9204 7.28983 2.89554 7.33224C2.86031 7.38086 2.84146 7.43926 2.84168 7.49911C2.84168 7.51962 2.87344 7.51552 2.87482 7.49911C2.89088 7.43719 2.92007 7.37937 2.96046 7.3295C2.99361 7.27889 3.05852 7.22144 3.06543 7.16126C3.06567 7.15822 3.06512 7.15517 3.06382 7.1524C3.06253 7.14963 3.06054 7.14724 3.05804 7.14546C3.05554 7.14367 3.05262 7.14255 3.04956 7.1422C3.0465 7.14186 3.04341 7.1423 3.04057 7.14348Z" fill="#C66720"/>
<path fill-rule="evenodd" clip-rule="evenodd" d="M3.43976 7.58791C3.4009 7.64977 3.36939 7.71586 3.34584 7.78487C3.3151 7.84927 3.29282 7.9173 3.27954 7.98731C3.27954 8.00509 3.30578 8.01056 3.30993 7.98731C3.32763 7.91989 3.35312 7.85472 3.38589 7.79308C3.42623 7.73092 3.45434 7.66178 3.46876 7.58928C3.46895 7.58547 3.46759 7.58175 3.465 7.57892C3.46241 7.5761 3.4588 7.57442 3.45495 7.57424C3.4511 7.57405 3.44734 7.57539 3.44449 7.57796C3.44164 7.58052 3.43994 7.5841 3.43976 7.58791Z" fill="#C66720"/>
<path fill-rule="evenodd" clip-rule="evenodd" d="M4.18818 8.06689C4.0846 8.09835 4.03625 8.23377 4.00863 8.32814C4.00759 8.333 4.00836 8.33807 4.01081 8.34241C4.01325 8.34675 4.0172 8.35006 4.02193 8.35173C4.02665 8.3534 4.03183 8.35332 4.03649 8.35149C4.04116 8.34967 4.045 8.34623 4.0473 8.34182C4.06386 8.29403 4.08562 8.24816 4.11222 8.20504C4.13846 8.16401 4.17575 8.12981 4.20338 8.08878C4.2089 8.08057 4.20062 8.06689 4.18818 8.06689Z" fill="#C66720"/>
<path fill-rule="evenodd" clip-rule="evenodd" d="M4.41751 8.47737C4.36364 8.49652 4.33464 8.56354 4.30978 8.61415C4.28157 8.67297 4.26874 8.73788 4.27249 8.8029C4.27249 8.82479 4.30563 8.82889 4.30702 8.8029C4.31165 8.74851 4.32566 8.69531 4.34845 8.64561C4.37055 8.59226 4.42442 8.55123 4.43961 8.49788C4.44066 8.49489 4.44082 8.49165 4.44005 8.48856C4.43928 8.48548 4.43763 8.48269 4.43529 8.48051C4.43295 8.47834 4.43003 8.47689 4.42687 8.47633C4.42372 8.47577 4.42046 8.47613 4.41751 8.47737Z" fill="#C66720"/>
<path fill-rule="evenodd" clip-rule="evenodd" d="M4.63985 8.62054C4.59557 8.69047 4.56206 8.76653 4.5404 8.84623C4.51083 8.92051 4.48863 8.99747 4.4741 9.07602C4.47301 9.08073 4.47384 9.08569 4.47643 9.08979C4.47902 9.0939 4.48315 9.09681 4.48792 9.0979C4.49268 9.09899 4.49768 9.09816 4.50183 9.0956C4.50597 9.09303 4.50892 9.08894 4.51002 9.08422C4.53057 9.00806 4.55689 8.93353 4.58874 8.86127C4.62773 8.78869 4.65566 8.7108 4.67161 8.63012C4.67225 8.62805 4.67247 8.62588 4.67225 8.62373C4.67204 8.62158 4.67141 8.6195 4.67038 8.61759C4.66935 8.61569 4.66796 8.614 4.66627 8.61263C4.66459 8.61126 4.66265 8.61023 4.66056 8.6096C4.65848 8.60897 4.65629 8.60875 4.65412 8.60896C4.65195 8.60917 4.64984 8.60981 4.64792 8.61082C4.64599 8.61184 4.64429 8.61322 4.64291 8.61489C4.64152 8.61655 4.64048 8.61848 4.63985 8.62054Z" fill="#C66720"/>
<path fill-rule="evenodd" clip-rule="evenodd" d="M4.84291 8.84096C4.79476 8.94779 4.7748 9.06498 4.7849 9.18154C4.7849 9.2048 4.82081 9.20753 4.82081 9.18154C4.82081 9.06802 4.87192 8.95586 4.86501 8.8437C4.86425 8.84153 4.86289 8.83962 4.86109 8.83818C4.85929 8.83674 4.85712 8.83583 4.85482 8.83554C4.85252 8.83526 4.85019 8.83562 4.84809 8.83657C4.84598 8.83753 4.84419 8.83905 4.84291 8.84096Z" fill="#C66720"/>
<path fill-rule="evenodd" clip-rule="evenodd" d="M11.8248 10.8763C11.776 11.0031 11.7576 11.1393 11.771 11.2743C11.771 11.2921 11.8028 11.2907 11.8041 11.2743C11.8041 11.2087 11.8138 11.1376 11.8221 11.0787C11.838 11.0138 11.8459 10.9472 11.8456 10.8804C11.8456 10.8667 11.829 10.8681 11.8248 10.8763Z" fill="#C66720"/>
<path fill-rule="evenodd" clip-rule="evenodd" d="M12.1853 11.1388C12.1853 11.0758 12.2157 11.0198 12.2213 10.9568C12.2205 10.9547 12.2191 10.9529 12.2172 10.9517C12.2154 10.9504 12.2132 10.9497 12.2109 10.9497C12.2086 10.9497 12.2064 10.9504 12.2046 10.9517C12.2027 10.9529 12.2013 10.9547 12.2005 10.9568C12.1604 11.0209 12.137 11.0938 12.1324 11.169C12.1278 11.2442 12.1422 11.3194 12.1743 11.3877C12.184 11.4082 12.2116 11.3877 12.2047 11.374C12.18 11.2981 12.1734 11.2176 12.1853 11.1388Z" fill="#C66720"/>
<path fill-rule="evenodd" clip-rule="evenodd" d="M12.5169 11.1853C12.5211 11.1228 12.5156 11.06 12.5003 10.9992C12.4988 10.9964 12.4965 10.994 12.4937 10.9923C12.4909 10.9906 12.4877 10.9897 12.4844 10.9897C12.4811 10.9897 12.4779 10.9906 12.4751 10.9923C12.4723 10.994 12.4701 10.9964 12.4685 10.9992C12.4568 11.0612 12.4568 11.1247 12.4685 11.1866C12.4725 11.258 12.485 11.3288 12.5058 11.3973C12.5058 11.4205 12.5486 11.415 12.5431 11.3973C12.5285 11.3274 12.5198 11.2565 12.5169 11.1853Z" fill="#C66720"/>
<path fill-rule="evenodd" clip-rule="evenodd" d="M24.9461 8.06673C24.9461 8.05168 24.9254 8.04347 24.9185 8.05578C24.9071 8.07356 24.901 8.0942 24.901 8.11528C24.901 8.13636 24.9071 8.157 24.9185 8.17478C24.9406 8.21718 24.9945 8.2801 25.047 8.27326C25.0511 8.27228 25.0548 8.26974 25.0571 8.26617C25.0594 8.2626 25.0602 8.25828 25.0594 8.25411C25.0456 8.18025 24.9282 8.15016 24.9461 8.06673Z" fill="#C66720"/>
<path fill-rule="evenodd" clip-rule="evenodd" d="M25.4447 7.84682C25.4309 7.82494 25.4184 7.8222 25.3936 7.814C25.3596 7.80346 25.3294 7.78352 25.3065 7.75655C25.2624 7.70491 25.2316 7.64342 25.2168 7.57737C25.2162 7.57467 25.2152 7.57211 25.2136 7.56983C25.2121 7.56754 25.2101 7.56558 25.2078 7.56406C25.2055 7.56254 25.2029 7.56148 25.2002 7.56094C25.1974 7.56041 25.1946 7.56041 25.1919 7.56095C25.1892 7.56149 25.1866 7.56256 25.1843 7.56409C25.182 7.56561 25.18 7.56758 25.1785 7.56986C25.1769 7.57215 25.1759 7.57471 25.1753 7.57741C25.1748 7.58011 25.1748 7.58288 25.1753 7.58557C25.1878 7.66106 25.2186 7.73241 25.2651 7.79348C25.2996 7.83588 25.3908 7.90564 25.446 7.86734C25.448 7.8642 25.4489 7.86054 25.4487 7.85686C25.4484 7.85319 25.447 7.84968 25.4447 7.84682Z" fill="#C66720"/>
<path fill-rule="evenodd" clip-rule="evenodd" d="M25.6794 7.38289C25.6366 7.34049 25.591 7.29809 25.551 7.25295C25.5344 7.2338 25.4999 7.25295 25.5123 7.2762C25.5436 7.33125 25.5816 7.38225 25.6255 7.42803C25.6628 7.46633 25.7043 7.52788 25.7637 7.53198C25.7666 7.53222 25.7695 7.5318 25.7722 7.53076C25.7749 7.52973 25.7774 7.5281 25.7794 7.52599C25.7814 7.52389 25.7828 7.52137 25.7837 7.51861C25.7846 7.51586 25.7848 7.51295 25.7844 7.51009C25.7761 7.45675 25.7208 7.42119 25.6794 7.38289Z" fill="#C66720"/>
<path opacity="0.4" fill-rule="evenodd" clip-rule="evenodd" d="M15.5858 2.6214C15.5858 2.99754 15.0043 3.3053 14.2847 3.3053C13.5651 3.3053 12.9836 3.00028 12.9836 2.6214C12.9836 2.24252 13.5651 1.9375 14.2847 1.9375C15.0043 1.9375 15.5858 2.24525 15.5858 2.6214Z" fill="#DA840D"/>
<path fill-rule="evenodd" clip-rule="evenodd" d="M22.7099 8.34016C19.7762 7.60292 18.5484 9.22102 18.5967 11.125C18.616 11.8691 19.3011 12.8949 19.7514 13.6705C20.1508 14.2901 20.6166 14.8652 21.1408 15.3857C21.4723 15.6196 21.9143 15.889 22.3577 15.889C22.5276 15.8724 22.6901 15.8116 22.8286 15.7126C22.8936 15.7252 22.9563 15.7468 23.0151 15.7769C23.225 15.848 23.3176 15.558 23.5469 15.6606C23.9129 15.8261 24.2292 15.4896 24.5026 15.3064C24.591 15.2475 25.4695 13.8989 25.5648 13.8278C26.4694 12.6774 26.9252 12.3382 26.9349 10.9417C26.9459 9.1964 26.0606 7.63301 22.7099 8.34016Z" fill="#C73A54"/>
<g style="mix-blend-mode:multiply">
<path fill-rule="evenodd" clip-rule="evenodd" d="M23.8218 8.79746C23.8218 8.99716 23.3052 9.17223 22.6574 9.18865C22.0097 9.20506 21.4807 9.05187 21.4751 8.85627C21.4696 8.66068 21.9917 8.47739 22.6395 8.46508C23.2872 8.45277 23.8162 8.59776 23.8218 8.79746Z" fill="#ED6366"/>
</g>
<path fill-rule="evenodd" clip-rule="evenodd" d="M20.8619 9.44271C20.6036 9.05562 20.0746 9.16915 19.7473 9.39621L19.7307 9.40851C19.6547 9.45936 19.586 9.52008 19.5263 9.58906C19.2935 9.83372 19.1459 10.1458 19.105 10.4795C19.065 10.8898 19.2045 11.3453 19.5622 11.5272C19.5723 11.5323 19.5805 11.5405 19.5857 11.5505C19.5994 11.5476 19.6128 11.5435 19.6257 11.5382C19.8274 11.4561 19.8177 11.1278 19.8191 10.961C19.8191 10.5903 20.1299 10.4262 20.4144 10.2675C20.6754 10.1184 21.0884 9.78329 20.8619 9.44271Z" fill="#ED6366"/>
<g style="mix-blend-mode:multiply">
<path fill-rule="evenodd" clip-rule="evenodd" d="M25.5357 12.6024C25.2926 12.2919 24.928 12.6708 24.754 12.8623C24.3493 13.3068 24.0965 13.8553 23.6187 14.241C23.1408 14.6267 22.2734 14.3463 21.9019 14.9071C21.8845 14.9341 21.8727 14.9643 21.8671 14.9958C21.8615 15.0274 21.8623 15.0597 21.8693 15.091C21.8764 15.1222 21.8896 15.1518 21.9082 15.178C21.9268 15.2042 21.9505 15.2265 21.9778 15.2436C22.0164 15.2586 22.0568 15.2687 22.098 15.2737C22.1839 15.3214 22.2773 15.3547 22.3742 15.3722C22.6772 15.4114 22.9849 15.3539 23.2526 15.208C23.4957 15.0931 23.7706 15.2272 24.0123 15.1136C24.1016 15.0654 24.1786 14.9976 24.2374 14.9153C24.3149 14.8263 24.38 14.7274 24.4308 14.6212C24.5523 14.422 24.691 14.2334 24.8451 14.0577C25.0325 13.8471 25.202 13.6216 25.352 13.3834C25.5316 13.1276 25.6946 12.8075 25.5357 12.6024Z" fill="#ED6366"/>
</g>
<path fill-rule="evenodd" clip-rule="evenodd" d="M25.4585 5.74175C25.2955 5.68703 24.9958 5.93324 24.8687 6.00847C24.5787 6.18081 24.2845 6.35452 24.0055 6.54328C23.5817 6.83763 23.2305 7.22288 22.9779 7.67034C22.8726 7.86088 22.802 8.06831 22.7694 8.28311C22.7265 8.39588 22.7049 8.51551 22.7058 8.63601C22.7051 8.64445 22.706 8.65297 22.7086 8.66105C22.7112 8.66914 22.7153 8.67664 22.7209 8.68313C22.7264 8.68961 22.7331 8.69495 22.7407 8.69884C22.7484 8.70272 22.7567 8.70507 22.7652 8.70576C23.4724 8.71397 24.1961 8.25576 24.6906 7.79481C24.9497 7.56861 25.1549 7.28832 25.2914 6.97413C25.3594 6.79695 25.4103 6.61375 25.4433 6.42701C25.482 6.22731 25.424 5.98521 25.4889 5.80056C25.4924 5.78877 25.4912 5.77608 25.4856 5.76513C25.4799 5.75418 25.4702 5.74581 25.4585 5.74175Z" fill="#8DB54F"/>
<path fill-rule="evenodd" clip-rule="evenodd" d="M22.5869 8.68072C22.5869 8.48513 22.6463 8.36339 22.7029 7.74788C22.7596 7.13238 22.7485 6.82462 22.7899 6.7234C22.8314 6.62219 23.1629 6.83693 23.1629 6.83693C23.1629 6.83693 23.0565 7.30882 22.9778 7.69591C22.8991 8.083 22.8203 8.7792 22.8203 8.7792C22.8203 8.7792 22.7775 8.89273 22.6739 8.86401C22.5703 8.83528 22.5869 8.68072 22.5869 8.68072Z" fill="#300D33"/>
</svg>
