<svg width="42" height="42" viewBox="0 0 42 42" fill="none" xmlns="http://www.w3.org/2000/svg">
<defs>
<linearGradient id="paint0_linear_414_9680" x1="7.03428" y1="13.8566" x2="41.1286" y2="13.8566" gradientUnits="userSpaceOnUse">
<stop stop-color="#F8F6F7"/>
<stop offset="0.1788" stop-color="#F8F6F7"/>
<stop offset="1" stop-color="#E7E6F5"/>
</linearGradient>
<linearGradient id="paint1_linear_414_9680" x1="2.10093" y1="16.909" x2="41.7266" y2="16.909" gradientUnits="userSpaceOnUse">
<stop stop-color="#F8F6F7"/>
<stop offset="1" stop-color="#D1CEEB"/>
</linearGradient>
<linearGradient id="paint2_linear_414_9680" x1="2.10113" y1="15.0027" x2="41.7269" y2="15.0027" gradientUnits="userSpaceOnUse">
<stop stop-color="#F8F6F7"/>
<stop offset="1" stop-color="#D1CEEB"/>
</linearGradient>
<linearGradient id="paint3_linear_414_9680" x1="2.10044" y1="12.8339" x2="41.7262" y2="12.8339" gradientUnits="userSpaceOnUse">
<stop stop-color="#F8F6F7"/>
<stop offset="1" stop-color="#D1CEEB"/>
</linearGradient>
<linearGradient id="paint4_linear_414_9680" x1="2.10061" y1="18.5141" x2="41.7265" y2="18.5141" gradientUnits="userSpaceOnUse">
<stop stop-color="#F8F6F7"/>
<stop offset="1" stop-color="#D1CEEB"/>
</linearGradient>
<linearGradient id="paint5_linear_414_9680" x1="2.10075" y1="13.8568" x2="41.7265" y2="13.8568" gradientUnits="userSpaceOnUse">
<stop stop-color="#F8F6F7"/>
<stop offset="1" stop-color="#D1CEEB"/>
</linearGradient>
<linearGradient id="paint6_linear_414_9680" x1="7.94709" y1="5.25741" x2="48.2599" y2="5.25741" gradientUnits="userSpaceOnUse">
<stop stop-color="#FE646F"/>
<stop offset="0.593" stop-color="#FB2B3A"/>
<stop offset="1" stop-color="#C41926"/>
</linearGradient>
<linearGradient id="paint7_linear_414_9680" x1="-1.15257" y1="5.25716" x2="38.1683" y2="5.25716" gradientUnits="userSpaceOnUse">
<stop stop-color="#FE646F"/>
<stop offset="0.593" stop-color="#FB2B3A"/>
<stop offset="1" stop-color="#C41926"/>
</linearGradient>
<linearGradient id="paint8_linear_414_9680" x1="-1.15275" y1="2.48838" x2="38.1681" y2="2.48838" gradientUnits="userSpaceOnUse">
<stop stop-color="#FE646F"/>
<stop offset="0.593" stop-color="#FB2B3A"/>
<stop offset="1" stop-color="#C41926"/>
</linearGradient>
<linearGradient id="paint9_linear_414_9680" x1="0.966412" y1="32.5793" x2="35.0609" y2="32.5793" gradientUnits="userSpaceOnUse">
<stop stop-color="#F8F6F7"/>
<stop offset="0.1788" stop-color="#F8F6F7"/>
<stop offset="1" stop-color="#E7E6F5"/>
</linearGradient>
<linearGradient id="paint10_linear_414_9680" x1="-3.96699" y1="35.6317" x2="35.6588" y2="35.6317" gradientUnits="userSpaceOnUse">
<stop stop-color="#F8F6F7"/>
<stop offset="1" stop-color="#D1CEEB"/>
</linearGradient>
<linearGradient id="paint11_linear_414_9680" x1="-3.96675" y1="33.7255" x2="35.659" y2="33.7255" gradientUnits="userSpaceOnUse">
<stop stop-color="#F8F6F7"/>
<stop offset="1" stop-color="#D1CEEB"/>
</linearGradient>
<linearGradient id="paint12_linear_414_9680" x1="-3.96739" y1="31.5565" x2="35.6584" y2="31.5565" gradientUnits="userSpaceOnUse">
<stop stop-color="#F8F6F7"/>
<stop offset="1" stop-color="#D1CEEB"/>
</linearGradient>
<linearGradient id="paint13_linear_414_9680" x1="-3.9671" y1="37.2369" x2="35.6586" y2="37.2369" gradientUnits="userSpaceOnUse">
<stop stop-color="#F8F6F7"/>
<stop offset="1" stop-color="#D1CEEB"/>
</linearGradient>
<linearGradient id="paint14_linear_414_9680" x1="-3.96708" y1="32.5795" x2="35.6587" y2="32.5795" gradientUnits="userSpaceOnUse">
<stop stop-color="#F8F6F7"/>
<stop offset="1" stop-color="#D1CEEB"/>
</linearGradient>
<linearGradient id="paint15_linear_414_9680" x1="1.87996" y1="23.9801" x2="42.1928" y2="23.9801" gradientUnits="userSpaceOnUse">
<stop stop-color="#FBC56D"/>
<stop offset="0.5841" stop-color="#FE9738"/>
<stop offset="0.9984" stop-color="#FB2B3A"/>
</linearGradient>
<linearGradient id="paint16_linear_414_9680" x1="0.315752" y1="23.9798" x2="36.1094" y2="23.9798" gradientUnits="userSpaceOnUse">
<stop stop-color="#FBC56D"/>
<stop offset="0.5841" stop-color="#FE9738"/>
<stop offset="0.9984" stop-color="#FB2B3A"/>
</linearGradient>
<linearGradient id="paint17_linear_414_9680" x1="0.315451" y1="21.211" x2="36.1091" y2="21.211" gradientUnits="userSpaceOnUse">
<stop stop-color="#FBC56D"/>
<stop offset="0.5841" stop-color="#FE9738"/>
<stop offset="0.9984" stop-color="#FB2B3A"/>
</linearGradient>
</defs>
<path d="M33.8825 23.2772H14.1856C9.70227 23.2772 6.06787 19.6428 6.06787 15.1595C6.06787 9.23705 10.869 4.43604 16.7913 4.43604H31.2768C37.1991 4.43595 42.0002 9.23697 42.0002 15.1594C42.0002 19.6427 38.3658 23.2772 33.8825 23.2772Z" fill="url(#paint0_linear_414_9680)"/>
<path d="M33.338 17.9934C33.9369 17.9934 34.4223 17.5079 34.4223 16.909C34.4223 16.3102 33.9369 15.8247 33.338 15.8247C32.7391 15.8247 32.2537 16.3102 32.2537 16.909C32.2537 17.5079 32.7391 17.9934 33.338 17.9934Z" fill="url(#paint1_linear_414_9680)"/>
<path d="M21.0265 13.9185C20.4276 13.9185 19.9421 14.4039 19.9421 15.0028C19.9421 15.6017 20.4276 16.0871 21.0265 16.0871C21.6253 16.0871 22.1108 15.6017 22.1108 15.0028C22.1108 14.4038 21.6253 13.9185 21.0265 13.9185Z" fill="url(#paint2_linear_414_9680)"/>
<path d="M15.1401 11.7495C14.5413 11.7495 14.0558 12.235 14.0558 12.8339C14.0558 13.4327 14.5413 13.9182 15.1401 13.9182C15.739 13.9182 16.2245 13.4327 16.2245 12.8339C16.2245 12.235 15.739 11.7495 15.1401 11.7495Z" fill="url(#paint3_linear_414_9680)"/>
<path d="M13.651 20.5781C14.7908 20.5781 15.7149 19.654 15.7149 18.5141C15.7149 17.3743 14.7908 16.4502 13.651 16.4502C12.5111 16.4502 11.587 17.3743 11.587 18.5141C11.587 19.654 12.5111 20.5781 13.651 20.5781Z" fill="url(#paint4_linear_414_9680)"/>
<path d="M40.6801 10.0014C38.8576 6.68427 35.3296 4.43604 31.277 4.43604H16.7911C13.8305 4.43604 11.1491 5.63592 9.20889 7.57698C8.49324 8.29262 7.87889 9.10792 7.38806 10.0014C7.90359 11.8816 10.0275 13.303 12.2164 12.1731C14.6285 10.9287 17.2441 9.98745 19.6405 9.98745H28.4276C30.8241 9.98745 33.4396 10.9287 35.8517 12.1731C36.1152 12.309 36.3777 12.408 36.6366 12.4737C37.8376 12.7785 38.6953 13.8411 38.7042 15.0801C38.7043 15.1064 38.7045 15.1329 38.7045 15.1592C38.7045 16.3906 38.4299 17.5575 37.9394 18.603C37.543 18.2878 37.0341 18.1079 36.4823 18.1349C35.3895 18.1883 34.4931 19.0729 34.4264 20.1649C34.4133 20.3809 34.4317 20.5906 34.4777 20.7899C34.6676 21.6134 34.2489 22.4556 33.4585 22.7548C32.5658 23.0927 31.5979 23.2777 30.587 23.2777H33.8827C36.1244 23.2777 38.1536 22.3685 39.6227 20.8993C41.0919 19.4301 42.0003 17.4009 42.0003 15.1593C42.0002 13.2898 41.5217 11.5316 40.6801 10.0014V10.0014Z" fill="url(#paint5_linear_414_9680)"/>
<path d="M19.6398 7.92787H28.4272C30.8237 7.92787 33.4394 8.86867 35.851 10.1133C39.2512 11.868 42.4957 7.46587 39.7968 4.75374C36.8749 1.81745 32.8297 0 28.3601 0H19.707C15.2374 0 11.1922 1.81745 8.27025 4.75366C5.57129 7.46579 8.81584 11.8679 12.216 10.1132C14.6277 8.86867 17.2433 7.92787 19.6398 7.92787V7.92787Z" fill="url(#paint6_linear_414_9680)"/>
<path d="M39.7974 4.75325C37.3165 2.26026 34.0259 0.573671 30.3532 0.121388C30.3532 0.121388 30.3517 0.121388 30.3496 0.121471C29.6977 0.0410941 29.0343 0 28.3611 0H24.4114C22.8755 0.432353 21.6551 1.02941 20.7525 1.58118C18.804 2.77282 17.8668 4.01059 17.8281 4.06247C17.6239 4.33588 17.6799 4.72294 17.9533 4.92718C18.0645 5.00953 18.1938 5.04988 18.3223 5.04988C18.5108 5.04988 18.6961 4.96424 18.818 4.802C18.8491 4.76008 21.8584 0.839177 28.4654 0.627035C29.1756 0.604224 29.8853 0.715977 30.5533 0.957683L30.5635 0.961388C25.7615 1.51595 23.4141 4.28071 23.2982 4.42079C23.0812 4.683 23.1179 5.07055 23.3794 5.28838C23.4946 5.38432 23.6346 5.4311 23.7739 5.4311C23.9506 5.4311 24.1263 5.35566 24.2487 5.20973C24.2563 5.20067 25.0258 4.29438 26.5569 3.47077C28.0098 2.68932 29.6243 2.24058 31.3763 2.12833C32.465 2.05858 33.5489 2.36485 34.4363 2.99921L34.4497 3.00877C29.4146 3.19562 26.8091 5.9393 26.6828 6.07575C26.4516 6.32553 26.4668 6.71448 26.7158 6.94647C26.8346 7.05707 26.9855 7.11175 27.1362 7.11175C27.3014 7.11175 27.4664 7.04604 27.588 6.91617C27.5962 6.9076 28.4147 6.0452 29.9891 5.30773C31.6022 4.55214 33.382 4.19506 35.2981 4.23813C35.7479 4.24826 36.1791 4.4296 36.4966 4.74839C36.4983 4.75004 36.4999 4.75168 36.5016 4.75333C38.2771 6.53751 37.4803 9.05281 35.7593 10.0658C35.7901 10.0815 35.8209 10.097 35.8516 10.1129C39.2518 11.8675 42.4964 7.46538 39.7974 4.75325V4.75325Z" fill="url(#paint7_linear_414_9680)"/>
<path d="M19.7072 8.2353e-05C19.6968 8.2353e-05 19.6865 8.2353e-05 19.6761 8.2353e-05C17.9959 0.00321177 16.3781 0.654788 15.1511 1.80262C13.9068 2.9666 13.3693 3.98901 13.3232 4.07894C13.1692 4.382 13.2894 4.75259 13.5916 4.90824C13.6814 4.95435 13.7778 4.97659 13.8733 4.97659C14.0965 4.97659 14.313 4.85388 14.4226 4.64224C14.4283 4.63153 14.9826 3.57988 16.2978 2.44259C17.6187 1.30035 19.1966 0.482588 21.0059 0H19.7072V8.2353e-05Z" fill="url(#paint8_linear_414_9680)"/>
<path d="M27.8146 41.9999H8.11769C3.6344 41.9999 0 38.3655 0 33.8822C0 27.9598 4.80109 23.1587 10.7234 23.1587H25.2089C31.1313 23.1587 35.9323 27.9598 35.9323 33.8821C35.9323 38.3655 32.2979 41.9999 27.8146 41.9999Z" fill="url(#paint9_linear_414_9680)"/>
<path d="M27.2701 36.716C27.869 36.716 28.3545 36.2306 28.3545 35.6317C28.3545 35.0328 27.869 34.5474 27.2701 34.5474C26.6713 34.5474 26.1858 35.0328 26.1858 35.6317C26.1858 36.2306 26.6713 36.716 27.2701 36.716Z" fill="url(#paint10_linear_414_9680)"/>
<path d="M14.9586 32.6411C14.3597 32.6411 13.8743 33.1266 13.8743 33.7255C13.8743 34.3243 14.3597 34.8098 14.9586 34.8098C15.5575 34.8098 16.0429 34.3243 16.0429 33.7255C16.0429 33.1266 15.5575 32.6411 14.9586 32.6411Z" fill="url(#paint11_linear_414_9680)"/>
<path d="M9.07238 30.4722C8.47351 30.4722 7.98804 30.9576 7.98804 31.5565C7.98804 32.1554 8.47351 32.6409 9.07238 32.6409C9.67125 32.6409 10.1567 32.1554 10.1567 31.5565C10.1566 30.9576 9.67117 30.4722 9.07238 30.4722Z" fill="url(#paint12_linear_414_9680)"/>
<path d="M7.58321 39.3007C8.72309 39.3007 9.64714 38.3767 9.64714 37.2368C9.64714 36.0969 8.72309 35.1729 7.58321 35.1729C6.44334 35.1729 5.51929 36.0969 5.51929 37.2368C5.51929 38.3767 6.44334 39.3007 7.58321 39.3007Z" fill="url(#paint13_linear_414_9680)"/>
<path d="M34.6123 28.7241C32.7898 25.4069 29.2618 23.1587 25.2093 23.1587H10.7234C7.76278 23.1587 5.08137 24.3586 3.14114 26.2996C2.42549 27.0153 1.81114 27.8306 1.32031 28.7241C1.83584 30.6042 3.95972 32.0256 6.14867 30.8958C8.56078 29.6514 11.1763 28.7101 13.5728 28.7101H22.3598C24.7563 28.7101 27.3718 29.6514 29.784 30.8958C30.0474 31.0316 30.3099 31.1306 30.5689 31.1964C31.7698 31.5011 32.6275 32.5637 32.6364 33.8027C32.6366 33.8291 32.6367 33.8555 32.6367 33.8819C32.6367 35.1132 32.3622 36.2802 31.8716 37.3257C31.4752 37.0105 30.9663 36.8305 30.4145 36.8575C29.3218 36.911 28.4254 37.7955 28.3587 38.8875C28.3455 39.1036 28.3639 39.3133 28.4099 39.5125C28.5999 40.3361 28.1811 41.1783 27.3907 41.4775C26.498 41.8154 25.5302 42.0003 24.5192 42.0003H27.815C30.0566 42.0003 32.0858 41.0912 33.555 39.622C35.0242 38.1528 35.9325 36.1236 35.9325 33.882C35.9324 32.0125 35.454 30.2542 34.6123 28.7241V28.7241Z" fill="url(#paint14_linear_414_9680)"/>
<path d="M13.5728 26.6504H22.3601C24.7566 26.6504 27.3723 27.5912 29.7839 28.8358C33.1841 30.5905 36.4287 26.1884 33.7297 23.4763C30.8077 20.5401 26.7627 18.7227 22.2929 18.7227H13.6399C9.17025 18.7227 5.12507 20.5401 2.20311 23.4763C-0.495845 26.1884 2.7487 30.5905 6.14888 28.8358C8.56059 27.5913 11.1762 26.6504 13.5728 26.6504V26.6504Z" fill="url(#paint15_linear_414_9680)"/>
<path d="M33.7301 23.4759C31.2492 20.9828 27.9585 19.2963 24.2858 18.844C24.2858 18.844 24.2843 18.844 24.2822 18.8441C23.6303 18.7638 22.9669 18.7227 22.2937 18.7227H18.344C16.8082 19.155 15.5877 19.7521 14.6851 20.3038C12.7366 21.4955 11.7995 22.7333 11.7608 22.7851C11.5565 23.0585 11.6125 23.4456 11.8859 23.6498C11.9971 23.7322 12.1264 23.7725 12.2549 23.7725C12.4435 23.7725 12.6288 23.6869 12.7506 23.5247C12.7817 23.4828 15.791 19.5618 22.398 19.3497C23.1082 19.3269 23.8179 19.4386 24.4859 19.6803L24.4961 19.684C19.6941 20.2386 17.3468 23.0034 17.2308 23.1435C17.0138 23.4057 17.0505 23.7932 17.312 24.011C17.4272 24.107 17.5672 24.1538 17.7065 24.1538C17.8832 24.1538 18.0589 24.0783 18.1813 23.9324C18.1889 23.9233 18.9584 23.017 20.4895 22.1934C21.9424 21.412 23.5569 20.9632 25.309 20.851C26.3976 20.7812 27.4815 21.0875 28.369 21.7219L28.3823 21.7314C23.3472 21.9183 20.7417 24.662 20.6154 24.7984C20.3843 25.0482 20.3994 25.4372 20.6484 25.6691C20.7672 25.7797 20.9182 25.8344 21.0689 25.8344C21.2341 25.8344 21.399 25.7687 21.5206 25.6388C21.5288 25.6303 22.3473 24.7679 23.9217 24.0304C25.5349 23.2748 27.3146 22.9177 29.2307 22.9608C29.6805 22.9709 30.1117 23.1523 30.4293 23.4711L30.4342 23.476C32.2097 25.2602 31.4129 27.7755 29.692 28.7884C29.7227 28.8042 29.7536 28.8197 29.7842 28.8355C33.1844 30.5902 36.4289 26.1881 33.7301 23.4759V23.4759Z" fill="url(#paint16_linear_414_9680)"/>
<path d="M13.6397 18.7227C13.6293 18.7227 13.619 18.7227 13.6086 18.7227C11.9284 18.7259 10.3106 19.3774 9.08357 20.5253C7.8393 21.6892 7.30178 22.7116 7.25566 22.8016C7.10166 23.1046 7.2219 23.4752 7.52413 23.6309C7.6139 23.677 7.71025 23.6992 7.80578 23.6992C8.02895 23.6992 8.24554 23.5765 8.35507 23.3649C8.36084 23.3542 8.91507 22.3025 10.2302 21.1652C11.5512 20.023 13.1291 19.2052 14.9384 18.7227H13.6397V18.7227Z" fill="url(#paint17_linear_414_9680)"/>
</svg>
